<?xml version="1.0" encoding="utf-8"?>
<!-- Generator: Adobe Illustrator 24.0.2, SVG Export Plug-In . SVG Version: 6.00 Build 0)  -->
<svg version="1.1" id="Layer_1" xmlns="http://www.w3.org/2000/svg" xmlns:xlink="http://www.w3.org/1999/xlink" x="0px" y="0px"
	 viewBox="0 0 587.5 586.3" style="enable-background:new 0 0 587.5 586.3;" xml:space="preserve">
<style type="text/css">
	.st0{fill:#6B757D;}
</style>
<title>Ib logo</title>
<path class="st0" d="M122.8,202.9c2.6-7.8,6.2-15.2,10.8-22c7.5-11.1,16.4-20.9,26-30.1c19.4-18.8,42.6-33.2,68.1-42.2
	c17.4-6,35.5-9.6,53.8-10.7c24.2-1.6,48,0.7,71.3,7.8c26.2,8.1,49.4,21.8,70,39.8c17.9,15.6,33.1,33.5,44.5,54.5
	c10.6,19.6,17.6,40.9,20.6,62.9c1.6,11.3,2.4,22.7,2.4,34.1c-0.4,44.3-14.2,84-42.2,118.5c-17.8,21.9-38.7,40.1-63.8,53.2
	c-19.9,10.5-41.6,17.1-64,19.6c-27.9,3.1-55.5,1.6-82.7-6c-26.4-7.4-50.7-20.7-71.2-38.8c-16.7-14.6-31.1-31.2-42.4-50.3
	c-8.5-14.3-14.6-29.7-19.6-45.6c-0.5-1.3-0.7-2.6-0.8-4c-0.1-2.1,0.5-3.1,2.6-3.6c2.5-0.5,5-0.7,7.5-0.6c20-0.5,39.6-4,58.8-9.5
	c10.3-3,20.5-6.5,30.5-10.6c5.8-2.3,7.6-4.9,7.5-11c-0.3-22,0-43.9-0.2-65.9c0-1.6-0.2-3.1-0.5-4.6c-1-6.3-4.6-10.4-10.6-12.4
	c-3.7-1.2-7.4-2.3-11.4-2c-0.5,0-1.1,0-1.6-0.1c-2.7-0.4-3.7-1.5-3.6-4.2s1.3-4.1,3.9-4.2c2.9-0.1,5.8,0.2,8.8-0.1
	c14.1-1.2,28.3-1.8,42.3-4.4c3-0.5,6-1.2,9-1.9c4.3-0.9,6.1,0.4,6.2,4.9c0,1.7,0,3.5,0,5.2c0,31.8,0,63.7,0.1,95.5
	c0,13.3,0.1,26.6-0.2,39.8c-0.3,12.3-1,24.5-2.2,36.7c-0.3,2.9,0.7,5,3.3,6.4c16.3,8.1,32.9,15.1,50.9,18.6
	c20.7,4,41.1,2.8,60.6-5.3c21.7-9,36.8-24.8,41.4-48.1c4.4-22,0.4-43-14.3-60.8c-10.2-12.5-23.9-19.4-39.5-22.7
	c-17.5-3.7-34-0.1-49.8,7.5c-2,1-4.1,2-6.1,2.9c-2.5,1.1-3.5,0.6-3.8-2c-2.1-16.6,0.7-31.7,12.3-44.6c23.7-26.5,39.7-57.3,49.9-91.2
	c2.1-6.8,3.8-13.7,5.4-20.6c0.2-0.9,0.4-1.8,0.5-2.6c0.4-4.3-1-6.6-4.9-8.4c-3-1.3-6.1-2.3-9.3-3.2c-22.2-6.9-44.9-10.3-68.1-9.2
	c-24.1,1.2-47.7,7.2-69.5,17.5C187,135.2,167,149,150,167.1c-9.4,10-17.6,21-24.6,32.8C124.8,201.1,123.9,202.1,122.8,202.9z"/>
<path class="st0" d="M362.2,350c0.5,11.4-0.7,22.9-3.5,34c-4.7,18-19.1,25.9-36.3,24.5c-15-1.3-25.1-11-28.4-25.7
	c-3-12.7-4.3-25.8-3.8-38.8c0.3-9.7,1.9-19.3,4.5-28.6c3.8-13.2,12.9-20.5,26.2-22.6c6-1.1,12.3-0.7,18.1,1.3
	c8.8,3.1,14.4,9.4,17.9,17.7c2.8,6.4,3.9,13.1,4.7,20C362.2,337.8,362.4,343.9,362.2,350z"/>
<path class="st0" d="M253.1,579.9c5.2,0.3,10.5,0.5,15.7,0.8c11.1,0.5,22.1,0.5,33.2,0.1c11.5-0.4,23-1.4,34.5-3
	c56-7.9,105.9-29.3,147.8-67.9c24.9-22.9,44.8-49.7,61-79.3c14.8-26.8,25.9-54.9,32.2-84.9c3-14.2,4.7-28.5,5.3-43
	c1.7-44.4-8.3-86.3-26.4-126.5c-9.8-21.3-21.4-41.7-34.8-61c-0.6-0.7-1-1.6-1.2-2.4c1.7,1.9,3.3,3.8,5,5.7
	c12.3,13.8,23.2,28.6,31.9,45c10.2,19.8,17.7,40.9,22.4,62.6c5.1,22.6,7.8,45.7,7.9,68.9c0.2,41.7-8.9,83-26.6,120.8
	c-13.2,28.8-30.9,55.4-52.4,78.7c-23.3,24.9-50.7,45.5-81.2,60.8c-21.9,11.2-44.8,19.9-68.9,25.3c-14.9,3.3-30.2,5.3-45.5,5.8
	c-19.6,0.6-39.1-0.8-58.2-5.5l-1.7-0.5L253.1,579.9z"/>
<path class="st0" d="M54.2,460.6c-3.3-2.4-6.1-5.3-8.3-8.7c-7.9-11.1-13.8-23.4-19-35.9c-10.5-24.5-18.3-50-23.4-76.2
	c-1.8-10.2-2.9-20.5-3.2-30.8c-1.4-34,2.1-67.4,11.9-100c10.9-36.3,28.7-70.2,52.6-99.7c36.1-45,81.9-76.4,136.5-94.7
	c21.1-7.1,43-11.6,65.2-13.5c14.8-1.3,29.6-1.4,44.4-0.2c0.7,0,1.4,0.2,2.1,0.5c-4.1,0.3-8.2,0.5-12.3,0.9
	c-36.9,3-73.2,8.9-108.1,21.9c-32.5,12.2-62.4,30.2-88.3,53.2c-26.6,23.4-48.6,50.5-65.2,82c-12.6,24.1-21.7,49.9-27.1,76.5
	c-4,19.1-6.1,38.6-6.2,58.1c0.1,30.4,5,60.7,14.5,89.6c6.7,20.3,14.8,40.2,24.2,59.4c2.7,5.5,5.7,10.9,8.9,16.2
	C53.7,459.6,54,460.1,54.2,460.6z"/>
<path class="st0" d="M49.4,296c-1.1-18.2,0.4-36.5,4.5-54.4c3-13.4,6.9-26.6,11.9-39.5c1.6-4.1,2.8-8.2,2.1-12.8
	c-0.5-3.5,1.9-6.1,5.6-6.6c3.5-0.5,6,1.1,7,4.6s-0.2,6.4-3.6,7.7s-5.5,3.9-6.9,7.1c-4.7,11.3-8.5,22.9-11.4,34.8
	c-5.2,21.6-7.3,43.8-6.4,66c1.2,33.3,8.6,65,23.3,95c9.8,19.8,22.3,38.1,37.1,54.4c14,15.8,29.9,29.8,47.3,41.7
	c24.4,16.5,51.8,28.1,80.6,34.1c21.2,4.5,42.8,6.3,64.4,5.3c41.4-1.5,81.7-14.4,116.3-37.2c15.7-10.1,30.2-21.9,43.2-35.1
	c10.3-10.7,19.7-22.1,28.3-34.1c2-2.6,2.8-5.9,2.2-9.1c-0.5-3.3,0.8-5.9,3.4-7.1c2.2-1,4.4-1.4,6.5,0.2c2.2,1.8,2.5,4.4,2.4,7
	c0,2.4-1.7,4.5-4.1,5c-3.2,0.7-5.2,2.7-6.9,5.3c-9,13.4-19.3,25.9-30.8,37.4c-25.8,25.8-57.1,45.4-91.5,57.3
	c-20.1,7-41.1,11.4-62.3,13.1c-31.9,2.6-63.2-0.5-93.7-10.5c-20.6-6.7-39.7-16.4-57.8-28.1c-28.3-18.3-52.3-40.9-71-69.1
	c-17.3-26-28.6-54.5-35.1-84.9c-2.1-9.6-4.1-19.3-4.5-29.2C49.2,308.3,49.4,302.1,49.4,296z"/>
<path class="st0" d="M228.4,194.4c-16.1-0.1-28.5-12.3-28.3-27.9c0.2-17.1,12.3-29.3,29.1-29.1c15.4,0.3,27.8,12.9,27.7,28.3
	C256.7,181.6,243.9,194.5,228.4,194.4z"/>
<path class="st0" d="M109.7,122l9.8,16.5c1.4,2.3,2.8,4.6,4.1,6.9c0.9,1.3,1.1,3,0.6,4.5c-1.2,3.1-3.9,4.1-6.8,2.4l-28-16
	c-1.6-1-3.3-1.9-5.1-2.6c-1.5-0.6-2.6-1.5-2.1-3.4c0.4-1.8,2-3.1,3.9-3c1.5,0.2,2.9,0.8,4.1,1.6c7,4,13.9,8,21.3,11.1
	c0.6,0.4,1.3,0.6,2,0.6c-0.1-0.7-0.4-1.4-0.9-1.9c-4.4-7.2-8.9-14.3-13.4-21.5c-1.6-2.6-1.5-4.5,0.3-6.3s3.6-2.1,6-0.5
	c6.9,4.4,14.2,8.2,21.2,12.4c1.7,1.1,3.5,2,5.4,3.1c0-0.6-0.2-1.1-0.6-1.6c-5.1-8.2-10.3-16.3-15.4-24.4c-0.4-0.6-0.8-1.3-1.2-2
	c-1.1-2.3-0.5-4.1,1.7-5.2c2-1,3.3-0.4,4.6,1.9c6.1,10.6,12.2,21.1,18.4,31.6c0.5,0.8,1,1.7,1.4,2.5c0.9,1.7,0.6,3.7-0.8,5
	c-1.3,1.5-3.3,1.9-5.1,1.1c-1.1-0.5-2.2-1-3.2-1.7c-6.4-4-13.1-7.5-19.9-10.6c-0.7-0.3-1.4-0.6-2.1-0.9L109.7,122z"/>
<path class="st0" d="M494.9,203.2c-1.3,0-2.5-0.8-2.9-2.1c-0.6-1.2-0.3-2.6,0.7-3.5c1-0.8,2.1-1.5,3.4-2c3-1.3,5.8-2.9,8.5-4.7
	c2.5-1.8,3-3.5,1.9-6.4c-1.4-3.3-3.1-6.5-5.2-9.4c-2.1-3-4.3-3.5-7.4-1.7s-6.5,3.7-9.8,5.2c-1.2,0.8-2.8,0.6-3.8-0.5
	c-1.7-1.8-1.4-3.8,0.8-5.1c4.3-2.4,8.6-4.7,12.9-7c6.8-3.7,13.6-7.3,20.4-11c1.3-0.7,2.7-1.1,4,0c1.4,1,1.8,3,0.7,4.4
	c-0.3,0.4-0.6,0.7-1,0.9c-2.3,1.6-4.8,2.9-7.4,4c-4.4,2-5,3.4-3.2,8c1.4,3.8,3.8,7.2,5.8,10.7c0.9,1.6,2.4,1.8,4.6,0.7
	c2.7-1.3,5.3-2.7,8-4.1c0.7-0.4,1.4-0.7,2.1-1c1.3-0.7,2.9-0.2,3.6,1.1c0.9,1.3,0.8,3-0.3,4.1c-0.6,0.7-1.4,1.2-2.2,1.6l-31,16.5
	C497.1,202.7,496,203,494.9,203.2z"/>
<path class="st0" d="M421.2,113.6c-2.8-0.1-5.5-1-7.8-2.5c-2.9-1.7-5.5-4-7.6-6.7c-0.4-0.5-0.8-1.1-1-1.7c-0.5-1.5,0.2-3.1,1.6-3.8
	c1.4-0.8,2.5-0.3,3.5,0.8c1.3,1.4,2.3,3.1,3.7,4.4c1.5,1.5,3.5,2.6,5.6,3.1c3.5,1,7.1-1,8.1-4.5c0.3-1.1,0.3-2.3,0.1-3.4
	c-0.5-1.8-1.3-3.6-2.3-5.2c-1.4-2.3-2.6-4.6-3.7-7c-1.7-4.1-1.8-8.2,1.1-11.9s6.9-4.9,11.5-4.2c4.1,0.5,7.9,2.3,10.8,5.2
	c1,1,1.7,2.2,1.9,3.6c0.3,1.1-0.2,2.2-1.1,2.8c-0.9,0.6-2.1,0.4-2.8-0.3c-1.9-1.4-3.5-3.2-5.7-4.4s-4.5-1.6-6.8,0
	c-2.8,1.9-3.6,4.4-2.2,7.5c1.2,2.5,2.8,4.9,4.2,7.3c1.7,3,3,6.1,2.5,9.7C433.6,108.9,428.3,113.5,421.2,113.6z"/>
<path class="st0" d="M475.7,109.5c7.9,0.4,15.2,5,19.7,13.9c0.9,1.8,0.5,3.1-1,4c-1.5,0.9-2.4,0.5-3.6-1.1c-2.1-3-4.7-5.6-7.7-7.7
	c-5.7-4-11.5-4-17.1,0c-3,2.1-5.5,4.7-7.4,7.7c-3.1,4.5-3.2,10.5-0.1,15c1.4,2.2,3.2,4.3,5.3,6c0.9,0.8,1.8,1.6,2.7,2.3
	c1.2,0.8,1.5,2.3,0.7,3.5c0,0,0,0,0,0c-0.6,1.2-2.2,1.7-3.4,1.1c-0.1,0-0.1-0.1-0.2-0.1c-5.1-2.3-9.2-6.4-11.5-11.6
	C444.9,126.9,456.3,109.5,475.7,109.5z"/>
<path class="st0" d="M498.2,370.1c0-0.8,0.2-1.7,0.6-2.4c2.1-4.1,3.1-8.6,4.4-13.1c1.4-5.1,2.5-5.8,7.6-4.2
	c11.1,3.4,22.1,7,33.2,10.5c1.5,0.5,2.8,1.1,3,2.9c0.2,3-1.8,4.5-4.8,3.6c-9.3-2.9-18.6-5.7-27.9-8.6c-4-1.2-5.2-0.5-7,3.3
	c-1.2,2.8-1.6,5.7-2.5,8.6c-0.7,2.3-1.9,3-4,2.6c-1.6-0.1-2.7-1.5-2.6-3.1C498.2,370.3,498.2,370.2,498.2,370.1z"/>
<path class="st0" d="M279.7,50.1c0,3.8,0.1,6.6,0,9.4c-0.2,6.5,2.3,9.7,10.2,9c1.7-0.3,3.3-0.5,5-0.6c2,0.1,3,1,3.1,2.8
	c0.2,1.3-0.7,2.6-2,2.8c-0.3,0-0.5,0-0.8,0c-5.9-0.2-11.8,0.6-17.7-0.2c-2.3-0.3-3.4-1.7-3.9-4.5c-0.4-3-0.6-5.9-0.6-8.9
	c-0.3-7.8-0.9-15.6-0.8-23.5c-0.1-1.4,0.1-2.9,0.4-4.3c0.4-1.6,1.9-2.6,3.6-2.3c1.4,0,2.6,1.1,2.6,2.6c0,0,0,0.1,0,0.1
	C279.1,38.7,279.4,44.9,279.7,50.1z"/>
<path class="st0" d="M551.6,236.4c-2-10.3-10.2-16.7-21.5-16.7c-4.8-0.1-9.6,1-13.8,3.3c-7.9,4.5-11.8,11.2-10.8,20.3
	c1,8.7,5.9,14.4,14,17.1c7.3,2.5,15.3,1.7,21.9-2.2C549.2,254,553.4,245.2,551.6,236.4z M541,249.2c-4.4,3.6-10,5.4-15.7,4.9
	c-1.4,0-2.7-0.1-4.1-0.3c-5.2-1-8.2-4.4-9.5-9.4c-1.3-4.8,0-9,3.9-12c6.4-5,13.5-7.6,21.7-4.7c4.6,1.6,7.5,4.6,8.3,9.5
	C546.6,241.7,544.8,246.4,541,249.2z"/>
<path class="st0" d="M362.3,53.4c-0.3-9.6-4.3-15.3-13.2-18.6c-2-0.8-4.1-1.3-6.2-1.7c-2.3-0.4-4.6-0.8-6.9-1.2
	c-4.5-0.9-6.4,0.3-7.4,4.9c-1,4.7-2.1,9.4-3.2,14.2c-1.3,6-2.9,11.8-3.5,17.9c-0.4,4.9,1.4,7.5,6.2,8.4c3.5,0.6,7.1,0.8,10.7,0.7
	h3.8c5,0.1,9.9-2,13.2-5.9C360.3,67,362.7,60.3,362.3,53.4z M349.6,68.5c-4.6,4.3-10,5.4-16,3.7c-3.5-1-4.9-3.4-4.2-7
	c1.5-7.6,3-15.1,4.6-22.7c0.8-3.8,3-5.3,6.9-4.6c7.5,1.2,12.9,5.9,14.3,12.3c0.2,1,0.3,2,0.3,3C355.4,59.5,353.8,64.6,349.6,68.5z"
	/>
<path class="st0" d="M543.6,288.7c-5.7-1.9-11.7-2.2-17.5-0.9c-3.4,0.7-6.6,2.3-9.1,4.7c-4.8,4.5-6.2,10.1-5.8,16.5
	c0.5,8.4,4.7,14,12.5,16.9c4.2,1.5,8.6,2.2,13,2c1,0,2,0.1,3,0c4.3-0.3,8.5-1.1,11.7-4.4C562.5,311.9,558.1,293.6,543.6,288.7z
	 M546.9,317.3c-7.4,5.9-20.7,4.9-27.2-2c-4-4-4.3-10.5-0.8-14.9c6.8-9,23.1-9.1,30,0c1.7,2.2,2.6,4.9,2.6,7.7
	C551.5,311.7,549.8,315.1,546.9,317.3z"/>
<path class="st0" d="M193.9,78.6c-2.6-11.4-11.8-19.1-22.6-19.1c-1,0-2,0.1-3,0.2c-7.5,0.7-13.2,5.1-15,12.1c-2.4,9.1-1,17.6,5,25
	c8.1,10,22.6,10.9,31.1,1.9C194.7,92.9,195.5,86,193.9,78.6z M175.9,98.5c-2.3,0.1-4.6-0.5-6.7-1.6c-7.8-4.3-12-13-10.5-21.8
	c1.3-8.1,11.1-12.5,18-8.2c6.4,4,9.8,10,11.3,17.2C189.2,90,184.3,99,175.9,98.5z"/>
<path class="st0" d="M250.8,73.8c-2.9-4.4-4.9-9.3-8.6-13.2c-1.9-1.8-2.4-4.6-1.2-6.9c0.9-1.8,1.4-3.8,1.4-5.8
	c0-6.7-5.4-12.1-12.1-12.1c-0.8,0-1.6,0.1-2.4,0.2c-3,0.6-6,1.3-8.9,2c-5.1,1.2-6.9,4.1-5.7,9.3c0.1,0.5,0.3,1,0.4,1.6
	c2.9,10,6.1,19.9,8,30.1c0.1,0.7,0.4,1.4,0.7,2c0.5,1,1.5,1.6,2.6,1.6c3.3,0.1,4.9-1.8,3.7-4.9c-1.1-3.1-1.9-6.3-2.5-9.5
	c-0.4-1.7-0.2-3.3,1.3-4.5c2.4-1.9,5.8-2,8.2-0.1c1.3,1,2.4,2.3,3.3,3.7c1.8,2.7,3.5,5.4,5.2,8.2c0.4,0.7,0.9,1.3,1.6,1.7
	c1.5,0.8,3.4,0.6,4.7-0.6C251.3,75.9,251.5,74.7,250.8,73.8z M229.9,57.1c-4.8,1.1-7.6-0.7-8.4-5.6c-0.2-1.5-0.5-3.1-0.6-4.6
	c-0.4-1.8,0.8-3.6,2.7-4c1.6-0.4,3.3-0.6,5-0.6c4.2-0.1,6.8,2.2,7.3,6C236.5,52.2,233.9,56,229.9,57.1L229.9,57.1z"/>
</svg>
