<svg id="Layer_1" data-name="Layer 1" xmlns="http://www.w3.org/2000/svg" viewBox="0 0 460.32 593.76"><defs><style>.cls-1{fill:#6c757d;}.cls-2{fill:#fefefe;}.cls-3{fill:#fcfbfb;}.cls-4{fill:#fcfdfd;}.cls-5{fill:#fcfcfc;}.cls-6{fill:#fafafb;}.cls-7{fill:#fafafa;}.cls-8{fill:#fbfbfc;}.cls-9{fill:#fafbfb;}.cls-10{fill:#fdfdfd;}.cls-11{fill:#6d757d;}.cls-12{fill:#6d767d;}</style></defs><title>Nanyang_Technological_University logo</title><path class="cls-1" d="M913.32,87.6c-.53-1-1.46-.45-2.16-.45q-229.08,0-458.16,0V410.31l.55-.05c.79,2.21.55,4.56.73,6.83,1.38,17.92,5.62,35.2,11.4,52.15A246.07,246.07,0,0,0,482,506.45a397.51,397.51,0,0,0,50.25,72.33C539.81,587.52,547.71,596,556,604a443.12,443.12,0,0,0,57.25,46.62,237,237,0,0,0,32.41,18.93c8.07,3.83,16.29,7.33,25,9.4a54.06,54.06,0,0,0,9.2,1.46,1.08,1.08,0,0,1,.84.35h6.72a1.72,1.72,0,0,1,1-.27c2-.46,4-.53,6-.92,7.18-1.4,13.85-4.27,20.49-7.17A238.75,238.75,0,0,0,749,653.53a397.77,397.77,0,0,0,48.24-37.23c8.44-7.56,16.64-15.39,24.5-23.55a421.39,421.39,0,0,0,42.63-51.52,337.74,337.74,0,0,0,27.36-46.3,235.71,235.71,0,0,0,19.35-56.63A85.55,85.55,0,0,0,913,422.19c0-.61-.2-1.29.35-1.81ZM901.1,456.13a260.57,260.57,0,0,1-14,35.82,302.41,302.41,0,0,1-22.2,38.84A412.81,412.81,0,0,1,834,571c-5.22,6-10.63,11.88-16.15,17.65a410.57,410.57,0,0,1-54,47.2,322.87,322.87,0,0,1-36.35,23.55A156.62,156.62,0,0,1,697.33,672c-9.75,2.92-19.37,2.23-29-.55a144.62,144.62,0,0,1-22-8.68c-17.07-8.17-32.73-18.57-47.74-30q-13.43-10.23-26.05-21.43c-3.76-3.33-7.41-6.78-11-10.26s-7.43-7.23-11-11A405.83,405.83,0,0,1,520.81,556a377.5,377.5,0,0,1-27-39.5,269.83,269.83,0,0,1-24.93-54.78,198.76,198.76,0,0,1-8.84-40.57c-.42-4.12-.69-8.24-1-12.37-.46-6.55-.24-13.09-.25-19.64q-.06-68.08,0-136.18c0-3.73,0-3.73,3.68-3.73h50.83c.64,0,1.28,0,1.92,0,1.2,0,1.71.69,1.86,1.75a9.86,9.86,0,0,1,0,1.44c0,6.23.1,12.47,0,18.7-.06,2.46-.31,4.93-.28,7.4,0,3,.31,3.32,3.28,3.3,6.63,0,13.26-.18,19.89-.17,13,0,26,.12,39.07.18a15.47,15.47,0,0,0,2.15-.09,1.34,1.34,0,0,0,1.29-1.44c0-.64,0-1.28,0-1.92q0-13.06,0-26.13c0-2.84.17-3,3-3h61.14c.48,0,1,0,1.43,0a1.52,1.52,0,0,1,1.53,1.53c0,.72,0,1.44,0,2.16q0,12.58,0,25.17c0,.56,0,1.12,0,1.68.09,1.6.37,1.9,2,2,.63.05,1.28,0,1.91,0,14.47-.06,28.93-.15,43.39-.18,4.71,0,9.42.12,14.13.18.56,0,1.12,0,1.68,0,1.94-.11,2.3-.48,2.4-2.48,0-.47,0-.95,0-1.43,0-6.16,0-12.31,0-18.46a57.34,57.34,0,0,0-.24-7.17c-.3-2.35.67-3.11,2.74-3.1,20.94.07,41.88,0,62.82,0,2.54,0,2.8.31,2.79,3v26.37c0,.4,0,.81,0,1.2.11,1.61.43,2,2,2,3.91.05,7.83,0,11.74,0,.8,0,1.59-.13,2.39-.13,11,0,22.06-.09,33.08,0,4.31.05,8.62.14,12.94.14,2.58,0,3.29-.59,3-3.06-.5-4.06-.18-8.12-.25-12.19-.07-4.63,0-9.27,0-13.9,0-3,.14-3.14,3.08-3.16h56.82c1,0,1.49.42,1.47,1.43,0,.72,0,1.44,0,2.16v78.16c0,22.62-.12,45.23,0,67.85A190.77,190.77,0,0,1,901.1,456.13Z" transform="translate(-453 -87)"/><path class="cls-2" d="M720.94,199.14c1.85,2,3.64,3.91,5.44,5.81,1,1,2,2,3,3.05,2.38,2.45,2.62,4.74.73,7-2.35,2.77-5.27,3.22-8,1.13a18.57,18.57,0,0,1-3-2.78c-1.4-1.66-3-3.13-4.49-4.66s-1.48-1.46-3.1-.2A45.72,45.72,0,0,1,697.05,216c-1.67.52-3.39.87-5.09,1.34s-1.92.92-1.82,2.71a39,39,0,0,1-.2,9.77,5.35,5.35,0,0,1-5.82,4.52c-3-.25-4.8-2.21-4.86-5.45-.06-2.87,0-5.75,0-8.63,0-2.23-.17-2.45-2.4-2.67a44,44,0,0,1-13.53-3.79,52.84,52.84,0,0,1-7-4.05c-1.74-1.13-1.76-1.13-3.22.31s-2.93,3-4.42,4.4a17.86,17.86,0,0,1-2,1.7,5.42,5.42,0,0,1-7.12-8.15c1.83-1.9,3.73-3.73,5.58-5.6,1.38-1.39,1.4-1.43.31-2.93a50.56,50.56,0,0,1-9.16-21.11c-.34-1.93-.49-2-2.52-2l-8.14-.14c-2.61,0-5.1-1.84-5.05-5.51.06-3.46,2-5.09,5-5.33,2.54-.2,5.11-.07,7.67,0s2.73.06,3.24-2.62a55.93,55.93,0,0,1,3.89-12.52,42.56,42.56,0,0,1,4.6-7.82c1.48-2,1.46-2-.2-3.71a72.68,72.68,0,0,1-5.65-5.86,5.18,5.18,0,0,1,.65-7.29,4.62,4.62,0,0,1,5.31-1,13.93,13.93,0,0,1,4.05,2.91c1.16,1.11,2.25,2.27,3.4,3.39,1.77,1.71,2,1.73,4.1.47a57.77,57.77,0,0,1,9.79-5,40.71,40.71,0,0,1,10.2-2.45c2.53-.26,2.63-.39,2.64-2.92s0-4.95,0-7.43c0-4.15,1.94-6.66,5.15-6.72s5.56,2.61,5.56,6.66c0,2.72,0,5.43,0,8.15,0,2.16,0,2.23,2.16,2.67a58.91,58.91,0,0,1,7.85,2.08,37.76,37.76,0,0,1,12,6.83c1.25,1.07,1.3,1.06,2.49-.11,2.28-2.25,4.53-4.51,6.78-6.78a6.75,6.75,0,0,1,3.89-2.2,4.89,4.89,0,0,1,4.94,2.23,5,5,0,0,1,.59,5.4,11.19,11.19,0,0,1-2.3,3c-1.77,1.73-3.44,3.55-5.34,5.15s-2,2.23-.65,4.47c3.09,5.15,5.91,10.41,7,16.4.15.79.29,1.57.38,2.36.23,2.11.22,2.16,2.26,2.15,3.52,0,7,.37,10.53.34a5,5,0,0,1,5.44,5.13,4.7,4.7,0,0,1-3.35,5,12,12,0,0,1-4,.61q-3.95,0-7.91,0c-2.14,0-2.61.38-3,2.53-.48,2.34-1,4.66-1.71,7A37.32,37.32,0,0,1,720.94,199.14Z" transform="translate(-453 -87)"/><path class="cls-2" d="M519.87,168.4a12.85,12.85,0,0,1-2.51-4.58,5.1,5.1,0,0,1,.81-4.34,214.67,214.67,0,0,1,14.69-21.83A111.7,111.7,0,0,1,549.65,120,29.45,29.45,0,0,1,563,113.29c6.46-1.2,11.58,1.72,13.74,7.9a22.91,22.91,0,0,1,1.07,6.1c.56,7.94-1.13,15.5-3.54,23a166.54,166.54,0,0,1-20.81,43.19,143.43,143.43,0,0,1-17.62,21.4c-.34.34-.69.67-1,1a2,2,0,0,1-.52.19,29.68,29.68,0,0,0-2.51-3.73c-.84-.9-.1-1.58.5-2.24,2-2.25,4.12-4.46,6.1-6.75a145.63,145.63,0,0,0,17.44-25.41c5.32-9.66,10.1-19.57,13.08-30.24,1.76-6.29,3.34-12.64,3.16-19.27a16.78,16.78,0,0,0-.93-5.39c-1-2.68-3.64-5-7.41-3.8a32.36,32.36,0,0,0-9.59,5.26c-8.23,6.23-14.85,14-20.71,22.39a221,221,0,0,0-12.3,19.68C520.75,167.08,520.38,167.6,519.87,168.4Z" transform="translate(-453 -87)"/><path class="cls-2" d="M809.22,169c-1-2-1.86-3.63-2.66-5.26-.58-1.16-.07-2.18.52-3.14,2-3.33,4.08-6.67,6.19-10a149.6,149.6,0,0,1,16.05-21.11,76.8,76.8,0,0,1,13.18-11.76,26,26,0,0,1,8.65-4c4.1-.94,8.07-.83,11.45,2.26a14.44,14.44,0,0,1,4.26,8.37c1.07,5.51.39,10.93-.8,16.35A149.83,149.83,0,0,1,843.22,193a174.59,174.59,0,0,1-17.15,21.46c-.66.7-1.23,1.48-1.94,2.35-1.46-1.67-2-3.45-3.42-4.68-.69-.62.2-1.13.6-1.54,2.19-2.2,4.36-4.42,6.39-6.79a161.47,161.47,0,0,0,18.21-26.89,146.78,146.78,0,0,0,10.53-23,99.22,99.22,0,0,0,5-21.36,24.49,24.49,0,0,0-.32-7.39,9.89,9.89,0,0,0-1.44-3.52c-1.51-2.31-4-3.07-7-2.06a36.54,36.54,0,0,0-10.47,6.14,90.33,90.33,0,0,0-15.69,16.35,209.44,209.44,0,0,0-16.33,25.3C810,167.76,809.71,168.16,809.22,169Z" transform="translate(-453 -87)"/><path class="cls-2" d="M545.4,189.28c-1.43,2-2.55,3.54-3.62,5.1-.57.83-1.39.64-2.16.65a154.32,154.32,0,0,1-16.24-.73,150.06,150.06,0,0,1-22.17-3.55c-8.33-2-16.06-5.18-22.68-10.78a15.63,15.63,0,0,1-3.59-4.44,9.09,9.09,0,0,1-.15-8.72c2.28-4.72,6.1-7.91,10.57-10.39a61.92,61.92,0,0,1,12.44-4.91c2.2-.66,3-.23,3.91,1.88,1.51,3.56,1.45,3.69-2.26,4.63a52.45,52.45,0,0,0-14.59,5.84,12.47,12.47,0,0,0-4.21,3.83,5.1,5.1,0,0,0,.17,6,19.24,19.24,0,0,0,7.27,5.71,84.71,84.71,0,0,0,21.57,6.9A146.07,146.07,0,0,0,541,189.29C542.28,189.26,543.55,189.28,545.4,189.28Z" transform="translate(-453 -87)"/><path class="cls-2" d="M834.25,189.82c-2.45,5.4-4,5.68-8.65,5.46-4.93-.23-9.87-.36-14.78-.9-9.29-1-18.48-2.49-27.37-5.46a43.42,43.42,0,0,1-16.24-9.4c-4.46-4.18-5.43-9.07-2-14.39a26.19,26.19,0,0,1,10.64-9,61.43,61.43,0,0,1,12.54-4.61c1.65-.41,1.92-.23,2.45,1.34.34,1,.67,2,1,2.93s.07,1.66-1,1.95c-2,.54-4,1.11-6,1.74a44,44,0,0,0-11.08,5,13.39,13.39,0,0,0-2.79,2.24c-2.48,2.76-2.5,5.56,0,8.3a21.21,21.21,0,0,0,6.55,4.75,82,82,0,0,0,20,6.55,168.63,168.63,0,0,0,23,3.07c3.83.24,7.65.1,11.48.23A5.21,5.21,0,0,1,834.25,189.82Z" transform="translate(-453 -87)"/><path class="cls-2" d="M567.29,175.1c.9.52,1,1.39,1.26,2.1a135.13,135.13,0,0,1,8.37,27.38c1,5.71,1.24,11.4-1.12,16.92-2.67,6.3-7.53,8.63-14.12,6.72-5-1.45-9.23-4.3-13.24-7.5-2.12-1.68-4.17-3.47-6.2-5.26-1.41-1.25-1.38-1.69-.08-3.12,2.66-2.89,2.63-2.86,5.5-.08a52,52,0,0,0,11.2,8.52,11.6,11.6,0,0,0,6.12,1.81c4.13-.25,6.16-2.78,6.47-7a39.91,39.91,0,0,0-.65-11.43c-1.53-7.1-3.19-14.16-6.27-20.79a3,3,0,0,1,0-2.75Z" transform="translate(-453 -87)"/><path class="cls-2" d="M857,175.08c1.89,4.46,3.48,8.46,4.8,12.55,2,6.15,4.06,12.28,4.78,18.73.64,5.73.92,11.43-2,16.8-2.66,4.84-6.76,6.85-12.16,5.65a30.58,30.58,0,0,1-10.17-4.64,93.87,93.87,0,0,1-10.79-8.69c-1.13-1-1.12-1.47-.13-2.61.63-.72,1.38-1.35,1.93-2.12.68-.95,1.3-.7,1.95-.09,1.52,1.41,3,2.9,4.55,4.25,3.26,2.82,6.64,5.49,10.72,7.09a14.37,14.37,0,0,0,2.05.65,6.59,6.59,0,0,0,8.15-5.1c1-3.89.45-7.77-.21-11.62a89.62,89.62,0,0,0-6.47-22.2,3.22,3.22,0,0,1,.08-3.18C855,178.9,855.83,177.21,857,175.08Z" transform="translate(-453 -87)"/><path class="cls-2" d="M801,113.51a22.86,22.86,0,0,1,11.81,3.74,54.28,54.28,0,0,1,12.28,10.18,1.57,1.57,0,0,1,.1,2.43c-2.64,3.48-2.61,3.52-5.73.38a56.29,56.29,0,0,0-9.24-7.56,20,20,0,0,0-6.27-2.89c-4.25-1-7.45,1-8.44,5.22-.11.47-.13.95-.24,1.42s-.43,1.22-1,1.27a33.77,33.77,0,0,1-4.5.09c-.57,0-.67-.64-.61-1.13a22,22,0,0,1,2-7.57C793.49,114.94,797.32,113.79,801,113.51Z" transform="translate(-453 -87)"/><path class="cls-2" d="M513.27,113.3c3.25,0,6.07,1.31,8.79,2.84A59.66,59.66,0,0,1,534.68,126c.46.44.82,1,1.24,1.46a1.46,1.46,0,0,1,.06,2,11.18,11.18,0,0,1-.74.93c-1.9,2.12-2.58,2.16-4.67.13A56.4,56.4,0,0,0,520.22,122a21.48,21.48,0,0,0-5.68-2.49,6.53,6.53,0,0,0-8.25,4.6,3,3,0,0,1-.17.69c-.48.83.11,2-.8,2.64s-1.85-.21-2.8,0a11.76,11.76,0,0,1-1.19,0c-1,.09-1.48-.34-1.42-1.38.34-6.08,3-11.41,10.5-12.51C511.35,113.4,512.32,113.38,513.27,113.3Z" transform="translate(-453 -87)"/><path class="cls-2" d="M518.79,226.86a14.79,14.79,0,0,1-9.68,1.08,8.84,8.84,0,0,1-5.42-4,19.2,19.2,0,0,1-3.24-11.52,74.89,74.89,0,0,1,2-15.34c.22-1,.21-2.24,1.53-2.42a5.6,5.6,0,0,1,4.08,1c.82.59.53,1.61.37,2.46-.47,2.34-1,4.66-1.45,7a28.4,28.4,0,0,0,.22,12.51c1,3.76,2.65,5,6.56,4.68,1.32-.11,2.35.05,2.86,1.47C517,224.84,518,225.6,518.79,226.86Z" transform="translate(-453 -87)"/><path class="cls-2" d="M808.24,227.05A13.79,13.79,0,0,1,798,228c-2.93-.9-4.78-3.09-6-5.77a20.3,20.3,0,0,1-2-8.53,70.25,70.25,0,0,1,2.06-17c.48-2.08.53-2.08,2.72-1.7,3.89.66,3.71.62,2.8,4.43-1.3,5.49-2.37,11.06-1.29,16.75a12.24,12.24,0,0,0,.5,2.09c1.17,3.09,2.58,5,6.62,4.22a1.92,1.92,0,0,1,2.5,1.22A13.17,13.17,0,0,0,808.24,227.05Z" transform="translate(-453 -87)"/><path class="cls-2" d="M599.83,180.83c-1.06-1.72-1.81-3.32-3.18-4.46-.76-.64-.44-1.44-.16-2.21,1.28-3.51.73-5.55-2.18-7.95-3.49-2.88-7.6-4.62-11.8-6.14-1.94-.7-3.93-1.27-5.9-1.89-.45-.14-1.05-.12-1.22-.63-.52-1.53.44-2.74,1-4a1.74,1.74,0,0,1,2.11-1.13,32.73,32.73,0,0,1,3.24.83c6.06,1.86,11.83,4.35,16.57,8.67,3.85,3.51,6,7.78,4.87,13.19A12,12,0,0,1,599.83,180.83Z" transform="translate(-453 -87)"/><path class="cls-2" d="M889.17,181.09a11.71,11.71,0,0,0-3-4.28,1.61,1.61,0,0,1-.4-2.1c1.5-4.1,1-5.65-2.45-8.46-3.65-3-8-4.64-12.31-6.21-1.64-.59-3.35-1-5-1.52s-1.72-.87-1.19-2.45c0-.07,0-.15.08-.23,1.23-3.41,1.73-3.65,5.28-2.63,6.34,1.81,12.35,4.34,17.34,8.74,3.34,3,5.51,6.55,5.26,11.28A11.8,11.8,0,0,1,889.17,181.09Z" transform="translate(-453 -87)"/><path class="cls-2" d="M524.36,185.73c-5.11-.32-5.2-.27-7.47-4.63-5.24-10-10.09-20.28-13.33-31.18-.91-3-.94-3,2.14-3.8,1.56-.39,2.05-.14,2.44,1.36C511,158.38,516,168.34,521.65,178c1.17,2,2.42,3.94,3.62,5.92.27.45.86.87.48,1.48S524.71,185.58,524.36,185.73Z" transform="translate(-453 -87)"/><path class="cls-2" d="M815.21,185.75c-2.11.52-4.11-.18-6.11-.46-1-.14-1.3-1.14-1.69-1.89-2.57-4.87-5.12-9.75-7.4-14.76a144.4,144.4,0,0,1-7.24-19.22,5.68,5.68,0,0,1-.37-2.2c.72-.2,1.49-.38,2.24-.63,2.18-.72,2.22-.89,3.05,1.8.68,2.21,1.32,4.43,2.11,6.6,3.64,10.1,8.77,19.46,14.45,28.54A4,4,0,0,1,815.21,185.75Z" transform="translate(-453 -87)"/><path class="cls-2" d="M557.65,167.7c-.76-1.33-1.46-2.56-2.15-3.8a137.39,137.39,0,0,0-12.94-19.53c-1.95-2.45-1.76-4,.75-5.94.91-.72,1.7-.62,2.65.56,1.69,2.12,3.3,4.3,4.92,6.47,3.15,4.23,6,8.67,8.73,13.17a4.59,4.59,0,0,1,.13,5.16C559,165,558.81,166.5,557.65,167.7Z" transform="translate(-453 -87)"/><path class="cls-2" d="M847.34,167.77a5.48,5.48,0,0,1-1.58-2.08,138.84,138.84,0,0,0-13.86-21.16q-.6-.75-1.14-1.53a1.39,1.39,0,0,1-.12-1.58,8.78,8.78,0,0,1,2.52-2.83c1.05-.71,1.8.07,2.4.84,1.57,2,3.14,4,4.64,6.08,3.14,4.31,6,8.8,8.82,13.35,1.13,1.84,1.34,3.48.15,5.33A39.54,39.54,0,0,0,847.34,167.77Z" transform="translate(-453 -87)"/><path class="cls-2" d="M502.93,143.73c-3.55.34-6.82-3.43-6.72-6.6a6.9,6.9,0,0,1,6.8-6.82,6.82,6.82,0,0,1,6.69,6.91C509.81,140.73,506,144.22,502.93,143.73Z" transform="translate(-453 -87)"/><path class="cls-2" d="M539.13,178.25a6.52,6.52,0,0,1-6.61-6.71,6.73,6.73,0,1,1,13.46.28A6.5,6.5,0,0,1,539.13,178.25Z" transform="translate(-453 -87)"/><path class="cls-2" d="M807.75,219.42a6.41,6.41,0,0,1,6.61-6.64,6.74,6.74,0,0,1,6.81,6.58,6.91,6.91,0,0,1-6.87,6.84A6.57,6.57,0,0,1,807.75,219.42Z" transform="translate(-453 -87)"/><path class="cls-2" d="M879.64,190.53a6.53,6.53,0,0,1-6.52-6.8,6.71,6.71,0,0,1,6.81-6.58,6.64,6.64,0,0,1,6.61,6.74A6.5,6.5,0,0,1,879.64,190.53Z" transform="translate(-453 -87)"/><path class="cls-2" d="M785.69,137.34a6.58,6.58,0,0,1,6.61-6.73,6.75,6.75,0,0,1,6.82,6.58,6.66,6.66,0,0,1-6.78,6.83A6.56,6.56,0,0,1,785.69,137.34Z" transform="translate(-453 -87)"/><path class="cls-2" d="M525,225.73c-3.18.45-6.69-2.52-6.7-6.52s2.78-6.64,6.84-6.62a6.41,6.41,0,0,1,6.57,6.66C531.58,223.46,528.29,226.16,525,225.73Z" transform="translate(-453 -87)"/><path class="cls-2" d="M583.83,183.43c0-3.6,3-6.73,6.49-6.56,4.21.21,6.65,2.49,6.85,6.79a6.51,6.51,0,0,1-6.74,6.58C586.37,190.22,583.76,187.53,583.83,183.43Z" transform="translate(-453 -87)"/><path class="cls-2" d="M835.24,171.86c0,3.86-2.76,6.84-6.47,6.8a6.6,6.6,0,0,1-6.69-6.86c.26-3.83,2.87-6.68,6.62-6.67A6.46,6.46,0,0,1,835.24,171.86Z" transform="translate(-453 -87)"/><path class="cls-3" d="M545.15,153H533a14.2,14.2,0,0,1,3.06-4.84c1.33-1.43,5.22-.91,6.4.69A18.52,18.52,0,0,1,545.15,153Z" transform="translate(-453 -87)"/><path class="cls-4" d="M822.29,153.19a20.42,20.42,0,0,1,2.73-4.32c1.45-1.84,5.06-1.91,6.54-.12.91,1.1,1.73,2.28,2.56,3.45a.8.8,0,0,1,.17,1Z" transform="translate(-453 -87)"/><path class="cls-5" d="M811.29,147.84a21.89,21.89,0,0,1-3.73,6.17c-1.12,1.27-2.72,1.21-4.22.92-1.13-.22-2.31-4.61-1.54-5.51a1.38,1.38,0,0,1,.8-.45C805.4,148.58,808.2,148.24,811.29,147.84Z" transform="translate(-453 -87)"/><path class="cls-5" d="M521.64,148A19.33,19.33,0,0,1,518,154c-1.08,1.15-2.66.84-4.08.71-.51,0-.72-.52-.86-1-.24-.83-.56-1.65-.78-2.49-.4-1.57-.12-2.27,1.27-2.5C516.12,148.27,518.74,147.61,521.64,148Z" transform="translate(-453 -87)"/><path class="cls-6" d="M577.76,191.37c-.85.17-1.22-.42-1.43-1-.5-1.34-.89-2.71-1.32-4.07a.68.68,0,0,1,.47-.93,11.77,11.77,0,0,1,2.25-.78c.93-.16,1.86-.88,2.76-.43s.47,1.58.81,2.37a23.26,23.26,0,0,0,1.25,2.56.66.66,0,0,1-.43,1.09C580.67,190.59,579.22,191,577.76,191.37Z" transform="translate(-453 -87)"/><path class="cls-7" d="M527.65,197.54c2.37.14,4.35.34,6.32.32a2.86,2.86,0,0,1,2.7,1.92c.2.37.4.78.15,1.12a13,13,0,0,1-3.07,3.26,1.22,1.22,0,0,1-1.7-.36A46.94,46.94,0,0,1,527.65,197.54Z" transform="translate(-453 -87)"/><path class="cls-8" d="M872.32,190a28.42,28.42,0,0,1-5.08,1.54,1.06,1.06,0,0,1-1.45-.84c-.09-.31-.25-.59-.35-.89-1.2-3.71-.42-4.92,3.43-5.46.9-.12,1.4.18,1.51,1A13.91,13.91,0,0,0,872.32,190Z" transform="translate(-453 -87)"/><path class="cls-5" d="M817.43,198.37a62.43,62.43,0,0,1,6.74-.16c1.16,0,1.65.72,2.14,1.59s-.06,1.48-.6,2.08-.82,1-1.25,1.44c-1.51,1.7-2.15,1.7-3.58,0A35.81,35.81,0,0,1,817.43,198.37Z" transform="translate(-453 -87)"/><path class="cls-7" d="M847.22,194.84c-1.07,0-1.32-.38-.78-1.28.9-1.49,1.87-2.94,2.78-4.43a2.52,2.52,0,0,1,2.13-1.28c.76,0,1.39.08,1.65,1,.31,1.06.8,2.08,1.09,3.14.33,1.21,0,1.85-1.24,2.07C851,194.37,849.1,194.58,847.22,194.84Z" transform="translate(-453 -87)"/><path class="cls-6" d="M556.39,194.41c1.29-2.08,2.33-3.94,3.54-5.68s3.12-1.45,3.94.56c1.55,3.78,1.25,4.31-2.83,4.78A16.08,16.08,0,0,1,556.39,194.41Z" transform="translate(-453 -87)"/><path class="cls-9" d="M846.11,148.59a45.94,45.94,0,0,1,7.66,1c.72.15.72.82.58,1.35-.33,1.23-.75,2.42-1.15,3.63a1.07,1.07,0,0,1-1.11.71,2.65,2.65,0,0,1-2.54-1A40.27,40.27,0,0,1,846.11,148.59Z" transform="translate(-453 -87)"/><path class="cls-7" d="M799.92,174.93c1.16,2.33,2.27,4.42,3.25,6.57a1.76,1.76,0,0,1-1.43,2.46,8.1,8.1,0,0,1-4-.51c-1-.37-1-1.15-.73-2A34.9,34.9,0,0,1,799.92,174.93Z" transform="translate(-453 -87)"/><path class="cls-7" d="M556.73,148.51a28.37,28.37,0,0,1,7.31.74c.88.17,1.23.59.89,1.49s-.55,1.65-.85,2.47c-.72,1.94-2.33,2.46-3.67,1A24.7,24.7,0,0,1,556.73,148.51Z" transform="translate(-453 -87)"/><path class="cls-7" d="M510.3,174.7a33.87,33.87,0,0,1,3.32,6.3c.71,1.75-.39,3-2.3,2.78-4-.38-4.37-1.08-2.83-4.81C509,177.66,509.61,176.35,510.3,174.7Z" transform="translate(-453 -87)"/><path class="cls-1" d="M723,171c.55,20.17-16.42,40-40.3,39.89A39.74,39.74,0,0,1,643,171.05c-.08-23.54,19.36-40.38,40.72-40S723.53,149.27,723,171Z" transform="translate(-453 -87)"/><path class="cls-2" d="M708.19,169.59c.92,12.08-8,25.12-23.61,26.13a24.75,24.75,0,0,1-26.2-23.7,25,25,0,0,1,24.25-26.27C696.74,145.07,707.93,156.86,708.19,169.59Z" transform="translate(-453 -87)"/><path class="cls-2" d="M647.55,178.88c2.12-.61,4.36-.72,6.54-1.15,1.15-.23,1.65.06,2,1.26a28.82,28.82,0,0,0,7.32,12.18c11.25,10.77,29,10.6,39.77-.08A27.72,27.72,0,0,0,711.79,170a27.11,27.11,0,0,0-9.86-20.71c-.31-.26-.6-.53-.9-.8-1.37-1.21-1.46-1.59-.42-3a33.76,33.76,0,0,0,2.19-3.13c.81-1.35,1.14-1.42,2.44-.46a35.15,35.15,0,0,1,9.52,10.61,36.54,36.54,0,0,1-29.35,54.76,36.78,36.78,0,0,1-37.63-26.51A3.32,3.32,0,0,1,647.55,178.88Z" transform="translate(-453 -87)"/><path class="cls-10" d="M677.12,135c.9-.07,1.19.43,1.26,1.14.2,1.81-.11,3.64.32,5.44.15.61-.36,1-1,1.16-.85.21-1.7.39-2.55.59s-1.86,1.23-2.88.7-.94-1.77-1.5-2.63a11.6,11.6,0,0,1-.64-1.27c-1.37-2.76-1.37-2.82,1.5-3.77A30.5,30.5,0,0,1,677.12,135Z" transform="translate(-453 -87)"/><path class="cls-10" d="M657.92,144.89a36.49,36.49,0,0,1,6.32-5c1.3-.78,1.5-.72,2.15.62s1.22,2.77,2,4.08a1.57,1.57,0,0,1-.47,2.4c-3.35,2.59-3.34,2.65-6.93.27C659.92,146.52,658.64,146.11,657.92,144.89Z" transform="translate(-453 -87)"/><path class="cls-10" d="M646.32,171.13a3.52,3.52,0,0,1,.16-2.31,2.07,2.07,0,0,1,2.25-1,10.22,10.22,0,0,0,3.78,0c1.74-.26,2.37.28,2.42,2,.12,4.82.06,4.22-3.83,4.9-.47.08-1,.12-1.42.18-3.16.37-3.23.3-3.36-3C646.31,171.64,646.32,171.4,646.32,171.13Z" transform="translate(-453 -87)"/><path class="cls-10" d="M681.66,136.59c-.07-1.88.72-2.6,2.87-2.32,1.17.15,2.36.24,3.51.5,1.48.34,1.76.85,1.48,2.39-.22,1.24-.47,2.48-.79,3.7-.36,1.39-1,1.78-2.42,1.71-3.65-.17-4-.48-4.49-4C681.75,138,681.73,137.42,681.66,136.59Z" transform="translate(-453 -87)"/><path class="cls-10" d="M661.57,152.25c0,.36-.24.56-.43.81-3.42,4.35-2.31,4.34-7.62,2.17a10.75,10.75,0,0,1-1.31-.56,1.26,1.26,0,0,1-.57-1.82c.07-.14.15-.28.23-.41.94-1.48,1.64-3.5,3.11-4.11s2.8,1.34,4.26,2a17.19,17.19,0,0,1,1.82,1.13A1,1,0,0,1,661.57,152.25Z" transform="translate(-453 -87)"/><path class="cls-10" d="M695.26,144.69c-.42-.12-1.12-.29-1.79-.53-1.79-.65-1.88-.87-1.35-2.82.37-1.37.71-2.76,1-4.15.21-.9.64-1.08,1.55-.78a39.89,39.89,0,0,1,4.82,2c.92.45,1.16,1,.53,1.87-.85,1.16-1.67,2.33-2.49,3.49A2.12,2.12,0,0,1,695.26,144.69Z" transform="translate(-453 -87)"/><path class="cls-10" d="M648.74,164.7c-1,0-1.57-.22-1.19-1.39.44-1.36.43-2.83,1.05-4.13.74-1.57,1.52-1.92,3-1.2a25.13,25.13,0,0,0,4.11,1.83,1,1,0,0,1,.72,1.46c-.22.59-.35,1.21-.53,1.82a1.59,1.59,0,0,1-1.74,1.27A21.12,21.12,0,0,0,648.74,164.7Z" transform="translate(-453 -87)"/><path class="cls-11" d="M666.3,170.54c-.52-8.57,7.48-16.6,16.52-16.55a16.67,16.67,0,0,1,16.58,16.78A16.43,16.43,0,0,1,683,187.18C672.7,187.2,665.72,178.52,666.3,170.54Z" transform="translate(-453 -87)"/><path class="cls-2" d="M682.83,157.45c5.81-.46,13.19,5,13.19,13.21a13.18,13.18,0,0,1-26.36,0A13.11,13.11,0,0,1,682.83,157.45Z" transform="translate(-453 -87)"/><path class="cls-1" d="M870.82,418.22c-.73-.67-.69-1.2-.14-2,1.41-2.13,2.69-4.34,4-6.53,5-8.27,6-16.92,2.09-25.85-5.25-12-14.29-20-26.86-23.79-10.11-3-20.48-2.94-30.84-1.82-9.53,1-18.86,3.18-28.16,5.42-14.58,3.5-29,7.74-43.63,10.95-10.84,2.37-21.74,4.33-32.91,4.12a41.8,41.8,0,0,1-20.55-5.54,19.12,19.12,0,0,1-8.07-8.9,9.38,9.38,0,0,1,2-11,26.9,26.9,0,0,1,9.53-6.25,87.89,87.89,0,0,1,28.24-6.73,82.41,82.41,0,0,1,32.7,4.57c5,1.78,9.86,4.12,14.78,6.2,9.08,3.83,18.35,4.66,27.78,1.61,5-1.62,9.9-3.59,14.8-5.5a32,32,0,0,1,17.15-1.77c1.7.27,3.36.89,5.1.81.06-.25.16-.4.13-.54a3.59,3.59,0,0,0-.22-.68,17.25,17.25,0,0,0-10.27-10.39c-2-.84-4.12-1.54-6.54-2.44a49.69,49.69,0,0,0,7.83-6.66A23.73,23.73,0,0,1,844,318.41a36.51,36.51,0,0,0,15.06-4.34c3.28-1.8,6.16-4,7.54-7.67.27-.71.85-1.64.38-2.23-.63-.8-1.48.08-2.14.35A33.66,33.66,0,0,1,853,307,30.54,30.54,0,0,1,841,304.78a33.71,33.71,0,0,0-17.85-2c-6.53,1-12.25,4-17.68,7.56a3.41,3.41,0,0,1-2.07,1c1-3.52,2.09-6.94,2.33-10.5s.91-7,.39-10.49a36.81,36.81,0,0,0-3.65,6.51A24.77,24.77,0,0,1,786.56,310c-3,.86-6.14.83-9.22,1.19a33.93,33.93,0,0,0-17.6,7.53c-2,1.65-3.88,3.54-5.83,5.3a20.82,20.82,0,0,1-11.26,5.36c-5.7.81-11.44.8-17.16,1.11-6.61.37-13.21.68-19.76,1.65a63.62,63.62,0,0,0-20.28,6.15c-9.91,5.17-14.85,16.14-13.57,26.91.87,7.36,4.53,13.11,10.3,17.7,12.81,10.2,27.37,12.15,43,9.41,2.9-.51,5.73-1.43,8.73-1.39,1,0,2.38-.81,2.89.68.47,1.34-.84,1.9-1.72,2.54a67.47,67.47,0,0,1-11.46,6.44,9.78,9.78,0,0,0-2.81,1.53c.08.22.08.32.12.35a1.72,1.72,0,0,0,.43.21,29.06,29.06,0,0,0,17.16,1.07,31.48,31.48,0,0,0,12.93-7,12.38,12.38,0,0,1,4-2.83,2.49,2.49,0,0,1-.17,1.75c-1.17,3.44-3.63,5.72-6.65,7.55a35.7,35.7,0,0,0-5.1,3,16.83,16.83,0,0,0,9.3.83,53.4,53.4,0,0,0,21.71-9c2.37-1.6,4.64-3.34,7-5a3.48,3.48,0,0,1,.55.58c3.19,6,8.37,9.17,14.9,10.51A78.55,78.55,0,0,0,810,405.35c1.2,0,2.39,0,4.14,0-1.86-1.49-3.24-2.55-4.58-3.67-2.37-2-4.83-3.91-6.54-6.59a11.38,11.38,0,0,1-.55-12,17.73,17.73,0,0,1,7.93-7.72,40.23,40.23,0,0,1,26.73-3.6c7.54,1.45,14.35,4.39,19.64,10.15s6.79,12.28,3.87,19.66c-2.37,6-6.69,10.21-12.32,13.17a46.59,46.59,0,0,1-21,5,240,240,0,0,1-24.87-.7q-12.4-1-24.7-2.74c-9.87-1.38-19.66-3.23-29.49-4.87-8.15-1.37-16.18-1.17-23.92,2.34a39.57,39.57,0,0,1-8.5,2.4c-6.33,1.3-12.71,1-19.08.65-2-.13-4.21-.11-6.15-1.05.32-.95,1.53-1,1.65-2.06a24.86,24.86,0,0,0-2.73.21c-3,.3-6,.91-9,.07-4.67-1.29-7.92-4.27-10.43-8.25a45.9,45.9,0,0,1-5.71-14.89c-.26-1.17-.84-2.39-.53-3.52.41-1.5,2.11-1.13,3.23-1.61a11.64,11.64,0,0,0,6.71-6.44,6.66,6.66,0,0,0-.91,0c-4.47.92-7.95-.61-10.68-4.19a42.61,42.61,0,0,1-6.41-12.51c-1.76-5.26-3.19-10.66-6.19-15.47.91-.29,1.07.79,1.89.63-1.67-4.34-3.39-8.64-6.42-12.22-3.7-4.39-8.13-7.14-14.23-5.82-1.78.39-1.79.28-2.61-1.58a16.88,16.88,0,0,0-11-9.62,5.34,5.34,0,0,0-4,0c.78,3.26,2.57,6.33,1.28,9.77-.67,0-.89-.52-1.22-.84a27.43,27.43,0,0,0-10.79-6.45c-1.76-.54-3.55-.91-5.35-1.3-4.53-1-8-3.28-10.15-7.59a7.17,7.17,0,0,0-2.58-3.47,30.65,30.65,0,0,0,5.41,18c-3.39.5-6.36.8-9.29-.38-2.32-.94-3.73-2.94-5.39-4.65-.47-.49-.75-1.24-1.78-1.24a17.56,17.56,0,0,0,7,14.1,17.23,17.23,0,0,1-3.38.58,16.92,16.92,0,0,0-13,7.88c-.28.44-.81.83-.44,1.49.89.41,2-.1,2.64.28-.88,1.06-1.67,2.05-2.49,3a4.71,4.71,0,0,1-3.29,1.74,6.73,6.73,0,0,0-3.76,2c-3.84,3.49-4.36,7.8-2.85,12.48.41,1.27.4,2-.74,2.83a31.56,31.56,0,0,0-6.4,6.4,23.46,23.46,0,0,0-5.08,15.12,3.59,3.59,0,0,0,.86,2.26h0c-.1-.2-.27-.41-.22-.57a23.23,23.23,0,0,1,4.88-7.49c-.26,2.36-1.07,3.75-4.66,8.06l0,.06,0,0h0a8.61,8.61,0,0,1-9,.71,21.31,21.31,0,0,0-6.73-1.93,63.11,63.11,0,0,0,10,7c3.73,1.93,7.83,1.62,11.9,1.8a5.69,5.69,0,0,1-.17.92,32.57,32.57,0,0,0-2.53,9.92c-.15,1.67-.15,3.34-.24,5,0,.38,0,.83-.34,1.08-.54.36-.86-.19-1.24-.41a8.25,8.25,0,0,1-.93-.75A61.81,61.81,0,0,1,530,399.23c-4.26-6.43-6.59-13.42-6.15-21.22.14-2.55.74-5,.69-7.62a6.51,6.51,0,0,0-3.2-5.78,6,6,0,0,1-2.3-2.58,7.57,7.57,0,0,0-9.32-3.68c.95,1.56,2.25,2.91,2.81,4.68.18.55.5,1.13-.06,1.53s-1.25.06-1.58-.54a4,4,0,0,0-3.08-2,4.67,4.67,0,0,1-2-1.16c-2.57-2-5.59-2.61-9.08-3.09,1.21,1.58,2.19,2.83,3.13,4.1.55.74,1.06,1.68.18,2.36-1.9,1.47-2.14,3.37-1.61,5.78-1.56-.78-2.93-1.72-4.42-1.26a5.54,5.54,0,0,1-4.53-.67,5.36,5.36,0,0,0-6.06.72c-.71.54-.79,1.17,0,1.76.52.38,1.05.73,1.56,1.12a2.74,2.74,0,0,1,1.24,2.86c-.58,3.52.94,6.21,3.61,8.35a5.54,5.54,0,0,1,1.78,1.95c-1.55-.27-3-1-4.29,0a1.88,1.88,0,0,1-2.75-.22l-2.49-2.24c-.4-.35-.72-.91-1.48-.61a9.33,9.33,0,0,0,1.58,9.14,3.52,3.52,0,0,1,1,2.36c-.12,2.86,1.46,4.6,3.94,5.67a24.31,24.31,0,0,0,2.47.9,4.79,4.79,0,0,1,2.54,1.62,15.32,15.32,0,0,0,6.85,5.09c3.62,1.21,5.36,3.77,6.45,7.1.29.91.66,1.79.94,2.71,1.38,4.44,0,7.49-4.32,9.21a12.77,12.77,0,0,1-2.3.61c-1.72.34-3.47.55-5.17.95a7.94,7.94,0,0,0-6,5.08c8.28,2.41,15.42,7.4,24.37,8.93-3.41,3.37-6.81,5.74-11.1,6.61a14.68,14.68,0,0,0-8.87,5.09c.48.64,1.06.59,1.6.67a31.52,31.52,0,0,1,8,2.39,53.17,53.17,0,0,1,6.72,3.65,19.25,19.25,0,0,0,10.89,3.09,3.94,3.94,0,0,1,2.41.31,22.93,22.93,0,0,1-6.91,5.23c-2,1.09-3.94,2.1-5.88,3.21-.68.39-1.57.66-1.83,1.71l3.94.37c3.57.32,7.14.66,10.71.93,4.44.34,9,1.16,13.29-.28,3.59-1.19,6.19-.4,8.64,2.48a16.5,16.5,0,0,0,11.3,5.62,29.64,29.64,0,0,0,8.8-.7c5-1,9.46-3.31,13.95-5.56,1.85-.93,1.9-.94,2.87.87a31.58,31.58,0,0,0,7,8.7,16.85,16.85,0,0,1,6,14.43c-.12,1.75-.39,3.48-.55,5.23-.35,4-.59,7.93-1,11.89a121,121,0,0,1-9.15,33.56,19.37,19.37,0,0,1-10.89,10.8,59.57,59.57,0,0,0-9.67,4.71,6.6,6.6,0,0,0-3.11,3.82,29.16,29.16,0,0,0-1.18,8.73,4.47,4.47,0,0,0,2.37,3.88c.73-1.29,1.21-2.59,2.43-3.35.55-.34,1.11-.77,1.75-.37s.33,1,.26,1.54a10,10,0,0,0,2.18,7.89,5,5,0,0,0,1.44-2.22,4.85,4.85,0,0,1,2.24-2.4c.88-.42,1.37.64,2.14.77.07,0,.15.08.22.08,1.6.07,2,1.15,2.44,2.49.34,1.14.63,2.46,2,3,2.56-4.65,2.56-4.64,6.82-4.33,1.17.09,2.12.27,2.43,1.7a2.71,2.71,0,0,0,2.28,2.2c1.08.12,1.53-1,2-1.82a4.86,4.86,0,0,1,.46-.84,3.14,3.14,0,0,1,3.29-1.47,6.27,6.27,0,0,0,4.75-1.1,9.5,9.5,0,0,1,3.46-1.55,5.41,5.41,0,0,0,4.42-4.49c.28-1.16.51-2.34.71-3.51.55-3.18,2.57-5,5.43-6.13,1.76-.68,2.69-.31,3.38,1.48a13.22,13.22,0,0,1,.83,6c-.1,1.08-.36,2.24.52,3.29a10.8,10.8,0,0,0,2.64-3.35,22.7,22.7,0,0,0,2.63-14.78,4.93,4.93,0,0,1,0-3c2.6,1.81,2.92,4.89,4.73,6.94s3.5,4.25,6.36,6c-1.37-7.43.09-14.32.06-21.29,1.82,2.87,3.77,5.41,7.23,6.46a9.6,9.6,0,0,0,.19-3.17,51,51,0,0,1,1-11.89,16.27,16.27,0,0,0,0-6.63c-.34-1.63-.65-3.26-1-4.94,1,.1,1.33.91,1.91,1.4a32.53,32.53,0,0,0,2.5,2.22,8.92,8.92,0,0,0,9.3,1,12.1,12.1,0,0,0-2.23-3.2,14.65,14.65,0,0,1-3.61-8.18,25.21,25.21,0,0,0-5.9-14.85c-.67-.8-.32-1.44.24-2.1a43.91,43.91,0,0,0,3.53-4.83,6.51,6.51,0,0,0,.72-5.51,7,7,0,0,1-.55-2.92c2.2.58,4.25,1.11,6.3,1.67a7.72,7.72,0,0,1,5.27,4.81,21.27,21.27,0,0,1,1.24,5.34c.13,1,.33,2.05.5,3.08a29.88,29.88,0,0,0,3.68-17.31c8.1,3.16,16.55,2.8,24.46,5.51l-7.72-10.63c1.2-.44,2.08.14,3,.27a44.84,44.84,0,0,0,8.35.28c.7,0,1.23,0,1.32.94.41,4.12,2.43,7.54,4.81,10.78,2.79,3.8,5.63,7.55,8.36,11.39a43.59,43.59,0,0,1,6.5,12.21,8,8,0,0,1-2,8.57,31.37,31.37,0,0,1-5.86,4.52,165,165,0,0,1-23.43,12,37.46,37.46,0,0,0-5.55,2.8c-2.11,1.35-4.17,2.94-4.82,5.44a23.5,23.5,0,0,1-2.53,5.86,7.13,7.13,0,0,0-.06,7.24c.89-.31,1.1-1.11,1.7-1.5s1.16-.85,1.79-1.18c2.06-1,2.7-.67,2.77,1.6,0,1.88.5,3.56,2.24,4.7,1-1.15,1.51-2.61,2.85-3.33,1.69-.89,2.72-.41,3,1.46.2,1.1.39,2.2.65,3.28.18.74.67.82,1.24.35.31-.25.58-.56.87-.83a8.49,8.49,0,0,1,6.8-2.31c1.31.12,2.21.48,2.5,2a6,6,0,0,0,2,3.47c1.07-1.14,1.06-2.63,1.92-3.7,1.12-1.39,1.8-1.7,3.44-1a7.45,7.45,0,0,0,5.82.15,13.26,13.26,0,0,0,5.43-3.82,35.51,35.51,0,0,0,3.85-5.48c.27-.48.58-1,1.24-.94a1.48,1.48,0,0,1,1.18,1.33,11.86,11.86,0,0,1-.17,4.28c-.2,1.2-.74,2.39-.43,3.79a17.64,17.64,0,0,0,8.31-6.74,7.24,7.24,0,0,1,.7,6.29c-.46,1.52-1.08,3-1.65,4.49a3.14,3.14,0,0,0-.46,2.11c6.28-4.35,11.31-9.62,14.09-17,1.47,2.31,1.77,4.85,3.38,7,2-4.27,3.88-8.32,5.66-12.41,2.5-5.75,2.73-11.42-.17-17.08a1.55,1.55,0,0,1,0-1.76c1.78-2.8,1.06-5.5-.45-8.12q-2-3.42-4-6.82c-2.73-4.61-4.73-9.42-4-15,.42-3.07.93-6.12,2.88-8.7.73.35.91,1,1.27,1.51a28.43,28.43,0,0,0,4.36,5.06,30.58,30.58,0,0,0,12.23,6.32,59.23,59.23,0,0,1,11.16,4.24c4.47,2.31,8,5.49,9.81,10.33a74.51,74.51,0,0,1,4.68,28.1,15.88,15.88,0,0,1-11.17,14.84,22.85,22.85,0,0,0-4.86,2c-1.33.78-2.62,1.75-2.95,3.3a24.11,24.11,0,0,1-2.33,6c-1.26,2.46-.79,4.09,1.37,5.9.39-.49.76-1,1.16-1.46a5.44,5.44,0,0,1,4-1.91c1.7-.09,1.85,0,1.8,1.8s.19,3.64,2.26,4.74a7.63,7.63,0,0,1,2.31-3.08c2.35-1.66,4.78-.85,5.54,1.87a4.85,4.85,0,0,0,.58,1.55c.83,1.16,1.79,1.27,2.78.29a7.21,7.21,0,0,0,.59-.75c1.17-1.52,2.56-2.36,4.57-1.72a2.9,2.9,0,0,0,1.65,0c2.19-.71,3.82-.62,4.58,2.08.3,1.07,2.7,1.57,3,.83.7-1.76,2.19-1.52,3.53-1.73,5-.79,7.78-3.31,9-8.28a29.81,29.81,0,0,0,1-7.08,9.77,9.77,0,0,1,2.13-6c1.36-1.83,1.67-1.88,3.37-.46a15.25,15.25,0,0,0,7.64,3.72,3.41,3.41,0,0,0,2.68-.22,1.28,1.28,0,0,0,0-.35,4.69,4.69,0,0,0-.44-.83,10.28,10.28,0,0,1-2.07-7.19,21.13,21.13,0,0,0-.66-7.11c-.28-1-1.07-1.92-.89-3.32,3.88,2.62,6.31,7,11.44,8.19-1.51-5.42-1.31-10.61-1.65-15.76a13.71,13.71,0,0,0-5.58-10.4c-.47-.35-1.17-.54-1.33-1.5a7.41,7.41,0,0,1,5.67.88,21.67,21.67,0,0,0,6.33,2.77c3.19.7,5.16-.24,6.5-3.28-4.18-.12-5.89-3-7.17-6.36a36.2,36.2,0,0,0-2-4.33c-2-3.66-4.85-6-9.23-6.24a35.42,35.42,0,0,1-9.19-1.42c-1.63-.55-1.74-.75-1.15-2.39a14.14,14.14,0,0,0,.62-7.29,4.37,4.37,0,0,0-3.93-3.93c-4.77-.67-9-2.72-13.09-5.06a18.48,18.48,0,0,1-9.61-14.58c-.63-5.16-.45-10.35-.76-15.52a101.8,101.8,0,0,0-1.4-12.33c-.13-.74-.51-1.51,0-2.36,7.29,2.52,14.58,4.27,22.1.16-1.3-1.07-2.8-1.13-4.08-1.69s-2.77-.63-3.72-1.88c10.63,4.23,20.8,1.51,31-1.8-4.77-2.24-9.74-4-13.69-7.59a1.38,1.38,0,0,1,1.27-.7A106.24,106.24,0,0,0,850,430.29a2.39,2.39,0,0,1,1.84-.05,66,66,0,0,0,11.71,3.4,17.85,17.85,0,0,1,10.5,6.59,9.81,9.81,0,0,0,2.77,2.65.92.92,0,0,0,.62-.89,26.79,26.79,0,0,0,0-8.8C876.73,427.53,875.23,422.24,870.82,418.22ZM823.92,340a8.48,8.48,0,0,1-3.56,1.28A136.72,136.72,0,0,0,800.2,348c-5.91,2.48-12.06,2.66-18.32,1.67a47.5,47.5,0,0,1-10.44-3.3,2.31,2.31,0,0,1-1.45-1.11,1,1,0,0,1,.93-.09c8.25,2.48,16.51,2,24.8.17a121.43,121.43,0,0,0,13-3.93A32.14,32.14,0,0,1,823.92,340Zm-29.06-.12a20.11,20.11,0,0,1-8-.92,6.88,6.88,0,0,1-1.77-.7c-3.65-2.65-7.9-3.25-12.22-3.67-.3,0-.65.06-.9-.33,4.44-.47,8.85-1.15,13.24.16.84.25,1.7.45,2.51.77A26.88,26.88,0,0,0,801.24,337a23.61,23.61,0,0,1,5.1.14A33.11,33.11,0,0,1,794.86,339.84Zm42.95-30.56s.07.11.27.43a42.32,42.32,0,0,0-9.27,1.85,27,27,0,0,0-8,4.69,29.9,29.9,0,0,0-6.14,7.39c.76.36,1.06-.3,1.42-.56a57.58,57.58,0,0,1,13.53-7.6,34.33,34.33,0,0,1,14.91-2.31c-2.56.86-5.28.92-7.88,1.65-4.51,1.27-8.57,3.43-11.28,7.23-3.7,5.18-8.74,7.94-14.64,9.66a45.26,45.26,0,0,1-22.46,1,51.38,51.38,0,0,0-16.41-.6c-4.1.44-8.21.79-12.35,1a54.19,54.19,0,0,1,8.41-3A131.05,131.05,0,0,1,796.3,325c6.79-.41,12.32-3.55,17.2-8C820.42,310.57,828.65,308.46,837.81,309.28Zm-73,11.44c4.83-3.22,10.3-4.63,16-5.29,7.82-.92,11-2.12,16.45-5.27a16.66,16.66,0,0,1-6.58,5.76,32.88,32.88,0,0,1-12.49,3.81c-6.75.69-12.65,3.66-18.39,7-1,.59-2,1.14-3,1.71l-.29-.44A42.24,42.24,0,0,1,764.8,320.72Zm-.82,6.52a53,53,0,0,1,21.17-5.36,56.31,56.31,0,0,0,12-2,21.9,21.9,0,0,0,7.8-4,52.58,52.58,0,0,1,15.14-8.55c3.78-1.26,7.67-1.23,11.58-1a1.16,1.16,0,0,1,1,.68,30.89,30.89,0,0,0-16.86,4.68,19.07,19.07,0,0,0-4.56,3.81,23.21,23.21,0,0,1-16.86,8,101,101,0,0,0-22.77,4.09c-4.66,1.37-9.28,2.87-13.92,4.31a1.63,1.63,0,0,1-1.53,0A40.74,40.74,0,0,1,764,327.24Zm2.27,8.91a24.58,24.58,0,0,1,5.25,1.56c7,2.9,14.19,5.23,21.88,5.64a24.12,24.12,0,0,1-8,1.55,38.24,38.24,0,0,1-22.94-5.1,22.16,22.16,0,0,0-8.62-2.62C757.9,335.32,762.05,335.43,766.25,336.15Zm56.23,217.6c-.66.92.4,1.49,0,2.21-.81-1-1.23-3.45-1.19-7.05,2.23,1,3.52,3.62,4.49,9.31C824.39,556.77,823.87,555,822.48,553.75Zm9.9-18.36a4.89,4.89,0,0,1,1.68,3.41c-2.28-2-4.47-3.95-8-4.48,2.76,2.62,5.79,4.37,7.3,8.26-2.58-2-4.91-3.11-7.94-1.89,2.35,1.87,5.51,2.12,7.25,4.54-.67.64-1,0-1.29-.2-2.71-1.62-5.7-1.92-8.74-2-1.77-.08-1.9-.08-2.08-1.81-.3-2.84-.43-5.7-.63-8.55-.08-1.14.32-1.51,1.55-1.34,2.76.39,5.55.54,8,2A16.65,16.65,0,0,1,832.38,535.39Zm-12.62-19.75c5.1.9,9.83,2,14.13,4.61-2.46.4-5-.12-7.75,1,3.55.73,7,.73,9.85,3.78a19.61,19.61,0,0,0-11.77,1.83c-1.08.5-2.13,1.07-3.19,1.61-.73.38-1.26.29-1.27-.66C819.75,523.84,819.76,519.87,819.76,515.64ZM739.09,397.18a7.54,7.54,0,0,1,2.15-2.32c2.27-2,4.67-3.87,5.84-6.81a1.07,1.07,0,0,1,.87-.72,20.33,20.33,0,0,1,4.26-.62C748.82,391.54,745,395.27,739.09,397.18Zm21.65.41c.71-2.34,1.85-3.8,2.62-5.43,1.14-2.39,2.21-4.79,2.19-7.5a1.08,1.08,0,0,1,1.07-1.27c1.1-.17,2.17-.52,3.26-.74s1.29.16,1,1.2a13.23,13.23,0,0,1-.91,2.2A33.69,33.69,0,0,1,760.74,397.59Zm17.89-13.79c-1.65,4.79-5.08,8-9.27,10.6a28.6,28.6,0,0,0,5-11.23c.12-.56,0-1.4.82-1.57,1.07-.23,2.11-.77,3.25-.54a.73.73,0,0,1,.59.89A9.77,9.77,0,0,1,778.63,383.8Zm18.1,8.07c-2.16-2.51-1.11-5.73-2-8.49a5.36,5.36,0,0,0-2.52,5.86,11.45,11.45,0,0,0,2.85,5.44c.4.46,1,.76,1.14,1.76-5.15-2.2-6.4-6.63-7.22-11.58a4.05,4.05,0,0,0-1.31,3,9.74,9.74,0,0,0,2.41,7.07,3.82,3.82,0,0,1,1.19,1.92,9.31,9.31,0,0,1-4.07-4c-2.44-4.11-2.35-8.5-1.39-13,.2-1,.94-1,1.6-1.16,3.12-.69,6.23-1.35,9.36-2a8.64,8.64,0,0,1,3.85-.46C797.78,381.22,795.55,386.12,796.73,391.87ZM661.22,419.72a18.3,18.3,0,0,1-.78,7.5,21.24,21.24,0,0,1-6.45,9.54c.85-1.67,1.75-3.31,2.52-5,2.9-6.42,3.63-13,1.29-19.76a22.32,22.32,0,0,0-6.77-9.7L649.55,401a5.23,5.23,0,0,1,6.51,1.65c2.22,2.91,4.25,6,6.73,8.69a24.61,24.61,0,0,0,10.06,7.12c-2.38.75-4.74.47-7.09.23-.94-.1-1.88-.33-2.82-.49C661.27,417.93,661.05,418,661.22,419.72Zm-11.84-5a8.84,8.84,0,0,1,4.65,1.61,3.44,3.44,0,0,1,1.48,3.51,46.82,46.82,0,0,1-3.09,12,4.17,4.17,0,0,1-1.34,2.17c.52-2.42,1.07-4.64,1.46-6.89C653.48,421.64,652.82,419.09,649.38,414.7Zm-22.25,28.43a29.33,29.33,0,0,0-2.38-12.81,4.88,4.88,0,0,1,.42-4.79,7.08,7.08,0,0,1,2.1-2.57c5.74,6.33,6,21.34-.46,29.94A67.8,67.8,0,0,0,627.13,443.13Zm8.15-24.45a11.68,11.68,0,0,1,1.81,5,31.14,31.14,0,0,0-5.65-3.68c-.65-.28-.86-.72-.41-1.29.72-.91,1-2.59,2.15-2.64S634.73,417.68,635.28,418.68Zm.16-28a30.71,30.71,0,0,1,13.2,5.8c.81.62,1.58,1.27,2.37,1.91-3.38-.1-6.66,0-9.61-1.75a13.79,13.79,0,0,0-4.54-1.39,3.76,3.76,0,0,1-3-2.79C633.39,390.89,633.81,390.38,635.44,390.69ZM632.37,453a51.69,51.69,0,0,0,.25-26.68c-.24-1-.43-2-.77-3.51,2.72,1.62,5.13,2.91,6.77,5,1,1.3.8,3.2.8,4.84a44.47,44.47,0,0,1-3.47,17c-.35.86-.69,1.72-1.11,2.79,1.9-1.19,3.86-5,5.71-10,1.35-3.65,1.28-7.49,2.1-11.26.89,1.61,1.58,3.2,1,5.09a39,39,0,0,0-1.93,6.39c-.54,3.71-2.7,6.56-4.44,9.65-.24.41-.45,1-.83,1.15-2.9,1.37-4.27,4.18-6.46,6.87C630.86,457.57,631.71,455.3,632.37,453Zm11.47-22.08c-.57-1.1-1.39-1.83-1.54-2.9a41.5,41.5,0,0,0-3.57-11.58c-.06-.13,0-.3,0-.69C642.81,418.8,645.2,425.87,643.84,430.9Zm-.34-16.22c5,1.76,7.28,14.55,3.7,19.29C647,427.37,646.83,420.94,643.5,414.68ZM644,411c-2.28-.72-4.57-1.42-6.89-1.94-1.22-.28-1.59-.87-1.46-2a26.32,26.32,0,0,0,.06-5.25c-.06-.69.22-1,.94-1s1.74-.14,2.93-.24a.66.66,0,0,1,.37.08c4.16,2,8.49,3.69,11.69,7.23a13.59,13.59,0,0,1,3.43,5.93c.1.45.4.92,0,1.33s-.93.1-1.32-.11A57,57,0,0,0,644,411Zm25.73,1.83,1.66,1.82a11.35,11.35,0,0,1-4.65-2.3,34.15,34.15,0,0,1-7-7.51c-.78-1.06-2.36-1.8-1.88-3.57,0-.11-.27-.44-.44-.46-1.92-.29-2.67-2-3.74-3.19a27.2,27.2,0,0,0-15.21-8.86,26.76,26.76,0,0,1-4.13-1.2,3.39,3.39,0,0,1-2.29-4,6,6,0,0,0,.05-1.64c-.2-1.42.25-1.76,1.58-1.15,2.9,1.32,5.76,2.72,8.65,4.07.41.19.79.58,1.32.43-.87-2.45-2.67-4.38-12.47-13.38,2-1.47,2-1.47,10.61,1.27-1.12-2.87-5.79-7.27-10.07-9.48v0h0c1.35,1.66,3.44,2.65,4.74,5.08-3.14-1.47-5.85-2.69-8.53-4a2.7,2.7,0,0,1-1.27-2.19c.71-.6,1.34-.12,2,.08,1,.31,1.87,1.2,3.06,1l-.05-.06.06,0c.21-.48-.37-.63-.42-1,.39-.37.67,0,.94.2a69.78,69.78,0,0,1,10.2,7.12,21.8,21.8,0,0,1,6.5,9.3,1.11,1.11,0,0,1,0,1.22c-3.42-1.69-6.49-4.12-10.46-5.49a7.86,7.86,0,0,0,2,2.95,44.91,44.91,0,0,1,6.06,8.87,3.43,3.43,0,0,0,1.68,1.58,35,35,0,0,1,14,13.33A65.18,65.18,0,0,0,669.7,412.79ZM630,354.5c-2.16.77-4.36.14-6.36-1.05,3.71-3.35,10.56-3.71,14-.53A20.41,20.41,0,0,0,630,354.5Zm10.26,5.31a7.66,7.66,0,0,1,1.5,6.85c-2.9-2.38-5.59-4.45-8.38-6.31C634.94,357.05,638.71,357.84,640.26,359.81Zm15.79,31.62a38,38,0,0,0-8.62-6.32c-2-1-2.47-2.93-3.15-4.8,5.05-.72,15.58,8.55,16.23,15A36.88,36.88,0,0,1,656.05,391.43Zm-5-29.36a52,52,0,0,0,5.21,12.55c.77,1.26,1.91,2.28,2.6,4.06-5.73-3.55-10.06-7.77-11.69-14.21a27.51,27.51,0,0,0-5.94-11.34c-4-4.67-10.58-5.7-16.35-2.47a15.83,15.83,0,0,1-6.55,2.08,3.25,3.25,0,0,1-2.61-.5c4.22-4.18,8.44-8,14.21-9.58a10.56,10.56,0,0,1,10.62,2.56A36.37,36.37,0,0,1,651.06,362.07Zm-18.32-26.85a7.14,7.14,0,0,1,6.13,1.34,24.86,24.86,0,0,0-16.48,6.11A16,16,0,0,1,632.74,335.22ZM622.52,329c3.34,4.39,2.78,9.22-1.48,12.39a32.54,32.54,0,0,0-6.51,6.54,10.81,10.81,0,0,1,3.29-7.27c3.07-3,4.85-6.44,4.53-10.82C622.33,329.56,622.23,329.23,622.52,329ZM612,338.33c3.54-2.53,5.6-6,7.3-10.36a15,15,0,0,1-1.81,7.86c-1.89,3.86-4.05,7.57-6,11.53-.41-4.08-.87-8.12-2.62-11.85a27.89,27.89,0,0,0-7.36-9.41C607,328.35,610.74,332.07,612,338.33Zm-10.88-9.6c-1.2-.16-1.88-1.36-3.4-1.24,1.44,1.44,2.74,2.73,4,4a21.6,21.6,0,0,1,5,7.76,17.55,17.55,0,0,1,.66,7.55c0,.45,0,1.06-.6,1.16s-1-.34-1.32-.85a4.8,4.8,0,0,1-.4-2.56,18.3,18.3,0,0,0-2.91-10.66,17.44,17.44,0,0,0-4.06-4.33A49.17,49.17,0,0,1,593,325a16.79,16.79,0,0,1-2.94-4.12C592.46,321.23,599.35,326.17,601.07,328.73Zm-15,2.66a11.84,11.84,0,0,0,3.09,0,8.37,8.37,0,0,1,9.43,5.6c1.13,2.85,1,5.94,1.5,8.92.08.53-.25.68-.72.65-.77-.06-1.71.14-1.92-.93-.09-.44.17-.93.19-1.4.15-4.18-.62-8-4.59-10.31a10.25,10.25,0,0,0-4.78-1.3c-1.87-.11-3.75-.23-5.38-1.54C584,331.2,585.06,331.25,586.12,331.39Zm2.67,9.81c3.34,2.86,5.66,6.58,8.53,10.44a4.66,4.66,0,0,1-3.83-2.62,26.18,26.18,0,0,0-3.06-4.54c-3-3.6-7-4.74-11.43-5.09a3.92,3.92,0,0,1-2.63-.82C581.1,338.16,585.3,338.19,588.79,341.2Zm2.24,9.48a2.79,2.79,0,0,1-2.23-1.58,27.27,27.27,0,0,0-2.06-3.2,14.8,14.8,0,0,0-5.52-4c-.56-.26-1.14-.48-1.71-.71l.27-.5a16.8,16.8,0,0,1,12.08,8.92C592.26,350.32,591.89,350.74,591,350.68Zm-12.92-10.14a.45.45,0,0,1-.18.07.37.37,0,0,1-.16-.07Zm6.47,9.17c-1.09.49-2.59-.75-3.07,1.05,0,.09-.61.1-.9,0a38.77,38.77,0,0,0-9.89-1.09.53.53,0,0,1-.58-.35C571.88,345.58,580.59,345.61,584.58,349.71Zm.46,5.52c-1.17.86-1.91,1.4-3,.94-4-1.68-7.93-1.31-11.89,0-.21.06-.43.27-.77,0C574.31,353,579.36,353.08,585,355.23Zm-3.91,2.88a1.6,1.6,0,0,1-1,1.22,1.42,1.42,0,0,1-.71,0,53.57,53.57,0,0,0-9.14-1.21,11.27,11.27,0,0,1,10-.91C580.68,357.34,581.33,357.44,581.13,358.11Zm-24.57-.42c1.12-4.37,5.19-6.31,9.39-4.28-1.69,2-3.6,3.45-5,5.37a15.19,15.19,0,0,0-2.37,3.57c-.14.38-.25.81-.72.84s-.86-.43-1-.85A7.47,7.47,0,0,1,556.56,357.69Zm-2.66,13.38a38.13,38.13,0,0,1,21.17-10.15c1-.14,2.27-.59,2.94.29s-.3,1.93-.59,2.9c-.49,1.65-1.83,2.78-2.63,4.24a1.25,1.25,0,0,1-1.47.54c-4.28-.73-8.17.7-12.07,2.09a11.36,11.36,0,0,1-2.06.57c2.71-2.4,6.13-3.65,9.07-5.68-7.1,1.06-12.47,5.48-18.43,9.75C551,373.43,552.53,372.34,553.9,371.07Zm-8.45,21.83c3.33-2.67,5.23-6.29,7.09-10,2.68-5.43,7.31-8.25,13.26-8.94,1.42-.17,2.86-.16,4.29-.2a3.85,3.85,0,0,1,1.18.12,2,2,0,0,1,1.35,2.23c-.21,1.13-.78,1.58-2.1,1.26a13.76,13.76,0,0,0-8,.41A12.94,12.94,0,0,0,555,384.3a35.11,35.11,0,0,1-2.88,4.67A9.82,9.82,0,0,1,545.45,392.9Zm21.15,41.77a57.28,57.28,0,0,0,2.13,13.64c.3,1.06.55,2.13.81,3.13-.35.32-.54.14-.65,0a42,42,0,0,1-5.5-11.62,21,21,0,0,1,3.07-17.57c.61-.93,1.25-1.84,1.9-2.75.12-.16.38-.23.57-.34,2.25,3.1,2.27,4.35,0,7.21C566.93,428.8,566.51,431.69,566.6,434.67Zm-9.64,3.9a3.33,3.33,0,0,1-.09,2.12,28,28,0,0,1-2.63-8.47A23.87,23.87,0,0,1,564.09,408c1.06-.76,1.38-.62,1.6.57.26,1.49.4,3,.72,4.47.2.95-.42,1.27-1,1.72a21.2,21.2,0,0,0-5.33,5.76c-.58,1-.82,2.36-1.6,3.19-1.44,1.52-1.57,3.16-1.65,5.16A54.74,54.74,0,0,0,557,438.57ZM561,394.79C554.64,398,552.44,404,550.09,410a29.24,29.24,0,0,1,2.33-10.15c1-2.15,2.68-3.54,4.39-4.95C558,393.89,559.51,394.35,561,394.79Zm-.83-2c2.71-2.07,5.46-3.2,8.17-4.78C567.78,393.11,565.94,394.2,560.19,392.83Zm2.72,5.22c1.59-.84,2.4-.23,2.37,1.55,0,2.74-.63,3.42-3.3,4-1.7.38-3.39.83-5.08,1.23-.51.12-1,.43-1.66,0A18.55,18.55,0,0,1,562.91,398.05Zm-3-10.88c-2.16,1.48-4.24,3.08-6.37,4.62a2.8,2.8,0,0,1-2.94.57c2.66-2.55,4.44-5.61,7-8,3-2.81,6.38-5,10.66-5.29A3.49,3.49,0,0,1,569,379c.77.11,1.86-.43,2,.95a2.07,2.07,0,0,1-1.65,2.51C565.53,382.73,562.82,385.16,559.9,387.17Zm-7.41,22.4c.49-2.44,1.63-3.58,4-3.63.32,0,.63-.09.94-.12.07,0,.15,0,.63.22-3.29,2.08-4.66,5.18-5.73,8.45-.86,2.65-2,5.12-4.27,6.92C550.76,417.9,551.66,413.71,552.49,409.57Zm-34.81-43.81c-.07.85-.44,1.37-1.28,1.37s-1.22-.6-1.07-1.44c.27-1.45-.25-2.77-.8-4.47C516.91,362.43,517.83,363.91,517.68,365.76Zm-12.39-1.95a.76.76,0,0,1-.38,1.18c-.46.18-1,.24-1.25-.29a6.57,6.57,0,0,1-.65-2.53A2.69,2.69,0,0,1,505.29,363.81Zm-15.82,9.89c-.79-1.16-1.54-2.34-2.41-3.68a5.57,5.57,0,0,1,4.34,2.27c.56.61.13,1-.32,1.35S490,374.49,489.47,373.7Zm-3,15.21a1.84,1.84,0,0,1-.79,1.13,1,1,0,0,1-1.26-.29,3.72,3.72,0,0,1-1.35-3c.94.44,1.78.81,2.59,1.22C486,388.17,486.65,388.25,486.47,388.91Zm24,32.19a23.78,23.78,0,0,1,2.81,4.46A16.68,16.68,0,0,1,503,429.33,12.68,12.68,0,0,0,510.47,421.1Zm3.47,5.93c1.4,1.18,1.74,2.81,2.64,4.09-3.32,2.31-10.05,2.77-13.37.95C508.37,431.5,509.23,431.32,513.94,427Zm-7.79,8.24c1.11,0,2,0,2.82,0a13,13,0,0,0,7.55-1.83c.68-.44,1.32-.57,1.7.39a4.77,4.77,0,0,0,.36.62c1.45,2.39,1.31,2.68-1.4,3A19.2,19.2,0,0,1,506.15,435.27ZM521,441.41c.68-.44,1.28-.62,1.77.24s-.18,1.17-.71,1.44a31.59,31.59,0,0,1-6.93,3A27.48,27.48,0,0,1,521,441.41Zm-6.74,15.64c2.21-.53,4.34-.47,6.29-1.22s3.82-1.93,4.65-4.19c-5.31,2.54-10.62,4-16.38,1.56,6-1,11.8-2.43,16-7.61a51.37,51.37,0,0,1,4.45,7.3,1.15,1.15,0,0,1-.19,1.49C526.05,457.9,518.85,459.29,514.29,457.05Zm21,13.74a14.94,14.94,0,0,1-1.63.26c-.22,0-.46,0-.62-.47a10.28,10.28,0,0,0,4.06-4.13l0,0v0a10.55,10.55,0,0,0-3.26,1.23,25.88,25.88,0,0,1-8.95,2.3c3.06-1.92,6.62-3.07,9.33-6.49-3.37,1.44-5.94,3.39-9.22,3.79,2.54-2.94,5.6-5.45,6.76-10a102.24,102.24,0,0,1,5.34,9.15h.07l0,.07C539.44,469.89,539.43,469.9,535.3,470.79Zm32,2.82a59.43,59.43,0,0,0-7.17,4.76,2.92,2.92,0,0,1-2.26.5,17.4,17.4,0,0,1-13.42-7.28,72.55,72.55,0,0,1-5.14-8.08l-19.12-32.9c-3.2-5.51-6.42-11-9.59-16.57-1.42-2.49-3.35-4.66-4.64-7.24a4.22,4.22,0,0,0-1.39-1.29,7,7,0,0,0-1.87-1,16,16,0,0,1-8.09-6.25,4.38,4.38,0,0,0-3.58-2.06,4.87,4.87,0,0,1-2.43-1c-1.87-1.2-2-1.83-.45-3.38a9.32,9.32,0,0,0,1.58-3c1,.44,1.91.91,2.87,1.27a6.65,6.65,0,0,0,2.31.57c2.35,0,3.6-1.52,2.88-3.73a10.9,10.9,0,0,0-2.81-4.68c-1.61-1.53-3.2-3.1-5-4.84,2.35-.89,4.25-1.88,4.51-4.63a6.65,6.65,0,0,1,2.58,2.64c1.08,1.87,2.16,3.73,3.27,5.57a7.72,7.72,0,0,0,2.81,2.89c1.05.57,2.16,0,2-1.09-.49-2.91.17-5.93-.91-8.77-.52-1.34-1.06-2.67-1.56-4-.33-.9-.23-1.56,1-1.62,1.51-.07,2.86-.83,4.41-1.26a60.13,60.13,0,0,0,1.11,7.28,22.63,22.63,0,0,0,1.55,4c.37.78.86,1.35,1.84,1.16s1.08-1.11,1.25-1.85c.1-.43-.17-.92-.22-1.4a16.53,16.53,0,0,1,.48-6.93c2.06.65,4,.74,5.69-.77a3.22,3.22,0,0,1,1,3.13c-.21,2.62-.48,5.23-.78,7.84a16,16,0,0,0,.1,4.74c1.7,9.37,6.06,17.38,12.28,24.49a62.13,62.13,0,0,0,9.83,9.07c2,1.51,2,1.69.34,3.47a10.58,10.58,0,0,1-5.07,3c-1.23.33-2.45.72-3.66,1.11-.65.2-1.18.52-1.14,1.32s.72.79,1.22.89c4.63.92,9.26,1.76,13.82-.34a2.62,2.62,0,0,1,.68-.18c.07,0,.15,0,.37.13.22,1.88.33,3.85.7,5.78.94,5,2.4,9.76,5.8,13.71a12.65,12.65,0,0,0,3.48,2.86,24.84,24.84,0,0,1,5.69,4.7,26.73,26.73,0,0,1,5.1,6.82,14.21,14.21,0,0,1,1.4,5.54A7.24,7.24,0,0,1,567.26,473.61Zm2.18-73.34c0-.39.07-.79.12-1.18.26-1.85.59-2.11,2.31-1.54,3.33,1.1,6.67,2.18,9.9,3.55a4.1,4.1,0,0,0,2.05.59c.31,0,.69,0,.83-.32a.83.83,0,0,0-.33-1.05,15.65,15.65,0,0,0-1.87-1.05,101.23,101.23,0,0,0-11.63-4.54c-.07-1.35.68-2.45,1.15-3.59a106.41,106.41,0,0,0,4.4-13.39c1.4-5.34,3.22-10.54,6.8-14.91a13.24,13.24,0,0,1,1.27-1.43c3.72-3.4,6.49-4.27,10.71-.73a8.82,8.82,0,0,0,1.8,1.17c1,.51,1.45.15,1.39-1s-1-2.19-.9-3.51c1.12-.09,1.42.81,1.88,1.46.68,1,1.29,2,2,3a1.12,1.12,0,0,0,1.24.55c.61-.17.57-.68.53-1.16-.22-2.22.25-4.46-.43-6.69,1.15,0,1.06.91,1.29,1.43.64,1.46,1.11,3,1.68,4.48.21.57.31,1.39,1.21,1.16s.65-1,.66-1.6c0-1,0-1.92,0-2.86.26-.05.35,0,.42.21,1.17,2.6,1.16,2.57,3.76,1.39.94-.42,1.94-.71,2.93-1.06.74.66-.33,1.59.46,2.2a7.41,7.41,0,0,0,2,.86,11.86,11.86,0,0,1,6.53,6.35,39,39,0,0,1,3.58,13.81c.43,5.55.57,11.13,2.21,16.52.47,1.55.3,1.62-1.43,1.78a74.15,74.15,0,0,0-14.2,3.23,4.93,4.93,0,0,0-.86.43.83.83,0,0,0-.51.75c0,.53.5.53.89.55a9.48,9.48,0,0,0,2.37-.22c3.51-.75,7-1.38,10.53-2.16,1.24-.28,1.6.33,1.75,1.29a22.49,22.49,0,0,0,.68,4.13c-5.55-.42-10.69-.6-15.77.6,5.19,0,10.18,1.46,15.38,1.69a9.16,9.16,0,0,1-2.45,5.93,1.43,1.43,0,0,1-2.05.34,70.49,70.49,0,0,0-7.22-3.21,22.36,22.36,0,0,0-5.34-1.05,26.36,26.36,0,0,0,6,3.48l6.42,3.24c.11.75-.52,1.12-.87,1.58-2.94,3.88-5.55,8-8.16,12.11a15.27,15.27,0,0,0-2.44,10.45,7.62,7.62,0,0,1-1,5.51c-.51-1.9-.93-3.48-1.36-5.06-.13-.47-.28-.92-.44-1.37s-.48-.85-1-.76a.93.93,0,0,0-.76.82c-.36,1.72-.61,3.46-1,5.16-.74,3-1.93,5.75-4.75,7.45a1.17,1.17,0,0,1-1.39.13c0-.77,0-1.69,0-2.62A7,7,0,0,0,599,447.5c-1-1.45-1.81-1.51-3.08-.26-.39.38-.45,1-1.29,1.36a10,10,0,0,1,.05-3.7,1.46,1.46,0,0,0-.49-1.69c-.66-.5-1.19,0-1.74.28a10,10,0,0,0-4.62,6.47,4.6,4.6,0,0,1-1.4-4.06c.5-4.82-1.26-9.09-2.75-13.46-2.08-6.12-4.05-12.27-6.15-18.38-.36-1-.21-1.4.69-2.06,1.69-1.24,3.79-1.6,5.88-3a17.57,17.57,0,0,0-4.31,1c-1.4.51-2.83,1.15-4.12-.35-.54-.62-1.38-.05-2.07-.23-.36-.27-.3-.69-.33-1.08-.35-4.36-.95-3.92,3.93-3.8a29.32,29.32,0,0,1,4.72.74,6,6,0,0,0,3.77-.31c-.14-.91-1-1-1.56-1.24a21.58,21.58,0,0,0-6.53-1.38c-2.21-.2-4.4-.83-6.66-.46C569.85,402,569.33,401.4,569.44,400.27Zm44.24,53.08a66.38,66.38,0,0,0,2.51-7.14,50.42,50.42,0,0,1-8.54,35.12,19,19,0,0,1,1.51-5.44,52.42,52.42,0,0,0,4.39-21.12A4.16,4.16,0,0,1,613.68,453.35Zm-2.43,6.39a72.83,72.83,0,0,1-5.47,19.68c-.06.13-.22.22-.43.43-.53-.46,0-1.24-.71-1.56-1.39,3.2-1.11,6.67-1.6,9.88-.24.22-.39.17-.41-.05-.35-4-.21-7.95-.27-11.91-.08-5.69,2-10.88,5.17-15.62a32.64,32.64,0,0,1,3.08-4.25A3.85,3.85,0,0,1,611.25,459.74Zm-3.71,26.86a74.59,74.59,0,0,1,4.83-9.88,50.69,50.69,0,0,0,6.1-19.49,62.67,62.67,0,0,0-.49-19,5,5,0,0,1,1.52-5,31.67,31.67,0,0,1,2.39-2.62,37,37,0,0,1,1.25,7.27,64.62,64.62,0,0,1,.46,11.46c-.42,7.35-1.45,14.59-4.36,21.44a52.75,52.75,0,0,1-4,7.32c-3.13,5-6.28,10-9,15.25-.1.19-.17.47-.74.43A31.28,31.28,0,0,1,607.54,486.6Zm-29.06-14.69c-1,.64-2,1.18-3,1.76l-.33-.28c.71-.91,1.4-1.83,2.13-2.72.3-.37.6-1.14,1.22-.4C578.9,470.75,579.19,471.43,578.48,471.91Zm.9-32.4a7.81,7.81,0,0,0-.92,5.25,43.12,43.12,0,0,1,0,10.28c-1-1.47-.61-3.4-1.87-5-.57,1.25.22,2.33.11,3.41a32.59,32.59,0,0,1-.3,3.8c-.23,1.15,0,2.39-.91,3.73-.39-6.56-2.9-12.45-3.35-18.73a16,16,0,0,1,.72-5.88,20.26,20.26,0,0,1,4.84-8.54c.89,2.86,2,5.3,2.43,8A5.67,5.67,0,0,1,579.38,439.51Zm14.49,46.35c-7.15-6.58-12.34-14.19-13.46-24.2a57.91,57.91,0,0,1,.22-14.05,2,2,0,0,1,.14-.7c.14-.25.26-.64.66-.54a.81.81,0,0,1,.53.39c.9,3.17,2.61,6.13,2.09,9.65a32.06,32.06,0,0,0-.14,8.13,16.87,16.87,0,0,0,4,9.3,32.93,32.93,0,0,1,5.73,10.43C593.84,484.78,594.18,485.28,593.87,485.86Zm-5.14-15.18c-2.33-3.81-2.57-8.05-2.23-12.79,1.52,1.68,2.54,3.26,3.9,4.56a39.17,39.17,0,0,0,6.72,5c1.2.74,1.57.59,2.18-.72s.93-2.66,2.27-3.49c-2.05,6.41-3.63,12.93-5.27,19.51C594,478.46,591.18,474.68,588.73,470.68ZM565.55,575.22c-1.43.8-2.68,1.94-4.44,2.53a8.41,8.41,0,0,1,.84-4.24,2.52,2.52,0,0,1,3.06-1.17C566.14,572.74,566.58,574.64,565.55,575.22Zm6,5.55c-1.24.36-2.09,1.36-3.38,2a4.55,4.55,0,0,1,.46-3.64,1.65,1.65,0,0,1,2-.93,2.29,2.29,0,0,1,1.53,1.68C572.31,580.43,571.92,580.66,571.56,580.77Zm9.92,2a9.52,9.52,0,0,0-1.62.95c-.45.29-.89.6-1.52,1a4.1,4.1,0,0,1,.48-3.68,1.77,1.77,0,0,1,3.1-.14C582.36,581.56,582.66,582.3,581.48,582.72Zm8.47,3.34a3.59,3.59,0,0,1-.69-2c0-1,.1-2.18,1-2.79s2,0,3,.74C592.3,583.48,590.87,584.48,590,586.06Zm24.39-21.44c1.56-1,2.13-1,3.7.6Zm1.78-2.49c-.45-.08-.91-.3-.7-1s.47-1,1.18-.81c1.44.31,2.27,1.22,2.88,3A21.37,21.37,0,0,0,616.12,562.13Zm4.44-.81a16.19,16.19,0,0,0-3.3-2.78c-1-.57-.52-1.27-.16-1.8.56-.83,1.14-.18,1.5.28C619.57,558.29,620.88,559.44,620.56,561.32Zm10.75-9.92c-1.34-2.37-2.34-5.07-5.84-6,2,3.12,4.85,5.39,4.84,9.64-2.14-2.83-4.24-5.08-8.26-4.7,2,1.7,4,2.53,5.4,4.17-1.51-.41-2.88-1.18-4.42-1.44-.95-.15-1.89-.28-2.84-.34-1.28-.07-1.43-.28-.9-1.51,1.26-2.93,2.63-5.81,3.92-8.73.47-1.05,1.11-1.3,2.28-1a6.91,6.91,0,0,1,5.67,5.47c.33,1.44.45,2.93.67,4.4Zm1.53-22.09c2.28,2.32,4.71,4.3,5.57,7.49-1.67-1.51-3.33-2.94-6.25-2.76,2.93,2.08,5.34,4.11,5.73,8.23-3.22-4.15-6.86-6.16-11.58-4.56a1.09,1.09,0,0,1-.12-1.14c1.55-3.33,3.42-6.49,5.22-9.69a1.76,1.76,0,0,1,2.43-.79,6.57,6.57,0,0,1,3.55,3.06,8.25,8.25,0,0,1,1.16,3.72C636.78,531.17,635.79,528.82,632.84,529.31Zm12.91-12.43c-1.69-1.09-3-2-4.81-1.8a13.11,13.11,0,0,1,5.32,7.79c-2-1.91-3.41-3.76-6.27-3.56,2,1.5,4.32,2.35,5.39,5.34-3.53-3.12-7.21-3-11-2.07a3.46,3.46,0,0,1,.94-2.38c1.45-2.38,3-4.7,4.49-7.07a1.54,1.54,0,0,1,2.23-.64A6.84,6.84,0,0,1,645.75,516.88Zm12.93-26.94.05-.06-.05.06a34.41,34.41,0,0,0-6-3.73,5.38,5.38,0,0,1-2.77-3.15,1.3,1.3,0,0,1,1-2,2,2,0,0,0,.21-.1c2.55-.86,2.86-.7,3.4,1.93a10.08,10.08,0,0,0,2.64,4.72c.62.69,1.58,1.13,1.71,2.2a4.62,4.62,0,0,1,2.06,3A8.75,8.75,0,0,1,658.68,489.94Zm-1.24-10.75c1.08-.35,1.52.19,1.63,1.09.26,2,.43,4.08.64,6.12a10,10,0,0,1-3.63-5.28C655.71,480,656,479.66,657.44,479.19Zm7.91,5.86a19.61,19.61,0,0,1-3.9-5.41c-.53-1-.28-1.47.76-1.69a11.46,11.46,0,0,0,1.14-.34c.87-.3,1.35,0,1.61.88s.59,1.65.87,2.48a19,19,0,0,0,4.65,6.9C668.33,487.65,666.79,486.37,665.35,485.05Zm5-5.06c-.23,1.62,1.07,2.87,1.23,4.65a18.71,18.71,0,0,1-5.19-6c-.69-1.43-.62-1.61.82-2s2.75-.64,4.21-1a22.28,22.28,0,0,1,.78,5.29C671.18,481.26,671.18,480,670.32,480Zm16.93,1.89c-3.76.59-8-3.36-9.3-6.95-.19-.56,0-.91.61-1,1.86-.4,3.71-.81,5.58-1.17.82-.16,1.12.48,1.31,1.1a27.46,27.46,0,0,0,2.61,6c-2.59-.17-3.59-2.26-5.36-3.06C682.86,478.58,682.56,478.47,687.25,481.88Zm9.2-3.86c-.21.8-.16,2-1.07,2.23s-1.44-.81-2-1.46a5.14,5.14,0,0,1-1.38-2.66c1-.6,2.06-.21,3-.07C696.33,476.23,696.75,476.83,696.45,478Zm4.49-5.73c0,.3-.24.36-.48.38-2.35.2-4.56-.41-7.26-1.2a30,30,0,0,1,8.94-1.63c.46,0,.86.34,1.29,1.11h-4.06C699.77,472,700.46,472,700.94,472.29Zm-23,88a1.07,1.07,0,0,1-.94,1.14,32.49,32.49,0,0,0-4.33,1.25,6.28,6.28,0,0,1,2.13-4,1.67,1.67,0,0,1,2.14-.29C677.9,558.79,678,559.48,678,560.32Zm5.09,4.75c-1.23.06-2.21.78-3.58,1.38.59-2.53,1.52-3.64,3-3.79.74-.07,1.42,0,1.58,1S684,565,683.06,565.07Zm7.68,2.2c-1,.54-1.88,1.1-3.13,1.82-.23-2.06.27-3.32,1.85-4.05.6-.29,1.24-.55,1.64.19S691.68,566.73,690.74,567.27Zm12.42,0c-1.43.43-2.48,1.6-4,2.23.1-1.86.47-3.31,2.19-4a1.47,1.47,0,0,1,2.14.83C703.65,566.71,703.61,567.1,703.16,567.24Zm22.76-7.86c-.82-.35-1.44-1-1.36-1.69.11-.86,1-1.34,2.33-1.73C726.39,557.3,726.52,558.32,725.92,559.38Zm8-.34c-.88-2.06-1.3-4.2-2.54-6-.52-.77-.28-1.32.46-1.79.42-.26.79-.25,1,.17C734,553.85,734.72,556.36,733.91,559Zm3.41-1.89c-1-2.26-1.61-4.64-3-6.71-.48-.74-.11-1.24.49-1.58.78-.44.94.3,1.16.75A13.49,13.49,0,0,1,737.32,557.15Zm3.43-11.85c-.5-.32-1-.73-.29-1.27.49-.38,1-1.3,1.77-.5a11.2,11.2,0,0,1,3.39,6.18C743.73,548.1,742.51,546.39,740.75,545.3Zm3-3.73a2.82,2.82,0,0,1,1.75-1.57,10.6,10.6,0,0,1,1.3,5.58A27.51,27.51,0,0,0,743.73,541.57Zm-1.6-43.84c-3.81,7.55-2.92,14.95,1,22.19a95.84,95.84,0,0,1,5.05,9.5c.92,2.25.92,2.69-.84,4.14-9.73,8-19.13,16.4-29,24.22a14.81,14.81,0,0,0-3,3.69,19.27,19.27,0,0,1-4.21,4.84,8.57,8.57,0,0,1-2.06,1.21c-1.88.75-2.38.51-3.05-1.44a5.26,5.26,0,0,0-3.55-3.44c1.74-2.56,4.77-3.63,5.79-6.89-3.4,1.44-6.39,2.84-8.64,5.46a10.14,10.14,0,0,0-1.89,3.55,3,3,0,0,1-2.68,1.86,1.24,1.24,0,0,1-1.26-1.2,4.53,4.53,0,0,0-2.28-3.33c1.37-1.89,4-2.62,5.05-5.29-4.19.91-7.5,2.53-9.8,6.08L685,560.12c.9-1,2.23-1.63,2.78-3.19-2.66-.14-4.7,1-6.79,2.4-.9-1.85-1.94-3.53-4.35-3.77a4.94,4.94,0,0,1,1.77-2.51,24.4,24.4,0,0,1,6.24-3.49,180.2,180.2,0,0,0,22.85-11.5,50.88,50.88,0,0,0,7.18-5.17c3.63-3.18,4.76-7.24,3.63-11.92a32.6,32.6,0,0,0-4-9.19c-3.45-5.66-7.74-10.73-11.54-16.15-1.79-2.55-3.57-5.12-4.08-8.3-.19-1.25-.53-2.53.47-3.64a.78.78,0,0,0,.2-.88c-1-1.83.22-3.39.54-5.06.2-1,.72-1.29,1.66-1.21,4.75.41,9.51.82,14.27,1.2a4.42,4.42,0,0,0,2.42-.33l-8.4-7.79a7,7,0,0,1,4.05-1A52.42,52.42,0,0,1,737,472.93a5,5,0,0,1,3.12,3.34c1.19,3.9,1.6,8,2.91,11.83A11.68,11.68,0,0,1,742.13,497.73Zm31.76,80.16c-1.28.21-2.42,1-3.81,1.05a5.63,5.63,0,0,1,1.76-2.89,1.85,1.85,0,0,1,1.93-.54c.68.22,1.44.38,1.45,1.29S774.47,577.79,773.89,577.89Zm7.57,2.77a6.47,6.47,0,0,1-2.6,1.2c-.45-.94.07-1.56.31-2.19.46-1.26,1.24-1.46,2.39-.77S782.59,580,781.46,580.66Zm11.06,1.51c-1,.59-2.08,1.09-3.23,1.69a3.32,3.32,0,0,1,1.39-3.35,1.39,1.39,0,0,1,1.93,0C793.32,581.08,793.32,581.71,792.52,582.17Zm12.57.09c-1,.61-1.45,1.83-2.56,2.36-.87-2.8-.39-4,1.63-4.2.56-.06,1.14-.08,1.48.49S805.55,582,805.09,582.26Zm-5.18-138c-2.56-1.73-4.33-4.24-6.75-6.79.11,2.64,1.48,4.24,2.29,6.08-3-2-4.78-5-6.14-8.19-.36-.85.06-1.22.83-1.24,1.83,0,3.66,0,5.49,0,.64,0,1.08.26,1.08,1,0,3.1,1.52,5.62,3.11,8.11A.84.84,0,0,1,799.91,444.3Zm4.37-9.95c1.88-.45,3.19-.34,4.28,1.33s3.11,2.87,4.82,4.2A10.86,10.86,0,0,1,804.28,434.35Zm9,0c1.85-.64,3.06-.16,4,1.39,1,1.7,2.72,2.64,4.2,3.92A12.24,12.24,0,0,1,813.27,434.38Zm21.33-3.94c-11.41,1.85-22.89,1.62-34.38,1.31q-7.43-.21-14.84-.3c-2.19,0-2.35.3-1.52,2.38,1.56,3.93,3.66,7.61,4.93,11.68a74.26,74.26,0,0,1,2.86,17.39c.33,5.24.1,10.51.74,15.75.87,7.17,3.94,12.82,10.2,16.72,4.37,2.73,8.86,5,14,5.9,2.1.36,2.68,1.14,2.67,3.25a10,10,0,0,1-1.48,5.46,8.26,8.26,0,0,0-1.25,4.77c.07,3.6-.12,7.2.05,10.79.39,7.79.7,15.58,1.66,23.34.39,3.23.55,6.5,1,9.73a3,3,0,0,1-1.07,2.78A12.86,12.86,0,0,0,814,571.93a19.11,19.11,0,0,1-1.3,6.76,6.32,6.32,0,0,1-1.21,2c-1.62,1.93-2.22,1.84-3.31-.39a3.7,3.7,0,0,0-3.32-2.37c-.45,0-1,.16-1.53-.39,1.54-2.13,4.07-3.27,5-5.83-4.18.44-8.22,3.79-9.18,7.62a2.78,2.78,0,0,1-.89,1.61,1.53,1.53,0,0,1-2.47-.2c-2.27-2.54-2.27-2.54-5.26-3.16,1.74-3,4.91-5,6-8.35-4.26,1.91-7.9,4.37-8.79,9.42-.1.58,0,1.33-1,1.37a1.82,1.82,0,0,1-1.86-.8.88.88,0,0,1-.1-.22c-.58-1.69-2-2.38-3.57-3,.47-1.72,2.49-2.52,2.56-4.6a8.84,8.84,0,0,0-5,2.57c-.84.78-1.45,1.13-2.38.19a3.83,3.83,0,0,0-1.46-.79c-.45-.17-1-.21-1-.79s.54-.76.93-1a18.88,18.88,0,0,1,3.95-1.69,24.45,24.45,0,0,0,7.66-4.34c4.41-3.88,6-8.94,6.12-14.55a76.9,76.9,0,0,0-4.61-27.91c-2.05-5.76-6.06-9.83-11.43-12.67-4.69-2.49-9.81-3.82-14.78-5.55a24.22,24.22,0,0,1-8.57-5.08c-4-3.68-6-8.36-7.08-13.55a103.68,103.68,0,0,0-7.49-23.15,36.49,36.49,0,0,0-7.33-10.86,9,9,0,0,0-5.33-2.9c6.1,5.39,9.16,12.58,12.21,19.8-.74.4-1.29,0-1.88-.19-5.06-1.74-10.18-3.28-15.56-3.58a55.14,55.14,0,0,0-10.51.35c-5.37.74-10.77,1.21-16.13,2a290.47,290.47,0,0,0-35.7,7.91c-3.54,1-7.05,2-10.57,3-1.52.43-1.66.29-1.56-1.28,0-.4.07-.79.13-1.19a1.16,1.16,0,0,0-.11-1,4.3,4.3,0,0,0-2.8,3.48,15.27,15.27,0,0,0,0,7.33c1,3.45,1.57,7,2.53,10.45a4.06,4.06,0,0,1-.7,3.8c-.9,1.23-1.77,2.47-2.75,3.63-5.92,7-10.44,14.88-15,22.78a215.45,215.45,0,0,0-17.64,39.74,2.87,2.87,0,0,1-1,1.56c-2.1,1.51-2.87,3.75-3.38,6.14-.16.77-.32,1.55-.43,2.34a3.68,3.68,0,0,1-3,3.34,11.53,11.53,0,0,0-3.91,1.76c-.81.57-1.47.6-2.05-.21a5.78,5.78,0,0,0-5.84-2.66c.14-1.17,1-1.49,1.7-1.95,2-1.37,4-2.66,6-4a11,11,0,0,0,1.3-1c.17-.14.38-.32.25-.6a.58.58,0,0,0-.78-.33c-3.74,1.33-7.67,2.3-10.34,5.6a9.35,9.35,0,0,0-2,4.76c-.06.51-.25,1-.78,1.07s-.64-.56-.82-1c-.91-2.23-.92-2.23-3.62-3.73,2.61-2.47,6.16-3.68,8.56-6.56A15.15,15.15,0,0,0,576.3,580c-.16.42-.11,1.07-.74,1s-.63-.63-.8-1.08c-1.17-3.2-1.17-3.19-4.58-4.34,1.88-1.86,4.51-2.79,5.93-5.34a11.24,11.24,0,0,0-6,1.85c-1.42.85-1.47.91-2.25-.4a4.56,4.56,0,0,0-3.18-2.11,8.67,8.67,0,0,1,3.14-2.14c2.75-1.27,5.53-2.48,8.26-3.78a19.52,19.52,0,0,0,9.84-9.69c5.17-11.41,8.9-23.2,10.07-35.74.56-6.1,1.3-12.18,1.85-18.28.21-2.3,1.48-4.1,2.28-6.57,2.15,3.64,3.74,7.14,6.94,9.67.54-2.17.94-4.17,1.54-6.11a39.19,39.19,0,0,1,4.79-9.87c2.58-3.95,5-8,7.52-12,.33-.52.49-1.18,1.34-1.54.53,6.66,3.3,11.43,10.72,12.47a5.3,5.3,0,0,0-1.77-2.75c-2-2-2.36-4.34-2-7.05a23.42,23.42,0,0,1,3.2-7.92c3.39-6.05,6.73-12.12,10.25-18.47,1.94,3.47,4.23,6.28,7.54,8.09a6.26,6.26,0,0,0,2.85,1.17c.46-.88-.05-1.58-.38-2.26-2.93-6.06-1.65-11.41,2.9-15.91s8-9.54,9-16a1.5,1.5,0,0,1,1.82-1.41c6.35.45,12.12-1.53,17.68-4.28a6.38,6.38,0,0,1,4.21-.29,100.36,100.36,0,0,0,15.43,1.63,49.85,49.85,0,0,0,21.08-3.5,38.84,38.84,0,0,1,17.54-2.93,111.61,111.61,0,0,1,13.71,2c11.84,2.16,23.74,3.92,35.71,5.16a270.74,270.74,0,0,0,30.77,1.86,75.16,75.16,0,0,0,17.8-1.81,37.73,37.73,0,0,0,17.17-9c7.54-7.15,10.55-18.49,5.44-28a27.45,27.45,0,0,0-10.74-10.66c-10.8-6.29-22.29-7.71-34.39-4.86-17.62,4.15-35.34,7.81-53,11.7-12.15,2.67-24.32,5.24-36.49,7.81-10,2.13-20.08,2.54-30-.58A36.92,36.92,0,0,1,680,375.74a22.57,22.57,0,0,1,.31-28.7c3-3.62,6.86-5.89,11.09-7.67a67.65,67.65,0,0,1,18.33-4.32c5.7-.68,11.44-.9,17.17-1.21,3.81-.2,7.65-.07,11.44-.67a19.33,19.33,0,0,1,2.67,0,3.1,3.1,0,0,0,.89,4,26,26,0,0,1-5.81-.19,89.62,89.62,0,0,0-41.3,7.32,29.51,29.51,0,0,0-9.12,6.07c-5.08,5.12-5.54,11.1-2.13,17.27,3.22,5.85,8.5,9.16,14.53,11.45a48,48,0,0,0,16.37,3.05c12.07.23,23.81-1.95,35.5-4.56,14.63-3.27,29-7.46,43.59-11A197.93,197.93,0,0,1,825.28,361c10.65-.81,21.05.33,30.73,5.28,10,5.14,16.53,13.09,19,24.16a20.73,20.73,0,0,1-1.44,13.77,69.89,69.89,0,0,1-7.43,12.26c-2.42,3.22-5.89,5-9.32,6.94C849.9,427.25,842.37,429.18,834.6,430.44Zm23.29-3.5c.4-.89,1.12-1.14,1.7-1.52a1.12,1.12,0,0,1,1.53.12c1.28,1.4,2.93,2.38,4.24,3.8A14.91,14.91,0,0,1,857.89,426.94Zm6.68-4.31c1.78-1.46,1.81-1.48,2.87.13,1.37,2.05,2.71,4.11,4,6.2a5.71,5.71,0,0,1,.88,2.75C869.58,428.5,867.07,425.57,864.57,422.63Z" transform="translate(-453 -87)"/><path class="cls-1" d="M612,416.15a57.58,57.58,0,0,0-10.44-6.7,8.81,8.81,0,0,0-5.56-.77c-3.81.7-7,2.69-10,4.81-1.7,1.17-2,1.85-1.45,3.85a24.33,24.33,0,0,1,.94,3.69,80.74,80.74,0,0,0,2.74,14c.74,2.75,2.38,3.56,5.07,2.6a6.3,6.3,0,0,0,1.27-.64,4.83,4.83,0,0,1,6,.28,12.94,12.94,0,0,0,3.58,1.89c2,.69,2.61.52,3.53-1.25a46.52,46.52,0,0,0,5.52-18.52A3,3,0,0,0,612,416.15Zm-6.49,12.12c-.34.2-.49,0-.69-.09-1.65-.62-2.34-.22-2.61,1.45-.15.94-.34,1.88-.51,2.81s-.73,1.41-1.7,1a5.3,5.3,0,0,0-3.72-.27,1.41,1.41,0,0,1-1.93-1.2c-.35-1.47-.89-2.89-1.22-4.36a3.8,3.8,0,0,1,3.31-4.84,21.85,21.85,0,0,0,4.19-.76c1.31-.48,2.49.46,3.27,1.5A7.13,7.13,0,0,1,605.5,428.27Z" transform="translate(-453 -87)"/><path class="cls-12" d="M624.13,380.79c-1-.61-2.1-1.17-3.11-1.79a5.62,5.62,0,0,0-5.91-.17,68.64,68.64,0,0,1-6.29,2.88c-2.45.94-4.08.37-5.71-1.61-.45-.55-.66-1.29-1.46-1.69a4,4,0,0,0-1,2.29c-.28,2.51,1.21,3.91,3.16,4.84,2.32,1.11,3.83,2.49,3.86,5.34,0,1.7.76,3.4,1.17,5.11a20.66,20.66,0,0,1,.56,2.57c.24,2.09-.61,2.95-2.71,2.73A5.24,5.24,0,0,0,602.1,403c-3,3.1-3,3.12-5.89-.21-1.37-1.58-2.88-2.64-5.13-2.51-1.7.1-1.92-.24-2-1.9a4.87,4.87,0,0,1,.39-2.08,31.9,31.9,0,0,1,2.35-4.44c1-1.63,2.32-3.12,2.86-5a3.39,3.39,0,0,1,1.83-2.23c2.17-1.27,3.71-3.07,3.59-5.89-.94,1.48-2.45,1.6-3.9,2a1.61,1.61,0,0,1-1.88-.44,13.63,13.63,0,0,0-6.82-3.73c-2.74-.69-4.92.26-7,1.74.45,1,1.24.95,1.92.85,1-.16,1.47.25,1.57,1.23a4.64,4.64,0,0,0,.26,1.16c1,3.2,3.11,4.27,6.29,3.31.73-.21,1.35-.82,2.37-.67a9.67,9.67,0,0,1-1.77,5.11c-1.37,2-2.32,4.19-3.54,6.25-2.6,4.38.71,7.36,4,8a8.8,8.8,0,0,1,4.83,2.29c1.65,1.57,3.2,1.66,5,.3A16,16,0,0,1,608.5,403c2.86-.52,3.63-1.75,3-4.6s-1.29-5.42-2-8.13a6.52,6.52,0,0,1-.15-3.07c.35-1.46.66-1.62,2.14-1.06a6.6,6.6,0,0,0,4.65.34,5.11,5.11,0,0,0,3.22-3c.87-2,1-2,3-1.41a2.22,2.22,0,0,0,1.39.13c.37-.14.79-.24.83-.74S624.39,380.94,624.13,380.79ZM591,382.69A3,3,0,0,1,586,382a4.24,4.24,0,0,1-.28-2.56c.06-.3.19-.62.87-.46a.82.82,0,0,1,.68.83,3.2,3.2,0,0,0,.15,1.62c.49,1,1,1.27,2,.76.28-.14.49-.42.77-.54a.61.61,0,0,1,.83.21A.68.68,0,0,1,591,382.69Zm26.85-.42a3.35,3.35,0,0,1-3.56,2.66,2.56,2.56,0,0,1-2.41-1.13.56.56,0,0,1,0-.65c.15-.24.41-.2.64-.18a1.28,1.28,0,0,1,.22.09c2.64,1.08,2.66,1.09,3.7-1.31.21-.5.39-.89,1-.67S617.91,381.79,617.8,382.27Z" transform="translate(-453 -87)"/></svg>