<svg id="Layer_1" data-name="Layer 1" xmlns="http://www.w3.org/2000/svg" viewBox="0 0 552.38 553.46"><defs><style>.cls-1{fill:#fff;}</style></defs><title>Chess Club Logo</title><path d="M561.45,642.88H547.93a26.34,26.34,0,0,0-3.17-.47,265.94,265.94,0,0,1-48-6A276.47,276.47,0,0,1,299.61,471.1a271.43,271.43,0,0,1-20.33-94.73c-.11-3.05-.34-6.09-.51-9.14v-7.57c.15-1.14.36-2.28.44-3.43.43-6.46.59-12.94,1.28-19.37a267.28,267.28,0,0,1,11.89-55.93c19.18-57.8,53.22-104.84,102.86-140.21,46.28-33,98.05-49.81,154.9-50.94,1.25,0,2.49-.24,3.74-.36h2.7c1.07.11,2.13.26,3.21.32,7.08.43,14.18.74,21.26,1.28a242.16,242.16,0,0,1,41.59,7.07,275.86,275.86,0,0,1,208,259.21c.06,2.05.32,4.1.49,6.15v7c-.12,1-.3,1.95-.36,2.92-.45,7.18-.61,14.38-1.36,21.53a267.5,267.5,0,0,1-11.77,55.95q-28.54,87.18-103,140.77a269.61,269.61,0,0,1-93.59,43.06,252.53,252.53,0,0,1-45.68,7.14C570.74,642.12,566.1,642.53,561.45,642.88Zm51.22-192,.84-.66c2.63,5,7.31,6.93,12.14,8.82,4.59,1.8,9.08,3.89,13.52,6.05a5.37,5.37,0,0,1,2.28,2.75c1.53,3.9,4.66,6,8.88,5.33,9.27-1.47,8.86.37,13.18-9.59a11.74,11.74,0,0,0,.56-8.38,66.25,66.25,0,0,0-9.82-19.41c-2-2.86-3.89-5.76-3.84-9.58,0-1.3-1.22-2.68-2-3.92-1.1-1.67-2.35-3.25-3.72-5.11a51.72,51.72,0,0,0,5.2-2.79c.7-.48,1.55-1.72,1.36-2.27-.27-.78-1.38-1.4-2.26-1.79-1.68-.76-3.54-1.14-5.17-2-1.92-1-3.58-2.45-5.51-3.39-1.6-.77-1.67-1.35-1.08-3a48.25,48.25,0,0,0,2-9.1,2.11,2.11,0,0,0-3.88-1.42c-3.69,4.74-9.63,5-14.47,7.36-.47.24-1.23,0-1.85-.16-1.94-.38-3.86-.92-5.81-1.17-8.41-1.09-16.08,1.14-23.14,5.58-2.5,1.57-2.14,4.09.52,5.53a9.6,9.6,0,0,1,4.72,11.68c-1.44,3.81-3.57,7.35-5.39,11,0,.08-.15.13-.17.21-.43,1.3-1.24,2.61-1.21,3.89.13,4.68.45,9.36.87,14,1.09,12.1,2.32,24.19,3.39,36.3.2,2.23,1,3.06,3.31,3,3.26,0,4.81,2.25,4.12,5.46-.17.79-.38,1.57-.58,2.36-1.6,6.21-1.43,6.66,4.09,10,4.78,2.89,8.23,6.63,8.73,12.55A2.94,2.94,0,0,0,614.6,521a47.07,47.07,0,0,0,10-1.85c6.11-2.13,10.27-6.69,13.51-12.24a8.69,8.69,0,0,1-.94,3c-4.75,8.72-12.46,12.73-22.06,13.29-2.54.16-3.11,1.42-2.6,3.18.67,2.33-.51,4.11-1,6.11-.22.83-.54,1.63-1.08,3.25h17.14l0,1a32.31,32.31,0,0,1-3.64.55c-3.24.14-6.48.23-9.72.2-2,0-3.33.15-3.05,2.73.22,2.06-.37,4.09,3,4,9.18-.19,18.37,0,27.56,0,5.48,0,6.43-1.3,4.92-6.7-.08-.26-.32-.52-.29-.75a5.13,5.13,0,0,1,.48-2.39,7.23,7.23,0,0,0,1.21-7.39,74.4,74.4,0,0,0-4.62-10.31,4.54,4.54,0,0,1-.06-5.11c5.56-10.13,5.87-23.62-2.63-33.07a147.46,147.46,0,0,0-12.54-11.8c-3.64-3.2-7.71-5.94-11.23-9.26C615.14,455.61,614.08,453.07,612.67,450.9ZM552,413.21l.12.81a10.18,10.18,0,0,1-2.61.72c-6.74,0-13.5.08-20.24-.24-2-.1-2.65.69-3.63,2s-.84,2.26,0,3.58a9.25,9.25,0,0,1,.16,10.47,11.51,11.51,0,0,0-1.76,6.32c0,1.8-.2,3.6-.38,5.39-1.47,14.46-2,28.91.42,43.34.36,2.14.94,3.24,3.32,3.12s4.1.91,4.45,3.4c.22,1.61,1,2.09,2.52,2.06,3-.06,6,0,9,0l0,.67c-1,.14-1.92.34-2.88.4-2.43.15-4.86.29-7.29.33-2.89.05-2.56,2.46-2.84,4.12-.35,2.14,1.61,1.4,2.67,1.54,1.78.23,3.59.24,5.39.37,2.43.17,4.87.37,7.3.56l0,1-13.46,1.24c2.71,2,5,3.51,7.06,5.32,4,3.59,5.55,4.65,10.58,6.17a23.41,23.41,0,0,0-4.37.58c-.7.25-1.65,1.14-1.66,1.76-.13,5.6.9,11.31-2.27,17.09l18.95.65v.88c-1.12.15-2.24.41-3.36.45-3.87.14-7.75.36-11.61.24-2.9-.09-3.05,1.42-3.11,3.69-.07,2.56,1.09,3,3.26,3,8.74-.09,17.47,0,26.21-.13,1.64,0,4.18,1.33,4.84-1.25.45-1.8-.19-3.88-.43-5.82-.07-.51-.56-1-.69-1.46s-.23-1.2,0-1.49c2.94-3.32,2.23-7.37,2.53-11.3.48-6.07-2.08-10.07-7.22-13-6.55-3.75-7.44-6.25-5.59-13.59.85-3.39.83-3.49-2.75-3.38-2.22.06-3.45-.37-3.65-3-1.57-20.1-3.3-40.19-4.86-60.29-.08-1,.86-2.12,1.38-3.16.66-1.31,1.85-2.58,1.92-3.91a4,4,0,0,1,1.74-3.51,5.8,5.8,0,0,0-1.56-10.19c-.66-.25-1.33-.45-2.28-.77,1.68-4.48,3.59-8.75,4.89-13.2a122.57,122.57,0,0,0,3.74-16.25c.81-5.45-1.52-8-7-8.79-1.77-.25-3.6-.15-5.38-.42a2.65,2.65,0,0,1-1.88-1.18,2.22,2.22,0,0,1,.72-2c1.82-1.32,1.52-2.83.77-4.51s-1.44-3.39-2.38-5.63c2.36.17,4,.23,5.68.43s2.57-.37,2.55-2.17c0-2.88,0-5.76,0-8.63,0-1.85-1-2.31-2.61-2.09s-3.32.35-5.58.58a48.59,48.59,0,0,1,2.19-5.41c1.21-2.19,1.05-3.87-1.17-5.22-.77-.46-1.4-1.17-2.19-1.55a5.82,5.82,0,0,1-3.34-3.86,5.47,5.47,0,0,0-10.3-.09,6.53,6.53,0,0,1-3.53,4.07,27.61,27.61,0,0,0-2.6,1.92c-1.51,1.06-1.7,2.32-.91,4,.87,1.83,1.54,3.75,2.54,6.21a39.82,39.82,0,0,0-5.67-.56c-.81,0-2.24.84-2.28,1.37a72.88,72.88,0,0,0-.08,9.69c0,.63,1.29,1.62,2,1.69a40.57,40.57,0,0,0,5.87-.34c-.91,2.25-1.55,4.08-2.37,5.82s-.9,3,.79,4.23c.52.39,1.06,1.59.84,2a3.26,3.26,0,0,1-2.1,1.3c-1.77.27-3.61.13-5.38.41-5.5.88-7.84,4-6.82,9.5a10.91,10.91,0,0,0,2.38,4.4c4.41,5.61,8.94,11.19,10.51,18.34.77,3.51.68,7.22,1,11.3ZM519.58,535.79l.06,1c-1.55.18-3.09.48-4.63.51-6.67.1-13.33.11-20,.21-.85,0-2.38.31-2.41.61a17.17,17.17,0,0,0,.15,5.31c.09.43,1.87.7,2.87.7,12.61,0,25.22.1,37.83-.06,1.64,0,4.37,1.62,4.93-1.4.35-1.92-.31-4-.59-6.06,0-.42-.51-.78-.59-1.2s-.17-1.19.1-1.47c3.24-3.42,2.47-7.69,2.66-11.79.25-5.32-2-9.17-6.48-11.86-.77-.46-1.56-.9-2.32-1.37-4.44-2.77-5.65-5.51-4.67-10.7.31-1.64.74-3.27,1.18-5.15-.93-.13-1.61-.29-2.29-.31-4.54-.13-4.64-.11-5-4.49-1.4-15.69-2.71-31.39-4.07-47.08-.15-1.69,0-3,1.5-4.28a4.28,4.28,0,0,0,1.42-3.32c-.29-1.89.57-2.69,1.84-3.67a5.34,5.34,0,0,0,1.89-6.06,5.65,5.65,0,0,0-5.08-4.2l-2.56-.37c1.11-.69,1.66-1.11,2.28-1.4,4.69-2.19,6.84-5.87,6.56-11-.26-4.75-2.31-8.86-4.74-12.77-1.62-2.62-3.6-5-5.7-7.9-2.85,4.08-5.25,7.66-7.82,11.1-.57.78-1.73,1.12-2.62,1.66a8.59,8.59,0,0,1,.63-2.77c2.22-3.39,4.54-6.72,6.92-10a2.7,2.7,0,0,0-.07-3.83,16.29,16.29,0,0,1-2.84-4.55,5.13,5.13,0,0,1,.25-3.85c1.83-3.24,2.09-5.89.13-8.57-2.33-3.19-5.65-4-9.36-3.39s-6.34,3-6.7,6.13c-.19,1.59-.08,3.75.85,4.82,2.23,2.56,1.26,4.58-.28,6.68-2.91,4-6,7.9-8.87,11.9-3.2,4.42-5.67,9.18-6.41,14.7-.22,1.65,0,2.86,1.53,3.92a4.25,4.25,0,0,1,1.83,3c-.25,2.74,1.14,3.94,3.32,4.83a10.92,10.92,0,0,1,1.81,1.27c-5.78,1-8.63,3.81-6.83,8,1.44,3.33,3.34,6.66,5,10,.51,1.06,1.33,2.22,1.25,3.27-1.18,15.26-2.48,30.51-3.77,45.76a96.91,96.91,0,0,1-1.18,11.32c-.94,4.5-.51,5.61,3.28,8.34,2.94,2.12,5.41,4.88,8.16,7.26a5,5,0,0,0,2.5,1.25c2.87.28,5.75.32,8.63.48,2,.1,4.05.25,6.07.37V516c-3.66.2-7.32.44-11,.58-4.55.18-4.42.15-4.59,4.74s-.64,9.33-1,14.49Zm-66.86,8.33h30.52c5.3,0,6.3-1.4,4.59-6.57-.22-.68-.69-1.28-.87-2s-.28-1.4,0-1.7c3.12-3.27,2.24-7.35,2.57-11.25.52-6.25-2.44-10.23-7.57-13.13-5.9-3.33-7.19-6.5-5.49-13,1-3.8,1-3.9-3-3.82-2.13,0-3.1-.61-3.25-2.84-.2-3-.87-6.06-1.05-9.11-.61-10.42-1.08-20.85-1.63-31.27-.07-1.45.31-2.23,1.94-2.6,4.1-.94,3-6,5.94-8,.7-.47.51-2.31.65-3.53a1.38,1.38,0,0,0-.3-1c-2.58-2.45-1.48-5.29-1-8.1.63-3.45,1.06-6.94,1.81-10.36.43-2-.3-2.44-2-2.41-2.79,0-5.59.1-8.37,0-2.08-.08-2.73.85-2.59,2.76a11.55,11.55,0,0,1-.08,3.22c-.11.53-.93,1.34-1.3,1.28a2.24,2.24,0,0,1-1.58-1.29,12.68,12.68,0,0,1-.13-3.49c.09-1.7-.61-2.48-2.35-2.46q-5.55.07-11.08,0c-1.64,0-2.26.74-2.19,2.31a14.61,14.61,0,0,1-.06,3.5c-.12.59-.9,1.05-1.38,1.57-.52-.48-1.34-.89-1.48-1.47a10.25,10.25,0,0,1-.1-3.23c.15-2-.76-2.74-2.71-2.67a68.17,68.17,0,0,1-7.83,0c-2.38-.19-2.83.83-2.45,2.86.81,4.33,1.66,8.67,2.28,13,.17,1.18-.45,2.45-.66,3.69-.31,1.77-1.2,3.75-.72,5.28a30.47,30.47,0,0,0,3.83,7.06,4,4,0,0,0,2.38,1.58c1.47.28,1.95.92,1.86,2.37-.82,13.1-1.53,26.22-2.45,39.32-.28,4-.54,4.07-4.63,4.06-2,0-3,.17-2.23,2.72,2.58,8.79.3,11.22-5.66,14.49-.47.26-.92.55-1.37.86-2.68,1.83-5,4.08-5.33,7.44s-1.06,7.3,0,10.43c1.38,4.09,2.05,7.74,1.09,12-.73,3.19,0,3.46,3.29,3.47ZM566,369a14.81,14.81,0,0,1,2.15,12.07A57.06,57.06,0,0,0,567,396.63a25.64,25.64,0,0,1-.24,3.7l-.57,0c-.32-1.52-.63-3-1-4.59-.46.17-.73.19-.77.3-.83,2.08-1.65,4.16-2.44,6.25-1.44,3.82.25,6.12,4.38,6.07,3.61,0,7.22,0,10.83,0,0,.31,0,.63,0,.95-1.12.09-2.24.23-3.36.25-2.25.05-4.51,0-6.75.09-.64,0-1.69.6-1.79,1.08-.79,3.76.84,5.59,4.76,5.59,1.17,0,2.35,0,3.51,0,2.74.14,5.47.32,8.21.49a2.13,2.13,0,0,1-1.7,1.09c-4.23.21-8.45.42-12.68.54-2.14.07-5.24,2.47-5.59,4.57-.25,1.48.28,2.09,1.92,2,3.23-.15,6.48-.1,9.72-.08a18.41,18.41,0,0,1,2.43.33l0,.93c-3.89,0-7.78.1-11.66,0-3.58-.12-6.1,2.14-5.83,5.77q1.66,22.76,3.46,45.51a7.34,7.34,0,0,0,.46,1.52l.79,0,3.57-36.18a14.47,14.47,0,0,1,.72,5.11q-.51,18.5-1.12,37c-.06,1.82-.34,3.51,2,4.44.92.38,1.47,1.86,2,2.93a14.6,14.6,0,0,1,.8,2.58l-.7-.22a28.67,28.67,0,0,0-1.35,5.93c0,.44,2.45,1,3.78,1.44.41.14.83.23,1.44.4L570,504.12c5.62,3.61,11.35,6.57,12.16,13.26.73,6,1.2,12.14-1.89,18.09l8.15.57,0,.89a34.79,34.79,0,0,1-4.18.41c-2,0-3.2.2-3,2.78.31,3.94.13,4,3.29,4,5.94,0,11.88,0,17.83,0,4.93,0,5.58-.8,4.54-5.69-.19-.87-.7-1.66-.94-2.52-.18-.63-.5-1.61-.21-1.93,2.86-3.12,2.4-6.94,2.67-10.71.46-6.45-2.25-10.75-7.78-13.86-6-3.37-7-6.4-5.25-13.06.94-3.57.93-3.68-2.66-3.58-2.3.07-3.37-.55-3.59-3.07-1.63-18.92-3.41-37.83-5.11-56.74-.07-.7-.17-1.76.22-2.08,2.34-1.92,3.92-4.1,3.51-7.33,0-.27.54-.69.9-.93a5.83,5.83,0,0,0,2.61-7c-.8-2.63-2.84-3.87-5.52-4-1.72-.07-2.18-1-2-2.48s.42-3.21.74-4.8c2.07-10.12,4.46-20.1,12.8-27.3.09-.08,0-.33.06-1l-6.85-.64-.07.44,3.62.77,0,.92-8.15,1.16-.21-.44,2.61-1.95c-2.19-2.39-4.32-4.56-6.26-6.89a10.93,10.93,0,0,1-1.48-3.14c-.8-2.06-1.49-4.15-2.27-6.2a25.78,25.78,0,0,1-1.63-4,7,7,0,0,0-6.39-6c-3.59-.4-7.28,1.23-7.89,4.24a17.44,17.44,0,0,1-3.42,7.62,4.06,4.06,0,0,0-.74,2c-.06.54.17,1.52.48,1.61,2.44.73,4.92,1.76,7.4,1.79,3.89,0,7.73-.31,11.39,1.78ZM508.41,178.64c0,4.67,0,9-.06,13.27a2.33,2.33,0,0,1-1.27,1.71c-6.2,2.14-12.64,3.18-19.09,2-8.65-1.58-13.33-7.71-15.63-15.71-2.05-7.14-1.64-14.41.22-21.56,2.53-9.78,9.33-18.37,21.42-18.76,5.74-.18,11.57.89,17.26,1.95,4.39.82,5.26.73,6.79-3.54.6-1.68,1.2-3.37,1.78-5.07,1-3,.36-4.4-2.6-5.31-8.81-2.72-17.69-4.36-27-3.11-9.84,1.33-18.29,5.2-24.91,12.61C453.47,150.35,451,166,454.92,182.7c3.16,13.66,11.61,23.15,25.24,26.85,15,4.06,29.13.32,42.62-6.42a4.4,4.4,0,0,0,1.79-3.29c.13-10.8.1-21.61.06-32.42a3.2,3.2,0,0,0-3.55-3.52q-12.84,0-25.67,0c-2.39,0-3.66,1.25-3.67,3.68s0,4.68,0,7c0,3,1.07,4,4.08,4C499.88,178.66,503.92,178.64,508.41,178.64Zm3,424.69.13.75c.54.25,1.06.53,1.61.75,12,4.71,24,9.26,35.86,14.23a9,9,0,0,0,7.9,0c11.7-4.88,23.56-9.39,35.35-14.07a29.49,29.49,0,0,0,2.88-1.55l-41-14.35v-.88l35.26-12.39,0-.87-35-11.1.07-.93,31.69-10.06v-1.11c-5.29-1.14-10.56-3.05-15.89-3.26-11.77-.49-23.6-.45-35.37,0-5.14.22-10.2,2.12-15.3,3.25l.06,1c10.37,3.77,21.17,6.36,31.5,10.27l-.18.8-34.76,11-.06.89,35.62,12.55-.11.92Zm-42.68-307c.44,2.51.72,5.08,1.37,7.56,1.59,6.14,4.91,7.55,10,3.78,5.93-4.39,11.81-8.8,16.66-14.61,3.36-4,8.22-6.83,12.13-10-.14,3.35-.37,6.72-.4,10.1-.07,6.26-2.24,9.62-7.87,12-.35.15-.58.58-1.17,1.22,2.82,1.42,5.09.33,7-.92,6-4,11.78-8.24,17.65-12.4.29-.21.5-.52.77-.75L538.61,281c0,2.22-.62,3.81-.85,5.46-.35,2.57-.13,5.25-.66,7.77-.9,4.33-2.79,8-7.84,8.77-.48.07-.87.67-1.7,1.36a7.32,7.32,0,0,0,7.09-.59c6.26-3.71,12.41-7.62,18.52-11.56.63-.4.78-1.55,1.15-2.35l-.77-.4-10.71,6.47c1.27-3,2.41-6.07.84-8.88-1.73-3.09-1-5.21,1.27-7.34a24.47,24.47,0,0,0,1.7-2.06c-1.72-.19-3.17-.83-4.08-.38a66.2,66.2,0,0,0-9.42,5.53c-5.12,3.73-10,7.8-15,11.67-1.41,1.09-2.94,2-4.42,3,1.59-3.72,2.11-7-.17-10.49a3.54,3.54,0,0,1,.56-4.67,31.68,31.68,0,0,0,2.32-3.31,8.32,8.32,0,0,0-7.91,1.56c-1.64,1.26-3.24,2.58-4.85,3.88-4.2,3.39-8.46,6.71-12.58,10.2-3.39,2.85-6.51,6-9.93,8.82-2.08,1.68-3.31,1.14-4.06-1.44-.47-1.63-.7-3.33-1.09-5-.35-1.5.27-2.26,1.48-3.23a46.5,46.5,0,0,0,7.23-7.07,4.58,4.58,0,0,0-.09-4.34,5.09,5.09,0,0,0-4.22-1.37c-5.37,1-8.85,4.4-10.78,9.51a9.67,9.67,0,0,1-2.24,3.43c-2.13,2.05-4.63,3.73-6.67,5.86-2.78,2.9-5.28,6.07-8.19,9.47-1-3-1.68-5.34-2.43-7.63-1.52-4.63-4.47-5.53-8.31-2.49a24.14,24.14,0,0,0-2.43,2.52c-2.77,2.92-5.53,5.85-8.76,9.28-.6-4.27-1.19-7.87-1.53-11.49-.06-.68.74-1.55,1.33-2.16,9.52-9.7,19.14-19.31,28.58-29.09a26.56,26.56,0,0,0,5-7.25c1.69-3.69-.08-6.68-4.16-7.19-10.07-1.26-18.64,2-25.28,9.63-7.33,8.43-10.59,18.8-11.76,29.58-.7,6.39-2.44,11.54-7.59,15.43-.66.49-1.5,1.7-1.3,2.17.77,1.83-.52,2.66-1.42,3.62-2.15,2.3-4.31,4.61-6.63,6.73-10.26,9.37-25.07,6-30.29-6.84a56.39,56.39,0,0,1-3.82-26.94c1.18-12.55,8.8-22.16,20.28-25.59,2.29-.68,4.7-.95,6.61-1.33-2.78,6.31-5.82,12.3-8.06,18.58-2.35,6.57-3.18,13.49-1,20.37,1.65,5.27,5.52,7.52,10.65,5.64a20,20,0,0,0,7.62-5.2c4.34-4.81,6.16-10.89,6.74-17.26.87-9.4.11-18.24-9.87-23.85,3.6-3,6.85-6.15,10.48-8.74s7.48-4.53,11.24-6.76l-.33-.88a18.9,18.9,0,0,0-3,.68A60.14,60.14,0,0,0,403,256.65a5.4,5.4,0,0,1-3.14,1.49,36.25,36.25,0,0,0-20.23,8c-13.7,11.1-19.09,30.92-13.31,48.42,4.32,13.07,14.22,18.48,27.54,15.17,7.65-1.89,13.68-6.19,18.72-12.05,3.2-3.72,6.33-7.51,9.68-11.5.51,2.66.78,5,1.44,7.15.37,1.23,1.29,3.05,2.17,3.18a6.36,6.36,0,0,0,4.3-1.4c1.54-1.18,2.64-2.92,3.95-4.41,2.84-3.25,5.7-6.49,8.92-10.15.44,3.63.81,6.56,1.17,9.5s2.35,4.25,5.11,3.24a10.39,10.39,0,0,0,3.45-2C458.13,306.39,463.4,301.36,468.73,296.34Zm157.61-52c-5,4.41-10.12,8.41-14.62,13-5.27,5.38-9.32,11.65-10.57,19.32-.8,4.85,2,8.78,6.92,8.9a20.63,20.63,0,0,0,8.84-1.48c8.82-4,14.15-11.39,17.67-20.16,2.58-6.43,3.44-12.82-2.16-19,4.74-1.5,9-3.12,13.42-4.16s8.94-1.49,13.42-2.19c0-.32,0-.63,0-1a17,17,0,0,0-3.62-.56,69.72,69.72,0,0,0-24,5.49,4.54,4.54,0,0,1-3,.41c-8-3-16.07-2.48-24,.1-17,5.53-30.65,23.35-31.82,41.19-.41,6.3,1,12.11,6,16.32,7.06,5.92,15.42,6.75,24.15,5.25,7.84-1.35,14.55-5.51,21.52-9l7.77-3.89c-.58,2.41-1.09,4.19-1.43,6a36.76,36.76,0,0,0-.76,5.6c-.16,4.94,2.18,6.84,6.93,5.56,3.11-.83,6.18-1.84,9.21-2.95,4.62-1.7,9.19-3.56,13.78-5.35l16.57-6.45.46.83c-.49.69-1,1.38-1.47,2.09-3.15,4.69-6.51,9.26-9.33,14.14-1.67,2.9-.67,4.29,2.65,4.72a21.66,21.66,0,0,0,5.09,0c8.53-.93,15.89-4.76,23-9.33.67-.43,1.38-.8,2.07-1.19-2.35,3.82-4.92,7.28-7.35,10.83-.43.62-.25,1.64-.35,2.48a8.61,8.61,0,0,0,2.81.07c2.53-.82,5-2,7.51-2.78,5.86-1.89,11.76-3.65,17.64-5.46a15.91,15.91,0,0,1-2.44,4.12,38.1,38.1,0,0,0-2.64,4.06c-2.76,5.23-1.71,7.91,3.81,9.9,4.53,1.63,9.09,1.49,13.78.59,5.79-1.11,11.65-1.8,17.46-2.81.87-.15,1.63-1,2.44-1.51l-.37-1.06-15,3c2.59-3.25,6.14-6.06,4.44-10.82-1.5-4.18-4.91-6.37-9.41-7.67,1.39-.32,2.35-.53,3.29-.77,7.77-2,15.39-4.43,21.75-9.55,1.3-1,2.71-3.19,2.5-4.6-.34-2.36-3-2.75-5.14-3.05a6.75,6.75,0,0,0-2.38.3c-8.8,2.06-16.19,6.88-22.93,12.56a24.58,24.58,0,0,1-13.07,6.12,46.82,46.82,0,0,0-9.59,2.42,59.15,59.15,0,0,0-7.1,3.6l-.42-.69c1.52-2.22,3.09-4.41,4.56-6.66a41.07,41.07,0,0,0,3.57-6,3.38,3.38,0,0,0-.76-3.07c-1.15-1.06-2.48-.56-3.42.78a7.69,7.69,0,0,1-1.73,2,80.92,80.92,0,0,1-23.6,11.5,56.7,56.7,0,0,1-6.14,1.1l-.52-.86a32.7,32.7,0,0,1,2.22-3.09c3.4-3.84,7-7.51,10.19-11.51.93-1.17,1.57-4,.9-4.7a6.1,6.1,0,0,0-5-1.35c-7,1.58-13.94,3.27-20.72,5.51-5.19,1.71-10,4.36-15.11,6.45a42.72,42.72,0,0,1-5.77,1.46,23.7,23.7,0,0,1,.52-4.47c1.35-4,2.75-7.95,4.42-11.8a6.55,6.55,0,0,1,3.06-2.93c5.27-2.49,10.8-4.46,15.94-7.19a71.76,71.76,0,0,0,13-8.54c4-3.43,2.7-7.76-2.45-8.88-10.73-2.32-20.37-.2-27.36,8.73-3.85,4.91-6.67,10.61-10.1,15.86a9.49,9.49,0,0,1-3.38,3.07c-3.87,2.06-8.09,3.15-11.87,5.76-4.18,2.88-9.34,4.52-14.28,6.06-10.72,3.35-23.46-4.51-22.35-17.39A73.72,73.72,0,0,1,585.38,269c3.22-9.69,8.68-18,18.1-22.9A28.59,28.59,0,0,1,626.34,244.3Zm-15.68-32.9c3.81-.51,7.7-.67,11.42-1.57,19.31-4.64,22.59-23.84,15.49-35-3.09-4.85-7.61-8-12.53-10.79-5.64-3.14-11.44-6.06-16.81-9.62-5.89-3.89-5-11.29,1.53-14.07a11.62,11.62,0,0,1,5.46-1.16c4.7.47,9.37,1.29,14,2.17,2.74.52,4.08.06,5.09-2.47.89-2.25,1.74-4.51,2.52-6.8s.08-4-2.22-4.72c-9.07-2.89-18.27-4.63-27.76-2.27s-16.3,7.61-18.65,17.35.46,18.22,8.61,24.06c6.31,4.52,13.37,8,20.06,12a25.57,25.57,0,0,1,5,3.54c3.21,3.18,3.25,7.94-.33,10.63a17.37,17.37,0,0,1-8,3.09,38.78,38.78,0,0,1-20-3.25c-2.41-1-4-.32-5,2.06-.87,2.16-1.57,4.39-2.32,6.59-1.06,3.1-.51,4.29,2.59,5.61A60.74,60.74,0,0,0,610.66,211.4Zm48.06,222.28-.56.69c1.93,2.65,3.88,5.28,5.76,8a13.36,13.36,0,0,1,1.81,3.2c.45,1.31.37,2.82.87,4.11,2.09,5.36,3.08,10.62.59,16.22-2,4.52-3.91,8.89-9.18,10.58-.67.21-1.25,1.59-1.37,2.49-.53,4.1-.81,8.23-1.37,12.33a2.8,2.8,0,0,1-1.67,1.95c-1.16.23-2.41.3-1.94,1.74a3.46,3.46,0,0,0,2.33,1.78,47.59,47.59,0,0,0,5.86.51l0,.75c-2,0-3.94.11-5.9,0s-2.64.93-2.75,2.72c-.14,2.28,1.5,1.81,2.75,1.88,3,.17,6,.28,8.92.41,0,.3,0,.6,0,.9-1.63.32-3.32,1.1-4.87.87-5.82-.83-8.85,1.57-10.25,7.2-.8,3.26-.58,4.21,2.92,4.36,5.36.23,10.71.48,16.07.72l0,.56-17.37,1.28c2.7,5.44,4.65,10.46,2,16.71H676v.87c-1,.12-1.93.32-2.9.35-5.76.14-11.52.29-17.28.34s-4.49-.67-4.58,5c0,1.5.65,2.06,2.13,2.06,11,0,22,0,33-.09.73,0,2.08-.88,2.08-1.35a18.15,18.15,0,0,0-.76-6.31,3.24,3.24,0,0,1,.47-3.6c2.69-3.77,2.68-12.36-.3-15.88-1.59-1.88-3.94-3.09-5.86-4.7a28.58,28.58,0,0,1-4.84-4.53c-1.67-2.29-1-5-.37-7.57,1-4.31.94-4.24-3.42-4.54-1-.07-2.61-.69-2.78-1.36-1.69-6.6-3.34-13.23-4.55-19.93-.5-2.78,1-3.84,3.86-3.86,2,0,4,0,6,0l.63-1c-1.74-2.51-3.35-5.14-5.28-7.5-1.1-1.33-1.28-2.17-.33-3.7a15.69,15.69,0,0,0-2-19.86A15.07,15.07,0,0,0,658.72,433.68ZM450.47,551.75l.09,1c9.21,3.83,18.94,6.32,28.1,10.24l-.21.76-39.6,11.38a19.44,19.44,0,0,0,2,1.23c9.88,3.91,19.74,7.84,29.66,11.63a6.46,6.46,0,0,0,3.89,0c11.7-3.57,23.38-7.24,35.05-10.91,1.31-.41,2.55-1,3.82-1.54l0-.69-31.48-11.1,0-.88,35-10.13,0-1.17c-4.69-1.09-9.34-2.94-14.06-3.12-11.6-.45-23.24-.5-34.83,0C462,548.73,456.25,550.6,450.47,551.75Zm204.34,1.15v-1.08c-5.51-1.17-11-3.11-16.54-3.36-11.86-.52-23.77-.48-35.63,0-4.61.18-9.14,2.12-13.71,3.26l.06,1,35.39,10.22-.1.87-32.19,11.33a17.93,17.93,0,0,0,2.22,1.19c12.52,4,25,7.93,37.58,11.81a5.53,5.53,0,0,0,3.39-.11c9.9-3.81,19.77-7.73,29.64-11.64a12,12,0,0,0,1.84-1.32L627,563.67c0-.3-.07-.6-.1-.89ZM533.3,167.46q0,19,0,38.07c0,3.13,1,4.22,4.18,4.32,2.7.08,5.4.1,8.1,0s3.95-1.39,3.95-4.06q0-38.21,0-76.42c0-2.74-1.15-3.86-4-3.94-2.52-.07-5,0-7.56,0-3.89,0-4.7.87-4.71,4.79Zm44.93.18q0-19,0-38.08c0-3.11-.9-4.06-4-4.14q-4.05-.11-8.1,0c-3.1.08-4.15,1.18-4.15,4.31q0,38,0,75.89c0,2.79,1.21,4.11,4,4.23,2.51.11,5,.06,7.56,0,3.61-.05,4.62-1.09,4.62-4.68Q578.25,186.4,578.23,167.64Zm80,384.91a13.5,13.5,0,0,0,1.66.73c12.26,3.24,24.51,6.49,36.79,9.65a5.46,5.46,0,0,0,3.12-.23c7.72-3,15.4-6,23.08-9.1a17.39,17.39,0,0,0,2.19-1.37l-7.92-1.91c-7-1.71-14-3.49-21-5.05-1.17-.27-3.12-.08-3.72.68a5.51,5.51,0,0,1-4.87,2.23c-4.5,0-9,.23-13.49,0C668.31,547.78,663.45,550.41,658.19,552.55Zm-277.27-.2c1.31.73,1.85,1.12,2.45,1.36,7.59,3,15.18,6.11,22.82,9a5.92,5.92,0,0,0,3.39.1c10.55-2.7,21.07-5.48,31.6-8.27,2.18-.57,4.32-1.26,6.49-1.9l0-.79c-4.9-1.23-9.34-3.94-14.69-3.75-4.95.18-9.91.14-14.86,0-1.33,0-3.22-.46-3.82-1.38-1.4-2.12-3-1.85-4.9-1.38q-10.86,2.72-21.75,5.37C385.65,551.23,383.69,551.69,380.92,552.35Zm15.69-19.18-.06.63a22.63,22.63,0,0,0,2.05,1c3.64,1.29,7.29,2.59,11,3.79,1,.34,3,.7,3.11.4a9.35,9.35,0,0,0,1-4.36,9.77,9.77,0,0,0-1.47-3.73,1.79,1.79,0,0,0-1.47-.77C406,531.07,401.3,532.13,396.61,533.17Zm296.92,6.25L709,534l-.06-.92c-4.67-1-9.33-2.06-14-3-.31-.06-.83.3-1.08.61C691.8,533.15,691.66,536.13,693.53,539.42Zm-42.37-47.64h1.42c.94-4.47,1.9-8.94,2.79-13.43a1.41,1.41,0,0,0-.58-1.09c-1.74-1.15-6.08.51-5.89,2.49C649.31,483.79,650.37,487.77,651.16,491.78Z" transform="translate(-278.77 -89.42)"/><path class="cls-1" d="M612.67,450.9c1.41,2.17,2.47,4.71,4.31,6.44,3.52,3.32,7.59,6.06,11.23,9.26a147.46,147.46,0,0,1,12.54,11.8c8.5,9.45,8.19,22.94,2.63,33.07a4.54,4.54,0,0,0,.06,5.11,74.4,74.4,0,0,1,4.62,10.31,7.23,7.23,0,0,1-1.21,7.39,5.13,5.13,0,0,0-.48,2.39c0,.23.21.49.29.75,1.51,5.4.56,6.69-4.92,6.7-9.19,0-18.38-.14-27.56,0-3.4.08-2.81-1.95-3-4-.28-2.58,1.09-2.75,3.05-2.73,3.24,0,6.48-.06,9.72-.2a32.31,32.31,0,0,0,3.64-.55l0-1H610.4c.54-1.62.86-2.42,1.08-3.25.52-2,1.7-3.78,1-6.11-.51-1.76.06-3,2.6-3.18,9.6-.56,17.31-4.57,22.06-13.29a8.69,8.69,0,0,0,.94-3c-3.24,5.55-7.4,10.11-13.51,12.24a47.07,47.07,0,0,1-10,1.85,2.94,2.94,0,0,1-2.17-1.91c-.5-5.92-3.95-9.66-8.73-12.55-5.52-3.33-5.69-3.78-4.09-10,.2-.79.41-1.57.58-2.36.69-3.21-.86-5.47-4.12-5.46-2.34,0-3.11-.81-3.31-3-1.07-12.11-2.3-24.2-3.39-36.3-.42-4.66-.74-9.34-.87-14,0-1.28.78-2.59,1.21-3.89,0-.08.13-.13.17-.21,1.82-3.65,4-7.19,5.39-11a9.6,9.6,0,0,0-4.72-11.68c-2.66-1.44-3-4-.52-5.53,7.06-4.44,14.73-6.67,23.14-5.58,2,.25,3.87.79,5.81,1.17.62.12,1.38.4,1.85.16,4.84-2.4,10.78-2.62,14.47-7.36a2.11,2.11,0,0,1,3.88,1.42,48.25,48.25,0,0,1-2,9.1c-.59,1.69-.52,2.27,1.08,3,1.93.94,3.59,2.41,5.51,3.39,1.63.84,3.49,1.22,5.17,2,.88.39,2,1,2.26,1.79.19.55-.66,1.79-1.36,2.27a51.72,51.72,0,0,1-5.2,2.79c1.37,1.86,2.62,3.44,3.72,5.11.82,1.24,2,2.62,2,3.92,0,3.82,1.82,6.72,3.84,9.58a66.25,66.25,0,0,1,9.82,19.41,11.74,11.74,0,0,1-.56,8.38c-4.32,10-3.91,8.12-13.18,9.59-4.22.67-7.35-1.43-8.88-5.33a5.37,5.37,0,0,0-2.28-2.75c-4.44-2.16-8.93-4.25-13.52-6.05-4.83-1.89-9.51-3.84-12.14-8.82Zm6.25,54.38a9.58,9.58,0,0,0,7.33-8.74,20.68,20.68,0,0,0-5.34-15.94,144.6,144.6,0,0,0-10.41-10.15c-5.56-5.11-10.9-10.49-12.77-18-1.29-5.17-1.48-10.6-2.11-15.51-2.8,11.09-.21,21.33,7.61,30.45-4.48-2.73-7-7-9.92-11.1,1.11,3,2.11,6.24,4.17,8.49a126.33,126.33,0,0,0,12.43,11.48c4.12,3.43,8.05,6.93,10.09,12.06,1.26,3.16,2.15,6.4.47,9.65a33.35,33.35,0,0,1-3.21,4.35c4.23-1.29,5.56-4.64,6.63-8.89C625.34,499,622.71,502.19,618.92,505.28Zm17.35-44.56c-12.52-5.15-23.06-11.5-18.62-28a14.51,14.51,0,0,0-1.12,15.13C620.4,456.12,627.72,459.41,636.27,460.72ZM599.91,406c.76.22,1,.35,1.09.3,7.52-2.49,15.16-2.39,22.92-1.36,3,.39,5.35-1.33,7-3.84a2.85,2.85,0,0,0-1.5.3,15.24,15.24,0,0,1-8.86,1.33A39.6,39.6,0,0,0,599.91,406Zm48.15,26.76c-.21-5.89-9.16-11.59-14.35-9l2.93,1.53c-.49.6-1,1.19-1.46,1.79,2.64,2.4,3.53,2.39,7.41-.8Zm-.56,4.4,12,14.22C658.91,446.94,652.71,439.52,647.5,437.2Zm-29.23-11.1c-5.17,2.71-7.83,11.87-4.5,15.77C613.53,436,615.38,430.91,618.27,426.1Zm24.78,15.32c-1.48,6.9-5.38,11.41-12.93,12.72C636.86,456.18,644.44,448.48,643.05,441.42Zm16.56,16.81,1.15,1.34c.81-3,.31-4-2.43-5.34-2.1,2-3.15,4.23-.78,7.3Zm-11.25-31.92c-.36-3.27-3.7-4.85-7.7-3.84Zm-15-18.05c-.09.49-.19,1-.28,1.46l5.63.71.19-1.2Zm15,56.1c-.34,3.58.83,5.77,3.15,6.16C650.48,468.52,649.5,466.59,648.36,464.36Z" transform="translate(-278.77 -89.42)"/><path class="cls-1" d="M552,413.21H528.42c-.34-4.08-.25-7.79-1-11.3-1.57-7.15-6.1-12.73-10.51-18.34a10.91,10.91,0,0,1-2.38-4.4c-1-5.48,1.32-8.62,6.82-9.5,1.77-.28,3.61-.14,5.38-.41a3.26,3.26,0,0,0,2.1-1.3c.22-.37-.32-1.57-.84-2-1.69-1.23-1.56-2.57-.79-4.23s1.46-3.57,2.37-5.82a40.57,40.57,0,0,1-5.87.34c-.76-.07-2-1.06-2-1.69a72.88,72.88,0,0,1,.08-9.69c0-.53,1.47-1.34,2.28-1.37a39.82,39.82,0,0,1,5.67.56c-1-2.46-1.67-4.38-2.54-6.21-.79-1.65-.6-2.91.91-4a27.61,27.61,0,0,1,2.6-1.92,6.53,6.53,0,0,0,3.53-4.07,5.47,5.47,0,0,1,10.3.09,5.82,5.82,0,0,0,3.34,3.86c.79.38,1.42,1.09,2.19,1.55,2.22,1.35,2.38,3,1.17,5.22a48.59,48.59,0,0,0-2.19,5.41c2.26-.23,3.93-.36,5.58-.58s2.63.24,2.61,2.09c0,2.87,0,5.75,0,8.63,0,1.8-.86,2.36-2.55,2.17s-3.32-.26-5.68-.43c.94,2.24,1.63,3.95,2.38,5.63s1.05,3.19-.77,4.51a2.22,2.22,0,0,0-.72,2,2.65,2.65,0,0,0,1.88,1.18c1.78.27,3.61.17,5.38.42,5.49.78,7.82,3.34,7,8.79a122.57,122.57,0,0,1-3.74,16.25c-1.3,4.45-3.21,8.72-4.89,13.2.95.32,1.62.52,2.28.77a5.8,5.8,0,0,1,1.56,10.19,4,4,0,0,0-1.74,3.51c-.07,1.33-1.26,2.6-1.92,3.91-.52,1-1.46,2.15-1.38,3.16,1.56,20.1,3.29,40.19,4.86,60.29.2,2.63,1.43,3.06,3.65,3,3.58-.11,3.6,0,2.75,3.38-1.85,7.34-1,9.84,5.59,13.59,5.14,2.94,7.7,6.94,7.22,13-.3,3.93.41,8-2.53,11.3-.25.29-.13,1,0,1.49s.62,1,.69,1.46c.24,1.94.88,4,.43,5.82-.66,2.58-3.2,1.22-4.84,1.25-8.74.15-17.47,0-26.21.13-2.17,0-3.33-.4-3.26-3,.06-2.27.21-3.78,3.11-3.69,3.86.12,7.74-.1,11.61-.24,1.12,0,2.24-.3,3.36-.45V536l-18.95-.65c3.17-5.78,2.14-11.49,2.27-17.09,0-.62,1-1.51,1.66-1.76a23.41,23.41,0,0,1,4.37-.58c-5-1.52-6.58-2.58-10.58-6.17-2-1.81-4.35-3.29-7.06-5.32l13.46-1.24,0-1c-2.43-.19-4.87-.39-7.3-.56-1.8-.13-3.61-.14-5.39-.37-1.06-.14-3,.6-2.67-1.54.28-1.66-.05-4.07,2.84-4.12,2.43,0,4.86-.18,7.29-.33,1-.06,1.92-.26,2.88-.4l0-.67c-3,0-6,0-9,0-1.51,0-2.3-.45-2.52-2.06-.35-2.49-2.17-3.52-4.45-3.4s-3-1-3.32-3.12c-2.39-14.43-1.89-28.88-.42-43.34.18-1.79.35-3.59.38-5.39a11.51,11.51,0,0,1,1.76-6.32,9.25,9.25,0,0,0-.16-10.47c-.86-1.32-1-2.25,0-3.58s1.67-2.06,3.63-2c6.74.32,13.5.24,20.24.24a10.18,10.18,0,0,0,2.61-.72Zm-20,76c4,.87,4.48.66,4.6-3.26q.6-20.08,1-40.19a29.41,29.41,0,0,0-.45-4.44C535.53,456.72,533.8,472.87,532.05,489.19Zm4-94.67.27-.06c0-4.48.1-9,0-13.44-.09-3-1.55-3.61-4.36-2.23Zm17.73-21.38-.06-.76a174.67,174.67,0,0,0-27.92,0v.73Zm-22.13-9.26c3.88,4.37,11.54,4.31,15.46-.12A16.84,16.84,0,0,1,531.68,363.88Zm15.17-28.53c-3.84-4-11.43-4.05-15.17,0,2.47-.49,5-1.37,7.48-1.36S544.31,334.86,546.85,335.35Zm1.88,72,.22-.62H531.12v.62Zm-16.12,14.41,0,.69h14.81v-.69Zm-3.91-75.17-.06-.71c-1.42-.07-3-.54-4.2,0-.61.26-.5,2.24-.71,3.44l1,.68C524.54,346.58,526.76,346.77,528.7,346.55Z" transform="translate(-278.77 -89.42)"/><path class="cls-1" d="M519.58,535.79H492.49c.37-5.16.84-9.82,1-14.49s0-4.56,4.59-4.74c3.66-.14,7.32-.38,11-.58v-.71c-2-.12-4.05-.27-6.07-.37-2.88-.16-5.76-.2-8.63-.48a5,5,0,0,1-2.5-1.25c-2.75-2.38-5.22-5.14-8.16-7.26-3.79-2.73-4.22-3.84-3.28-8.34a96.91,96.91,0,0,0,1.18-11.32c1.29-15.25,2.59-30.5,3.77-45.76.08-1.05-.74-2.21-1.25-3.27-1.62-3.37-3.52-6.7-5-10-1.8-4.16,1.05-6.93,6.83-8a10.92,10.92,0,0,0-1.81-1.27c-2.18-.89-3.57-2.09-3.32-4.83a4.25,4.25,0,0,0-1.83-3c-1.55-1.06-1.75-2.27-1.53-3.92.74-5.52,3.21-10.28,6.41-14.7,2.91-4,6-7.9,8.87-11.9,1.54-2.1,2.51-4.12.28-6.68-.93-1.07-1-3.23-.85-4.82.36-3.16,3.12-5.54,6.7-6.13s7,.2,9.36,3.39c2,2.68,1.7,5.33-.13,8.57a5.13,5.13,0,0,0-.25,3.85,16.29,16.29,0,0,0,2.84,4.55,2.7,2.7,0,0,1,.07,3.83c-2.38,3.27-4.7,6.6-6.92,10a8.59,8.59,0,0,0-.63,2.77c.89-.54,2.05-.88,2.62-1.66,2.57-3.44,5-7,7.82-11.1,2.1,2.88,4.08,5.28,5.7,7.9,2.43,3.91,4.48,8,4.74,12.77.28,5.16-1.87,8.84-6.56,11-.62.29-1.17.71-2.28,1.4l2.56.37a5.65,5.65,0,0,1,5.08,4.2,5.34,5.34,0,0,1-1.89,6.06c-1.27,1-2.13,1.78-1.84,3.67a4.28,4.28,0,0,1-1.42,3.32c-1.51,1.23-1.65,2.59-1.5,4.28,1.36,15.69,2.67,31.39,4.07,47.08.39,4.38.49,4.36,5,4.49.68,0,1.36.18,2.29.31-.44,1.88-.87,3.51-1.18,5.15-1,5.19.23,7.93,4.67,10.7.76.47,1.55.91,2.32,1.37,4.49,2.69,6.73,6.54,6.48,11.86-.19,4.1.58,8.37-2.66,11.79-.27.28-.19,1-.1,1.47s.54.78.59,1.2c.28,2,.94,4.14.59,6.06-.56,3-3.29,1.38-4.93,1.4-12.61.16-25.22.11-37.83.06-1,0-2.78-.27-2.87-.7a17.17,17.17,0,0,1-.15-5.31c0-.3,1.56-.6,2.41-.61,6.66-.1,13.32-.11,20-.21,1.54,0,3.08-.33,4.63-.51Zm-19.76-85.48-.45.08q-2.42,19.46-4.84,38.9c4.06.63,4.13.61,4.32-3.5.35-7.37.72-14.74.95-22.12C499.93,459.22,499.82,454.76,499.82,450.31Zm-1.18-71.47c-11.13,11.54-17.37,22.54-16,28.52C486.32,396.44,495.5,389.36,498.64,378.84Zm-9.8,46.25h24.78C510,422.79,492.66,422.87,488.84,425.09Zm16.33,78,.05-.78a6,6,0,0,0-1.43-.43c-5-.31-10-.65-15.06-.77-.81,0-1.66,1-2.49,1.56.81.48,1.61,1.37,2.41,1.37,3.94,0,7.89-.18,11.84-.39C502.05,503.59,503.61,503.3,505.17,503.11Zm9.52-87.76H487.62A48.85,48.85,0,0,0,514.69,415.35Zm-8.08-34.66c2.51,3.05.47,5.15-1.17,7.39s-3.21,4.52-4.69,6.86a16.38,16.38,0,0,0-1.18,3c2.92-3.52,5.53-7.11,8.08-10.75C509.87,384.07,509.8,383.69,506.61,380.69Zm-8.3-14-.89-.23c-.16,1.06-.83,2.51-.38,3.1a6.32,6.32,0,0,0,3.52,2.3c1.51.26,3.44.12,3.94-2.17C498.91,370,498.73,369.87,498.31,366.7Zm-9.49,127.61v1.3l16.19-.78v-.52Zm6-62.18V433a37.8,37.8,0,0,0,12.24,0v-.83Z" transform="translate(-278.77 -89.42)"/><path class="cls-1" d="M452.72,544.12H420.58c-3.33,0-4-.28-3.29-3.47,1-4.28.29-7.93-1.09-12-1.06-3.13-.33-7,0-10.43s2.65-5.61,5.33-7.44c.45-.31.9-.6,1.37-.86,6-3.27,8.24-5.7,5.66-14.49-.74-2.55.23-2.73,2.23-2.72,4.09,0,4.35,0,4.63-4.06.92-13.1,1.63-26.22,2.45-39.32.09-1.45-.39-2.09-1.86-2.37a4,4,0,0,1-2.38-1.58,30.47,30.47,0,0,1-3.83-7.06c-.48-1.53.41-3.51.72-5.28.21-1.24.83-2.51.66-3.69-.62-4.36-1.47-8.7-2.28-13-.38-2,.07-3.05,2.45-2.86a68.17,68.17,0,0,0,7.83,0c1.95-.07,2.86.66,2.71,2.67a10.25,10.25,0,0,0,.1,3.23c.14.58,1,1,1.48,1.47.48-.52,1.26-1,1.38-1.57a14.61,14.61,0,0,0,.06-3.5c-.07-1.57.55-2.33,2.19-2.31q5.53.09,11.08,0c1.74,0,2.44.76,2.35,2.46a12.68,12.68,0,0,0,.13,3.49,2.24,2.24,0,0,0,1.58,1.29c.37.06,1.19-.75,1.3-1.28a11.55,11.55,0,0,0,.08-3.22c-.14-1.91.51-2.84,2.59-2.76,2.78.12,5.58.05,8.37,0,1.71,0,2.44.44,2,2.41-.75,3.42-1.18,6.91-1.81,10.36-.51,2.81-1.61,5.65,1,8.1a1.38,1.38,0,0,1,.3,1c-.14,1.22.05,3.06-.65,3.53-3,2-1.84,7.08-5.94,8-1.63.37-2,1.15-1.94,2.6.55,10.42,1,20.85,1.63,31.27.18,3.05.85,6.07,1.05,9.11.15,2.23,1.12,2.89,3.25,2.84,4-.08,4,0,3,3.82-1.7,6.46-.41,9.63,5.49,13,5.13,2.9,8.09,6.88,7.57,13.13-.33,3.9.55,8-2.57,11.25-.29.3-.16,1.16,0,1.7s.65,1.28.87,2c1.71,5.17.71,6.57-4.59,6.57ZM444.81,490c3.64.74,4,.62,4.13-2.89q.62-11.83,1-23.69a56.82,56.82,0,0,0-.41-5.9C447.93,468.4,446.38,479.12,444.81,490Zm26.95,46.92v-1H438v1A245.4,245.4,0,0,0,471.76,536.94Zm-10.37-20.87,0-.87c-8-.37-15.92-.77-23.88-1-.58,0-1.19,1-1.78,1.55.66.47,1.33,1.36,2,1.34C445.62,516.81,453.5,516.42,461.39,516.07Zm-19.9-80v1.12h23.7v-1.15A124.28,124.28,0,0,0,441.49,436.09Zm16.2,67.06,0-.61a4.09,4.09,0,0,0-1.29-.61c-5-.33-10-.68-15-.83-.64,0-1.31,1-2,1.55.7.49,1.39,1.4,2.1,1.41,3.4.06,6.8-.07,10.2-.26C453.73,503.7,455.71,503.38,457.69,503.15Zm-14.11-74.51c4.06,1.66,17.56,1.32,19.32,0Zm2.46,15.8v.69H459.6v-.69ZM456.9,494.9a86.33,86.33,0,0,0-14.73-.75l0,1.44Zm.3-75.92a27.85,27.85,0,0,0,.44,5.27c.07.28,2.27,0,3.48,0l.51-1C457.11,424.15,458.71,420.66,457.2,419Zm-15,5.37.27-.77c-3.81.33-2.72-2.84-3.85-4.6a13.92,13.92,0,0,0,.26,5.33C439,424.61,441.08,424.35,442.24,424.35Z" transform="translate(-278.77 -89.42)"/><path class="cls-1" d="M566,369h11.45c-3.66-2.09-7.5-1.74-11.39-1.78-2.48,0-5-1.06-7.4-1.79-.31-.09-.54-1.07-.48-1.61a4.06,4.06,0,0,1,.74-2,17.44,17.44,0,0,0,3.42-7.62c.61-3,4.3-4.64,7.89-4.24a7,7,0,0,1,6.39,6,25.78,25.78,0,0,0,1.63,4c.78,2.05,1.47,4.14,2.27,6.2a10.93,10.93,0,0,0,1.48,3.14c1.94,2.33,4.07,4.5,6.26,6.89l-2.61,1.95.21.44,8.15-1.16,0-.92-3.62-.77.07-.44,6.85.64c0,.69,0,.94-.06,1-8.34,7.2-10.73,17.18-12.8,27.3-.32,1.59-.51,3.2-.74,4.8s.24,2.41,2,2.48c2.68.11,4.72,1.35,5.52,4a5.83,5.83,0,0,1-2.61,7c-.36.24-.93.66-.9.93.41,3.23-1.17,5.41-3.51,7.33-.39.32-.29,1.38-.22,2.08,1.7,18.91,3.48,37.82,5.11,56.74.22,2.52,1.29,3.14,3.59,3.07,3.59-.1,3.6,0,2.66,3.58-1.76,6.66-.72,9.69,5.25,13.06,5.53,3.11,8.24,7.41,7.78,13.86-.27,3.77.19,7.59-2.67,10.71-.29.32,0,1.3.21,1.93.24.86.75,1.65.94,2.52,1,4.89.39,5.68-4.54,5.69-6,0-11.89,0-17.83,0-3.16,0-3-.05-3.29-4-.21-2.58,1-2.82,3-2.78a34.79,34.79,0,0,0,4.18-.41l0-.89-8.15-.57c3.09-6,2.62-12.09,1.89-18.09-.81-6.69-6.54-9.65-12.16-13.26l4.28-1.77c-.61-.17-1-.26-1.44-.4-1.33-.47-3.8-1-3.78-1.44a28.67,28.67,0,0,1,1.35-5.93l.7.22a14.6,14.6,0,0,0-.8-2.58c-.56-1.07-1.11-2.55-2-2.93-2.32-.93-2-2.62-2-4.44q.58-18.48,1.12-37a14.47,14.47,0,0,0-.72-5.11l-3.57,36.18-.79,0a7.34,7.34,0,0,1-.46-1.52q-1.75-22.75-3.46-45.51c-.27-3.63,2.25-5.89,5.83-5.77,3.88.13,7.77,0,11.66,0l0-.93a18.41,18.41,0,0,0-2.43-.33c-3.24,0-6.49-.07-9.72.08-1.64.07-2.17-.54-1.92-2,.35-2.1,3.45-4.5,5.59-4.57,4.23-.12,8.45-.33,12.68-.54a2.13,2.13,0,0,0,1.7-1.09c-2.74-.17-5.47-.35-8.21-.49-1.16-.06-2.34,0-3.51,0-3.92,0-5.55-1.83-4.76-5.59.1-.48,1.15-1,1.79-1.08,2.24-.14,4.5,0,6.75-.09,1.12,0,2.24-.16,3.36-.25,0-.32,0-.64,0-.95-3.61,0-7.22,0-10.83,0-4.13.05-5.82-2.25-4.38-6.07.79-2.09,1.61-4.17,2.44-6.25,0-.11.31-.13.77-.3.32,1.56.63,3.07,1,4.59l.57,0a25.64,25.64,0,0,0,.24-3.7,57.06,57.06,0,0,1,1.16-15.53A14.81,14.81,0,0,0,566,369Zm-3.58-6.92,10-2.55C569.28,357.44,563.91,358.88,562.46,362.11Zm17.86,16.74c-3-2.16-5.82-1.93-7.63.54Z" transform="translate(-278.77 -89.42)"/><path class="cls-1" d="M508.41,178.64c-4.49,0-8.53,0-12.58,0-3,0-4.05-1.06-4.08-4,0-2.34,0-4.68,0-7s1.28-3.67,3.67-3.68q12.84,0,25.67,0a3.2,3.2,0,0,1,3.55,3.52c0,10.81.07,21.62-.06,32.42a4.4,4.4,0,0,1-1.79,3.29c-13.49,6.74-27.66,10.48-42.62,6.42-13.63-3.7-22.08-13.19-25.24-26.85C451,166,453.47,150.35,465.3,137.11c6.62-7.41,15.07-11.28,24.91-12.61,9.33-1.25,18.21.39,27,3.11,3,.91,3.61,2.32,2.6,5.31-.58,1.7-1.18,3.39-1.78,5.07-1.53,4.27-2.4,4.36-6.79,3.54-5.69-1.06-11.52-2.13-17.26-1.95-12.09.39-18.89,9-21.42,18.76-1.86,7.15-2.27,14.42-.22,21.56,2.3,8,7,14.13,15.63,15.71,6.45,1.19,12.89.15,19.09-2a2.33,2.33,0,0,0,1.27-1.71C508.46,187.61,508.41,183.31,508.41,178.64Z" transform="translate(-278.77 -89.42)"/><path class="cls-1" d="M511.41,603.33l40.3-14.16.11-.92L516.2,575.7l.06-.89,34.76-11,.18-.8c-10.33-3.91-21.13-6.5-31.5-10.27l-.06-1c5.1-1.13,10.16-3,15.3-3.25,11.77-.5,23.6-.54,35.37,0,5.33.21,10.6,2.12,15.89,3.26v1.11L554.5,562.89l-.07.93,35,11.1,0,.87-35.26,12.39v.88l41,14.35a29.49,29.49,0,0,1-2.88,1.55c-11.79,4.68-23.65,9.19-35.35,14.07a9,9,0,0,1-7.9,0c-11.86-5-23.89-9.52-35.86-14.23-.55-.22-1.07-.5-1.61-.75Z" transform="translate(-278.77 -89.42)"/><path class="cls-1" d="M468.73,296.34c-5.33,5-10.6,10.05-16,15a10.39,10.39,0,0,1-3.45,2c-2.76,1-4.76-.34-5.11-3.24s-.73-5.87-1.17-9.5c-3.22,3.66-6.08,6.9-8.92,10.15-1.31,1.49-2.41,3.23-3.95,4.41a6.36,6.36,0,0,1-4.3,1.4c-.88-.13-1.8-1.95-2.17-3.18-.66-2.18-.93-4.49-1.44-7.15-3.35,4-6.48,7.78-9.68,11.5-5,5.86-11.07,10.16-18.72,12.05-13.32,3.31-23.22-2.1-27.54-15.17-5.78-17.5-.39-37.32,13.31-48.42a36.25,36.25,0,0,1,20.23-8,5.4,5.4,0,0,0,3.14-1.49,60.14,60.14,0,0,1,20.07-13.82,18.9,18.9,0,0,1,3-.68l.33.88c-3.76,2.23-7.69,4.23-11.24,6.76s-6.88,5.71-10.48,8.74c10,5.61,10.74,14.45,9.87,23.85-.58,6.37-2.4,12.45-6.74,17.26a20,20,0,0,1-7.62,5.2c-5.13,1.88-9-.37-10.65-5.64-2.16-6.88-1.33-13.8,1-20.37,2.24-6.28,5.28-12.27,8.06-18.58-1.91.38-4.32.65-6.61,1.33-11.48,3.43-19.1,13-20.28,25.59a56.39,56.39,0,0,0,3.82,26.94c5.22,12.85,20,16.21,30.29,6.84,2.32-2.12,4.48-4.43,6.63-6.73.9-1,2.19-1.79,1.42-3.62-.2-.47.64-1.68,1.3-2.17,5.15-3.89,6.89-9,7.59-15.43,1.17-10.78,4.43-21.15,11.76-29.58,6.64-7.64,15.21-10.89,25.28-9.63,4.08.51,5.85,3.5,4.16,7.19a26.56,26.56,0,0,1-5,7.25c-9.44,9.78-19.06,19.39-28.58,29.09-.59.61-1.39,1.48-1.33,2.16.34,3.62.93,7.22,1.53,11.49,3.23-3.43,6-6.36,8.76-9.28a24.14,24.14,0,0,1,2.43-2.52c3.84-3,6.79-2.14,8.31,2.49.75,2.29,1.46,4.6,2.43,7.63,2.91-3.4,5.41-6.57,8.19-9.47,2-2.13,4.54-3.81,6.67-5.86a9.67,9.67,0,0,0,2.24-3.43c1.93-5.11,5.41-8.5,10.78-9.51a5.09,5.09,0,0,1,4.22,1.37,4.58,4.58,0,0,1,.09,4.34,46.5,46.5,0,0,1-7.23,7.07c-1.21,1-1.83,1.73-1.48,3.23.39,1.65.62,3.35,1.09,5,.75,2.58,2,3.12,4.06,1.44,3.42-2.8,6.54-6,9.93-8.82,4.12-3.49,8.38-6.81,12.58-10.2,1.61-1.3,3.21-2.62,4.85-3.88a8.32,8.32,0,0,1,7.91-1.56,31.68,31.68,0,0,1-2.32,3.31,3.54,3.54,0,0,0-.56,4.67c2.28,3.44,1.76,6.77.17,10.49,1.48-1,3-1.9,4.42-3,5-3.87,9.87-7.94,15-11.67a66.2,66.2,0,0,1,9.42-5.53c.91-.45,2.36.19,4.08.38a24.47,24.47,0,0,1-1.7,2.06c-2.28,2.13-3,4.25-1.27,7.34,1.57,2.81.43,5.87-.84,8.88l10.71-6.47.77.4c-.37.8-.52,1.95-1.15,2.35-6.11,3.94-12.26,7.85-18.52,11.56a7.32,7.32,0,0,1-7.09.59c.83-.69,1.22-1.29,1.7-1.36,5-.77,6.94-4.44,7.84-8.77.53-2.52.31-5.2.66-7.77.23-1.65.87-3.24.85-5.46l-13.77,11.35c-.27.23-.48.54-.77.75-5.87,4.16-11.67,8.41-17.65,12.4-1.87,1.25-4.14,2.34-7,.92.59-.64.82-1.07,1.17-1.22,5.63-2.37,7.8-5.73,7.87-12,0-3.38.26-6.75.4-10.1-3.91,3.13-8.77,5.92-12.13,10-4.85,5.81-10.73,10.22-16.66,14.61-5.1,3.77-8.42,2.36-10-3.78C469.45,301.42,469.17,298.85,468.73,296.34ZM413.9,280.46c-.68-3.81-.95-6.69-1.73-9.42-1.1-3.88-3.16-7.18-6.91-9.19-1.51-.8-2.39-.56-3.3.89a47.73,47.73,0,0,0-7.39,19.14,40.67,40.67,0,0,0,.37,13c1,5.16,5.18,6.8,9.6,4a16.65,16.65,0,0,0,6-6.62C412.26,288.29,413,283.9,413.9,280.46Zm14.21,13.32.77.28c.36-.34.74-.67,1.09-1,9-9.33,18-18.64,26.89-28a19.33,19.33,0,0,0,3.27-4.9c1.17-2.47.13-4.12-2.56-4.22-6.15-.23-11.73,1.26-16.17,5.82-5.94,6.11-9.11,13.68-11.27,21.72C429.22,286.81,428.77,290.32,428.11,293.78Zm47.4-1.81.87.48c1.75-2.17,3.6-4.28,5.18-6.57.39-.56-.11-1.73-.2-2.62-.8.16-1.79.08-2.38.53C476.27,285.85,475.77,288.89,475.51,292Z" transform="translate(-278.77 -89.42)"/><path class="cls-1" d="M626.34,244.3a28.59,28.59,0,0,0-22.86,1.77c-9.42,4.9-14.88,13.21-18.1,22.9A73.72,73.72,0,0,0,582,285.76c-1.11,12.88,11.63,20.74,22.35,17.39,4.94-1.54,10.1-3.18,14.28-6.06,3.78-2.61,8-3.7,11.87-5.76a9.49,9.49,0,0,0,3.38-3.07c3.43-5.25,6.25-10.95,10.1-15.86,7-8.93,16.63-11,27.36-8.73,5.15,1.12,6.47,5.45,2.45,8.88a71.76,71.76,0,0,1-13,8.54c-5.14,2.73-10.67,4.7-15.94,7.19a6.55,6.55,0,0,0-3.06,2.93c-1.67,3.85-3.07,7.82-4.42,11.8a23.7,23.7,0,0,0-.52,4.47,42.72,42.72,0,0,0,5.77-1.46c5.06-2.09,9.92-4.74,15.11-6.45,6.78-2.24,13.75-3.93,20.72-5.51a6.1,6.1,0,0,1,5,1.35c.67.71,0,3.53-.9,4.7-3.19,4-6.79,7.67-10.19,11.51a32.7,32.7,0,0,0-2.22,3.09l.52.86a56.7,56.7,0,0,0,6.14-1.1,80.92,80.92,0,0,0,23.6-11.5,7.69,7.69,0,0,0,1.73-2c.94-1.34,2.27-1.84,3.42-.78a3.38,3.38,0,0,1,.76,3.07,41.07,41.07,0,0,1-3.57,6c-1.47,2.25-3,4.44-4.56,6.66l.42.69a59.15,59.15,0,0,1,7.1-3.6,46.82,46.82,0,0,1,9.59-2.42,24.58,24.58,0,0,0,13.07-6.12c6.74-5.68,14.13-10.5,22.93-12.56a6.75,6.75,0,0,1,2.38-.3c2.14.3,4.8.69,5.14,3.05.21,1.41-1.2,3.55-2.5,4.6-6.36,5.12-14,7.53-21.75,9.55-.94.24-1.9.45-3.29.77,4.5,1.3,7.91,3.49,9.41,7.67,1.7,4.76-1.85,7.57-4.44,10.82l15-3,.37,1.06c-.81.52-1.57,1.36-2.44,1.51-5.81,1-11.67,1.7-17.46,2.81-4.69.9-9.25,1-13.78-.59-5.52-2-6.57-4.67-3.81-9.9a38.1,38.1,0,0,1,2.64-4.06,15.91,15.91,0,0,0,2.44-4.12c-5.88,1.81-11.78,3.57-17.64,5.46-2.54.81-5,2-7.51,2.78a8.61,8.61,0,0,1-2.81-.07c.1-.84-.08-1.86.35-2.48,2.43-3.55,5-7,7.35-10.83-.69.39-1.4.76-2.07,1.19-7.06,4.57-14.42,8.4-23,9.33a21.66,21.66,0,0,1-5.09,0c-3.32-.43-4.32-1.82-2.65-4.72,2.82-4.88,6.18-9.45,9.33-14.14.47-.71,1-1.4,1.47-2.09l-.46-.83-16.57,6.45c-4.59,1.79-9.16,3.65-13.78,5.35-3,1.11-6.1,2.12-9.21,2.95-4.75,1.28-7.09-.62-6.93-5.56a36.76,36.76,0,0,1,.76-5.6c.34-1.82.85-3.6,1.43-6l-7.77,3.89c-7,3.5-13.68,7.66-21.52,9-8.73,1.5-17.09.67-24.15-5.25-5-4.21-6.39-10-6-16.32,1.17-17.84,14.86-35.66,31.82-41.19,7.93-2.58,16-3.08,24-.1a4.54,4.54,0,0,0,3-.41,69.72,69.72,0,0,1,24-5.49,17,17,0,0,1,3.62.56c0,.32,0,.63,0,1-4.48.7-9,1.15-13.42,2.19s-8.68,2.66-13.42,4.16c5.6,6.16,4.74,12.55,2.16,19-3.52,8.77-8.85,16.14-17.67,20.16a20.63,20.63,0,0,1-8.84,1.48c-4.91-.12-7.72-4-6.92-8.9,1.25-7.67,5.3-13.94,10.57-19.32C616.22,252.71,621.33,248.71,626.34,244.3Zm3.5,1.91c-3.73,3.16-7.48,6-10.77,9.23-5,4.9-9,10.51-10.91,17.36-1.85,6.63,2,10.51,8.64,8.59a18.79,18.79,0,0,0,6.39-3.26,30.5,30.5,0,0,0,10.57-17.08C635.07,255.71,634.65,250.74,629.84,246.21Zm14,39.46.76.93c7.28-3.84,14.61-7.59,21.8-11.6a25.18,25.18,0,0,0,5.79-4.77c2.07-2.17,1.55-4-1.3-4.81-5.87-1.73-11.42-1-16.25,2.94C649.1,272.9,646.51,279.32,643.86,285.67Zm81.93,25.13c-2.42,4-5,7.95-7.17,12.13-.55,1.07-.13,3.75.67,4.19a12.25,12.25,0,0,0,9,1.41c.37-1.87.25-4.16,1-4.5,1.34-.62,3.23,0,5.16,0C737,319.81,734.73,315.8,725.79,310.8Zm6.66-4.24c7.74-1.92,15.29-4.32,22-8.74.95-.62,1.36-2.06,2-3.12-1.22-.34-2.43-.71-3.66-1a2,2,0,0,0-1.06.12C744.2,296.31,738,300.82,732.45,306.56Z" transform="translate(-278.77 -89.42)"/><path class="cls-1" d="M610.66,211.4a60.74,60.74,0,0,1-21.79-4.59c-3.1-1.32-3.65-2.51-2.59-5.61.75-2.2,1.45-4.43,2.32-6.59.95-2.38,2.56-3.09,5-2.06a38.78,38.78,0,0,0,20,3.25,17.37,17.37,0,0,0,8-3.09c3.58-2.69,3.54-7.45.33-10.63a25.57,25.57,0,0,0-5-3.54c-6.69-4-13.75-7.49-20.06-12-8.15-5.84-11-14.31-8.61-24.06s9.26-15,18.65-17.35,18.69-.62,27.76,2.27c2.3.73,3,2.49,2.22,4.72s-1.63,4.55-2.52,6.8c-1,2.53-2.35,3-5.09,2.47-4.64-.88-9.31-1.7-14-2.17a11.62,11.62,0,0,0-5.46,1.16c-6.5,2.78-7.42,10.18-1.53,14.07,5.37,3.56,11.17,6.48,16.81,9.62,4.92,2.75,9.44,5.94,12.53,10.79,7.1,11.14,3.82,30.34-15.49,35C618.36,210.73,614.47,210.89,610.66,211.4Z" transform="translate(-278.77 -89.42)"/><path class="cls-1" d="M658.72,433.68a15.07,15.07,0,0,1,10.27,4.7,15.69,15.69,0,0,1,2,19.86c-1,1.53-.77,2.37.33,3.7,1.93,2.36,3.54,5,5.28,7.5l-.63,1c-2,0-4,0-6,0-2.88,0-4.36,1.08-3.86,3.86,1.21,6.7,2.86,13.33,4.55,19.93.17.67,1.79,1.29,2.78,1.36,4.36.3,4.41.23,3.42,4.54-.61,2.59-1.3,5.28.37,7.57a28.58,28.58,0,0,0,4.84,4.53c1.92,1.61,4.27,2.82,5.86,4.7,3,3.52,3,12.11.3,15.88a3.24,3.24,0,0,0-.47,3.6,18.15,18.15,0,0,1,.76,6.31c0,.47-1.35,1.34-2.08,1.35-11,.09-22,.05-33,.09-1.48,0-2.16-.56-2.13-2.06.09-5.62-1.28-4.9,4.58-5s11.52-.2,17.28-.34c1,0,1.93-.23,2.9-.35v-.87H651.37c2.68-6.25.73-11.27-2-16.71l17.37-1.28,0-.56c-5.36-.24-10.71-.49-16.07-.72-3.5-.15-3.72-1.1-2.92-4.36,1.4-5.63,4.43-8,10.25-7.2,1.55.23,3.24-.55,4.87-.87,0-.3,0-.6,0-.9-3-.13-6-.24-8.92-.41-1.25-.07-2.89.4-2.75-1.88.11-1.79.67-2.86,2.75-2.72s3.93,0,5.9,0l0-.75a47.59,47.59,0,0,1-5.86-.51,3.46,3.46,0,0,1-2.33-1.78c-.47-1.44.78-1.51,1.94-1.74a2.8,2.8,0,0,0,1.67-1.95c.56-4.1.84-8.23,1.37-12.33.12-.9.7-2.28,1.37-2.49,5.27-1.69,7.17-6.06,9.18-10.58,2.49-5.6,1.5-10.86-.59-16.22-.5-1.29-.42-2.8-.87-4.11a13.36,13.36,0,0,0-1.81-3.2c-1.88-2.68-3.83-5.31-5.76-8Z" transform="translate(-278.77 -89.42)"/><path class="cls-1" d="M450.47,551.75c5.78-1.15,11.53-3,17.36-3.29,11.59-.53,23.23-.48,34.83,0,4.72.18,9.37,2,14.06,3.12l0,1.17-35,10.13,0,.88,31.48,11.1,0,.69c-1.27.52-2.51,1.13-3.82,1.54-11.67,3.67-23.35,7.34-35.05,10.91a6.46,6.46,0,0,1-3.89,0c-9.92-3.79-19.78-7.72-29.66-11.63a19.44,19.44,0,0,1-2-1.23l39.6-11.38.21-.76c-9.16-3.92-18.89-6.41-28.1-10.24Z" transform="translate(-278.77 -89.42)"/><path class="cls-1" d="M654.81,552.9l-27.87,9.88c0,.29.07.59.1.89l39.72,11.39a12,12,0,0,1-1.84,1.32c-9.87,3.91-19.74,7.83-29.64,11.64a5.53,5.53,0,0,1-3.39.11c-12.54-3.88-25.06-7.85-37.58-11.81a17.93,17.93,0,0,1-2.22-1.19l32.19-11.33.1-.87L589,552.71l-.06-1c4.57-1.14,9.1-3.08,13.71-3.26,11.86-.46,23.77-.5,35.63,0,5.56.25,11,2.19,16.54,3.36Z" transform="translate(-278.77 -89.42)"/><path class="cls-1" d="M533.3,167.46V130.19c0-3.92.82-4.75,4.71-4.79,2.52,0,5-.05,7.56,0,2.82.08,4,1.2,4,3.94q0,38.22,0,76.42c0,2.67-1.22,3.94-3.95,4.06s-5.4.09-8.1,0c-3.14-.1-4.18-1.19-4.18-4.32Q533.28,186.5,533.3,167.46Z" transform="translate(-278.77 -89.42)"/><path class="cls-1" d="M578.23,167.64q0,18.77,0,37.54c0,3.59-1,4.63-4.62,4.68-2.52,0-5.05.09-7.56,0-2.83-.12-4-1.44-4-4.23q0-38,0-75.89c0-3.13,1-4.23,4.15-4.31q4.05-.09,8.1,0c3.07.08,4,1,4,4.14Q578.25,148.6,578.23,167.64Z" transform="translate(-278.77 -89.42)"/><path class="cls-1" d="M658.19,552.55c5.26-2.14,10.12-4.77,15.87-4.42,4.48.28,9,0,13.49,0a5.51,5.51,0,0,0,4.87-2.23c.6-.76,2.55-1,3.72-.68,7,1.56,14,3.34,21,5.05l7.92,1.91a17.39,17.39,0,0,1-2.19,1.37c-7.68,3.06-15.36,6.13-23.08,9.1a5.46,5.46,0,0,1-3.12.23c-12.28-3.16-24.53-6.41-36.79-9.65A13.5,13.5,0,0,1,658.19,552.55Z" transform="translate(-278.77 -89.42)"/><path class="cls-1" d="M380.92,552.35c2.77-.66,4.73-1.12,6.69-1.6q10.88-2.67,21.75-5.37c1.91-.47,3.5-.74,4.9,1.38.6.92,2.49,1.33,3.82,1.38,4.95.15,9.91.19,14.86,0,5.35-.19,9.79,2.52,14.69,3.75l0,.79c-2.17.64-4.31,1.33-6.49,1.9-10.53,2.79-21.05,5.57-31.6,8.27a5.92,5.92,0,0,1-3.39-.1c-7.64-2.94-15.23-6-22.82-9C382.77,553.47,382.23,553.08,380.92,552.35Z" transform="translate(-278.77 -89.42)"/><path class="cls-1" d="M396.61,533.17c4.69-1,9.38-2.1,14.09-3.06a1.79,1.79,0,0,1,1.47.77,9.77,9.77,0,0,1,1.47,3.73,9.35,9.35,0,0,1-1,4.36c-.14.3-2.08-.06-3.11-.4-3.67-1.2-7.32-2.5-11-3.79a22.63,22.63,0,0,1-2.05-1Z" transform="translate(-278.77 -89.42)"/><path class="cls-1" d="M693.53,539.42c-1.87-3.29-1.73-6.27.29-8.76.25-.31.77-.67,1.08-.61,4.67,1,9.33,2,14,3l.06.92Z" transform="translate(-278.77 -89.42)"/><path class="cls-1" d="M651.16,491.78c-.79-4-1.85-8-2.26-12-.19-2,4.15-3.64,5.89-2.49a1.41,1.41,0,0,1,.58,1.09c-.89,4.49-1.85,9-2.79,13.43Z" transform="translate(-278.77 -89.42)"/><path d="M618.92,505.28c3.79-3.09,6.42-6.31,5-11.86-1.07,4.25-2.4,7.6-6.63,8.89a33.35,33.35,0,0,0,3.21-4.35c1.68-3.25.79-6.49-.47-9.65-2-5.13-6-8.63-10.09-12.06a126.33,126.33,0,0,1-12.43-11.48c-2.06-2.25-3.06-5.49-4.17-8.49,2.91,4.07,5.44,8.37,9.92,11.1-7.82-9.12-10.41-19.36-7.61-30.45.63,4.91.82,10.34,2.11,15.51,1.87,7.52,7.21,12.9,12.77,18a144.6,144.6,0,0,1,10.41,10.15,20.68,20.68,0,0,1,5.34,15.94A9.58,9.58,0,0,1,618.92,505.28Z" transform="translate(-278.77 -89.42)"/><path d="M636.27,460.72c-8.55-1.31-15.87-4.6-19.74-12.91a14.51,14.51,0,0,1,1.12-15.13C613.21,449.22,623.75,455.57,636.27,460.72Z" transform="translate(-278.77 -89.42)"/><path d="M599.91,406a39.6,39.6,0,0,1,20.68-3.27,15.24,15.24,0,0,0,8.86-1.33,2.85,2.85,0,0,1,1.5-.3c-1.68,2.51-4,4.23-7,3.84-7.76-1-15.4-1.13-22.92,1.36C600.86,406.39,600.67,406.26,599.91,406Z" transform="translate(-278.77 -89.42)"/><path d="M648.06,432.8l-5.47-6.52c-3.88,3.19-4.77,3.2-7.41.8.48-.6,1-1.19,1.46-1.79l-2.93-1.53C638.9,421.21,647.85,426.91,648.06,432.8Z" transform="translate(-278.77 -89.42)"/><path d="M647.5,437.2c5.21,2.32,11.41,9.74,12,14.22Z" transform="translate(-278.77 -89.42)"/><path d="M618.27,426.1c-2.89,4.81-4.74,9.86-4.5,15.77C610.44,438,613.1,428.81,618.27,426.1Z" transform="translate(-278.77 -89.42)"/><path d="M643.05,441.42c1.39,7.06-6.19,14.76-12.93,12.72C637.67,452.83,641.57,448.32,643.05,441.42Z" transform="translate(-278.77 -89.42)"/><path d="M659.61,458.23l-2.06,3.3c-2.37-3.07-1.32-5.27.78-7.3,2.74,1.37,3.24,2.36,2.43,5.34Z" transform="translate(-278.77 -89.42)"/><path d="M648.36,426.31l-7.7-3.84C644.66,421.46,648,423,648.36,426.31Z" transform="translate(-278.77 -89.42)"/><path d="M633.33,408.26l5.54,1-.19,1.2-5.63-.71C633.14,409.24,633.24,408.75,633.33,408.26Z" transform="translate(-278.77 -89.42)"/><path d="M648.36,464.36c1.14,2.23,2.12,4.16,3.15,6.16C649.19,470.13,648,467.94,648.36,464.36Z" transform="translate(-278.77 -89.42)"/><path d="M532.05,489.19c1.75-16.32,3.48-32.47,5.14-47.89a29.41,29.41,0,0,1,.45,4.44q-.42,20.1-1,40.19C536.53,489.85,536.08,490.06,532.05,489.19Z" transform="translate(-278.77 -89.42)"/><path d="M536.08,394.52,532,378.79c2.81-1.38,4.27-.75,4.36,2.23.13,4.48,0,9,0,13.44Z" transform="translate(-278.77 -89.42)"/><path d="M553.81,373.14h-28v-.73a174.67,174.67,0,0,1,27.92,0Z" transform="translate(-278.77 -89.42)"/><path d="M531.68,363.88a16.84,16.84,0,0,0,15.46-.12C543.22,368.19,535.56,368.25,531.68,363.88Z" transform="translate(-278.77 -89.42)"/><path d="M546.85,335.35c-2.54-.49-5.12-1.38-7.69-1.38s-5,.87-7.48,1.36C535.42,331.3,543,331.31,546.85,335.35Z" transform="translate(-278.77 -89.42)"/><path d="M548.73,407.31H531.12v-.62H549Z" transform="translate(-278.77 -89.42)"/><path d="M532.61,421.72h14.84v.69H532.64Z" transform="translate(-278.77 -89.42)"/><path d="M528.7,346.55c-1.94.22-4.16,0-4,3.36l-1-.68c.21-1.2.1-3.18.71-3.44,1.18-.49,2.78,0,4.2,0Z" transform="translate(-278.77 -89.42)"/><path d="M499.82,450.31c0,4.45.11,8.91,0,13.36-.23,7.38-.6,14.75-.95,22.12-.19,4.11-.26,4.13-4.32,3.5q2.42-19.46,4.84-38.9Z" transform="translate(-278.77 -89.42)"/><path d="M498.64,378.84c-3.14,10.52-12.32,17.6-16,28.52C481.27,401.38,487.51,390.38,498.64,378.84Z" transform="translate(-278.77 -89.42)"/><path d="M488.84,425.09c3.82-2.22,21.19-2.3,24.78,0Z" transform="translate(-278.77 -89.42)"/><path d="M505.17,503.11c-1.56.19-3.12.48-4.68.56-3.95.21-7.9.4-11.84.39-.8,0-1.6-.89-2.41-1.37.83-.55,1.68-1.58,2.49-1.56,5,.12,10,.46,15.06.77a6,6,0,0,1,1.43.43Z" transform="translate(-278.77 -89.42)"/><path d="M514.69,415.35a48.85,48.85,0,0,1-27.07,0Z" transform="translate(-278.77 -89.42)"/><path d="M506.61,380.69c3.19,3,3.26,3.38,1,6.54-2.55,3.64-5.16,7.23-8.08,10.75a16.38,16.38,0,0,1,1.18-3c1.48-2.34,3.05-4.63,4.69-6.86S509.12,383.74,506.61,380.69Z" transform="translate(-278.77 -89.42)"/><path d="M498.31,366.7c.42,3.17.6,3.26,6.19,3-.5,2.29-2.43,2.43-3.94,2.17a6.32,6.32,0,0,1-3.52-2.3c-.45-.59.22-2,.38-3.1Z" transform="translate(-278.77 -89.42)"/><path d="M488.82,494.31H505v.52l-16.19.78Z" transform="translate(-278.77 -89.42)"/><path d="M494.85,432.13h12.24V433a37.8,37.8,0,0,1-12.24,0Z" transform="translate(-278.77 -89.42)"/><path d="M444.81,490c1.57-10.9,3.12-21.62,4.68-32.48a56.82,56.82,0,0,1,.41,5.9q-.36,11.85-1,23.69C448.77,490.64,448.45,490.76,444.81,490Z" transform="translate(-278.77 -89.42)"/><path d="M471.76,536.94A245.4,245.4,0,0,1,438,537v-1h33.75Z" transform="translate(-278.77 -89.42)"/><path d="M461.39,516.07c-7.89.35-15.77.74-23.66,1-.65,0-1.32-.87-2-1.34.59-.54,1.2-1.57,1.78-1.55,8,.26,15.92.66,23.88,1Z" transform="translate(-278.77 -89.42)"/><path d="M441.49,436.09a124.28,124.28,0,0,1,23.7,0v1.15h-23.7Z" transform="translate(-278.77 -89.42)"/><path d="M457.69,503.15c-2,.23-4,.55-5.95.65-3.4.19-6.8.32-10.2.26-.71,0-1.4-.92-2.1-1.41.65-.55,1.32-1.57,2-1.55,5,.15,10,.5,15,.83a4.09,4.09,0,0,1,1.29.61Z" transform="translate(-278.77 -89.42)"/><path d="M443.58,428.64H462.9C461.14,430,447.64,430.3,443.58,428.64Z" transform="translate(-278.77 -89.42)"/><ellipse cx="174.05" cy="355.37" rx="9.59" ry="0.49"/><path d="M456.9,494.9l-14.69.69,0-1.44A86.33,86.33,0,0,1,456.9,494.9Z" transform="translate(-278.77 -89.42)"/><path d="M457.2,419c1.51,1.68-.09,5.17,4.43,4.33l-.51,1c-1.21,0-3.41.24-3.48,0A27.85,27.85,0,0,1,457.2,419Z" transform="translate(-278.77 -89.42)"/><path d="M442.24,424.35c-1.16,0-3.24.26-3.32,0a13.92,13.92,0,0,1-.26-5.33c1.13,1.76,0,4.93,3.85,4.6Z" transform="translate(-278.77 -89.42)"/><path d="M562.46,362.11c1.45-3.23,6.82-4.67,10-2.55Z" transform="translate(-278.77 -89.42)"/><path d="M580.32,378.85l-7.63.54C574.5,376.92,577.3,376.69,580.32,378.85Z" transform="translate(-278.77 -89.42)"/><path d="M413.9,280.46c-.95,3.44-1.64,7.83-3.4,11.74a16.65,16.65,0,0,1-6,6.62c-4.42,2.84-8.56,1.2-9.6-4a40.67,40.67,0,0,1-.37-13A47.73,47.73,0,0,1,402,262.74c.91-1.45,1.79-1.69,3.3-.89,3.75,2,5.81,5.31,6.91,9.19C413,273.77,413.22,276.65,413.9,280.46Z" transform="translate(-278.77 -89.42)"/><path d="M428.11,293.78c.66-3.46,1.11-7,2-10.36,2.16-8,5.33-15.61,11.27-21.72,4.44-4.56,10-6,16.17-5.82,2.69.1,3.73,1.75,2.56,4.22a19.33,19.33,0,0,1-3.27,4.9c-8.91,9.39-17.92,18.7-26.89,28-.35.36-.73.69-1.09,1Z" transform="translate(-278.77 -89.42)"/><path d="M475.51,292c.26-3.08.76-6.12,3.47-8.18.59-.45,1.58-.37,2.38-.53.09.89.59,2.06.2,2.62-1.58,2.29-3.43,4.4-5.18,6.57Z" transform="translate(-278.77 -89.42)"/><path d="M629.84,246.21c4.81,4.53,5.23,9.5,3.92,14.84a30.5,30.5,0,0,1-10.57,17.08,18.79,18.79,0,0,1-6.39,3.26c-6.64,1.92-10.49-2-8.64-8.59,1.9-6.85,6-12.46,10.91-17.36C622.36,252.17,626.11,249.37,629.84,246.21Z" transform="translate(-278.77 -89.42)"/><path d="M643.86,285.67c2.65-6.35,5.24-12.77,10.8-17.31,4.83-3.95,10.38-4.67,16.25-2.94,2.85.84,3.37,2.64,1.3,4.81a25.18,25.18,0,0,1-5.79,4.77c-7.19,4-14.52,7.76-21.8,11.6Z" transform="translate(-278.77 -89.42)"/><path d="M725.79,310.8c8.94,5,11.25,9,8.66,13.27-1.93-.09-3.82-.66-5.16,0-.76.34-.64,2.63-1,4.5a12.25,12.25,0,0,1-9-1.41c-.8-.44-1.22-3.12-.67-4.19C720.77,318.75,723.37,314.81,725.79,310.8Z" transform="translate(-278.77 -89.42)"/><path d="M732.45,306.56c5.52-5.74,11.75-10.25,19.3-12.75a2,2,0,0,1,1.06-.12c1.23.3,2.44.67,3.66,1-.66,1.06-1.07,2.5-2,3.12C747.74,302.24,740.19,304.64,732.45,306.56Z" transform="translate(-278.77 -89.42)"/></svg>