<svg id="Layer_1" data-name="Layer 1" xmlns="http://www.w3.org/2000/svg" viewBox="0 0 529.68 530.16"><defs><style>.cls-1{fill:#878787;}.cls-2{fill:#cecece;}.cls-3{fill:#7a7a7a;}.cls-4{fill:#7e7e7e;}.cls-5{fill:#4c516d;}.cls-6{fill:#6cc3ed;}.cls-7{fill:#fefefe;}.cls-8{fill:#dfdfdf;}.cls-9{fill:#a3dd02;}.cls-10{fill:#4c506c;}.cls-11{fill:#e2e2e2;}.cls-12{fill:#a9a9a9;}.cls-13{fill:#fcfcfc;}.cls-14{fill:#fcfcfd;}.cls-15{fill:#fbfbfc;}.cls-16{fill:#fdfdfd;}.cls-17{fill:#f9f9fa;}.cls-18{fill:#f9f9fb;}.cls-19{fill:#050505;}.cls-20{fill:#4d526d;}.cls-21{fill:#4d526e;}.cls-22{fill:#e5e3d8;}</style></defs><title>GEM Club Logo</title><path d="M668.72,648.78a256.46,256.46,0,0,1-66.45-12.26,264.6,264.6,0,0,1-181.53-219.7,255.26,255.26,0,0,1-1.67-45.23c3.31-61.52,25-115.75,65.62-162.08,35.69-40.72,80-67.83,132.36-81.67a252.76,252.76,0,0,1,39.09-7c6.76-.69,13.54-1,20.32-1.41,4.57-.39,9.16-.07,13.73-.17,24.16-.09,47.66,4.08,70.75,11a258.8,258.8,0,0,1,42.86,17.23,262.73,262.73,0,0,1,51.92,34.66,266.62,266.62,0,0,1,48.61,54.61,262.8,262.8,0,0,1,29.54,59A270.24,270.24,0,0,1,947,350.71a163.65,163.65,0,0,1,1.2,24.14v18.87c.43,24.24-4.36,47.65-11.46,70.68a252.39,252.39,0,0,1-14.84,37.15,268.81,268.81,0,0,1-34.14,52.58A266.7,266.7,0,0,1,815.2,615a260.31,260.31,0,0,1-71.62,28c-12.53,2.88-25.18,5.22-38.1,5.67-2.39.08-4.78.16-7.18.19-1.68.14-3.38-.28-5,.25H674.07C672.33,648.53,670.48,649.22,668.72,648.78Z" transform="translate(-418.72 -119)"/><path class="cls-1" d="M948.4,394.4a1.12,1.12,0,0,1-.41,0,30.39,30.39,0,0,1,0-6.18c.23-4.69-.32-9.38,0-14.06a.94.94,0,0,1,.41,0Z" transform="translate(-418.72 -119)"/><path class="cls-2" d="M690.86,119c0,.14,0,.29,0,.43H676.46a2,2,0,0,1,0-.42Z" transform="translate(-418.72 -119)"/><path class="cls-3" d="M668.72,648.78a12.4,12.4,0,0,1,5.35.38H668.8A.48.48,0,0,1,668.72,648.78Z" transform="translate(-418.72 -119)"/><path class="cls-4" d="M698.6,648.78a.52.52,0,0,1-.07.38h-5.27A12.51,12.51,0,0,1,698.6,648.78Z" transform="translate(-418.72 -119)"/><path class="cls-5" d="M428.53,385.35c-.09-5.93.39-13.83,1.06-21.7a263,263,0,0,1,13.13-63.8,242,242,0,0,1,37.47-69.51,272.35,272.35,0,0,1,29.33-32.24A244.81,244.81,0,0,1,593,145.8a269.85,269.85,0,0,1,43.47-12.23c6.42-1.24,12.9-2,19.41-2.67a322.24,322.24,0,0,1,42.59-1.26c6.37.19,12.71.93,19,1.71a246.29,246.29,0,0,1,31.21,5.9,241.87,241.87,0,0,1,39.69,14A247.62,247.62,0,0,1,822.39,170,254.39,254.39,0,0,1,846,187.62a275.59,275.59,0,0,1,22.36,21,259.67,259.67,0,0,1,38.21,51.13,241.83,241.83,0,0,1,28,79.52c1.25,7.72,2.28,15.45,2.92,23.25.52,6.21.7,12.43,1,18.65.29,6.4,0,12.78-.28,19.15-.32,7.24-1.09,14.46-2.12,21.65a254.21,254.21,0,0,1-6.27,30.43,241.37,241.37,0,0,1-12.48,34.91,266.74,266.74,0,0,1-24.85,44c-1.87,2.69-3.82,5.33-5.74,8-.19.26-.4.5-.61.74-2.15,2.43-3.56,2.51-5.73.12-2.46-2.72-4.82-5.54-7.24-8.31a246.94,246.94,0,0,0-22.34-22.37,252.13,252.13,0,0,0-30.48-23.19,262.91,262.91,0,0,0-53.13-26.33c-2.1-.76-4.22-1.47-6.32-2.24a13.31,13.31,0,0,1-2.16-1,1.8,1.8,0,0,1-.81-2.64c.52-1,1.05-2,1.55-3a7.12,7.12,0,0,0-.39-7.74c-4.14-5.9-9.33-10.48-16.61-12.14a21.32,21.32,0,0,0-6.15-.73c-3.26.22-5.49-1.31-7.14-3.94a104.37,104.37,0,0,1-9-18.25,166,166,0,0,1-8.77-34c-.46-2.91-1.09-5.8-1.65-8.69a6.68,6.68,0,0,1,.08-3.08,3.34,3.34,0,0,1,2.72-2.68,10.34,10.34,0,0,1,2.6-.38c6.41.32,11.84-2.26,16.82-5.91,5.63-4.12,9.84-9.55,13.55-15.38,2.1-3.3,4.38-6.5,5.85-10.16a20.91,20.91,0,0,0,1.77-8.85,9.63,9.63,0,0,0-.1-1.43c-.91-5.21-4.45-7.39-9.64-6s-10,4.13-14.64,7c-2.2,1.35-4.43,2.6-7.16,2.29a8,8,0,0,1-5.55-3c-1.33-1.65-1-2.57,1-3.34a53.78,53.78,0,0,0,19.28-12.23c7.59-7.56,12.43-16.52,13.56-27.32,1.32-12.51-.92-24.27-8.22-34.63a43.88,43.88,0,0,0-31.53-18.85c-15.15-1.9-27.75,3.29-37.93,14.55a26.8,26.8,0,0,0-2.85,3.85c-1.27,2.06-1.89,2.26-4.09,1.18-.94-.46-1.61-.53-2.26.38-1.37,1.93-3.35,2.28-5.53,2.11a25.9,25.9,0,0,0-14.72,3.45c-6.72,3.71-10.53,9.52-11.93,17-.52,2.77-.37,5.56-.75,8.34-.63,4.72-3.39,7.25-7.81,8.2a25.36,25.36,0,0,0-14.08,8.52,50.42,50.42,0,0,0-4.3,5.76,103.85,103.85,0,0,0-12.62,26c-1.65,5.42-3.08,10.9-3.08,16.64a15.61,15.61,0,0,0,6.37,12.81,25.77,25.77,0,0,0,4,2.58c3.54,1.83,6.54,1.35,9.45-1.35a24.62,24.62,0,0,0,5-6.66c1.34-2.55,2.59-5.14,3.88-7.71a15.89,15.89,0,0,1,3.48-4.84,8.08,8.08,0,0,1,3.31-1.86,2.17,2.17,0,0,1,2.55.82c.56.82.11,1.51-.31,2.21a188.43,188.43,0,0,0-9.44,19.12c-2.15,4.8-4.49,9.53-6.22,14.52a47.4,47.4,0,0,0-2.88,20,37.44,37.44,0,0,0,7.85,19.52,59.57,59.57,0,0,0,11.24,11.08c3.65,2.79,4,4,2.78,8.4-1.44,5.07-1.62,10.07,1.14,14.84a27.42,27.42,0,0,0,2.52,3.49c1.71,2.12,1.52,2.81-1.09,3.2-13.14,2-25.8,5.83-38.28,10.29A263.58,263.58,0,0,0,539.17,485a268.39,268.39,0,0,0-35.85,27.59q-10.81,9.87-20.63,20.72a17.29,17.29,0,0,1-1.86,1.87c-1.31,1.05-2.1,1-3.33-.24a38.25,38.25,0,0,1-4-5.39A256.29,256.29,0,0,1,442.85,469a267,267,0,0,1-10.38-39.28q-1.7-9.17-2.61-18.46A259,259,0,0,1,428.53,385.35Z" transform="translate(-418.72 -119)"/><path class="cls-6" d="M616.61,457.89c5-1.46,9.88-2.48,14.73-3.41a253.22,253.22,0,0,1,52.21-4.31,226.45,226.45,0,0,1,22.66,2c2.69.32,2.94.65,2.88,3.34a65.34,65.34,0,0,0,.92,15c2.84,13.48,10.2,23.35,22.89,29.14A149,149,0,0,0,773,511.54c6.09.91,12.21,1.41,18.35,1.8a20,20,0,0,0,8-1.25c9-3.18,18.1-6.26,27.11-9.52a7.28,7.28,0,0,1,7.75,1.21A275.44,275.44,0,0,1,875.49,544c3.13,3.79,3.09,4.6-.21,8.34a262.1,262.1,0,0,1-57.58,48.83c-2,1.24-2.63,1.26-4.51-.26-11.56-9.41-25-13.93-39.65-15.17-13.88-1.17-27.61-.48-41.07,3.42a88.72,88.72,0,0,0-29.54,15,37.34,37.34,0,0,0-12.3,15.9c-2.27,5.61-5.19,11-7.78,16.46A4.66,4.66,0,0,1,678,639.3c-2.4-.09-4.79-.15-7.19-.3-63.11-3.88-117.94-26.9-163.63-71a297.1,297.1,0,0,1-20.79-22.23,16.78,16.78,0,0,1-1.43-1.92,3.13,3.13,0,0,1,.06-3.61,17.21,17.21,0,0,1,1.65-2c6.73-7.39,13.79-14.46,21.09-21.29,3-2.82,4.38-3,8.17-1.21,8.71,4.19,17.52,8.13,26.85,10.81a80.75,80.75,0,0,0,24.55,3.61,40.53,40.53,0,0,0,23.06-7.69c7.35-5.28,11-12.66,11.74-21.58a49.1,49.1,0,0,1,.86-7.36,7.88,7.88,0,0,1,4.35-5.42A33.76,33.76,0,0,1,613,486a26.46,26.46,0,0,0,6.36-2.72c5.53-3.43,7.18-8.39,4.74-14.42a26.58,26.58,0,0,0-3.81-6.35C619.14,461.05,618,459.62,616.61,457.89Z" transform="translate(-418.72 -119)"/><path class="cls-7" d="M659.38,378.3a4.63,4.63,0,0,0-4.44,1.1,10.48,10.48,0,0,0-1.91,2.13c-4.88,7.21-9.87,14.35-14.28,21.87q-3,5.06-5.43,10.39a9.68,9.68,0,0,1-.64,1.29c-.74,1.16-1.46,1.39-2.6.61-9-6.21-15.56-14.16-17.88-25.12a39.57,39.57,0,0,1,2.21-22.81c3.62-9.39,8-18.46,12.5-27.45.79-1.56,1.53-3.16,2.43-4.67,1.41-2.36,2.92-3,5.42-2.08,2.9,1.09,5.1.19,7.21-1.89a6.67,6.67,0,0,0-2.58-1.26,54.67,54.67,0,0,0-14.3-3.76,8.63,8.63,0,0,0-8.14,3.56,43,43,0,0,0-4.35,7.15q-2.18,4.13-4.45,8.21a15.33,15.33,0,0,1-1.6,2.39,5.37,5.37,0,0,1-7.1,1.27,14.13,14.13,0,0,1-7.13-13.63,75.47,75.47,0,0,1,6.19-22.29A116.14,116.14,0,0,1,607,297.52c5.61-9,13.87-13.58,24.18-14.95,7.55-1,15-.19,22.41,1.12,2.73.48,4.76,1.76,5.13,4.84.13,1,.66,1.82,1.9,1.72a2.47,2.47,0,0,0,2.44-2.19,15.25,15.25,0,0,0-.22-2.86c-2.41-17,1.54-32.3,12.15-45.89a34.25,34.25,0,0,1,21.35-13.08,42.43,42.43,0,0,1,28.36,4.12,32,32,0,0,1,7.86,5.83,4.2,4.2,0,0,1,1.46,2.65c-.92-.5-1.58-.89-2.26-1.23-15.61-7.8-31-7.16-45.52,2.32-17.54,11.49-21.92,34.94-10.44,52.77A55.92,55.92,0,0,0,698.37,313,160,160,0,0,1,720.2,325.4a4.38,4.38,0,0,0,5.53-.07A82.7,82.7,0,0,1,736.15,319a38.77,38.77,0,0,1,8.43-3.34c3.14-.74,4.52.33,4.64,3.57a13.8,13.8,0,0,1-1.08,5.85,69.18,69.18,0,0,1-16.65,24.06c-4.1,3.82-9.22,5.61-14.7,6.45a50.12,50.12,0,0,1-6.92.51,10.85,10.85,0,0,0-2.14.18c-1.78.4-2.37,1.17-2.48,3a25.46,25.46,0,0,0,.5,5,211.66,211.66,0,0,0,7.59,36.53,123.64,123.64,0,0,0,12.88,28.51,6.33,6.33,0,0,0,.39.61c.57.76.45,1.22-.48,1.6-1.91.79-3.79,1.68-5.68,2.54-.66.29-1.31.58-2,.89-2.52,1.19-2.65,2.34-.55,4.15.93.81,1.75.48,2.61,0a31.9,31.9,0,0,1,9.33-3.64c9.23-2.08,17.24-.08,23.71,7.11,3.1,3.43,3.11,5.83.46,10.16-.86,1.4-2,1.71-3.79,1.11a185.77,185.77,0,0,0-24.15-5.93A228.91,228.91,0,0,0,700,444.22c-.48,0-.95-.09-1.43-.15-.67-.08-.94-.36-.79-1.11.7-3.67-.66-6.76-2.82-9.57-1.12-1.45-2.42-2.77-3.61-4.16a26,26,0,0,1-2.24-2.81,4.67,4.67,0,0,1,0-5.21,21.73,21.73,0,0,1,2.7-3.36,41,41,0,0,0,10-18.29c2.49-10.66.09-20.27-6.54-28.87-5-6.49-11.62-10.87-19-14.2a76.52,76.52,0,0,0-30-6.38c-1,0-2.08-.11-3.11-.07-1.56.07-2,.49-2.12,1.73a2.17,2.17,0,0,0,1.86,2.6,19.15,19.15,0,0,0,2.63.16,82.35,82.35,0,0,1,22.83,3.88c7.5,2.5,14.44,6,20.12,11.66a31.61,31.61,0,0,1,9,15.79,29.56,29.56,0,0,1-3.49,21.26,45.75,45.75,0,0,1-9.77,11.74,28.48,28.48,0,0,0-2.23,2.16,2.66,2.66,0,0,0-.23,3.52,13.4,13.4,0,0,0,1.15,1.54c3.14,3.63,5.89,7.57,8.86,11.33l.15.18c1.69,2.4,1.3,3.78-1.43,4.7a19.17,19.17,0,0,1-6.6,1c-6-.11-12-.16-18,.1-6.39.27-12.76.75-19.1,1.62-8.72,1.19-15.16-5-14.31-13.81A41.19,41.19,0,0,1,636,419c4-9.3,9.3-17.82,15-26.16,2.24-3.31,4.53-6.58,6.79-9.88A7.07,7.07,0,0,0,659.38,378.3Z" transform="translate(-418.72 -119)"/><path class="cls-8" d="M674,272.17a34.67,34.67,0,0,1,28.5-34.25,43,43,0,0,1,18,.47c9.54,2.34,16.34,8,20.58,16.82a45.89,45.89,0,0,1,4.28,15.38,29.8,29.8,0,0,1-2.67,15.16,45.5,45.5,0,0,1-23.66,24c-4.71,2.12-9.61,2.89-14.69,1.27a21.24,21.24,0,0,1-6-3,116.22,116.22,0,0,1-10-7.76c-6.44-5.77-11.24-12.6-13.47-21.07A26.42,26.42,0,0,1,674,272.17Z" transform="translate(-418.72 -119)"/><path class="cls-9" d="M690.43,638.89A60.78,60.78,0,0,1,696.14,624c6.89-12.72,17.64-20.8,31-25.66a109.07,109.07,0,0,1,28-5.89,88.07,88.07,0,0,1,35.21,4,57.25,57.25,0,0,1,15,7.32l.2.14c3.07,2.11,3.08,2.74-.13,4.48q-8.41,4.57-17.15,8.53a252.06,252.06,0,0,1-65.65,19.47,236,236,0,0,1-29.06,2.79A7,7,0,0,1,690.43,638.89Z" transform="translate(-418.72 -119)"/><path class="cls-9" d="M517.85,508.79a6.39,6.39,0,0,1,2-2A261.11,261.11,0,0,1,595,464.44q3.71-1.37,7.44-2.67a12.71,12.71,0,0,1,4-.82,6,6,0,0,1,5,2,40.89,40.89,0,0,1,5.32,6.77,12,12,0,0,1,1.18,2.61,3.87,3.87,0,0,1-1.78,4.76,15.8,15.8,0,0,1-4.15,1.81c-1.83.58-3.67,1.13-5.46,1.79A15.77,15.77,0,0,0,596,493.26c-.58,3.05-.84,6.17-1.5,9.2-1.91,8.68-6.63,15.13-15.12,18.41a33.43,33.43,0,0,1-10,2.1,67.2,67.2,0,0,1-22-2.44A179.59,179.59,0,0,1,517.85,508.79Z" transform="translate(-418.72 -119)"/><path class="cls-9" d="M822.31,495.46a61.78,61.78,0,0,1-15.58,7.3,68.71,68.71,0,0,1-26.52,2.6,137.09,137.09,0,0,1-42.88-11.29c-11-4.84-17.89-13.33-20.79-25a38.45,38.45,0,0,1-.66-12.38,6.84,6.84,0,0,1,.23-1.18c.49-1.77.88-2.06,2.74-1.69,4.69.95,9.39,1.9,14.06,3a262.66,262.66,0,0,1,44.49,13.95,257.44,257.44,0,0,1,43.28,23.54C821.14,494.56,821.58,494.91,822.31,495.46Z" transform="translate(-418.72 -119)"/><path class="cls-10" d="M640.46,273c.49-3.87,1.28-8.31,4.09-12.12a15.53,15.53,0,0,1,5.66-4.68c1.71-.86,2.26-.74,3.41.83a10,10,0,0,0,3.56,2.73c2.52,1.37,2.56,1.75,2.2,4.54-.58,4.41-1.53,8.78-1.58,13.26,0,1.84-.5,2.32-2.3,2.2a41.05,41.05,0,0,1-4.24-.67,48.87,48.87,0,0,0-6.39-.76C641.28,278.2,640.35,277.22,640.46,273Z" transform="translate(-418.72 -119)"/><path class="cls-11" d="M657.39,248.65a2.89,2.89,0,0,1-2.47,1.8,39.65,39.65,0,0,0-4.13,1.18c-8.42,3.1-12.67,9.5-14.1,18.07a32.75,32.75,0,0,0-.51,5.24,7,7,0,0,1-.19,1.65,1,1,0,0,1-1.08.75.9.9,0,0,1-.88-.68,25,25,0,0,1-.64-2.79c-1.57-10.95,6-22.29,16.67-25.06A14.85,14.85,0,0,1,657.39,248.65Z" transform="translate(-418.72 -119)"/><path class="cls-12" d="M663.09,249a13.19,13.19,0,0,1-1,5,7.7,7.7,0,0,1-1.32,2.25.77.77,0,0,1-1.05.21.83.83,0,0,1-.49-1,8.59,8.59,0,0,1,.48-1.59A19.25,19.25,0,0,1,663.09,249Z" transform="translate(-418.72 -119)"/><path class="cls-13" d="M854.05,334.65c-1.19,5-2.36,9.75-3.48,14.55-1.25,5.29-2.46,10.58-3.67,15.87-.2.88-.34,1.73-1.4,2-1.4.37-2.28-.2-2.67-1.91q-1.43-6.18-2.8-12.38-1.69-7.6-3.36-15.2c-.17-.79-.35-1.57-1.26-1.9-.94.67-.77,1.69-.79,2.61q-.18,12.7-.32,25.41c0,.4,0,.8,0,1.2-.12,1.77-.56,2.26-2,2.33-1.74.07-2.64-.6-2.66-2.31,0-3.36.08-6.72.13-10.07q.19-14.87.38-29.73c0-.56,0-1.12,0-1.68.08-2.44.61-3.15,2.5-3.37,2.31-.28,3.63.44,4.18,2.58.69,2.71,1.19,5.46,1.76,8.19q2.28,10.9,4.57,21.8a8.41,8.41,0,0,0,2,4.55c.89-.63.68-1.61.87-2.41q3.18-14.15,6.28-28.3c.26-1.17.41-2.36.66-3.53a3.75,3.75,0,0,1,5.14-2.77,2.13,2.13,0,0,1,1.37,2.28c.07,2.48.15,4.95.19,7.43q.3,16.78.59,33.56c0,.48,0,1,0,1.44-.08,1.69-.59,2.26-2.05,2.33-1.62.08-2.35-.52-2.41-2.22-.17-5.36-.35-10.71-.39-16.06,0-3.6-.37-7.18-.19-10.78A4.35,4.35,0,0,0,854.05,334.65Z" transform="translate(-418.72 -119)"/><path class="cls-14" d="M876.88,411.58c.89,1,1.72,2,2.56,2.93,3.23,3.65,4.94,7.84,4.13,12.76-.93,5.67-6.24,10-12.24,10.26-3.37.14-6.69-.52-10.05-.41a1.33,1.33,0,0,1-1.53-1.42c0-.4,0-.8,0-1.2q0-20.13,0-40.27a12.81,12.81,0,0,1,.07-2.15,2.07,2.07,0,0,1,2.08-2c4.21.07,8.47-.51,12.64.5a9.26,9.26,0,0,1,7.31,7.39c1.26,5.33.2,9.82-4.45,13.12A4,4,0,0,0,876.88,411.58Z" transform="translate(-418.72 -119)"/><path class="cls-14" d="M780.25,266.39a3.55,3.55,0,0,0-.31,2.19q-.06,11.63-.07,23.25c0,1.11.19,2.23.17,3.34,0,1.47-.91,2.16-2.56,2.15s-2.59-.76-2.52-2.22c.56-12.53,0-25.07.24-37.61,0-1.43,0-2.87-.13-4.3-.17-1.94.13-2.66,1.48-3s2.34.17,3.07,1.91c1.35,3.16,2.66,6.33,4,9.5,2.29,5.44,4.59,10.88,6.86,16.33a3.08,3.08,0,0,0,1.95,2.13,4,4,0,0,0,.25-2.25c0-7.91,0-15.82,0-23.73a15.23,15.23,0,0,1,0-1.91,2,2,0,0,1,2.37-2.1c1.49,0,2.09.6,2.22,2.21.06.8,0,1.6,0,2.4q0,17.73,0,35.47c0,1.68.05,3.35.09,5,0,.86-.14,1.61-1.09,1.89a2.14,2.14,0,0,1-2.59-.65,8.49,8.49,0,0,1-.84-1.71q-5.37-12.81-10.71-25.62A5.13,5.13,0,0,0,780.25,266.39Z" transform="translate(-418.72 -119)"/><path class="cls-15" d="M793.82,363.25c-.63.13-.78.54-1,.85a8.54,8.54,0,0,1-8.53,3.72c-4.07-.52-7.23-2.37-8.8-6.4a19,19,0,0,1-1-4.91,107.18,107.18,0,0,1,.3-27.95c.87-5.62,4.57-8.91,10.25-9.19a16,16,0,0,1,4.52.36c6.72,1.62,9.27,7.5,8.75,13.3a2,2,0,0,1-2,1.93c-2.77.28-3.38-.18-3.62-3a23.49,23.49,0,0,0-.59-4.26,4.35,4.35,0,0,0-3.66-3.35,11.5,11.5,0,0,0-3.1-.11c-3.25.32-4.47,1.53-4.84,4.82a128.48,128.48,0,0,0,.07,29.4c.31,2.58,1.61,4.13,4.13,4.61,4.39.83,7.63-.91,8.06-5.16.23-2.22.48-4.44.59-6.67.08-1.78-.82-2.66-2.59-2.76-.48,0-1,.08-1.43.05-1.4-.07-2-.63-1.95-1.88a1.88,1.88,0,0,1,1.84-2.07,15.65,15.65,0,0,1,1.68,0c1.51,0,3-.1,4.55-.07a3,3,0,0,1,3.31,3,6.88,6.88,0,0,1,0,1.2c-.19,5.35-.2,10.7,0,16,.07,1.63-.36,2.2-1.64,2.47a1.62,1.62,0,0,1-2.19-1.25A4.89,4.89,0,0,0,793.82,363.25Z" transform="translate(-418.72 -119)"/><path class="cls-16" d="M853.31,269.23q-.18,7.9-.37,15.8a19.48,19.48,0,0,1-.92,5.41,9.42,9.42,0,0,1-7.56,6.87,17.29,17.29,0,0,1-6.91,0c-5-1-8.07-4.88-8.55-10.75-.33-4.06-.47-8.13-.45-12.21,0-6.71,0-13.42,0-20.13,0-.55,0-1.12,0-1.67.16-1.79,1-2.5,2.83-2.51s2.73.71,2.84,2.49c.09,1.6,0,3.2,0,4.79q0,13.18,0,26.36a25.22,25.22,0,0,0,.51,4.76,5.39,5.39,0,0,0,5.2,4.76c3.49.24,5.62-.93,6.66-3.83a20.67,20.67,0,0,0,1.05-7.07q0-13.31,0-26.6c0-1.12-.07-2.24,0-3.35.13-1.6,1-2.31,2.76-2.31s2.58.68,2.59,2.39c0,5.59,0,11.18,0,16.77Z" transform="translate(-418.72 -119)"/><path class="cls-16" d="M851.38,411.44c-.2,2.94,0,7.57.24,12.2A17.32,17.32,0,0,1,850,432a9,9,0,0,1-6.44,5.25,17.14,17.14,0,0,1-7.13.1c-4.83-1-7.79-4.37-8.48-9.46A109.43,109.43,0,0,1,827.3,415c-.12-6.72-.08-13.43-.1-20.15,0-.56,0-1.12,0-1.67.18-2.4,1.2-3.27,3.57-3.08,1.63.12,2.24.72,2.37,2.4.05.64,0,1.28,0,1.92q0,14.86.06,29.74a16.52,16.52,0,0,0,.5,5c.92,2.91,2.91,4.21,6.46,4.16,3,0,4.74-1.38,5.58-4.27a19.59,19.59,0,0,0,.54-4.51c.47-10.07.22-20.14.28-30.21,0-.64,0-1.28,0-1.92.12-1.7.76-2.29,2.4-2.26s2.35.65,2.37,2.34C851.41,398.24,851.38,404,851.38,411.44Z" transform="translate(-418.72 -119)"/><path class="cls-13" d="M779.67,412.68c.11,5.78.23,10.81.81,15.81.36,3.16,2.15,4.69,5.5,4.76,3.51.07,5.55-1.37,6-4.52a47.85,47.85,0,0,0,.15-5.75c0-1-.16-2.11.9-2.52a5.48,5.48,0,0,1,4.19.08c.57.23.66.86.67,1.44a28,28,0,0,1-.59,7.85,11,11,0,0,1-12.44,8.09c-6.43-1-9.87-4.66-10.59-11.12a102.11,102.11,0,0,1-.2-13.88c0-1.84.05-3.67,0-5.5a32.16,32.16,0,0,1,.71-9.28,11,11,0,0,1,10.44-8.66,12.52,12.52,0,0,1,13.06,14.35,3.52,3.52,0,0,1-5.27,2.45,2,2,0,0,1-.84-1.86c0-1.6,0-3.2,0-4.8,0-2.22-.58-4.24-2.87-5-2.59-.9-5.21-.85-7.46,1a4.34,4.34,0,0,0-1.34,3.23c-.06.8-.22,1.59-.26,2.38C780,405.29,779.81,409.36,779.67,412.68Z" transform="translate(-418.72 -119)"/><path class="cls-16" d="M805.41,343.63v-19.4a15.47,15.47,0,0,1,0-1.67c.17-1.65.95-2.52,2.6-2.54,4.55,0,9.1,0,13.65,0a1.71,1.71,0,0,1,1.95,1.89c.06,1.27-.38,1.88-1.75,2.12-1.18.19-2.38.21-3.58.29-5.35.32-6.15,1.14-6.32,6.46-.07,2.3.08,4.61-.16,6.92s1,3.4,3.26,3.43c1.44,0,2.87-.11,4.31,0s1.85.72,1.83,2a1.9,1.9,0,0,1-2,2.13c-1.11,0-2.22-.28-3.33-.28-2.62,0-4.15,1.32-4,4,.15,3.52-.14,7,0,10.53.1,3.19,1.59,4.39,4.84,4a27.43,27.43,0,0,1,4.53-.28c1.89.09,2.53.66,2.51,2.14s-.64,2.06-2.36,2.05c-4.31,0-8.61-.09-12.92,0-2.22.06-3-.93-3-3.41C805.39,357.21,805.41,350.42,805.41,343.63Z" transform="translate(-418.72 -119)"/><path class="cls-17" d="M804.17,413.56q0-9.82,0-19.65a17.06,17.06,0,0,1,.12-2.14,1.79,1.79,0,0,1,1.33-1.55,8,8,0,0,1,3.79,0,1.73,1.73,0,0,1,1.33,1.54,15.18,15.18,0,0,1,.08,1.91l-.06,35.7c0,.4,0,.8,0,1.2.2,1.9,1,2.66,3,2.68,2.23,0,4.47,0,6.7,0a1.8,1.8,0,0,1,2.08,1.52,1.91,1.91,0,0,1-2,2.55c-2.4.07-4.79,0-7.19,0-2.23,0-4.47,0-6.71,0-1.95,0-2.32-.42-2.48-2.4-.06-.72,0-1.44,0-2.16Q804.17,423.15,804.17,413.56Z" transform="translate(-418.72 -119)"/><path class="cls-18" d="M810.4,275.69V257.94c0-3.43-1.16-4.4-4.61-3.88a9.82,9.82,0,0,1-1.42.17c-1.53,0-2.2-.67-2.22-2.17s.56-2.06,2.24-2.06l18,.08c1.85,0,2.47.6,2.35,2.18-.1,1.34-.92,1.93-2.53,1.81-.79-.06-1.59-.23-2.38-.21a3,3,0,0,0-3.27,2.85,30.5,30.5,0,0,0-.15,4.06c0,11.12,0,22.23.09,33.35,0,2.95-1.77,3.36-3.62,3.18s-2.48-1-2.51-3.14c-.05-2.88,0-5.76,0-8.63v-9.84Z" transform="translate(-418.72 -119)"/><path class="cls-19" d="M689.36,252.17a5.71,5.71,0,0,1,.21-1.34c1.83-5.26,5.33-8.84,10.84-10.06,4.12-.91,6.87,2,6,6.1-1,4.82-6.08,9.77-10.9,10.6C691.85,258.1,689.26,256,689.36,252.17Z" transform="translate(-418.72 -119)"/><path class="cls-20" d="M865,424.37c-.29-2.22.27-4.84-.12-7.47-.21-1.42.39-2.08,1.84-2.28a15.24,15.24,0,0,1,5.47.06,6.29,6.29,0,0,1,4.46,3.65A14.27,14.27,0,0,1,878,424.8a8.26,8.26,0,0,1-7,8.38c-.31.06-.63.08-.94.11-4.51.39-5.14-.2-5.1-4.7C865,427.31,865,426,865,424.37Z" transform="translate(-418.72 -119)"/><path class="cls-21" d="M877,401.56a1.93,1.93,0,0,0,0,.24c.27,6.57-3.73,8.85-10,8-1.86-.24-2.6-1.2-2.28-3a42.62,42.62,0,0,0,.15-9c-.09-2.88.68-3.75,3.53-3.85a17.92,17.92,0,0,1,3.8.35c3.14.54,4.45,1.92,4.74,5.07.07.71,0,1.43,0,2.15Z" transform="translate(-418.72 -119)"/><path class="cls-22" d="M693.74,252.77c1.82-4.38,3.59-6.12,7.42-7.4C701.22,249.14,698.93,251.48,693.74,252.77Z" transform="translate(-418.72 -119)"/></svg>