<svg id="Layer_1" data-name="Layer 1" xmlns="http://www.w3.org/2000/svg" viewBox="0 0 1275.49 885.02"><defs><style>.cls-1{fill:#c7db2d;}.cls-2{fill:#e2ea92;}.cls-3{fill:#ed4741;}.cls-4{fill:#74c6cb;}.cls-5{fill:#74c7cb;}.cls-6{fill:#74c7ca;}</style></defs><title>Hackathon Club Logo</title><path class="cls-1" d="M1323,18.22a8.19,8.19,0,0,0-2.66-6.57c-5.39-5.14-10.55-10.52-15.82-15.79q-64.15-64.14-128.32-128.27c-14.67-14.64-29.59-29-44-44-3.19-3.32-6-4.72-10.28-4a16.56,16.56,0,0,1-3,0q-107.73,0-215.44,0a9.91,9.91,0,0,0-7.83,3.37c-4.82,5-9.92,9.82-14.68,14.92a12.37,12.37,0,0,1-10,4.21c-33.66-.19-67.33.38-101-.39-10.72-.25-18,3-25.39,10.53Q672.78-74.84,600-2.87a15.18,15.18,0,0,0-5,12q.22,70.49,0,141a10.54,10.54,0,0,0,3.48,8.25C610.39,170,622,182,633.84,193.66a9.77,9.77,0,0,1,3.13,7.82c-.08,28.83,0,57.65-.11,86.48a10.34,10.34,0,0,0,3.36,8.19c15.85,15.63,31.46,31.5,47.2,47.23q45.66,45.66,91.32,91.31a11.7,11.7,0,0,0,9.16,3.72q34-.23,68,0a11.1,11.1,0,0,0,8.72-3.66c17.58-17.74,35.17-35.45,53-52.92,3.39-3.31,4.25-6.86,4.12-11.14-.16-5.49-.18-11-.43-16.47-.29-6.49,1.6-11.78,6.87-16,4.07-3.29,7.11-7.91,11.3-11,11.39-8.32,15.36-19,13.69-32.94-1.07-9-.2-18.17-.2-27.57,2.11.63,2.89,1.92,3.89,2.92q28.81,28.75,57.6,57.55a8.84,8.84,0,0,0,6.95,2.93c16.32-.11,32.66-.23,49,.06,4.61.09,7.67-1.51,10.67-4.73,12.25-13.14,24.1-26.74,37.24-38.94,9.86-9.14,15.32-18.86,12.86-32.37-.33-1.78.17-3.69-.09-5.49-.76-5.11,1.34-6.53,6.38-6.48,24.32.23,48.65.06,73,.17a10,10,0,0,0,7.91-3.19c6.65-6.9,14.17-13.07,20.12-20.52,8.27-10.37,18.07-15.33,31.29-12.88.32.06.67-.05,1,0,2.4.47,4.07-.74,5.64-2.32q21.64-21.72,43.35-43.4a10.15,10.15,0,0,0,3.28-7.86Q1322.85,85.19,1323,18.22ZM747.92,331.83a8.67,8.67,0,0,0-3,6.91c.14,11.49.06,23,0,34.49,0,1.42.45,2.94-1.29,5.5-7.45-7.79-14.55-15.46-21.91-22.87Q689,322.86,656,290.12a12,12,0,0,1-3.85-9.19c0-25.32.05-50.65-.09-76,0-3.74,1.22-4.81,4.91-4.81q70,.17,140,.08c5.59,0,6.95,1.43,7,7.21,0,6.5-.21,13,.08,19.49a10.29,10.29,0,0,1-3.28,8.38Q778.31,257.54,756,280a7,7,0,0,1-5.67,2.25c-3.33-.1-6.76-.51-10,.07-11.23,2-19.16-2.74-25.92-11.17-1.75-2.19-2.21-3.74-1.27-6.12,6.24-15.9,0-30.18-14-35.8-17.23-6.87-34.81,5.2-36.18,21.62-1.16,13.83,6.11,24,18.37,28.36a24.55,24.55,0,0,0,15.23.11c3-.91,4.48-.1,6.32,1.82,4.68,4.87,9.52,9.58,14.25,14.4a7.72,7.72,0,0,0,6.12,2.48q16.23-.23,32.49,0a8.93,8.93,0,0,0,7-2.86q26.88-27,53.87-53.84a8.65,8.65,0,0,0,2.68-7.06c-.16-4.6,0-9.2,0-14.91,5.93,4.45,9.45,9.85,14.37,13.5,8.77,6.51,10.45,14.82,10.83,25.34.46,13-2.5,22.88-13,30.87-6,4.53-10.9,10.5-16.14,16a8.69,8.69,0,0,1-7,2.81c-10.83-.14-21.66,0-32.49-.1a7.86,7.86,0,0,0-6.17,2.43C762.44,317.46,755.26,324.72,747.92,331.83Zm-47.76-77.91c0,6.22-4.68,10.78-11,10.84a11,11,0,0,1-10.9-11.08c.15-6,5.32-11.33,10.89-11.34C695.36,242.34,700.19,247.39,700.16,253.92ZM934.49,310.2c-8.09,8-16.08,16.18-24.29,24.1a10.18,10.18,0,0,0-3.56,8.23c.21,8,0,16,.09,24a9.62,9.62,0,0,1-3.15,7.46q-23.31,23-46.4,46.29a9,9,0,0,1-7,2.93c-9.66-.1-19.32,0-29,0v.09c-9.82,0-19.65-.15-29.47.1-2.24.06-3.4-1-4.63-2.22-8.06-8-16-16.13-24.13-24.11a7.34,7.34,0,0,1-2.21-5.75c.06-15.49,0-31,0-46.48,0-1.48-.42-3.23.67-4.34q8.31-8.44,16.88-16.64c1.42-1.36,3.48-.89,5.3-.89,10.33,0,20.66-.11,31,0a10.06,10.06,0,0,0,8-3.17q16.83-17.09,33.86-34a8.91,8.91,0,0,0,2.89-7c-.17-9.5,0-19-.14-28.49,0-3.17.78-4.39,4.17-4.31,8.65.21,17.32.17,26,0,3.12-.06,4,1.08,4,4.06-.15,8.66-.2,17.32,0,26,.07,2.9-1.44,4.56-3.18,6.31C881,291.5,872,300.71,862.82,309.7a10.63,10.63,0,0,0-3.58,8.31c.12,9.82,0,19.66.09,29.48a7.73,7.73,0,0,1-2.51,6.1c-3.42,3.33-6.83,6.67-10.12,10.14a10.83,10.83,0,0,1-7.91,3.35c-4.07.22-6-1.21-8-4.82-5.68-10.43-14.94-15.43-26.73-14-11.41,1.39-18.88,8.5-22.09,19.36-3,10.07.08,19.1,7.5,26.24,12.91,12.41,33.54,8.53,41.69-7.67,1.53-3,3.37-4.67,6.89-4.06,8.35,1.45,14.75-1.35,20.21-8,4.89-6,12.58-10.21,15.8-16.79s1.54-15.45.74-23.13c-1.13-10.72,2.26-18.5,10.45-25.35,7.54-6.3,14-13.86,21.11-20.71a8.24,8.24,0,0,0,2.69-6.57c-.12-10.33,0-20.66-.13-31-.06-3.3.66-4.81,4.36-4.6,5.48.32,11,.06,16.49.11,5.2,0,7.39,2,7.41,7.1.08,17.16,0,34.32.1,51.48C937.29,307.2,936.05,308.66,934.49,310.2ZM818.82,375c-.06,5.43-5.36,10.8-10.79,10.93a11,11,0,0,1-11.23-11.24c-.06-6.79,3.91-10.78,10.75-10.8A11,11,0,0,1,818.82,375Zm488.43-227.72A7.31,7.31,0,0,1,1305,153c-11.62,11.48-23.13,23.07-34.64,34.65a7.63,7.63,0,0,1-6.12,2.48c-6.66-.22-14,1.61-19.79-.69-5.46-2.17-9.27-8.53-13.8-13.05q-24.34-24.28-48.67-48.57c-1.73-1.73-2.87-3-1.49-6.23,5.94-14.11-.22-28.65-14.82-34.47-12.39-5-26.44-.84-33.94,13.36-4.52,8.56-2.51,21.19,4.25,28.86s18.73,11.06,28,7.47a5.44,5.44,0,0,1,6.62,1.38q30.15,30.21,60.39,60.33c2,2,2.72,3.48.1,6-7,6.67-13.64,13.79-20.48,20.66-2.89,2.91-6.86,2.6-10.39,2.45-20.65-.9-41.31-.13-62-.39-7.08-.08-7.08,0-7.08-6.91,0-11.17-.11-22.33,0-33.5a9.27,9.27,0,0,0-3-7.43c-11.37-11.14-22.47-22.58-33.92-33.64-2.72-2.63-3.38-5.32-3.37-8.78.06-41.83,0-83.66.09-125.48a9.94,9.94,0,0,0-3.13-7.82Q1038.95-45,990.27-93.87c-2.14-2.14-3.28-3.42-1.76-6.94,8.81-20.43-9.66-38.61-25.9-37.07-9,.85-21.65,6.84-24.87,22.61-1.72,8.41,3.24,21.74,12.9,26.94,5.83,3.13,12,4.71,18.63,2.78,4.32-1.25,7.24-.41,10.75,3.15,30.55,31,61.44,61.65,92.24,92.39,1.68,1.67,2.85,3.29,2.84,5.93-.09,35.5,0,71-.06,106.49a17.92,17.92,0,0,1-.3,2.16c-2.74-.5-4-2.61-5.54-4.17q-40.29-40.32-80.49-80.75c-1.88-1.9-3.93-1.49-6-1.49q-54-.06-108,0c-3.54,0-6.06-.77-8.61-3.6-5.28-5.86-11.13-11.23-16.91-16.64-2.41-2.26-2.83-4.51-1.71-7.54C852.87-4,844.86-19,830.33-23.48,817-27.58,802.7-21.83,797.56-6.85c-3.24,9.47-1.93,19.43,6,27.19q12.18,11.94,28.21,6.15c2.5-.91,4.28-.25,6.16,1.68,7.46,7.63,15.22,15,22.58,22.69A9.11,9.11,0,0,0,867.8,54c36-.09,72,0,108-.15a11.77,11.77,0,0,1,9.14,3.83q63.8,64,127.79,127.84a10.44,10.44,0,0,1,3.27,8q-.09,34.25,0,68.49a10.79,10.79,0,0,1-3.37,8q-19.9,20.71-39.67,41.55c-2.21,2.34-4.53,3.1-7.86,3-12.49-.31-25-.19-37.49-.1a9,9,0,0,1-7-2.86Q987.88,278.74,955,246.12c-1.17-1.17-2.2-2.48-3.34-3.68-11.18-11.63-11.18-11.63-27.47-11.63-21.82,0-43.66-.06-65.48.06a11.31,11.31,0,0,1-8.87-3.48c-12.82-13-25.8-25.94-38.66-38.95a10.74,10.74,0,0,0-8.38-3.48c-12.17.18-24.34-.09-36.49.19-4.66.11-6.54-1.05-6.31-6.1.4-9,0-18,.18-27a9.51,9.51,0,0,0-3.18-7.46c-11.83-11.7-23.59-23.48-35.47-35.14-2.16-2.13-2.7-3.82-1.33-6.89,4.66-10.46,1.15-23.27-7.85-30.43-9.48-7.55-21.65-7.94-31.35-1.29-18.15,12.44-14.43,37.28,3.25,45.82,5,2.4,10.49,4.13,16.31,2,4.53-1.68,8.05-.89,11.7,3,9.51,10.27,19.6,20,29.59,29.83a9.21,9.21,0,0,1,3.07,7.38c-.19,7.16-.16,14.34,0,21.5.07,3.05-.72,4.63-4.13,4.62q-45.5-.06-91,0a6.46,6.46,0,0,1-4.83-2.1q-16-16.17-32.1-32.18a6.09,6.09,0,0,1-1.89-4.81c0-15.67.06-31.33,0-47a7.28,7.28,0,0,1,2.43-5.66Q647.64,59,681.84,24.66A7.71,7.71,0,0,1,688,22.15c7.83.15,15.67.24,23.49,0a11.37,11.37,0,0,1,9.2,3.73c29,29.17,58.14,58.19,87.1,87.39a12.7,12.7,0,0,0,10,4c28.83-.15,57.66,0,86.49-.14a11.66,11.66,0,0,1,9.12,3.86q48.32,48.6,96.93,96.9c2,2,2.9,3.23,1.43,6.63-6.89,15.93,3.57,31.58,17.57,36,14.53,4.65,33.84-7.73,33.5-26.06-.33-18.1-19-30.55-33.73-25-2.93,1.1-5.08.43-7.47-2Q970.53,156.16,919.25,105a9.47,9.47,0,0,0-7.32-3.19c-28.16.12-56.33-.15-84.48.28a19.75,19.75,0,0,1-15.66-6.36q-42.85-43.32-86-86.41a11.54,11.54,0,0,1-.92-1.17c-5.89-2.28-12-.5-18-1.14-1.81-.19-4.86.88-4-3q28.83-28.92,57.61-57.89a6.72,6.72,0,0,1,5.34-2q66.74,0,133.47,0a7.33,7.33,0,0,1,5.72,2.34q9.91,10.06,20,20c1.68,1.67,2.33,3,1.06,5.59C919-13.71,926.1,1.8,939.61,7.57,955.12,14.2,970,5.13,975.3-8.74c6.26-16.34-8.46-35.85-26.6-35-.66,0-1.46-.16-2,.14-7.2,4.26-11.16-.84-15.42-5.21-6.19-6.37-12.48-12.65-18.63-19.06-2.5-2.61-5.4-3.36-8.94-3.35-44,.09-88,.63-132-.32-11.88-.26-19.48,3.5-27.43,11.64-30.5,31.21-61.73,61.72-92.62,92.56-12.28,12.26-24.38,24.71-36.61,37-1,1-1.72,2.49-3.54,2.63-1.15-1.45-.6-3.17-.6-4.73-.05-18.49,0-37-.12-55.49a9.51,9.51,0,0,1,3.23-7.38q53.74-53.43,107.4-107c11.64-11.63,23.16-23.37,34.71-35.08,3.13-3.17,6.39-4.95,11.29-4.91,37,.28,74,.15,111,.22a9,9,0,0,0,7.07-2.8c5.73-6,11.79-11.6,17.5-17.57a9.41,9.41,0,0,1,7.43-3.21q36.24.31,72.47.43a7.9,7.9,0,0,1,6,2.8c13.12,13.2,26.38,26.26,39.47,39.49a9.28,9.28,0,0,0,7.37,3.13c10.32-.18,20.66,0,31-.13a8.72,8.72,0,0,1,6.94,2.94q32.68,32.85,65.56,65.52c10.82,10.81,21.54,21.7,32.43,32.42a9.38,9.38,0,0,1,3.1,7.43c-.13,15.16,0,30.33-.14,45.49a9.64,9.64,0,0,0,3.07,7.49c10,9.95,19.93,20,30,29.91,2.06,2,2.84,3.31,1.67,6.59-6.5,18.16,8.62,37.27,28.55,34.71,12.73-1.63,22.17-13.26,22.91-23.67,1-13.4-5.93-23.74-19.23-28.27a21,21,0,0,0-15.62.68c-3,1.43-5.47,1.23-8-1.38-8.15-8.4-16.49-16.62-24.82-24.85a10.6,10.6,0,0,1-3.4-8.34c.2-14.83,0-29.67.16-44.5a10.76,10.76,0,0,0-3.39-8.38q-53-52.9-106-105.95a9.66,9.66,0,0,0-7.48-3.14c-10.66.1-21.32-.15-32-.13-1.75,0-3.31-.08-4.58-1.34-9.16-9-18.31-18.06-27.62-27.25,1.87-1.93,3.7-1.66,5.45-1.66,34,0,68,0,102-.09a11.27,11.27,0,0,1,8.75,3.67q89.39,89.52,178.93,178.85c2,1.95,3.21,3.91,3.2,6.92Q1307.14,85.5,1307.25,147.24ZM1167,111.49a11.19,11.19,0,0,1-10.62,11.38,11.34,11.34,0,0,1-11.44-11.1c0-6,5.41-11.62,11.17-11.56S1166.88,105.6,1167,111.49ZM975.09-111.15A11.19,11.19,0,0,1,964.19-100,11.52,11.52,0,0,1,953-111a11,11,0,0,1,11.35-11.07C970.76-122.08,975.12-117.66,975.09-111.15ZM822.68,12.92C816.74,13,811.29,7.66,811.26,2s5.93-11.61,11.5-11.66,10.66,5.74,10.52,12C834.05,8.3,828.31,12.9,822.68,12.92ZM706.85,92.78A11.3,11.3,0,0,1,695.93,104a10.82,10.82,0,0,1-11.11-10.83c0-6.76,4.34-11.28,10.93-11.26A11.13,11.13,0,0,1,706.85,92.78Zm318.16,142a10.9,10.9,0,0,1,11-10.8c6.63,0,10.9,4.13,10.94,10.67,0,6.39-4.52,11.31-10.49,11.32A11.3,11.3,0,0,1,1025,234.78ZM939-17.39A11,11,0,0,1,950.14-28,11.08,11.08,0,0,1,961-17.11,10.94,10.94,0,0,1,949.84-5.94,11,11,0,0,1,939-17.39ZM1223.07,86.12c.07-5.53,5.45-10.41,11.5-10.42,6.78,0,10.58,3.88,10.57,10.84,0,6-4.76,11.13-10.29,11.19C1228.66,97.8,1223,92.22,1223.07,86.12Z" transform="translate(-82 180.52)"/><path class="cls-2" d="M702.92,4c.22,2.54,2.15,2.08,3.74,2.1,4.32,0,8.65,0,13,0,2,0,4,0,5.28,2l-21.33-.21c-1.14,0-2.6.1-2.86-1.3A2.13,2.13,0,0,1,702.92,4Z" transform="translate(-82 180.52)"/><path class="cls-3" d="M253.08,325.12c0-3.45-1-4.53-4.49-4.49-16.33.17-32.65,0-49,.11-3,0-5.34-.57-7.32-3.16a20.49,20.49,0,0,0-12.09-7.46,23.26,23.26,0,0,0-16,43.26A22.83,22.83,0,0,0,193.81,346a6.83,6.83,0,0,1,6.57-3.27c8.66.14,17.34.23,26-.05,3.82-.13,4.75,1.12,4.71,4.8-.19,17.16-.06,34.32-.09,51.48,0,13.53-6.23,19.91-19.84,20-24.82.11-49.64,0-74.47,0a23.08,23.08,0,0,1-8.79-1.53c-8.08-3.28-10-10.1-10-17.85-.06-20.49,0-41,0-61.48h0q0-12.74,0-25.48c0-12.83-.17-25.67.15-38.49.28-10.94,5.82-16.42,16.65-17.28,2.15-.17,4.32-.17,6.49-.17h74c7.16,0,14.33-.14,21.49,0,3.19.07,4.49-.89,4.3-4.25a133.24,133.24,0,0,1,0-14c.16-3.32-1.06-4.26-4.3-4.25-33.49.11-67-.07-100.46.18-9.18.06-18.25,1.7-26.07,7.21-11.63,8.19-14.41,20.58-14.52,33.46-.35,41.81-.24,83.63,0,125.45.05,8.83,1.49,17.62,6.6,25.25,7.88,11.75,19.82,15.09,33,15.18,26.32.18,52.64.1,79,0a43.7,43.7,0,0,0,13.3-1.79c16.82-5.39,25.38-17,25.57-35.59C253.16,377.43,252.94,351.27,253.08,325.12ZM175.29,342a9.22,9.22,0,0,1-9.33-9,9,9,0,1,1,18.08-.09A9.24,9.24,0,0,1,175.29,342Z" transform="translate(-82 180.52)"/><path class="cls-3" d="M509.27,324.86c-7.09-3.36-14.69-4.11-22.39-4.13-18,0-36,0-54,0-7.65,0-15.34.19-22.95-.46-11.45-1-16.71-7.18-16.82-18.83-.07-7.83,0-15.66,0-23.49,0-15.11,6-21.15,21.22-21.2,24.65-.07,49.31,0,74-.07a7.39,7.39,0,0,1,6.35,2.9c9.07,10.64,24.44,11.36,34,1.82a23.22,23.22,0,0,0-.87-33.81A22.77,22.77,0,0,0,494,231c-2,2.7-4,3.33-7,3.32-25-.08-50-.15-75,0-26.58.16-40.63,14.29-40.86,40.87-.09,10.33-.39,20.68.18,31,.79,14.25,5.95,26.31,19.92,32.61,7.09,3.2,14.72,4,22.43,4,24.83,0,49.65-.05,74.47.08,10.67.06,17,5,17.72,15a324.46,324.46,0,0,1,.06,45.93c-.62,9.34-6.28,14.21-15.64,15.07-2.64.24-5.33.14-8,.14-31.32,0-62.64.07-94-.07-3.86,0-5.48,1-5.09,5,.32,3.47.06,7,.06,10.49,0,6.59,0,6.59,6.38,6.59h49.48c4.33,0,8.66.09,13,0,15.31-.37,30.65,1,45.93-.88s26.56-12.22,29-27.32c3.19-19.86,2.26-39.87.77-59.77C526.92,340.72,521.15,330.5,509.27,324.86Zm3.48-88.93c5.34.15,8.74,3.92,8.51,9.45a8.88,8.88,0,0,1-9.08,8.62c-4.7-.1-9.21-4.81-9-9.44A9.08,9.08,0,0,1,512.75,235.93Z" transform="translate(-82 180.52)"/><path class="cls-4" d="M251.76,499.53c-3.61-9.8-11.84-15.62-22.06-15.62s-19,5.93-21.84,15.82c-2.75,9.66-1.24,17.85,7.11,24.74a9.72,9.72,0,0,1,4,8.46c-.23,12.83-.27,25.67,0,38.49.09,4.28-.88,5.76-5.46,5.66-15-.3-30-.11-45-.11-15.16,0-30.33-.15-45.49.09-4.24.06-5.57-1.31-5.24-5.41s.07-8,.07-12c0-21.33-.08-42.66.08-64,0-3.69-1-5.12-4.77-4.81s-7.66.08-11.49.09c-6.45,0-6.45,0-6.45,6.68q0,78.48,0,157c0,3.54-.63,5.9-4,8.15-9.44,6.36-12,19.81-6.36,29.87a23.13,23.13,0,1,0,36.71-27.52c-1.67-1.74-3.83-3-3.81-6.08.11-18.83.08-37.66,0-56.49,0-2.46.74-3.62,3.42-3.61q47,.09,94,0c2.9,0,3.89,1.11,3.64,3.85-.13,1.48,0,3,0,4.49,0,28.5.07,57-.08,85.48,0,3.91,1,5.45,5,5a59,59,0,0,1,12-.37c5,.51,5.12-2,5.12-5.81-.09-53,0-106-.12-159,0-3.4.73-5.68,3.66-7.95A22.55,22.55,0,0,0,251.76,499.53ZM105,690.07c-5.43-.06-9-3.77-8.92-9.15a9,9,0,0,1,18,.23C114.19,686.61,110.6,690.13,105,690.07ZM230.08,516c-5.34.18-9.09-3.45-9.17-8.89s3.46-9.22,8.84-9.2a9.25,9.25,0,0,1,9.25,9.13C239.1,511.64,234.88,515.87,230.08,516Z" transform="translate(-82 180.52)"/><path class="cls-3" d="M351.14,227.8c-13.64-12.26-33.07-6-38.94,13.32a12.3,12.3,0,0,1-1-1.79c-2.87-10.18-10.87-17.05-20.51-17.57-10.38-.57-19.72,5-23.33,13.79-4.12,10.11-1.67,20.35,7.11,27.28,2.5,2,3,3.95,3,6.74-.07,20.49-.05,41-.05,61.46,0,35,.06,70-.06,104.94,0,3.81.91,5.52,5,5.13,3.3-.31,6.66,0,10-.06,8.4-.14,7.46,1.33,7.47-7.37q.06-81.19,0-162.4c0-2.11-1-4.88.78-6.23,5.58-4.33,9.79-9.46,11.55-16.55,1.42,5.85,4,10.74,8.63,14,3.05,2.14,3.64,4.59,3.63,8q-.13,66.71,0,133.42c0,10.49.26,21-.11,31.47-.18,4.79,1.48,6.11,5.93,5.71a54.44,54.44,0,0,1,11,0c4.77.53,5.71-1.41,5.7-5.86-.15-55-.07-109.93-.14-164.89,0-3.33.63-5.64,3.48-8C361.4,253,361.64,237.24,351.14,227.8ZM288.43,254a9,9,0,0,1-8.71-9.07c0-5.33,3.64-9,9-9a8.81,8.81,0,0,1,9.08,9.06A9.53,9.53,0,0,1,288.43,254Zm46.85,0a9.57,9.57,0,0,1-9-9,8.84,8.84,0,0,1,9-9.12c5.31,0,9.3,3.84,9.24,8.95A9.32,9.32,0,0,1,335.28,254Z" transform="translate(-82 180.52)"/><path class="cls-5" d="M395.17,586.24c-1.22-18.79-14.07-31.78-32.73-33.43-14.81-1.3-29.63-.17-42.19-.69-15.25,0-28.25.08-41.25,0-3,0-4.16.89-4,4a80,80,0,0,1,0,12.48c-.51,4.82,1.47,5.72,5.86,5.68q36.5-.29,73,0c9.86.08,18.42,3.77,19.58,16.74a206.45,206.45,0,0,1,.38,21c-.22,16.31,1.07,32.66-.75,48.93-.9,8.09-6.83,13.94-15,14.07-19.16.28-38.32.26-57.49,0-7.38-.09-12.41-4.46-14.54-11.57a29,29,0,0,1-.24-14.78c1.35-6.15,5-10,11-11.6,7.71-2.08,15.58-.55,23.35-1.09,3.28-.22,5.37.84,7.46,3.64,6,8,17.29,10.67,26.57,6.83,9.07-3.77,15.54-13.93,14.59-22.92-1.09-10.33-7.57-18.24-17.28-21.11-8.64-2.56-18.33.89-24.68,9.07a6.18,6.18,0,0,1-5.53,2.54c-7.83-.05-15.7-.42-23.48.19-14.58,1.14-26.72,7.06-31.83,21.65-4.91,14-4.88,28.58,1.29,42.38,4.59,10.29,13.15,16.33,24.28,17.8,23.7,3.15,47.53,2.32,71.27.81,12.23-.78,22.24-6.44,28.18-17.84,3.64-7,4.73-14.62,4.71-22.24C395.68,633.21,396.69,609.72,395.17,586.24ZM345.64,616c5,.07,9.13,4,9.12,8.7a9.67,9.67,0,0,1-9.17,9.31c-4.87,0-9.42-4.38-9.39-9.08A9.3,9.3,0,0,1,345.64,616Z" transform="translate(-82 180.52)"/><path class="cls-6" d="M803.05,585.75c-1.22-20.2-14.28-31-32.5-32.89-14.79-1.58-29.62-.12-41.81-.72-15.27,0-27.94.14-40.6-.09-4-.07-5.35,1.27-5.07,5.17a64.73,64.73,0,0,1,0,11.48c-.47,4.54,1.27,5.56,5.59,5.52,24.32-.2,48.65-.14,73-.07,12.84,0,19.88,6.07,20.1,18.4q.6,32,0,64c-.24,13-6.46,18.48-19.6,18.54-17.16.06-34.32.08-51.48-.06-9.77-.08-15.47-5.07-17.27-14.61-2.83-15,4.83-24.37,20-24.47,3,0,6,.23,9-.06,6.57-.65,11.73.68,16.46,6.23,6.06,7.09,17.21,7.77,25.8,3.13,8.43-4.55,13.76-14.62,12.1-23.29-1.86-9.81-7.28-17-17.11-19.47-9.63-2.41-18.15.32-24.32,8.54A7,7,0,0,1,728.9,614c-7.66-.11-15.37-.46-23,.19-14.95,1.27-27,7.45-32.15,22.62-2.65,7.76-3.22,15.94-2.67,24.15,1.47,21.7,13.77,34.67,34.55,36a459.94,459.94,0,0,0,63.87,0c20.12-1.52,31.46-12.48,33.16-29.83C805.33,640.06,804.68,612.84,803.05,585.75ZM753.76,616c5.12.07,9.37,4.3,9.14,9.1-.21,4.51-4.62,8.84-9.07,8.89-5.62.07-9.18-3.7-9-9.52C745,619.19,748.48,615.9,753.76,616Z" transform="translate(-82 180.52)"/><path class="cls-6" d="M1029.78,588c-.22-13.39-5.62-25-18.71-31.24-7.18-3.42-14.94-4.54-22.8-4.58-21.32-.11-42.65-.14-64,.06-4.25,0-5.52-1.31-5.23-5.4a120.91,120.91,0,0,0,0-14c-.19-3.85.42-6.9,3.83-9.49a18.71,18.71,0,0,0,5.94-9.07c3.89-11.57-1.34-23.41-12.61-28.66-10.32-4.81-22.82-.88-29.18,9.17a22.84,22.84,0,0,0,5.6,30c3.55,2.65,4.57,5.37,4.54,9.55-.17,26-.08,52-.09,78,0,26.49.13,53-.11,79.47,0,5,1.56,6.53,6.28,6,3.13-.33,6.32,0,9.49-.07,4.33,0,6.57-1.13,6.52-6.58-.31-37.15-.09-74.3-.25-111.45,0-4.4,1.25-5.71,5.66-5.66,21,.2,42,0,63,.11,13.65.06,20.25,6.75,20.25,20.27q0,44,0,88c0,15.89,0,15.89,16,15.36.83,0,1.66-.12,2.49-.17,2.59-.16,3.68-1.32,3.68-4.12C1030,658.29,1030.38,623.13,1029.78,588ZM907.05,516a9.25,9.25,0,0,1-9.14-9.17c.07-5.5,3.53-8.87,9.12-8.88a8.79,8.79,0,0,1,8.91,9.18A9.18,9.18,0,0,1,907.05,516Z" transform="translate(-82 180.52)"/><path class="cls-4" d="M654.28,690.91c-21.77-19.29-43.67-38.45-65.42-57.78-2.94-2.6-8.09-4.56-8.11-8.19s5.14-5.62,8.08-8.23q32.82-29.15,65.77-58.12c1.91-1.69,4.2-3.11,5.62-6.45-9.22,0-17.82.13-26.4-.07a11.45,11.45,0,0,0-8.87,3.54q-20.52,19.7-41.36,39.07c-4.19,3.9-7.91,8.38-13.26,11.89-.1-1.16-.19-1.76-.19-2.35,0-24.5,0-49-.07-73.49,0-2.71,1.22-4.12,3.14-5.71,8.72-7.25,11.28-19.36,6.3-28.79C575,487.71,565.93,483,555.73,484c-8.4.78-16.23,7.49-19,16.24a21.92,21.92,0,0,0,7.68,24.56c2.93,2.24,3.73,4.47,3.72,7.9q-.13,79-.06,158c0,1.16,0,2.33,0,3.49-.14,2.56,1,3.62,3.57,3.59,4.5-.07,9-.22,13.5,0,4,.23,5.11-1.37,5.06-5.24-.19-15-.1-30-.06-45,0-1.09-.56-2.58.77-3.15s2,.91,2.78,1.64c13.4,12.47,27.51,24.28,39.92,37.67,10,10.74,20.65,16.5,35.3,14,3.51-.59,7.23.77,10.82-.91C658.57,694.09,656.22,692.63,654.28,690.91ZM559,516.06c-5.37,0-9-3.63-9-9.08a9,9,0,0,1,9.13-9,9.19,9.19,0,0,1,8.91,8.85A9.29,9.29,0,0,1,559,516.06Z" transform="translate(-82 180.52)"/><path class="cls-6" d="M1348.73,663.5c-3.06-2.4-3.84-4.84-3.82-8.39.09-22,.25-44-.12-66-.17-9.8-2.92-19-10.24-26.29-8.43-8.38-19.14-10.5-30.27-10.6-29-.27-58,0-87-.19-4.24,0-5.34,1.37-5.31,5.44.17,22.33.08,44.65.07,67v58.47c0,16.61,0,16.37,16.8,14.68,5-.51,6-2.33,6-7-.2-37.15-.11-74.3-.14-111.45,0-2.83-.21-5.15,4-5.12,21.83.17,43.65-.13,65.47.19,12.48.18,18.78,7.1,18.81,19.69.07,20.82,0,41.65.08,62.47,0,3-.6,5.2-3.2,7.19a21.45,21.45,0,0,0-8.77,16.67c-.47,10.75,7.18,21.12,17.21,23.58a23.82,23.82,0,0,0,26.65-12A22.56,22.56,0,0,0,1348.73,663.5ZM1334,690.06c-5.13-.07-9-3.8-9-8.64s4.44-9.42,9.12-9.39a8.88,8.88,0,0,1,9,9.26C1343.08,686.86,1339.68,690.15,1334,690.06Z" transform="translate(-82 180.52)"/><path class="cls-5" d="M1121.07,548a76.65,76.65,0,0,0-76.83,77.32c.31,44.78,36.8,77.08,78.13,76.62,40.57-.44,76.24-34.47,75.7-77.41A76.84,76.84,0,0,0,1121.07,548Zm.14,136.17c-32,.37-59.11-26.73-59.39-58.74s26.61-60.49,59.39-59.59c31.75-.78,58.94,25.29,59.48,58.56C1181.21,657.2,1154.14,683.74,1121.21,684.12Z" transform="translate(-82 180.52)"/><path class="cls-6" d="M522.14,675.08c-20.49,0-41,.09-61.48-.05-11-.07-16.93-5.22-17.75-16-1.66-21.78-1-43.63-.44-65.42.37-14.37,6.9-19.39,21.59-19.44,7.67,0,15.34.1,23-.07,3.07-.06,5.07.7,7,3.42a22.58,22.58,0,0,0,25,7.89c9.93-3.52,16-12,16-22.34a23,23,0,0,0-41.6-13.6c-1.68,2.28-3.37,2.69-5.82,2.74-11.64.28-23.29-.61-34.93.73-18,2.06-30,14.27-31.85,32.21-1.37,13.15-.17,26.29-.83,39.43.65,13.13-.52,26.28.82,39.43,2,19.38,14.3,31.65,33.64,33,22,1.55,44,.52,65.93.67,8.39.06,8.39-.31,8.42-8.66v-7C528.85,675.07,528.85,675.08,522.14,675.08ZM512.44,554a9.23,9.23,0,0,1,8.55,9.74c-.18,5-4.3,8.57-9.69,8.29a8.64,8.64,0,0,1-8.34-9.2A9.29,9.29,0,0,1,512.44,554Z" transform="translate(-82 180.52)"/><path class="cls-6" d="M880.06,556.15c.11-3-.78-4.28-3.94-4.06-3.31.22-6.65.06-10,0-5.69,0-12.16-6.55-12.17-12.3,0-14.83-.11-29.65.06-44.47,0-3.56-1.14-4.7-4.58-4.48a84.72,84.72,0,0,1-11.49,0c-3.67-.28-4.94.86-4.86,4.7.23,12.49-.07,25,.15,37.48.1,5.62.49,11-6.19,13.35-.42.15-.75.65-1,1.05-2.5,3.38-5.51,5.53-10,4.72-2-.36-3.05.64-3,2.83.08,5.5.08,11,0,16.49,0,2,.93,2.87,2.74,2.56,3.86-.65,6.07,1.24,8.14,4.24a16.61,16.61,0,0,0,5.84,5.32c3.16,1.58,3.54,3.82,3.52,6.87-.09,16.82,0,33.64-.05,50.47v42c0,14.9,0,14.73,15,14.91,4.65.06,5.9-1.38,5.88-5.94-.18-34.32-.1-68.63-.08-102.95,0-1.93-.39-3.89,1.06-5.71,7.27-9.07,7.23-9.11,19.06-9.13.83,0,1.67-.06,2.5,0,2.61.25,3.53-.92,3.46-3.49C879.91,565.81,879.88,561,880.06,556.15Zm-38.32,17c-5.27,0-8.81-3.72-8.76-9.23a8.86,8.86,0,0,1,9.25-8.82,9.08,9.08,0,0,1,8.75,9A9.24,9.24,0,0,1,841.74,573.11Z" transform="translate(-82 180.52)"/></svg>