<?xml version="1.0" encoding="utf-8"?>
<!-- Generator: Adobe Illustrator 24.0.2, SVG Export Plug-In . SVG Version: 6.00 Build 0)  -->
<svg version="1.1" id="Layer_1" xmlns="http://www.w3.org/2000/svg" xmlns:xlink="http://www.w3.org/1999/xlink" x="0px" y="0px"
	 viewBox="0 0 219.4 221.8" style="enable-background:new 0 0 219.4 221.8;" xml:space="preserve">
<style type="text/css">
	.st0{fill:#DBA84E;}
	.st1{fill:#DDA650;}
	.st2{fill:#DBA752;}
	.st3{fill:#200A4D;}
	.st4{fill:#200164;}
	.st5{fill:#210263;}
	.st6{fill:#DBA94E;}
	.st7{fill:#200D50;}
	.st8{fill:#210D51;}
	.st9{fill:#D09F4E;}
	.st10{fill:#D2A04B;}
	.st11{fill:#DBA94F;}
	.st12{fill:#2E1862;}
	.st13{fill:#DCA950;}
	.st14{fill:#1F0163;}
	.st15{fill:#DFB15F;}
	.st16{fill:#200263;}
</style>
<title>NTUMUN Logo</title>
<path class="st0" d="M219.4,132.4c-0.2,1-0.4,1.9-0.6,2.9c-1.8,7.1-5.8,12.8-11.3,17.5c-4.3,3.6-8.9,6.7-13.9,9.3
	c-0.3,0.2-0.6,0.4-0.9,0.6c7.8-1.2,15.5-2.8,23-5c-0.1,0.8-0.3,1.5-0.7,2.2c-2.7,6.2-7.3,10.5-13.2,13.6c-5.2,2.6-10.7,4.2-16.4,4.8
	c-1.9,0.3-3.8,0.5-5.7,0.6c3.4,1.1,6.8,1.9,10.4,2.4c3.6,0.6,7.1,1,10.7,1.1c-0.7,1.1-1.8,1.9-3.1,2.3c-3.8,1.5-7.7,2.7-11.6,3.6
	c-6.3,1.4-12.7,2.2-19.2,2.5c-7.4,0.2-14.8-0.2-22.2-1.2c17.2,0.6,34.3-1.2,50.9-5.6c-5.6,0.5-10.7-1.4-15.9-2.9
	c-5.6-1.5-11.5-1.8-17.3-0.8c-4.3,0.6-8.7,0.9-13.1,1.4c-1,0.1-1.9,0.2-2.9,0.2c-0.2,0-0.6,0.2-0.7-0.2s0.3-0.5,0.6-0.7
	c0.2-0.1,0.4-0.2,0.5-0.2c6.1-2.3,10.1-6.7,12.9-12.6c-0.3,1.9-0.6,3.6-1,5.4c-0.2,0.8,0.1,0.9,0.8,0.9c2.6,0,5.2,0,7.9,0.2
	c-2.1,1.3-4.6,1.8-7,1.1c-1.3-0.5-2.9,0-3.7,1.1c-0.9,1.1-1.9,2.1-3.1,3.4c9.6-1.5,18.8-5,27.1-10.2c-0.7,2.3-3.5,5-7.5,7
	c3.9,1.2,15.6-0.7,22.7-3.8c7.2-3,13.6-7.8,18.4-14c-1.6,0.6-3.2,1.2-4.7,1.8c-6.4,2.7-13.3,4-20.2,3.7c-4-0.2-7.7,1.1-11.5,1.8
	c-1,0.2-2.1,0.3-3.2,0.3c26.8-5.8,40-23,43.8-33.3c-0.5,0.4-1,0.9-1.5,1.3c-3.1,3.2-7,5.4-11.3,6.6c-4,1.3-7.7,3.2-11.2,5.6
	c-1.2,0.8-2.6,1.5-4.1,1.8c2.2-1.8,4.5-3.6,6.6-5.5c7-6.1,13-13.1,16.7-21.8c2-4.9,3.1-10,3.2-15.3c1.2,3.1,1.2,8.9,0.1,13.1
	c-1.5,5.6-4.5,10.4-8,15c-1.5,1.9-3,3.7-4.6,5.5c0.3,0.2,0.6-0.1,0.8-0.2c4.8-2.2,9.3-4.9,13.3-8.2c0.3-0.2,0.7-0.5,1-0.6
	L219.4,132.4z"/>
<path class="st1" d="M83.5,221.8c-0.8-4,1.7-7.9,5.7-8.7c0.8-0.2,1.5-0.2,2.3-0.1c0.6,0,0.7,0.4,0.7,0.9c0.3,3.4-1.8,6.5-5,7.5
	l-1.2,0.4L83.5,221.8z"/>
<path class="st2" d="M145.1,221.8c-2.1-0.3-4-1.5-5.2-3.3c-0.9-1.4-1.3-3.1-1.2-4.8c0-0.6,0.3-0.7,0.8-0.7c4.4,0,8,2.7,8,7.8
	c0.1,0.4-0.2,0.9-0.6,1.1L145.1,221.8z"/>
<path class="st3" d="M7,157.4l-0.1,1.5c0,10.7,0,21.3,0,32c0,1-0.2,1.3-1.2,1.3H1.2c-0.8,0-1.1-0.2-1-1.1c0-5.8,0-11.5,0-17.3
	c0-8.8,0-17.6,0-26.5c0-1,0.2-1.6,1.1-1.5l4.4,0c1.6,0.2,2.7,2,3.7,3.6c4.3,6.3,8.9,12.4,13.4,18.6c0.5-0.2,0.7-0.7,1-1.1
	c4.8-6.7,9.6-13.3,14.4-20c0.4-0.6,1.1-1,1.8-0.9c1.5,0.1,3.1,0.1,4.7,0c0.8,0,1.1,0.2,1.1,1c0,7.2,0,14.5,0,21.7s0,14.7,0,22
	c0,1.1-0.3,1.5-1.2,1.5h-4.7c-0.6,0-0.7-0.4-0.7-1v-33.9c0,0-0.8,0.5-1,0.9c-4,5.4-7.9,10.8-11.8,16.3c-0.3,0.5-0.9,0.9-1.6,0.8
	c-1.4-0.1-3.1,0.4-4.2-0.2s-1.8-2.1-2.7-3.3c-3.2-4.4-6.5-8.9-9.7-13.3L7,157.4z"/>
<path class="st4" d="M127,181.3c0.3-0.4,0.4-0.9,0.3-1.4c0-10.7,0-21.4,0-32.1c0-1.2,0.3-1.5,1.5-1.4c1.4,0.1,2.9,0.1,4.3,0
	c0.9,0,1,0.3,1,1.1c0,11,0,22,0,33c0,3.6,0,7.2,0,10.8c0,0.8-0.1,1.2-1.1,1.1c-1.9-0.1-4.1,0.5-5.7-0.2s-2.4-2.9-3.5-4.4
	c-7.1-9.8-14.2-19.5-21.4-29.3c-0.2-0.2-0.3-0.6-0.8-0.7v1.3c0,10.7,0,21.4,0,32.1c0,1-0.2,1.3-1.2,1.3c-1.8,0-3.5,0-5.3,0
	c-0.5,0-0.7-0.1-0.7-0.6c0-0.2,0-0.5,0-0.7c0-14.5,0-28.9,0-43.4c0-1.1,0.3-1.4,1.4-1.4c1.6,0.1,3.1,0.1,4.7,0
	c0.8-0.1,1.5,0.3,1.8,1c7.9,11,15.9,22,23.8,33C126.5,180.6,126.7,180.9,127,181.3z"/>
<path class="st5" d="M53.4,162.5c0-5,0-10,0-15c0-0.9,0.2-1.2,1.1-1.1c1.6,0.1,3.1,0.1,4.7,0c0.9,0,1.1,0.4,1.1,1.1
	c0,9.4-0.1,18.7,0,28c0,4.3,1.7,7.8,5.7,9.8c5.7,3,12.5-0.5,14-6.9c0.2-1.2,0.4-2.4,0.4-3.6c0-8.7,0-17.4,0-26.1
	c0-2.5,0-2.5,2.5-2.5c1.1,0,2.2,0,3.2,0c0.9,0,1.1,0.3,1.1,1.1c0,5,0,10,0,15c0,4.5,0,8.9,0,13.4c-0.1,9-5.6,15.5-14.4,17
	s-17.5-4.8-19-13.5c-0.3-2.2-0.4-4.4-0.3-6.6C53.6,169.3,53.5,165.9,53.4,162.5L53.4,162.5z"/>
<path class="st0" d="M175.3,102.5c4.1,9,5.3,19,3.5,28.7c3.5-2.9,6.2-6.6,7.8-10.8c-1.3,0.8-2.8,1.4-4.3,1.6l1.5-2.2
	c5.5-8.5,9.9-17.6,11.9-27.6c1.9-8.6,1.3-17.6-1.5-26c-0.6-1.5-1.3-3-2.2-4.4c-0.6-0.9-1-1.9-1.3-3c0-0.2-0.2-0.5,0-0.7
	s0.5,0,0.8,0.1c0.9,0.6,1.7,1.4,2.2,2.3c1.8,3.1,3.1,6.5,3.8,10c1,5.1,1.4,10.3,1.2,15.5c-0.2,9-3.5,17.1-8.2,24.6
	c-1.8,2.9-3.6,5.9-5.3,8.8c-0.2,0.3-0.3,0.5-0.4,0.8c10.9-9.5,16.6-22.2,22.5-35.1c0.8,1.1,1.4,2.3,1.8,3.6
	c2.3,6.4,1.7,12.8-0.5,19.1c-1.9,5.2-4.4,10.1-7.5,14.7c-0.3,0.4-0.5,0.9-0.8,1.4c3.2-2.2,6.2-4.8,8.7-7.8c2.6-3,4.9-6.2,6.8-9.7
	c0.1,0.5,0.1,1.1-0.2,1.6c-2.4,6.8-6.4,12.4-12.5,16.1c-4.8,2.9-8.9,6.8-12.3,11.2c-1.1,1.4-2.4,2.5-4,3.3c1.9-2.4,3.8-4.8,5.6-7.1
	c4.8-6.3,9.3-12.8,12.2-20.2c2.4-5.6,3.5-11.6,3.5-17.7c0-2.3-0.3-4.6-0.9-6.8c-1,2.8-1.9,5.3-2.8,7.8c-2.3,6.1-5,12-9.1,17.2
	c-1.2,1.7-2.6,3.2-4.2,4.4c-2.2,1.6-2.9,3.7-3,6.3c-0.8,12.2-7.4,23.2-17.7,29.6c-0.4,0.2-0.8,0.4-1.1,0.6c0,0-0.2,0-0.4-0.1
	c7.9-6.5,13.7-15.1,16.7-24.9c-2.1,1.1-4,2.6-5.6,4.4c-2.2,2.4-4,5-6,7.6c-1.5,2.1-3.2,4-5.1,5.7c-2.4,1.9-3.8,4.7-3.8,7.8
	c-0.1,2.6-0.9,5.1-2.3,7.2c-1.1,1.8-2.8,3.1-4.8,3.8c3.8-3.1,4.2-7.8,5.1-12.1c0.6-3,1.2-6,2-9l0.8,4.4
	C178.7,134.4,180.6,119.2,175.3,102.5z"/>
<path class="st0" d="M135.8,177.9c0.6-0.5,1.1-1.1,1.7-1.6c4.4-3.8,6.2-8.7,6.4-14.3c0.1-3.1-0.2-6.3,0.5-9.4
	c1-3.9,2.9-7.5,5.7-10.5c3.2-3.9,6-8,8.8-12.2c3.1-4.6,4.3-9.9,4.9-15.3c0.2-2.4,0.3-4.8,0.3-7.2c0-0.7,0.2-1.3,0.5-1.9
	c1.7,4.9,2.5,9.7,3.9,14.9c1.4-6.4,3.1-12.3,6.2-17.7c-0.4,2.1-0.7,4.3-1.2,6.4c-0.8,4.4-2.1,8.6-3.9,12.7c-1,2.1-0.8,4.4-0.8,6.7
	s-0.4,4.6-1.2,6.8c-0.5,1.5-1.3,2.8-2.5,3.8c-3.5,3.3-6.7,7-9.9,10.5c-2.5,2.7-3.4,6.1-4,9.7c-1.1,7.1-3.4,13.7-8.2,19.2
	c-0.9,1.1-1.9,2.1-3.1,2.9c0.2-0.9,0.7-1.7,1.4-2.3c5.6-6,7.8-13.3,8.2-21.3c0.2-4.1,1.9-7.9,4.9-10.7c3.3-3.3,6.2-7,9.6-10.4
	c1.9-2,2.4-4.5,2.5-7.2c0.4-6.5-0.1-13-1.5-19.4c-0.3,2.6-0.6,5-0.8,7.5c-0.4,5.8-2.6,10.8-5.7,15.5c-2.5,3.8-5,7.6-7.8,11.2
	c-3.3,4-5,9.2-4.8,14.4c0.3,5-1.1,10-4,14.1C140.4,175.1,138.2,176.8,135.8,177.9z"/>
<path class="st0" d="M15.6,124.5c0.4-0.3,0.2-0.8,0.2-1.2c0-4.5,0.1-9,0-13.4c0-1.5,0.9-1.2,1.8-1.3s1.4,0.2,1.4,1.3
	c-0.1,6.4,0,12.7,0,19c0,1-0.2,1.3-1.2,1.4c-1.2,0.1-2.3-0.4-3-1.4c-3.3-4.5-6.5-9.2-10-13.6c-0.2-0.3-0.4-0.9-0.8-0.7
	s-0.2,0.7-0.2,1.1c0,4.4-0.1,8.8,0,13.2c0,1.2-0.4,1.5-1.4,1.4c-0.4,0-0.8,0-1.2,0c-0.6,0-0.8-0.2-0.8-0.8c0-6.6,0-13.3,0-19.9
	c-0.1-0.3,0-0.6,0.2-0.8c0.6-0.5,3.3-0.1,3.8,0.6c3.5,4.8,7,9.6,10.4,14.4C15,124.1,15.1,124.5,15.6,124.5z"/>
<path class="st0" d="M51.6,116.2c0-2.2,0-4.3,0-6.5c0-0.8,0.3-1.2,1.1-1.1h0.2c2-0.1,2-0.1,2,2c0,4,0.1,7.9,0,11.9
	c0.1,3.1-1.7,6-4.5,7.3c-2.7,1.4-6,1.1-8.3-0.8c-1.9-1.5-3.1-3.8-3.1-6.2c-0.4-4.3,0-8.7-0.1-13c0-1.3,0.9-1.2,1.7-1.2
	s1.5,0.1,1.5,1.3c0,3.6,0,7.2,0,10.8c0,0.8,0.1,1.7,0.2,2.5c0.4,2.5,2.6,4.5,4.8,4.4c2.6-0.3,4.5-2.4,4.6-5c0-1.1,0-2.1,0-3.2
	L51.6,116.2L51.6,116.2z"/>
<path class="st6" d="M27,120.9c0-2.6,0-5.3,0-7.9c0-1-0.4-1.4-1.3-1.4s-1.9,0-2.9,0c-1.5,0-1.8-0.4-1.7-1.9c0-0.7,0.3-0.9,0.9-0.9
	c4.4,0,8.9,0,13.3,0c0.8,0,0.9,0.5,0.9,1.1s0.1,1.6-1,1.7c-1.3,0.1-2.6,0.1-3.8,0c-0.9,0-1.2,0.3-1.2,1.2c0,5.4,0,10.9,0,16.3
	c0,1-0.3,1.3-1.2,1.3c-1.8,0.1-2.1-0.1-2.1-1.8L27,120.9z"/>
<path class="st0" d="M190.2,58.9c1.8,9.4-0.4,18-3.4,26.6c-2.3,6.7-5.2,13.2-7.7,19.8v0.1c-0.2,0.4-0.5,1.1-0.9,0.9
	s-0.3-0.9-0.2-1.4c1.2-4.1,2.5-8.2,3.7-12.2c1.7-5.6,4-11.1,5.7-16.7c1.5-4.6,2.3-9.5,2.3-14.3C189.6,60.7,189.8,59.8,190.2,58.9z"
	/>
<path class="st6" d="M162.3,168.6c5.9,0.3,11.7,2,17.7,0.9c-3.5,3.5-13.8,2.7-18.9-0.8c0.4-0.5,1-0.8,1.6-0.9
	c4.6-1.3,8.8-3.5,12.6-6.3c4.5-3.2,8.4-7,10.3-12.6c0.3,0.4,0.3,0.9,0.2,1.3c-1.1,4.8-3.8,9.1-7.8,12.1c-4.6,3.5-9.9,4.9-15.4,6.1
	L162.3,168.6z"/>
<path class="st7" d="M99.3,215.8c1.8,0,3.4,0,5,0c0.7,0,1,0.2,1,0.9s-0.1,1.1-1,1.1c-2.5,0-5.1,0-7.6,0c-0.8,0-0.8-0.6-0.8-1.1
	c0.1-0.5,0.4-1,0.8-1.3c1.6-1.9,3.2-3.7,4.9-5.6c0.4-0.4,0.7-0.8,1-1.3c0.7-1.1,0.3-2.4-0.7-3.1l0,0c-1.2-0.6-2.6-0.2-3.2,1l0,0
	c-0.2,0.3-0.1,0.8-0.6,1s-1.1,0.3-1.5-0.1s-0.1-0.8,0-1.2c0.4-1.7,1.8-2.9,3.5-3c1.7-0.3,3.4,0.5,4.3,2c1,1.4,0.9,3.4-0.2,4.7
	c-1.3,1.8-2.8,3.5-4.2,5.2L99.3,215.8z"/>
<path class="st8" d="M122.4,215.7c1.9,0,3.5,0,5.1,0c0.9,0,1,0.5,1,1.1s-0.3,0.9-1,0.9c-2.4,0-4.9,0-7.3,0c-1,0-1.4-0.6-0.9-1.5
	c0.2-0.4,0.4-0.7,0.7-1c1.8-2,3.5-4,5.2-6c0.7-0.7,1-1.8,0.6-2.8c-0.3-0.8-1.1-1.3-1.9-1.3c-1,0-1.9,0.5-2.3,1.5
	c-0.2,0.5-0.4,0.8-1,0.8c-1.2,0.1-1.3,0-1-1.2c0.4-1.7,1.8-3,3.5-3.1c1.7-0.3,3.5,0.5,4.4,2.1c1,1.4,0.9,3.3-0.2,4.7
	c-1.2,1.6-2.5,3.1-3.8,4.6L122.4,215.7z"/>
<path class="st9" d="M148.8,208.3c2.6-0.2,5.2,0.9,6.8,2.9c0.3,0.4,0.3,0.6,0,1c-3.7,3.4-8.2,3.4-11.5,0c-0.5-0.5-0.5-0.8,0-1.2
	C145.6,209.4,147.4,208.3,148.8,208.3z"/>
<path class="st1" d="M84.6,201.2c4.1,0,7.5,3.3,7.5,7.4c0,1.5-0.1,1.6-1.6,1.5c-3.6-0.4-6-2.1-6.8-5c-0.2-0.8-0.4-1.6-0.3-2.5
	C83.3,201.6,83.6,200.9,84.6,201.2z"/>
<path class="st10" d="M81,214.8c-2.2-0.1-4.2-1.1-5.7-2.6c-0.4-0.4-0.3-0.7,0-1.1c2.8-3.2,7.6-3.6,10.8-0.8c0.2,0.2,0.4,0.4,0.6,0.5
	c0.4,0.3,0.4,0.8,0.2,1.1c0,0.1-0.1,0.1-0.2,0.2C85.3,213.8,83.2,214.7,81,214.8z"/>
<path class="st0" d="M138.8,208.5c0.1-4.1,3.4-7.3,7.5-7.2c0.1,0,0.2,0,0.3,0c0.7,0.1,1,0.3,1,1c0.1,5-3.1,7.6-8,7.9
	C138.7,210.2,138.6,210.1,138.8,208.5z"/>
<path class="st11" d="M192.7,78.1c0.4,1.9,0.4,3.9,0.2,5.8c-1.1,8.1-4.1,15.5-7.5,22.9c-0.4,1.1-1,2.1-1.9,2.9
	c2-5.4,3.8-10.5,5.4-15.8S191.7,83.5,192.7,78.1z"/>
<path class="st11" d="M183.6,157.7c0.6-0.4,1.2-0.7,1.9-0.8c3.8-0.9,7.4-2.5,10.7-4.7c3.2-2,6.4-4.1,9.6-6.1
	c0.3-0.3,0.8-0.5,1.2-0.5c-1.3,1.7-2.9,3.1-4.6,4.4c-3,2.2-6.2,4.2-9.5,5.9C189.9,157.2,186.8,157.9,183.6,157.7z"/>
<path class="st12" d="M134,210.5c0,2.1,0,4.1,0,6.2c0,0.8-0.2,1.2-1,1.2s-1.2-0.3-1.2-1.2c0.1-3.4,0-6.8,0-10.2c0-0.8-0.2-1.2-1-1.2
	s-0.9-0.4-0.9-1.1s0.3-1,1-1c0.5,0,1,0,1.4,0c1.7,0.1,1.7,0.1,1.7,1.7V210.5z"/>
<path class="st11" d="M177.2,149.1c7.7-5.1,15.8-9.8,22.8-15.9C193.6,140.1,186.6,146.2,177.2,149.1z"/>
<path class="st11" d="M169,155.8c5.8-2.6,11.7-5,16.7-9c-0.8,2.5-2.6,4.5-4.9,5.7C177.1,154.4,173,155.1,169,155.8z"/>
<path class="st11" d="M200.6,167.1c-1,1.1-2.3,1.8-3.7,2.3c-3.3,1.4-6.7,2.5-10.3,3.1c-0.7,0.1-1.3,0.1-2,0.1c-0.4,0-0.9,0-1-0.4
	s0.5-0.6,0.8-0.7c1.2-0.4,2.4-0.7,3.6-0.9c4.1-0.8,8.1-2.2,12.2-3.3L200.6,167.1z"/>
<path class="st11" d="M191.2,126.2c3.1-6.4,7.6-11.9,10.8-18.1C200.1,115,196.3,121.2,191.2,126.2z"/>
<path class="st11" d="M178.9,138.7c-2.5,4.9-6.4,8.9-11.1,11.8C171,146.1,174.7,142.1,178.9,138.7z"/>
<path class="st13" d="M174.7,126.9c0,6.2-3,10.9-7.4,14.9C169.9,136.9,172.8,132.1,174.7,126.9z"/>
<path class="st0" d="M163,163.9c4.6-2.5,9.6-4.1,14.5-6C173.4,161.6,168.4,163.2,163,163.9z"/>
<path class="st0" d="M167.8,52.2c-1.5-10.6-5.9-20.6-12.7-28.9C139.9,4.4,120-2.7,96.3,0.9C82.8,3,71.7,10.2,62.5,20.1
	C51.9,31.4,47.2,45.3,46.4,60.5c-0.3,7.6,0.8,15.1,3.2,22.3C53.3,93.8,60,103.6,69,111c8.1,7,18.1,11.6,28.8,13.2
	c6.2,0.9,12.4,0.9,18.6,0.1c6.5-0.9,12.9-2.8,18.8-5.8c7.2-3.7,13.5-8.9,18.6-15.2c9.6-11.2,14.8-25.4,14.8-40.1
	C168.6,59.5,168.3,55.8,167.8,52.2z M159.3,42.8c0.6,0.5,0.7,1.3,0.3,2c-0.1,0.2-0.3,0.5-0.6,0.4s-0.3-0.4-0.3-0.6
	C158.6,43.9,158.8,43.3,159.3,42.8z M150.6,42.5c0.1-0.3,0.4-0.3,0.6-0.2c1.2,0.4,2.1,1.3,2.5,2.5c-1.1-0.8-1.6-1.9-2.8-1.9
	c-0.1,0-0.3-0.1-0.3-0.2C150.5,42.7,150.5,42.6,150.6,42.5z M161.1,54.9c-1-0.3-2.1-0.6-3.1-0.9c-0.8-0.2-1.5-0.2-1.9,0.6
	c-0.3,0.7-0.9,0.7-1.5,0.3c-1-0.8-2.2-1.3-3.5-1.5c-0.5,0-0.7-0.5-0.7-1s0-1,0.1-1.4c0.2-1.1-0.6-2.1-1.7-2.3c-0.2,0-0.5,0-0.7,0
	c-0.5,0-1,0.1-1.5,0.3c-1.6,0.5-1.9,1.2-0.9,2.6c2.1,3,2.4,6.4,2.1,9.8c0,0.3,0,0.6-0.5,0.5c-0.9-0.3-0.8,0.3-0.8,0.8
	c0.1,1.2,0.4,2.4,1,3.4c0.5,0.8,0.8,1.7,1,2.6c0.1,0.6,0.1,1.2-0.7,1.2c-0.6,0-1.4,0.3-1.5-0.8c0,0.6-0.3,1.2-0.9,1.5l0,0
	c0.2,1.1,0.3,2.3,0.5,3.4c0.3,1.8,0.1,3.7-0.5,5.4c-0.5,1.5-0.3,1.8,1,2.4s1.5,1,0.7,2.3c-0.6,0.8-0.8,1.8-0.6,2.7
	c0.8,2.9-0.1,6-2.2,8.2c-1,1.1-1.7,2.5-2,3.9c-1,3.6-2.5,7-4.4,10.2c-0.6,1-1.5,1.8-2.6,2.2c-8,4.3-16.5,7.2-25.7,7.5
	c-3.6,0.1-7.3-0.1-10.8-0.6c-1.7-0.2-3.1-1.4-3.8-3c-0.2-0.4-0.2-1,0.1-1.4c0.3-0.4,0.8-0.3,1.2-0.2c1.2,0.2,1.4,0,1-1.2
	c-0.6-1.1-0.2-2.5,0.9-3.2c0.7-0.5,0.6-1-0.1-1.5c-1.4-0.9-2.8-1.8-4.3-2.6c-2.1-1.1-4-2.6-5.8-4.2c-0.5-0.5-1.2-1.2-1.9-0.9
	s-0.3,1.3-0.3,2c-0.1,5.7,2.3,10.3,7,14c-2.6-0.4-5.2-1.1-7.6-2.1c-5.6-2.4-10.8-5.8-15.1-10.1c-9.2-8.6-15.3-20-17.2-32.5
	c-0.6-3.2-0.7-6.5-0.3-9.7c1,0.6,1.6,1.7,1.6,2.8c0,0.9,0.2,1.8,0.5,2.7c0.5,1,1.3,1.8,2.4,2.1c3.8,1.1,7,3.4,9.2,6.6
	c0.5,0.7,1.1,1.3,1.7,1.9c0.7,0.8,1.8,1.1,2.8,0.8c-1.2-1.3-2-2.9-2.3-4.7c-0.1-0.7-0.1-1.4-0.1-2.1c0.1-0.9-0.6-1.7-1.5-1.8h-0.1
	c-1.7-0.2-1.8-0.4-1.4-2.1c0.2-0.7,0.3-1.4,0.4-2.1c0.1-1-0.4-1.4-1.3-0.9c-1.1,0.5-2.1,1.2-3.1,1.8c-1.4,1-1.9,0.8-2.4-0.6
	c-0.8-2.1-0.9-4.3-0.2-6.4c0.5-1.6,1.3-2.2,3-2.1c1.8,0.2,3.7-0.3,5.1-1.5c0.7-0.4,1.1-1.2,1.2-2c0-0.3,0.1-0.6,0.3-0.8
	c1.4-1.4,1.6-3.1,1.6-5c-0.2-1.3,0.2-2.6,1-3.7c0.5-0.5,0.4-1-0.3-1.3c-1-0.3-0.8-0.9-0.5-1.6c1.1-2.2,2-4.5,3.3-6.7
	c0.8-1.3,1-2.8,0.6-4.2c-0.3-0.8-0.8-1.5-1.6-2c-1.8-1.2-1.9-2.4-0.5-4.2c1.2-1.8,3.4-2.7,5.5-2.4c0.4,0,0.7,0,1.1,0
	c0.9,0,1.3-0.4,0.8-1.2c-0.4-0.6-0.2-1.4,0.4-1.8c0,0,0,0,0.1,0c0.8-0.7,1.6-1.5,2.4-2.3c0.3-0.2,0.6-0.5,0.4-0.9s-0.6-0.2-1-0.2
	c-0.2,0-0.3,0.1-0.5,0.1c-0.5,0.1-1,0.5-1.4,0c-0.4-0.5-0.5-1.3-0.2-1.9c0.4-0.7,1-1.2,1.7-1.5C87,9.3,93.2,7.2,99.7,6.3
	c8.7-1.3,17.6-0.5,25.9,2.4c3.7,1.3,7.2,3,10.6,5c0.8,0.4,1.4,1.2,1.5,2.2c0.5,2.4,0.4,4.8-0.2,7.1c-0.3,0.9-0.3,1.8,0,2.7
	c0.6,1.4,2,2.3,3.5,2.1c1-0.1,1.2,0.3,1.2,1.1c0.1,2,0.2,2.1,2.2,1.7c2.5-0.5,3.2-2.1,1.8-4.3c-0.7-1-1.4-2-2.1-3.1
	c-0.5-0.7-0.5-1.6-0.1-2.4c1,3,3.2,5.2,4.6,8c0.9,1.8,0.6,2.1-1.3,2.3c-2.2,0.3-4.4,0.4-6.1,2.1c-0.7,0.6-0.9,1.6-0.5,2.5
	c1,2.2,2,4.5,3,6.8c0.4,0.9,1,1,1.8,0.5c1.2-0.6,1.9-0.5,2.5,0.6c0.5,1,1.3,1.7,2.3,2.1c1,0.5,1.4,1.1,0.8,2.2
	c-0.5,0.8,0,1.4,0.7,1.8s1.2-0.1,1.5-0.8l0.8-1.8c0.3-0.6,0.5-0.6,0.9,0c0.5,0.9,0.9,1.8,1.4,2.7c0.2,0.3,0.4,0.8,0.8,0.7
	s0.6-0.5,0.7-0.9c0.3-1,0.3-2-0.1-2.9c-0.1-0.2-0.5-0.5,0-0.7c0.3-0.1,0.7,0,0.8,0.3v0.1c0.1,0.6,0.2,1.2,0.3,1.8
	c0.1,1.1,0.8,2.1,1.8,2.6c1.1,0.6,1.8,1.7,1.7,3C162.3,54.8,161.9,55.1,161.1,54.9L161.1,54.9z"/>
<path class="st14" d="M117.3,210.8c0-1.1-0.1-2.2-0.3-3.3c-0.4-2.3-2.2-4.1-4.6-4.4c-2.2-0.1-3.8,1-4.8,3.6c-1.1,2.8-1,5.9,0.4,8.6
	c1,2.3,3.6,3.4,5.9,2.4c0.9-0.4,1.6-1,2.1-1.8C117,214.4,117.5,212.6,117.3,210.8z M114.8,214c-0.3,1.1-1.3,1.9-2.5,2
	c-1.2,0-2.3-0.8-2.7-2c-0.4-1.2-0.6-2.5-0.5-3.8c0-1.1,0.2-2.3,0.6-3.3c0.5-1.4,2.1-2.1,3.5-1.5c0.7,0.3,1.3,0.9,1.5,1.6
	C115.5,209.2,115.6,211.7,114.8,214L114.8,214z"/>
<path class="st0" d="M77,86.5c0.5,1.1,1,2.2,1.2,3.3c0.9,2.7,2.4,5.1,4.3,7.2c0.2,0.2,0.4,0.4,0.3,0.7c-0.4,0.1-0.9,0.1-1.3-0.1
	c-2.2-0.6-4.1-2-5.5-3.8c-1.3-1.8-2.5-3.6-3.4-5.6c-0.7-1.2-0.7-2.8,0.2-3.9c0.3,1,0,1.8,0.4,2.9c1.1-2,1.5-4,2.3-5.8
	c0,1.3,0,2.5-0.1,3.8C75.4,86.7,75.6,86.9,77,86.5z"/>
<path class="st14" d="M145.8,67.9c-1.7-2.8-2.5-6.1-2.4-9.4c0-2.2-0.3-4.5-0.8-6.6c-0.3-1.4-0.9-2.7-1.8-3.7
	c1.1-0.3,1.3-0.7,1.1-1.8c-0.2-1-0.5-1.9-0.9-2.9c-1.3-3.8-3.4-7-7-9c-0.2-0.1-0.3-0.3-0.4-0.5c0.7-0.3,1-1.2,0.7-1.9
	c-0.1-0.1-0.1-0.2-0.2-0.4c-2.4-3.2-5.1-6.2-9-7.7c-0.6-0.2-1-0.5-1.3-1c-1.3-2.2-3.3-2.9-5.6-3c-0.6,0.1-1.1-0.2-1.5-0.6
	c-0.7-1-1.9-1.5-3-1.2c-3.1,0.4-6.1,1.1-9.1,2c-2.8,1-5.8,1-8.5-0.1c-0.6-0.3-1.3-0.4-2-0.2c-2.9,1-5.7,2.2-8.4,3.8
	c-0.5,0.2-0.8,0.8-0.7,1.4c0.1,0.6,0.7,1.1,1.3,1.1c0.6,0,1.1,0.2,1.6,0.4c-0.2,0.3-0.5,0.6-0.8,0.7c-1.2,0.7-2.3,1.4-3.5,2.1
	c-3.2,1.9-5.8,4.6-7.6,7.8c-1.1,2.1-2.1,4.3-3.1,6.5c-0.4,0.7-0.4,1.6,0.2,2.3c0.3,0.4,0.4,0.9,0.2,1.3c-0.5,1.3-0.8,2.6-0.9,4
	c-0.2,2-0.6,3.8-2.3,5.2c-0.8,0.6-0.6,1.6,0.2,2.3c0.6,0.5,1.3,0.9,2,1.3c1.9,1.2,2.1,1.8,1.5,4c-0.9,2.6-1.6,5.3-2.1,8.1
	c-0.3,2-0.5,4.2,1.5,5.6c1.2,1,2,2.4,2.2,3.9c0,1.2,0,2.5-0.1,3.7s0.4,1.7,1.7,1.4c1.1-0.8,1.1-2.2,1.8-3.4c0.3,1.2,0.6,2.4,0.9,3.5
	c0.9,3.6,2.9,6.9,5.7,9.4c3.9,3.4,8.2,6.3,12.7,8.7c3.3,1.8,6.5,3.8,8.4,7.3c0.5,1,1.6,1,2.6,0.3c0.5-0.4,0.8-1,1.5-1.1
	c1-0.2,1.9-0.7,2.5-1.5l3.1-3.1c2.1-2.1,4-4.4,5.4-7c0.9-1.5,1.6-3.2,2-4.9c-0.2,0.6,0.1,1.3,0.6,1.6c0.7,0.4,1.3,0,1.9-0.4
	c0.3-0.2,0.6-0.4,0.9-0.6c5.1-3.9,8.7-9.5,10.2-15.8c0.1,0.4,0.1,0.7,0.2,1.1c0,0.4,0,0.9,0,1.3c0.1,0.7,0.2,1.5,1,1.8
	s1.4-0.2,1.9-0.8c0.1-0.1,0.3-0.3,0.4-0.5c2.9-3.1,3.4-6.8,2.5-10.8c-0.2-0.8,0-1,0.8-0.9c0.5,0.2,1,0.1,1.4-0.2
	c0.5-0.3,0.9-0.9,0.9-1.5C146.4,68.7,146.1,68.3,145.8,67.9z M133.2,48l-3.4-2.2C131,45.3,132.5,46.2,133.2,48L133.2,48z M125.7,36
	c0.8,0,1.7,0.1,2.2,1c0.4,0.9,0.2,1.9-0.4,2.5c-0.5,0.8-1.1,1.5-1.9,1.9c-0.2-1,0.5-1.7,0.5-2.6c0-1.9-0.7-2.4-2.4-1.6
	c-1,0.5-2,1.1-3.1,1.6s-1.5,0.4-2-0.8c-0.8-2.1-0.8-2.1,1.5-2.1C121.9,36.1,123.8,36,125.7,36L125.7,36z M122,30.9
	c-1.3,0.5-2.8,0.3-4.2,0.6C118.9,30.4,120.1,30.3,122,30.9L122,30.9z M104.8,30.5c0.7-1.1,1.3-2.3,2-3.4c0.1-0.2,0.3-0.5,0.5-0.5
	c1.4-0.4,2.9-0.5,4.3-0.3c-1,0.4-2,0.8-3,1.1c-0.4,0.2-0.9,0.3-0.8,0.9s0.6,0.6,1.1,0.7c1.3,0.3,2.6,0,4.3,0.4
	c-1.5,0.3-2.8,0.5-4,0.8s-2.4,0.7-3.7,1.1c-0.3,0.1-0.5,0.2-0.8-0.1S104.7,30.8,104.8,30.5z M100.9,30.5l-2.7-2.6
	C100.3,27.1,101.3,28,100.9,30.5L100.9,30.5z M93.9,30.1c-1.2,0.3-2.4-0.1-3.6-0.1C91.2,28.9,92.7,28.9,93.9,30.1L93.9,30.1z
	 M81.6,43.7c0.2-0.4,0.4-0.7,0.9-0.5c0.8,0.2,1.6,0.3,1.9,1.2c0.2,0.6-0.3,0.8-0.7,1.1c-1.1,0.7-2.2,1.3-3.5,2.1
	C80.8,46,81.2,44.8,81.6,43.7L81.6,43.7z M79.1,58.8c-1.8-3.7-0.3-7.4,3.9-9.2l-2.7,5.3c1.2,0.2,1.7-0.9,2.7-1.1
	C81.7,55.4,80.3,57,79.1,58.8L79.1,58.8z M83.8,68.4c-0.8,3.1,0.1,6,0.2,8.9c0,0.5,0,1,0,1.5c0,0.3,0.2,0.5,0.4,0.5c0,0,0,0,0.1,0
	c0.3,0,0.4-0.1,0.5-0.4c0.1-0.7,0.5-1.3,1-1.9c-0.5,3.5,0.4,6.5,1.4,9.6C82.4,82.5,79.6,73.1,83.8,68.4L83.8,68.4z M85.6,61.3
	c0.7,0.3,0.9,1.2,0.6,1.8c-0.1,0.1-0.2,0.3-0.3,0.4C85.5,62.7,85.7,62.1,85.6,61.3L85.6,61.3z M86.2,37c-0.1,1,0,1.9-0.1,2.9
	c0,0.3,0.1,0.6-0.2,0.8s-0.5-0.1-0.7-0.3c-1.5-1.7-1.9-4.1-1.1-6.1c0.3-0.8,1.1-1.3,2-1.3h1.5c1.1-0.3,2.3,0,3.2,0.6
	c0.4,0.4,0.8,0.7,0.2,1.3c-0.1,0.1-0.2,0.2-0.2,0.3C90,36.8,90,36.8,88.4,36C87.2,35.3,86.3,35.7,86.2,37L86.2,37z M93.5,86.8
	c1.8,3.5,3.5,7,5.2,10.5C95.4,94.8,93.4,90.9,93.5,86.8L93.5,86.8z M98.8,89c-1.1-2.1-2-4.4-2.7-6.7c0.4,0,0.7,0.2,0.9,0.5
	c0.7,1.6,1.4,3.1,2.3,4.6C99.6,87.8,99.3,88.4,98.8,89L98.8,89z M102.9,88.1c-0.7-1.3-1.5-2.5-2.6-3.4c-0.4-0.5-0.4-1.1-0.2-1.6
	c0.2-0.5,0.4-1,0.6-1.4s-0.1-1,0.5-1c0.4,0,0.3,0.6,0.4,1c0.5,2.1,1,4.2,1.5,6.2L102.9,88.1z M104.5,72c-0.2,0.6-0.6,0.6-1.1,0.5
	c-2-0.4-4.1-0.7-6.2-0.8c-0.8,0-1.1-0.7-1.4-1.3c-0.5-1.4-1.5-2.7-2.8-3.5c1.9-0.4,3.7-1.2,5.4-2.2c0.6-0.4,1.4-0.4,2.1,0
	c2.1,1.2,4.3,2.2,6.5,3C106,68.9,105.1,70.4,104.5,72L104.5,72z M97.2,63.4c1.1-1.8,1.8-2,3.2-1.3c1.4,0.6,2.7,1.4,3.9,2.4
	C102,64,99.9,62.3,97.2,63.4L97.2,63.4z M109.3,64.8c-0.5,0.4-0.8,0.2-1.2-0.1c-2.1-1.4-4.4-2.6-6.8-3.4c-0.7-0.3-1.5-0.5-1.6-1.4
	s0.4-1.7,1.2-2c1.6-1,3.3-2,4.9-2.9c0.3-0.2,0.8-0.3,0.7-0.9s-0.5-0.6-0.9-0.7c-3.6-0.8-7.4-0.9-11-0.4c-0.6,0.1-0.8,0.5-0.5,1
	c0.7,1.2,1.3,2.5,2.9,3c1,0.4,1.3,1.4,0.7,2.8c-0.7,1.5-2,2.7-3.5,3.5c-2.7,1.6-3.2,1.4-3.9-1.7c-0.6-2.4-0.4-4.9,0.6-7.1
	c-1.9,0-2-0.1-2.3-1.8c0-0.3-0.1-0.7-0.3-1c-1-1.6-0.8-3.7,0.4-5.1c2.7-3.8,5.2-7.8,7.3-12c0.2-0.7,0.9-1,1.6-0.8
	c0.1,0,0.3,0.1,0.4,0.2c0.8,0.5,1.6,0.8,2.5,1.2c1.4,0.7,3,0.7,4.4,0c1.6-0.5,3.1-1.2,4.6-2c0.5-0.3,0.8-0.1,1.2,0.2
	c1.6,1.1,2.8,2.7,3.5,4.5c1.4,3.2,2.6,6.4,4.2,9.5c1.4,2.9,0.5,6.4-2,8.3c-0.5,0.4-1.2,0.4-1.6,0c-0.7-0.4-1.5-1.2-2.2-0.8
	s-0.1,1.4,0.1,2.1C113.2,60.3,111.6,62.7,109.3,64.8L109.3,64.8z M120.8,85.1c-0.4,1.1-0.5,2.2-1,3.3c-0.2,0.8-0.7,1.6-1.3,2.2
	c0.1-1.3,0.5-2.7,1-3.9c1.1-2,0.5-4.5-1.3-5.9c-1.4-1.1-2.9-2.1-4.5-2.9c-0.4-0.2-0.8-0.4-1.3-0.7c-1.5-0.9-1.6-1.4-0.8-2.8l0.2-0.4
	l1.3-2.1c0.5,0.5,0.4,1.1,0.5,1.5c0.8,2.1,2.4,3.8,4.5,4.8C122,80.3,122.3,81.1,120.8,85.1L120.8,85.1z M123.8,73
	c0.2,1.6,0.2,3.2,0.4,5c-3.1-3.1-3.7-7.8-1.6-11.6c0.7-1.3,1.5-2.5,2.2-3.8c0.5-1,0.8-2.1,0.9-3.2c0.6,0.5,0.9,1.4,0.6,2.1
	c-0.2,1.2-0.6,2.3-1.2,3.4C123.6,67.4,123.6,70.1,123.8,73L123.8,73z M127.4,84.5c-2.2-2.4-1.8-6.5,0.9-10
	C128.9,77.9,128.6,81.3,127.4,84.5z M140,64.5c-0.6,0.5-1.1,0.1-1.4-0.3c-1.6-1.7-3.2-3.5-5-5.4c1.9,0,1.9,0,1.5-1.6
	c-0.2-0.6-0.4-1.1-0.5-1.7c-0.7-2.8-3.3-4.7-6.1-4.7c-0.8-0.1-1.5-0.1-2.3-0.2c-1.2-0.1-2.3-1-2.6-2.1c-0.1-0.2-0.3-0.4-0.1-0.6
	s0.4-0.1,0.7,0c1.5,0.6,3,1.2,4.4,1.8c1.7,0.8,3.5,1.4,5.3,1.9c0.7,0.2,1.2,0.5,1.2,1.3c0.2,2.5,1.1,4.9,2.5,6.9
	c0.8,1.2,1.6,2.3,2.3,3.5C140.2,63.5,140.6,64,140,64.5L140,64.5z"/>
<path class="st6" d="M81.2,23.1c0.5,0.1,1.2,0.1,2,0.3c0.6,0,1.1,0.6,1,1.2c0,0.4-0.3,0.7-0.6,0.9c-1.1,0.6-2.1,1.3-3.2,2
	c-0.8,0.5-1.4,0.3-1.6-0.7c-0.2-0.9-0.2-1.7,0-2.6C79.2,23.1,80.1,23,81.2,23.1z"/>
<path class="st11" d="M134.9,27c0.6,0.1,1.2,0.5,1.4,1.1c0.4,0.8,0.7,1.6,1,2.4c0.2,0.8,0.9,1.5,1.7,1.7c0.7,0.2,0.8,0.7,0.5,1.3
	s-0.8,0.6-1.3,0.3c-1.3-0.7-2.6-1.6-3.6-2.7c-0.7-0.8-0.7-1.1,0.4-1.3s1.1-0.5,0.5-1.3C135.1,28.2,134.9,27.6,134.9,27z"/>
<path class="st15" d="M143.2,45.2c0,0.4-0.2,0.6-0.6,0.5c-0.4,0-0.7-0.4-0.8-0.8c-0.1-0.4,0.3-0.5,0.6-0.5
	C142.8,44.5,143.2,44.8,143.2,45.2L143.2,45.2z"/>
<path class="st16" d="M104,43.4c0.9,1.2,1.7,1,2.6,0.4c1.4-0.7,3.1-0.6,4.5,0.2c0.7,0.3,0.6,0.8,0.2,1.4c-0.9,1.3-2.5,2-4.1,1.6
	c-1.1-0.3-1.5,0-1.4,1.1c0,0.4,0.1,0.9-0.3,1s-0.6-0.4-0.8-0.7C103.9,47.2,103.7,45.8,104,43.4z"/>
<path class="st16" d="M98,43.6c0.3,2.1-0.4,4.2-2,5.5c-0.1-1.4-0.9-2.7-2.2-3.3c-0.6-0.4-1.3-0.8-1-1.7s1.1-0.8,1.8-0.8
	c0.5,0,1,0.1,1.5,0.4c0.4,0.5,1.2,0.6,1.6,0.1C97.9,43.8,98,43.7,98,43.6z"/>
</svg>
