<svg id="Layer_1" data-name="Layer 1" xmlns="http://www.w3.org/2000/svg" viewBox="0 0 3754 2053.77"><defs><style>.cls-1{fill:#4c4d4f;}.cls-2{fill:#4e4f51;}.cls-3{fill:#f2652a;}.cls-4{fill:#f2662b;}.cls-5{fill:#f2652b;}.cls-6{fill:#4d4d4f;}.cls-7{fill:#f2662c;}.cls-8{fill:#f2672c;}.cls-9{fill:#fff;}</style></defs><title>Student Council Logo</title><path class="cls-1" d="M-1194,313c5.65-8.91,4.65-19.27,5.88-29,8.91-70.43,20.15-140.33,41.31-208.36,32.38-104.13,81.89-199.34,147.47-286.33C-941.1-288-875.17-357.82-799.22-417.9c114.35-90.45,241.42-155.67,383-191.73A1045.31,1045.31,0,0,1-270.8-635.41a1204.52,1204.52,0,0,1,141.58-7.26A1086.58,1086.58,0,0,1,61.41-624.45c83.13,15.63,163.44,40.37,240.33,75.81C383.91-510.77,459.21-462,528.91-404.47c10.27,8.49,20.33,17.23,30.42,25.93a76,76,0,0,1,7.9,7.64c3.84,4.44,3.49,7.24-1.25,10.8a38.17,38.17,0,0,1-7,3.87c-48.69,22.44-97,45.66-144.7,70.15-13.33,6.84-23.16,5.3-34.66-3.25a768.47,768.47,0,0,0-105.13-65.32c-48.1-24.93-98.52-43.52-151-56.86-54.3-13.8-109.11-24.67-164.74-31-50-5.68-100.2-7.95-150.58-5.73-114.57,5.05-223.88,31.33-327.35,80.94-96.71,46.36-183.76,106.49-258.25,184C-856.41-101.08-914-5.7-952,101.67a914.29,914.29,0,0,0-43.54,176.16A778.16,778.16,0,0,0-1003,410.36c2.69,93.17,22.38,182.79,57.43,269.09,29.57,72.82,66.12,141.78,112.8,205.22,88.19,119.83,201.81,206.64,339.53,262.26,69.47,28,141.48,46.68,215.4,58.57,60.74,9.78,121.84,13.9,183.18,11,128.16-6,251-34.36,366.56-91.27,37.44-18.43,72.72-40.49,106.7-64.68,1.63-1.16,3.28-2.29,4.85-3.52,8.5-6.65,17.05-7.22,26.92-2.23,26.74,13.53,53.75,26.53,80.75,39.52,21.9,10.54,43.95,20.76,65.93,31.13.91.43,1.81.85,2.71,1.29,12.7,6.13,13.25,9.51,2.47,19-134.75,118.82-288.37,201-464.53,239.58q-49.78,10.91-100.36,17c-11.88,1.45-23.9,1.74-35.87,2.37-7.35.38-14.79,1-21.68,3.21-8.8,2.85-17.6,3.08-26.6,3.07q-60.49-.09-121,0a43.58,43.58,0,0,1-15.6-2.42c-9.49-3.51-19.76-2.18-29.66-3.11-132.46-12.5-258.21-47.75-376.42-109.38-103.78-54.1-195.64-124-276.92-207.91-68.74-71-128-149-174.16-236.65a931.59,931.59,0,0,1-93.78-273.83c-6.5-36.73-11-73.73-15.77-110.69-.55-4.27-.84-8.6-3.86-12.06Z" transform="translate(1194 642.72)"/><path class="cls-2" d="M2560,1167c-17,0-34-.17-50.95.08-5.22.08-6.84-1.69-6.81-6.87q.28-47,0-93.91c0-4.91,1.1-7.71,6.6-7a23.12,23.12,0,0,0,5,0c4.24-.37,6,1.34,5.88,5.72-.2,11.32-.07,22.64-.07,34,0,13.66-.07,27.31,0,41,.05,6.86.2,7,7.33,7,11,.09,22,0,33,0Z" transform="translate(1194 642.72)"/><path class="cls-1" d="M323.54-231.76q-39.59,19.23-79,38.41c-15.57,7.58-31.34,14.78-46.59,23-10.33,5.54-19.64,5.56-30.3.7A774.52,774.52,0,0,0,10.65-222C-47.93-234.7-107.18-239.84-167-236.4c-78.28,4.49-153,23.89-225,54.66-66,28.24-127.15,64.26-181.06,112C-642.56-8.22-693,66.35-725.75,153c-19.49,51.65-31.73,105-38.66,159.78-5.8,45.78-7.4,91.61-3.21,137.56,6.75,74.18,27,144.49,62.42,210.14C-672.56,721-632.88,776.26-584,824.81c64.2,63.78,139.17,110.17,224.56,139.82,52.12,18.11,105.78,29.12,160.64,34.83,126.8,13.17,248.25-6.19,364.26-59.08,10.55-4.81,19.95-4.83,30.5.16,39.73,18.78,79.74,37,119.63,55.41,2.94,1.36,5.8,2.88,9.29,4.62-2.19,3.86-5.41,5.71-8.15,7.89-22.75,18.14-47.43,33.26-73.17,46.72-64.07,33.48-131.07,59.06-201.75,74.64a751.75,751.75,0,0,1-141.5,17.61c-126.21,3.47-247.08-20.79-362.73-70.65-128.78-55.53-232.1-142.45-311.13-258.09-51.64-75.56-91.85-156.83-117.13-245a616.29,616.29,0,0,1-23.62-176.62q2.13-226,118.57-419.71c65.2-108,155.43-190.4,265.67-251.11A900,900,0,0,1-259.41-370.4,736.16,736.16,0,0,1-152.25-382c124.68-4.76,242.7,21.82,355,75.34,38.22,18.22,75.41,38.34,109.83,63.21C316.78-240.36,321.56-237.63,323.54-231.76Z" transform="translate(1194 642.72)"/><path class="cls-3" d="M-524.77,724.67a427.37,427.37,0,0,1,5.58-72.22c4.68-28.27,3.6-56.35.23-84.58-1.78-14.85-4.64-29.63-3.63-44.73,1.77-26.56,15-45.59,38-58.28a97.61,97.61,0,0,1,32-10.81,174.78,174.78,0,0,1,59.58.36c25.78,4.71,42.73,20.26,53.1,43.77,5.86,13.29,7.8,27.48,9.86,41.65a165.58,165.58,0,0,0,9.65,36.6c10.73,27.48,29.28,47.84,56.77,58.5,43.08,16.7,87.45,19.28,132.38,8.16,16.1-4,30.18-12.26,42.66-23.13,22.82-19.88,31.46-45.31,29.71-75.05-2-33.7-20.49-54.48-50.83-66.13-42-16.15-85.56-27.32-129.28-37.8-31-7.45-62.56-13.08-92.71-24.07-45.92-16.74-86.18-41.93-118.4-79-29.53-34-45.64-73.83-50.24-118.54-4.38-42.68-.68-84.55,13.07-125.2C-468.61,39.1-432.62-2-383.56-32.23c38.41-23.65,80.36-36.59,125.06-41.22,49.4-5.12,97.75-1,144.63,16.16,35.33,13,66.22,32.59,91.25,61,3.09,3.5,6.5,8.23,11.26,7.17S-7.6,3.65-6.43-.27C-5-5-4.78-10.1-4.08-15-.14-42.89,16.11-58.28,44-61.27a164.2,164.2,0,0,1,48.69,1.74c39,7.46,49.14,31.46,51.05,59.48,1.39,20.32-.09,40.69-2.77,60.82-4.15,31.16-5.71,62.13-1.68,93.51,2.57,20.1,3,40.53-1.23,60.7-5.56,26.36-21.68,42.37-47.91,47.35a172.39,172.39,0,0,1-70.44-1.28c-18-4.05-31-14.6-39.45-31-6.94-13.47-10.59-28-14.13-42.54A144.79,144.79,0,0,0-45,156.55c-12.71-25.38-32.33-43.33-59.45-51.61-42.69-13-85.87-14.16-128.89-1.21-18.34,5.53-34,15.08-43.79,32.52-5.85,10.49-7.64,22-8.44,33.61-.69,10,.6,20,2.65,29.76,2.78,13.25,10.69,22.7,22.41,29.12,17.38,9.51,36.22,15.09,55.2,20.21,30.55,8.26,61.88,13,92.68,20.06,50.09,11.55,99.13,26.36,145.18,49.59,36.12,18.23,68,42,92.46,74.7,22.88,30.67,35,65.5,39.14,103.35,4.54,41.17,2.67,81.92-9.31,121.69C127.22,710,66.28,770.66-22.06,804.58c-49,18.82-100.12,24-152.29,19.18-64.75-6-122.23-30.62-174.73-68a64.05,64.05,0,0,0-9.22-6c-4.69-2.25-7.53-1.23-9.7,3.58-1.76,3.91-2.74,8.18-4,12.31-5,16.36-12.92,30.62-28.1,39.85a64.81,64.81,0,0,1-28.31,9.07c-15.32,1.34-30.61.55-45.6-3.4-29-7.65-47.29-29.34-50.08-59.12C-525.09,741.4-524.69,730.74-524.77,724.67Z" transform="translate(1194 642.72)"/><path class="cls-3" d="M1264.82,86.6q0,69.48,0,139c0,10.66.41,21.31,1,31.95.71,13.89,6.46,19.07,20.35,18.61,5-.17,9.95-1,14.93-1,14.74-.07,24.62,8.33,26.74,22.94a87.4,87.4,0,0,1,.37,23.91c-2.33,17.61-13.69,29.07-31.41,30.88a68.1,68.1,0,0,1-17.93-.1c-26.88-4.51-53.81-1.9-80.71-1.07-19.11.59-21.91-1.35-23.66-20.49-.4-4.29-.22-8.65-.19-13,0-3.82-.12-7.61-4.64-8.83-4-1.08-5.94,1.77-8,4.58-27,37.29-64.42,52.39-109.36,49.52-41.61-2.66-73.86-22.55-97.31-56.76C934,276,923.41,241.76,919.55,205c-4.09-38.85.47-76.46,15.23-112.61,14.24-34.86,36.83-62.66,72-78.07,46.69-20.47,91.49-15.62,133.84,12.5,3.28,2.18,5.89,5.35,8.82,8.05,2.64,2.43,5.63,3.61,9.14,2.15s4.78-4.79,4.63-8.17c-.64-14.6.35-29.25-1.26-43.82-1.59-14.35-6.86-19.33-21.47-19.13a165.4,165.4,0,0,0-21.82,2.18c-21.92,3.23-36.2-7.52-38.91-29.6-1-8-1-15.93,1.8-23.68,5-13.9,15-21.6,29.47-23.55a60.74,60.74,0,0,1,8-.36q59.92-.14,119.87-.24a43.58,43.58,0,0,1,5,.23c12.06,1.37,18.68,7.69,20.06,19.8a170.94,170.94,0,0,1,.88,18.94Q1264.87,8.12,1264.82,86.6Z" transform="translate(1194 642.72)"/><path class="cls-3" d="M1741.18,179.43c0-24.66.12-49.31,0-74-.1-16.19-7.69-22.59-23.47-19.73a80,80,0,0,1-16.89,1.17c-12.6-.38-21-6.56-23.85-18.78-3-12.83-2.87-25.83,2.1-38.33,6-15,17.49-22.18,33.56-21.41,17.3.83,34.52,2.82,51.88,2.67a262.18,262.18,0,0,0,38.79-3c10.65-1.68,16.34,2.15,19.24,12.43a35.16,35.16,0,0,1,.68,14.82c-.34,2.3-.69,4.61-.85,6.93-.3,4.31.9,8,5.14,9.91s7-.69,9.61-3.41c5.24-5.56,9.91-11.6,16-16.44,27.71-22.08,58.71-35.26,94.57-34.87A143.23,143.23,0,0,1,2004.79,10c21.4,9.55,36.24,25.57,45,47.23,8.27,20.41,10.65,41.87,10.92,63.62.18,14-1.16,28-.25,42,2,30.91.3,61.85,1.72,92.74a37.11,37.11,0,0,0,.82,5.93c2.45,11.63,7.09,15.2,18.81,14.31,5.31-.4,10.6-1.32,15.91-1.52,15.63-.6,25.06,7,28.34,22.33a66.65,66.65,0,0,1-.06,28.74c-3.85,17.39-16.48,28.39-34.33,29.61-14.71,1-29.21-1.83-43.81-2.77-27.7-1.8-55.24-.71-82.79,2a131.9,131.9,0,0,1-18.95.66c-16.63-.81-28.72-11.14-32.69-27.33-3-12.13-1.16-23.84,3.54-35.13,3.32-8,9.35-12.76,18.19-13.69a71.68,71.68,0,0,0,8.84-1.54c8.57-2,13.75-7.52,16.21-15.91,2.32-7.86,1.67-15.9,1.37-23.84-1.31-34.61-1.65-69.24-3.46-103.84-1.73-33-27.24-52.95-59.45-45.63-28.75,6.54-51.27,32.17-52.9,61.59-1.91,34.6-1.49,69.25-.19,103.89.48,13,7.26,20.71,19.43,24.78,19,6.33,25.12,15.59,25,35.76a55.39,55.39,0,0,1-5.45,24.14c-5.32,10.94-14.33,16.27-26.3,16.84s-24-1.11-35.84-2.53c-29-3.49-57.82-2.19-86.62,1.55a138.92,138.92,0,0,1-27.93.81c-12.87-.95-22.74-7.15-28-19.4-6.17-14.28-7.95-28.8-1.93-43.65s16.93-20.67,32.61-17.1c3.89.88,7.73,2.16,11.66,2.61,10.53,1.23,16.86-3.3,18-13.9,1.15-10.9,1.35-21.93,1.5-32.91.23-17,.06-34,.06-51Z" transform="translate(1194 642.72)"/><path class="cls-3" d="M852.29,138.32c0,32.66-.09,65.32.06,98a184.31,184.31,0,0,0,1.47,21.9c1.33,10.51,5.49,14.69,15.85,16.17a91.62,91.62,0,0,0,14,.57c23.67-.3,30.75,6,33.17,29.81,1,9.38.42,18.67-2.95,27.53-5.4,14.15-16,21.57-31,23-9.77.94-19.21-1-28.71-2.64A145.89,145.89,0,0,0,798.61,354a78.4,78.4,0,0,1-14.89,1.27c-7.79.17-12.53-3.9-15-10.81A43,43,0,0,1,766,328.81a72.34,72.34,0,0,0-.12-10c-.72-6.1-5.91-8.11-10.83-4.3a26.06,26.06,0,0,0-3.36,3.66c-23.27,26.52-52.69,41.05-87.56,44.95a163.07,163.07,0,0,1-49.65-1.69c-43-8.41-68.19-35.21-74.4-78.84a218.76,218.76,0,0,1-2.2-26.84c-.79-46-.56-91.94,0-137.9.27-24.46-6.08-31.6-30.56-32.61a58.92,58.92,0,0,1-10.86-1.45c-8.84-2.06-14.13-7.74-15.66-16.23C478.64,55.72,478.26,43.71,482,32c4.2-13.22,12.85-21.38,26.9-23.56,10-1.54,19.87-2.16,29.77-.07A160.33,160.33,0,0,0,606,8.06a57.47,57.47,0,0,1,14.9-1c9.41.47,14.72,5,17.05,14,1.78,6.84,1.83,13.83,1.82,20.83q-.06,85-.1,170c0,9,.27,18,2.46,26.79,6.24,25,21.9,37.33,47.64,36.28,20.29-.82,36.78-9.52,47.11-27.34,8.08-13.94,13-29,12.9-45.57-.25-30,0-60,0-90,0-1.33,0-2.67-.07-4-1.19-16.5-8.51-23.17-25.21-22.67-6.32.18-12.62.72-19,.12-8.64-.82-14.37-5-16.17-13.71-3-14.55-3.46-29.15,1.54-43.34,3.93-11.17,11.8-17.92,23.86-20.21,10.82-2.06,21.24,0,31.73,1.41,18.28,2.45,36.56,1.87,54.84.71,9.3-.59,18.54-2,27.81-2.87a36.08,36.08,0,0,1,8,.07c9,1.13,13.12,5,14.47,13.88a95.39,95.39,0,0,1,.69,14Q852.33,86.84,852.29,138.32Z" transform="translate(1194 642.72)"/><path class="cls-3" d="M339.7,147.28c.24,30.63,0,61.25-3.35,91.76a48.41,48.41,0,0,0,1.83,19.76,28.64,28.64,0,0,0,10.71,15.25c14.28,10.25,30,6.1,37.05-10,4.46-10.24,5.36-21.24,5.73-32.24.24-7.33-.14-14.67.13-22,.57-15.45,7.81-23.86,22.91-27.09,21.57-4.61,37.4,3,46.19,23.29,16.83,38.87,10.65,75.62-12.29,110-18.94,28.32-46.26,43.42-80,46.78a193,193,0,0,1-52.73-1.5c-41.71-7.31-68.12-32.32-77.94-74-5.34-22.67-4.71-45.64-3.69-68.59,1.62-36.58,3.88-73.14,3.76-109.78,0-5.33-.09-10.62-1.69-15.82-2.35-7.67-7.1-12.47-15-14.41-4.92-1.21-9.86-1.36-14.84-1.69-18.15-1.18-25.68-8.83-26.83-26.76a89.39,89.39,0,0,1,.47-16.93c1.66-13.38,9.49-21.61,22.62-24.5C209,7.39,215.31,7.44,221.6,6.87c13.83-1.24,19-6.16,20-20,.67-9.28.43-18.64.36-28a80.31,80.31,0,0,1,2-18.81c6.49-28.1,30.18-44.47,58.79-40.44a85,85,0,0,1,20.27,5.2,24.08,24.08,0,0,1,15.07,17.35c1.66,6.54,1.75,13.19,1.8,19.84.11,12,0,24,.05,36,0,3-.05,6,.2,9,1.14,13.85,6.13,19.32,20,19.86,16.63.66,33.3.43,50,.39A108,108,0,0,1,428,8.74c13.74,2.27,22.49,11.47,24.29,25.37a77.3,77.3,0,0,1,0,19.93c-1.45,11-7.3,18.17-18.23,21.25-6.54,1.84-13.17,1.86-19.8,1.92-14.66.15-29.32,0-44,.07a74.5,74.5,0,0,0-9,.35c-14.88,1.86-21.21,8.59-21.51,23.67C339.46,116.62,339.7,132,339.7,147.28Z" transform="translate(1194 642.72)"/><path class="cls-3" d="M2146.33,185.59q0-40.47,0-80.95c0-2.67.1-5.35-.12-8-.84-10.66-5.81-16.33-16.15-18.75-4.6-1.07-9.27-.71-13.92-1-14.13-.87-23.46-8.77-26.89-22.56-6.24-25.07,7.85-44.9,33.41-47,24.06-2,28.27-6.09,30.57-30.32,1.32-13.95.4-28,.51-41.94.12-15.89,7.56-25.67,23.09-29.38a126.77,126.77,0,0,1,52.54-1.08c13.28,2.41,18.79,9.34,18.87,22.87.11,18,0,36,1.44,53.9.19,2.32.2,4.68.59,7,2,12,7.75,17.45,19.89,18.6,4,.38,8,.36,12,.37,12.66,0,25.32,0,38,0a119.6,119.6,0,0,1,12,.62c26.86,2.89,36.4,22.69,30.85,47.66-2.8,12.61-12.06,18.7-24.14,20.8a85.09,85.09,0,0,1-13.94.82c-15.66.1-31.32,0-47,0a56.78,56.78,0,0,0-11.9,1.06c-9.3,2-14.49,7.73-16.05,16.85a74.4,74.4,0,0,0-1.07,11.92q-.53,67-.89,133.91a66.9,66.9,0,0,0,2.11,18.8c3.37,11.87,12.26,18.89,24,18.88,11.39,0,19.85-6.43,23.55-18.06,2.67-8.37,2.91-17,2.58-25.71-.35-9.67-.23-19.29,1.87-28.82,3.55-16.13,11.07-22.83,27.35-23.84,3.32-.21,6.66-.13,10-.06,13.64.29,23.26,6.78,29.45,18.84,5,9.67,7.07,20,8.07,30.7,2,21.42,1.2,42.67-6.07,63.12-11.81,33.25-35.59,54.16-69.07,63.8-30.87,8.89-61.95,7.66-92.53-1.78-34.41-10.62-54.3-34.35-61.28-69.53-3.48-17.52-1.82-35.21-2.6-52.8-.72-16.29-.16-32.63-.16-48.95Z" transform="translate(1194 642.72)"/><path class="cls-1" d="M1097.41,588.3c4.7-4.28,8.32-7.61,12-10.9,29.14-26.24,63.25-38.19,102.47-36.92,22.75.74,44.29,5.19,64.05,16.63,30,17.36,46.6,43.87,52.14,77.69,2.8,17.16,2.15,34.54,2.78,51.83,1.65,45,.56,90,.83,135,0,7.34.25,14.67,2.44,21.76,3.6,11.69,11.35,16.47,23.52,15,7.92-1,15.88-1.89,23.84-2.12,11.42-.32,18.37,5,20.62,14.9,2.64,11.64-1.72,20.79-12.31,25.37-9.92,4.29-20.34,3.26-30.57,2a461.32,461.32,0,0,0-59.78-3.84,334.46,334.46,0,0,0-51.74,3.83,79.18,79.18,0,0,1-17.94.7c-16.86-1.18-26.13-17.27-19.11-32.72a15.61,15.61,0,0,1,13.19-9.44,85.3,85.3,0,0,1,14.93-.6,156.41,156.41,0,0,0,22,.11c11.39-.81,15.8-5.28,17.74-16.51a75.19,75.19,0,0,0,1.28-12.89c0-52.33.09-104.65-.11-157a115.81,115.81,0,0,0-7.4-41c-8.43-22.1-23.91-36.53-46.59-43-21.38-6.09-42.94-6-63.93,1.19-31.61,10.84-49.38,34.21-55.52,66.3-5,25.88-5.61,52.27-6.54,78.57a774.5,774.5,0,0,0,2.36,92.79,175.29,175.29,0,0,0,2.45,19.82c2.17,10.64,7.42,14.62,18.21,14.55a62.46,62.46,0,0,0,13.86-1.55,57.18,57.18,0,0,1,20.85-1.3c8.47,1.15,13.06,5.57,14.78,13.91,3.81,18.46-4.92,29.06-23.86,28.92-16-.11-31.82-3-47.68-4.8-20.08-2.28-39.89-.21-59.78,1.51-11.94,1-23.76,3.23-35.79,3.47-6,.12-12-.06-17.6-2.59-10-4.48-14.67-13.66-12.5-24.52,2.24-11.2,8.3-16.22,20.48-16.14,9.65.06,19.29,1.09,28.94,1.1,16.6,0,21.89-4.59,24.58-21.09a102,102,0,0,0,1-15.92q.09-90,.07-180a189.32,189.32,0,0,0-2.28-27.86c-2.3-15.71-10.74-21.89-26.38-19.69-6.25.88-12.48,2-18.75,2.77a47,47,0,0,1-9,.06c-7.8-.54-14.38-3.38-17.46-11.15-3.26-8.23-2.88-16.44,2.17-23.86,3.64-5.36,9.39-7.22,15.69-7.24,12.32,0,24.68-.5,37,.13a409,409,0,0,0,45.92-.15c10.81-.65,13.66,1.3,16.18,11.69C1094.86,572.07,1095.8,579.31,1097.41,588.3Z" transform="translate(1194 642.72)"/><path class="cls-1" d="M835.24,861.67c-8.74,9.39-16.68,16.88-25.6,23.29-20.36,14.62-43.36,21.83-68.07,23.36-23,1.42-45.91-.27-68.23-6.75-43.68-12.66-70.29-46.26-73.08-93.11-1.51-25.23-.48-50.63-.31-76,.25-38.64.43-77.27-5.8-115.58-.48-2.95-1.18-5.87-1.92-8.77-2.05-8-7.14-12.66-15.41-13.4-5.63-.5-11.29-.59-16.94-.87s-11.35-.22-16.93-1c-9.1-1.25-14.09-6.4-15.12-14.72-1.42-11.45,2.54-19.66,11.18-23.28a29.26,29.26,0,0,1,11.75-1.9c16,.13,32,0,48,.93a257,257,0,0,0,32.94-.49c11.59-.81,16.52,3.45,18.09,15,.62,4.6.3,9.32.67,14,2.62,33.64.88,67.23-1.08,100.8a581.16,581.16,0,0,0,4.84,117.54,110.34,110.34,0,0,0,3.29,13.57q10.93,39.38,51,47.68c19.21,4,38.36,4.39,57.33-1.05,32.32-9.26,53-30,59.61-63.24,7.6-38.41,8.68-77.33,7.21-116.38-.71-19-1-37.95-1.48-56.92a59.26,59.26,0,0,0-.42-6c-2.18-16.74-12.16-25.33-29.13-25.07-5,.08-10,.69-14.94.32-10.23-.77-15.5-5.85-16.66-15.28-1.57-12.67,2.66-20.78,12.52-24.26a28.23,28.23,0,0,1,9.84-1.39c24.64.23,49.27,1,73.93-.14,14.86-.66,20.5,5.56,19.93,20.82-.63,17-2.22,33.88-3.2,50.83-1.42,24.63-1,49.29-1,73.94,0,37.32,0,74.64,0,112,0,9.71.84,19.31,3.65,28.63,4.26,14.1,10.89,18.85,25.57,18.57,7.66-.14,15.33-.76,23-.51,11.42.37,16.8,4.92,18.3,14.54q3,19.44-12.13,25.52a34.66,34.66,0,0,1-13.69,2.41c-9.32-.19-18.69,0-28-.85-10.66-1-21.22-1.34-31.87,0a52.35,52.35,0,0,1-14.94-.27c-6.59-1.09-11.1-4.43-12.35-11.24C838.11,879.13,836.87,871.32,835.24,861.67Z" transform="translate(1194 642.72)"/><path class="cls-1" d="M1400.42,721.13q-2.3-72.82,44.28-129.11c24.37-29.36,56.25-45.13,93.43-50.8a154.69,154.69,0,0,1,89.67,12.53A119.56,119.56,0,0,1,1673.55,590c19.86,26,23.13,54.75,11.86,85-10,26.69-43.09,37.3-67.44,22.81-16-9.51-18.53-30.55-12-44,3.1-6.38,8.72-9.83,15.21-12.14,15.36-5.47,17-9.79,8.81-24.14-9.32-16.37-24.26-25.29-41.75-30.27-45.7-13-94.25,10.52-114.82,50.82-11.24,22-16.24,45.57-18.28,70-2.78,33.37-.12,65.86,14.33,96.6,8.78,18.68,20,35.75,38.29,46.26,33.88,19.49,68.12,18,101.35-1.64,15.8-9.35,25-24.55,31-41.66,2.84-8.17,5.24-16.48,7.86-24.73.8-2.53,1.5-5.12,2.5-7.58,6.16-15.19,15.89-20.28,30.72-16.19,13.39,3.7,20.76,15.28,18.24,30.2-3.12,18.49-8.92,36.16-18.38,52.49-20.55,35.46-52.35,55.14-91.36,63.86-47.69,10.65-91.41,1.7-129.34-29.85-29.57-24.61-46.33-57.1-54.21-94.34a339.64,339.64,0,0,1-5.55-35.47C1399.73,737.84,1400.42,729.45,1400.42,721.13Z" transform="translate(1194 642.72)"/><path class="cls-1" d="M2011.58,652.7c-.33-20.56.62-54.86-.36-89.17-.44-15.62.43-31.28.43-46.93a142,142,0,0,0-3.53-31.69c-3-13.37-8.9-17.58-22.82-16.44-9,.73-17.84,2.33-26.79,2.7-18.1.74-28.69-16.6-20.48-33,2.39-4.77,6.27-7.61,11.24-9.24,5.5-1.8,11.14-1.9,16.8-1.48,10,.75,19.9,1.64,29.84,2.54a210.51,210.51,0,0,0,51.75-2c13.15-2.07,19.86,3.12,19.85,16.55,0,10.63-1.07,21.26-1.9,31.88-2.6,32.87-3.49,65.8-3.57,98.75-.19,79,0,157.91-.09,236.87a167.53,167.53,0,0,0,2,26.86c2.56,16,11.61,22.62,27.4,19.66,7.23-1.36,14.46-2.56,21.78-2.27,12.6.5,18.7,6.91,19.18,19.5.54,13.91-5.21,21.58-17.82,23a104.59,104.59,0,0,1-25.92-.31,392.12,392.12,0,0,0-104.53,0,114.84,114.84,0,0,1-27.91.31c-16.57-1.85-25.32-18.62-17.59-33.4,2.65-5.07,7.1-7.65,12.72-8.61,8.71-1.49,17.29,0,25.85,1,25.07,2.82,29.8-.92,31.25-25.56C2011.6,777,2012,721.72,2011.58,652.7Z" transform="translate(1194 642.72)"/><path class="cls-3" d="M2251.32,570.2c54.36-1.28,100,42.74,100.94,97.45,1,55.16-41.54,100.12-97.22,100.8-59.09.72-99.41-42.93-100.93-94.71C2152.41,615.65,2194.11,571.54,2251.32,570.2Z" transform="translate(1194 642.72)"/><path class="cls-1" d="M1791.69,726.24c0-32.31.1-64.63-.09-97a100.19,100.19,0,0,0-1.93-18.84c-2.32-11.74-9.08-16.89-21-17.17-6.41-.15-12.57,1.4-18.76,2.61a53,53,0,0,1-11.89,1.05c-12.14-.39-21.52-9.08-21.93-20.22A22.55,22.55,0,0,1,1736,553.13c10.29-1.23,20.62-.09,30.92.66,18.28,1.34,36.56,2.29,54.82-.38a62.36,62.36,0,0,1,8-.36c7.29-.14,11.76,3.68,14.37,10.21,1.9,4.76,2.14,9.77,2.15,14.75.08,38.32,2,76.78-.47,114.94-2.55,38.92-.58,77.72-1.74,116.56a112.64,112.64,0,0,0,3.55,32.65c3.83,14.3,11.66,19.19,26,16.08,8.56-1.86,17.1-2.75,25.77-1.69,9.75,1.2,15.18,6,16.78,14.43,2.1,11-1.21,19.28-9.78,24-8.81,4.87-18.41,5.48-28.16,4.62-15.56-1.37-30.9-4.44-46.6-5.24-21.1-1.06-41.88.77-62.66,3.66-10.93,1.52-21.83,2.83-32.8.87-15.53-2.77-22.59-14.26-18.19-29.35,2.29-7.88,7.57-12.51,15.89-12.72,9-.23,18,.28,27,.5,22.37.56,29.39-5.68,30.81-28.15.57-9,.41-18,.43-27q.07-38,0-76Z" transform="translate(1194 642.72)"/><path class="cls-3" d="M2373.78,603.69c13.27-19.66,30.66-34.35,53.79-40,49.87-12.25,114.78,7.35,125.89,84.17,6.17,42.6-19,85.78-58.42,103-7.52,3.28-10.77,1.68-11-6.52-.4-14.68-1.5-29.23-5.12-43.48-11.17-44.08-40.45-71.35-81.6-87.48-7.1-2.79-14.34-5.24-21.5-7.9C2375.25,605.2,2374.82,604.59,2373.78,603.69Z" transform="translate(1194 642.72)"/><path d="M2276.08,799.47c34.38-11.17,64.83-26.88,85.23-57.21,20.09-29.87,23.91-63.5,21.49-98.4,31.37,3.13,63.2,38.67,69.49,75.22,7.31,42.47-16,91.76-59.64,110.26C2351.32,846.87,2303.63,834.93,2276.08,799.47Z" transform="translate(1194 642.72)"/><path class="cls-4" d="M1947.08,1131.23c3-4.28,2-7.7,2.05-10.9.1-17.33,0-34.66.1-52,0-2.84-1.37-6.75,1.85-8.19,3.93-1.76,8.48-1.09,12.73-.25.67.13,1.41,1.4,1.57,2.25a27.43,27.43,0,0,1,.28,5q0,46,0,92c0,7.72-.15,7.72-7.61,7.93-13.07.36-13.08.37-17.87-11.56q-11-27.35-21.91-54.71c-.72-1.82-1.15-3.77-4-6v8.94c0,18.66.06,37.32,0,56,0,7.36-.21,7.36-8.16,7.3-7.49-.06-7.71-.06-7.73-6.79-.09-31.32,0-62.65-.12-94,0-5,1.37-7.57,6.73-6.94a49,49,0,0,0,5,0c8.82.05,8.82.05,12.11,8.4Z" transform="translate(1194 642.72)"/><path class="cls-1" d="M2360,1132.85c0-22.29,0-42.91,0-63.53,0-10.33,1-11.1,11.51-10,2.76.29,4.4,1.1,4.4,4.06,0,1.33,0,2.67,0,4q0,45.94,0,91.9c0,7.55-.15,7.55-7.71,7.72-1.33,0-2.66,0-4,0-8.73,0-8.76,0-12.08-8.33-7.67-19.15-15.28-38.32-23-57.45-.7-1.73-1-3.83-3-5.1-2.36,2.32-1.24,5.1-1.25,7.52-.12,18.31,0,36.63-.13,54.94,0,2.79,1.45,6.84-2.14,8a20.91,20.91,0,0,1-11.78-.14c-.69-.2-1.35-1.45-1.51-2.3a27.43,27.43,0,0,1-.28-5q0-45.95,0-91.91c0-7.67.18-7.68,7.72-7.86a57,57,0,0,0,6,0c5.26-.7,7.5,1.91,9.28,6.63,7,18.67,14.48,37.19,21.87,55.72C2355.32,1125,2356,1128.62,2360,1132.85Z" transform="translate(1194 642.72)"/><path class="cls-3" d="M1006,1133.12v-59.6c0-2,0-4,0-6,.15-8.24.16-8.24,8.36-8.17,7.41.07,7.55.07,7.56,8q.1,46,0,91.94c0,7.58-.15,7.58-7.73,7.77q-1.5,0-3,0c-11-.15-9.27,1.12-13.48-9.26-7.87-19.43-15.64-38.89-23.46-58.33-.47-1.17-.62-2.57-2.43-3-2,2.16-1,4.93-1,7.36-.11,18.65,0,37.31-.12,56,0,2.48,1,6.07-2.35,6.84-3.79.86-8,1.44-11.68-.5-2.31-1.23-1.51-4.16-1.51-6.4-.06-16.33,0-32.65,0-49,0-14.66-.08-29.32,0-44,.06-7.13.24-7.14,7.29-7.37,1.33,0,2.66,0,4,0,8.69,0,8.71,0,12,8.33,7.23,18.25,14.41,36.52,21.67,54.76C1001.38,1125.48,1002.15,1128.77,1006,1133.12Z" transform="translate(1194 642.72)"/><path class="cls-1" d="M1846.15,476.2c-.07,21.07-17.31,38.57-37.85,38.43-19.91-.13-37.89-18-37.91-37.65,0-21.06,16.81-37.57,38.39-37.65S1846.22,454.86,1846.15,476.2Z" transform="translate(1194 642.72)"/><path class="cls-5" d="M1085.11,1127.58a29.13,29.13,0,0,0-3.85-.82c-9.26-.71-9.26-.68-9.24-10.34,0-2,0-4,.06-6,0-2.48,1.43-3.6,3.76-3.61,7.33,0,14.66,0,22-.08,3.6,0,4.51,1.86,4.46,5-.12,8.33.38,16.71-.3,25-1.41,17.06-12.68,29.39-27.45,30.88-16.54,1.66-30.24-6.87-33.74-23.09a147.56,147.56,0,0,1,0-61.54c3.43-16.44,16-25,32-24.25a25.24,25.24,0,0,1,14.73,5.49,35.81,35.81,0,0,1,13.89,25.43c-4.18,1.86-8.22.69-12.13,1.06a6.75,6.75,0,0,1-7.31-3.85c-3.13-5.66-8.27-7.54-14.46-6.27-6.39,1.32-9.21,6.18-10.68,11.94-1.67,6.55-.7,13.27-.85,19.91-.12,5.67-.18,11.34,0,17,.44,10.52,6,17,14.33,17.24,7.89.21,13-5.27,14.69-15.83A21.62,21.62,0,0,0,1085.11,1127.58Z" transform="translate(1194 642.72)"/><path class="cls-1" d="M654.85,1090.68c-4.11,0-7.42-.18-10.71,0-4,.27-6.75-.6-9-4.43-3.21-5.39-8.59-7.28-14.73-5.77-5.86,1.44-8.4,6.16-10,11.46a17.41,17.41,0,0,0-.67,4.93c-.06,11.33-.14,22.67,0,34,.09,6.9,3,12.23,9.72,14.85,5.2,2,9.87.89,13.84-2.84a15.63,15.63,0,0,0,4.88-13.59c-.37-3.55-3.35-2.41-5.45-2.63-6.84-.71-7-.68-7-7.43.09-14.89-1.62-12.28,11.75-12.54,4.66-.09,9.33,0,14,0,2.7,0,4.58.73,4.48,3.88-.4,11.6,1.47,23.34-2.29,34.72-5.48,16.58-18.73,24.81-35.45,22-12.56-2.12-19.83-10.2-23.78-21.66a41.93,41.93,0,0,1-2.35-13.74c0-12-.13-24,.08-36a45.72,45.72,0,0,1,5.72-22c11.23-19.85,37.6-20.88,50.5-2C651.92,1077.09,653.42,1081.29,654.85,1090.68Z" transform="translate(1194 642.72)"/><path class="cls-3" d="M1427.71,1113c0-15.65.16-31.31-.08-47-.08-5.2,1.7-6.92,6.9-6.82,14.65.29,29.31,0,44,.13,7.23,0,7.45.18,7.44,7,0,15.2,1.5,12.68-12.54,12.89q-12,.18-24,0c-3.7-.06-5.17,1.29-5.51,5.15-1.66,18.91-1.77,18.9,16.68,18.9,2,0,4,0,6,0,14.36.27,12.76-2.56,13.19,13.46.15,5.66-2.34,6.72-7.15,6.56-7.32-.24-14.67.23-22-.14-5.4-.28-6.85,2-6.73,7,.49,20.54-2.49,16.33,15.79,16.78,7,.17,14,.14,21,0,3.8-.08,5.07,1.49,5.35,5.27,1.1,14.73,1.23,14.72-13.88,14.73-11,0-22,0-33,0-12.33-.08-11.44,1.51-11.47-11C1427.68,1141.68,1427.71,1127.35,1427.71,1113Z" transform="translate(1194 642.72)"/><path class="cls-3" d="M1855.06,1059.38c8,0,16,.06,24,0,3.28,0,5.07,1.17,4.9,4.62,0,.33,0,.67,0,1,0,17.62,1.32,14-13.12,14.32-7.66.17-15.33.19-23,0-4.24-.12-5.7,1.43-6,5.74-1.11,18.35-1.25,18.34,17.25,18.34,3,0,6,0,9,0,9.53.07,9.53.08,9.53,10a24.84,24.84,0,0,0,0,3c.61,5-1.24,7.27-6.61,7-7.31-.34-14.66.11-22-.14-4.8-.16-7.33.94-7.19,6.53.53,21.2-2.55,16.74,16.37,17.22,6.66.17,13.33.21,20,0,4.36-.15,6.14,1.64,5.72,5.86,0,.33,0,.67,0,1-.1,15.51,1.14,13-12.37,13.14-13,.13-26-.15-39,.11-5,.1-7.05-1.26-7-6.66q.3-47.46,0-94.93c0-4.85,1.75-6.41,6.45-6.23,7.65.28,15.31.07,23,.07Z" transform="translate(1194 642.72)"/><path class="cls-1" d="M741.18,1138.25c3.29,2.11,5.68,3.8,8.22,5.25,7.85,4.5,16.24,5.9,25,3.51,5.63-1.53,8.36-5.41,8.49-10.91.13-5.71-2.1-9.13-8.12-11-5.71-1.75-11.68-2.61-17.4-4.31-12.44-3.69-18.68-11.84-19.32-24.72-.08-1.66,0-3.33,0-5-.13-13.34,4.16-24.26,17.19-29.94,12.14-5.29,31.85-1.88,40.49,6.58,1.61,1.58,2.25,3,1.29,5.25-1.85,4.24-3.52,8.57-5.32,13-3.53.12-5.5-2.39-8-3.73a28.08,28.08,0,0,0-20.24-3.08c-5,1.13-8.4,4.38-8.93,9.54a10.6,10.6,0,0,0,6.5,11.36c4.54,2,9.45,3.06,14.24,4.42,21.84,6.25,30.72,24.53,22.1,45.67-3,7.5-8.3,12.89-16,15.34-15.62,5-30.16,2.57-43.49-7-3-2.15-4.61-4.42-2.32-8.29C737.67,1146.56,739.17,1142.56,741.18,1138.25Z" transform="translate(1194 642.72)"/><path class="cls-3" d="M849.41,1138.15c5.18,3.61,9.48,6.76,14.57,8.34a31.49,31.49,0,0,0,17.73.7c5.84-1.56,9.63-6.08,9.69-11.29s-2.76-9-8.72-10.81c-5.38-1.67-11-2.55-16.45-4.07-13-3.64-19.43-11.77-20.15-25.15-.05-1,0-2-.05-3-.27-13.54,3.05-25.57,16.62-31.32,14.36-6.07,28-3.16,40.56,5.77,2.16,1.53,3,3.34,1.76,6-2,4.19-2.88,8.87-5.81,12.7-3.54-.33-5.75-3.12-8.65-4.56a28.19,28.19,0,0,0-18.46-2.39,11.15,11.15,0,0,0-9.36,9.22c-.94,4.54,2,10,7,12.06s10.16,3.1,15.27,4.58c5.46,1.57,10.91,3.29,15,7.46,9.26,9.38,9.15,21,6.94,32.71-2.11,11.16-9.22,18.61-20.11,21.29-13.8,3.4-27.15,1.63-39.13-6.66-5.93-4.09-6.1-4.9-3.2-11.41C845.83,1145.28,847.37,1142.34,849.41,1138.15Z" transform="translate(1194 642.72)"/><path class="cls-3" d="M1584.77,1086.63c-7.94-5.73-15.94-9.54-25.52-7.79-5.91,1.08-9.52,4.27-10.43,9.27s2,10,7.69,12.57a50.33,50.33,0,0,0,6.63,2.16c2.23.65,4.49,1.25,6.76,1.75,22.31,5,26.76,20.7,23.1,40.36-2.42,13-11.63,20.59-24.88,22.36-13.09,1.76-25.15-.71-35.89-8.71-3-2.21-4.59-4.56-2.51-8.38s3.16-7.9,6.13-11.6c3.15,2,5.84,3.84,8.68,5.41a31,31,0,0,0,23.18,3.14c5.85-1.46,9.65-6,9.82-11.21.16-4.83-2.89-9-8.7-10.83-5.38-1.67-11-2.55-16.45-4.07-13-3.65-19.46-11.73-20.27-25.1-.12-2-.13-4-.06-6,.43-13.32,5.06-24,18.41-29.19,11.81-4.63,31.41-1.11,39.58,7,1.69,1.68,2,3.24,1.09,5.3C1589.24,1077.36,1588.1,1081.93,1584.77,1086.63Z" transform="translate(1194 642.72)"/><path class="cls-4" d="M1730,1100.24c0,9.65,0,19.31,0,29a56.74,56.74,0,0,1-1.57,13.84c-5.12,21-20.4,27.92-40.28,23.58-7.46-1.63-12.89-6.64-16.5-13.48a47.52,47.52,0,0,1-5.45-22.08q-.24-32.47-.13-64.94c0-6.7.25-6.7,7.72-6.78,8.57-.09,8.93,0,9,6.65.15,18.31.07,36.63,0,54.94,0,5,0,10,1.19,14.9,1.93,7.78,6.65,11.51,14.13,11.47s12.09-3.93,14.13-11.6c1-3.91.92-7.91.92-11.91,0-19.31,0-38.63,0-57.94,0-2.54-.64-5.92,3.16-6.24,4.2-.34,8.71-1.48,12.56,1,1.73,1.12,1,3.7,1,5.64C1730,1077.59,1730,1088.91,1730,1100.24Z" transform="translate(1194 642.72)"/><path class="cls-1" d="M2292.89,1102.11c-.25,10,.46,22-.61,34a44.51,44.51,0,0,1-3.66,14.44c-5.38,12-15,17.29-27.87,17.32s-22.39-5.44-27.78-17.43a47.55,47.55,0,0,1-3.81-19.48q-.18-32,0-64c0-2.71-1.31-6.72,3-7.33s8.76-1.44,12.63.8c2.11,1.22,1.18,4.27,1.18,6.53.05,20,0,40,.05,60,0,3.64-.21,7.28,1.27,10.82,2.72,6.55,6.92,9.61,13.67,9.55s10.93-3,13.54-9.73c1.5-3.83,1.54-7.81,1.54-11.81,0-19.67,0-39.33.05-59,0-2.47-1.09-5.49,2-7.12,1.78-.93,12.73-.31,13.66.78,1.41,1.66,1.11,3.74,1.12,5.7C2292.9,1077.5,2292.89,1088.83,2292.89,1102.11Z" transform="translate(1194 642.72)"/><path class="cls-6" d="M2141,1094.56c-3.17,2.08-6.26,1-9.16,1.38-4.94.69-8.29-.74-9.52-6a14.78,14.78,0,0,0-2.69-5.28c-6.05-8.08-16.45-7.16-21.09,1.88a21,21,0,0,0-2.49,9.58q0,17.45,0,34.91a20.62,20.62,0,0,0,2.23,8.64c2.15,4.57,5.78,7.3,10.86,7.6s10-1.8,11.19-6.62c2.82-11,10.47-10.77,19-9.64a10.3,10.3,0,0,1,1.64.7,45.16,45.16,0,0,1-9,25.15,28.71,28.71,0,0,1-48.32-4.13,31.44,31.44,0,0,1-3.63-10.3c-2.69-19.53-3.18-39.15.18-58.58,2.92-16.94,15.1-25.89,31.89-25.09,8.64.41,15.24,4.42,20.14,11.23A46,46,0,0,1,2141,1094.56Z" transform="translate(1194 642.72)"/><path class="cls-1" d="M2455.5,1131.78c-1.1,8.6-3.36,16.19-7.75,23-6.15,9.56-15,13.83-26.3,13-11.77-.84-20-6.85-24.69-17.52a47.47,47.47,0,0,1-3.65-19.49c0-11.67-.06-23.34,0-35a50.53,50.53,0,0,1,2.33-15.73c4.26-12.84,12.83-20.28,24.87-21.26,14-1.13,23.43,4.28,29.84,17.06,2.41,4.81,3.65,10,4.92,15.15.89,3.66-.69,4.88-4,4.85-2.67,0-5.34-.09-8,0-3.13.14-4.89-1.13-5.73-4.24a22.25,22.25,0,0,0-2.91-6.32c-5.85-8.85-16.88-8.2-21.67,1.32a24.67,24.67,0,0,0-2.48,11.6q.21,15,0,30a26,26,0,0,0,2.06,10.7c2.13,5,5.8,8.07,11.44,8.28,5.28.19,10-2.37,11.08-7,2.59-10.85,10-10.38,18.16-9.41A15,15,0,0,1,2455.5,1131.78Z" transform="translate(1194 642.72)"/><path class="cls-7" d="M1620,1123.41c0-12,.06-24,0-36-.06-8-.16-8-8.42-8.12-1,0-2,.09-3,0-3.84-.41-9.16,1.86-11.21-1.62-2.64-4.49-1.11-10.35-.73-15.6.19-2.64,2.54-2.71,4.55-2.71,18,0,36,.06,53.94-.08,4,0,5,1.8,5.23,5.4,1,14.51,1.12,14.5-13.85,14.63-9.59.08-9.65.08-9.66,10,0,23,0,46-.07,68.93,0,2.83,1.37,6.84-2,8.09-4,1.49-8.64,1.23-12.79.09-2.79-.77-1.93-3.9-1.94-6.1C1620,1148.06,1620,1135.73,1620,1123.41Z" transform="translate(1194 642.72)"/><path class="cls-8" d="M2016.82,1123c0,12.31.06,24.63,0,37,0,2.46,1,6-2.56,6.65-4.16.75-8.81,1.58-12.61-.7-2.44-1.47-1.23-4.94-1.24-7.51-.07-22.3,0-44.6,0-66.91,0-14,1.21-12-12.35-12.16-11.39-.12-10.77,1.15-10.77-10.78,0-9.13.07-9.18,9.46-9.21q23-.07,45.93,0c8,0,8.18.15,8.2,7.43,0,14.71,1,12.31-12,12.54-11.69.21-12-2.27-12,11.73C2016.87,1101.71,2016.83,1112.37,2016.82,1123Z" transform="translate(1194 642.72)"/><path class="cls-2" d="M721.66,1113.9c0,15.31.07,30.62,0,45.94,0,7-.18,7-7.26,7.17-2,0-4-.07-6,0-2.84.09-4.38-1.1-4.34-4.06,0-1.33,0-2.66,0-4q0-45.95,0-91.89c0-7.58.15-7.58,7.73-7.71,9.83-.16,9.87-.16,9.89,9.6C721.69,1083.93,721.66,1098.91,721.66,1113.9Z" transform="translate(1194 642.72)"/><path class="cls-2" d="M688,1113c0,15.64.07,31.29,0,46.94-.05,6.9-.2,6.91-7.35,7-2,0-4-.07-6,0-2.89.07-4.3-1.27-4.26-4.17,0-1.66,0-3.33,0-5,0-29.63-.05-59.26.07-88.89,0-3.09-1.81-7.55,2-9,4.28-1.61,9.31-1.24,13.79-.07,2.64.68,1.79,4,1.8,6.19C688,1081.72,688,1097.37,688,1113Z" transform="translate(1194 642.72)"/><path class="cls-2" d="M2468,1112.39c0-15.31-.07-30.63,0-45.94.05-6.93.21-6.94,7.34-7.09,2,0,4,.06,6,0,2.89-.06,4.28,1.32,4.26,4.19,0,1.66,0,3.33,0,5,0,29.63.05,59.26-.07,88.89,0,3.08,1.87,7.52-2,9-4.28,1.6-9.3,1.24-13.79.09-2.72-.7-1.79-4-1.79-6.16C2468,1144.35,2468,1128.37,2468,1112.39Z" transform="translate(1194 642.72)"/><path class="cls-8" d="M937.68,1113c0,15.64.07,31.27,0,46.9,0,7-.2,7-7.35,7.13-2,0-4-.06-6,0-2.88,0-4.27-1.33-4.25-4.2,0-1.66,0-3.32,0-5,0-29.6,0-59.2.06-88.81,0-3.12-1.69-7.63,1.95-9,4.24-1.61,9.28-1.31,13.76,0,2.72.77,1.86,3.94,1.87,6.15C937.7,1081.72,937.68,1097.35,937.68,1113Z" transform="translate(1194 642.72)"/><path class="cls-9" d="M1157.9,181.25c.62,24.49-4.48,47.44-17.62,68.56-16.53,26.56-40.75,33.9-69.88,26.72-13.65-3.37-23.24-12.5-30.08-24.64-7.64-13.57-11.38-28.43-13.88-43.56a142.37,142.37,0,0,1,11.1-83.88c3.9-8.55,8.62-16.61,15.47-23.12,23.37-22.23,56.06-21.07,79.17,3.38,16.48,17.45,23.62,39.06,25.66,62.56C1158.24,171.9,1157.9,176.59,1157.9,181.25Z" transform="translate(1194 642.72)"/><path class="cls-3" d="M1454.17,197.32a60.54,60.54,0,0,1,7,0c27.3,1.15,54.61-.24,79.47,0,31.1,0,59.76.14,88.41,0,18.82-.12,29.18-9.71,30.78-28.23,1.46-17,1.49-34-1.88-50.73-11-54.68-41.33-93.08-95-110.94-34.59-11.51-70.39-12.16-105.64-5-59.42,12.11-98.5,49.23-119.46,105.27-14.73,39.37-15.57,80.39-7.35,121.13,11.51,57,43.22,98.82,98,121.22,34.71,14.2,71,17,107.9,12.22a193,193,0,0,0,78.45-27.79c21.58-13.51,35-32.1,38.69-57.64,2.9-20.19-6.54-37.28-25.56-44.64a47.65,47.65,0,0,0-26.5-2.19c-14.44,2.71-25.45,11.1-35.58,21-9.81,9.58-20.27,18.13-32.46,24.71-34.52,18.64-74.71,1.27-90.15-29.85-4.82-9.71-7.49-20-6.8-30.88C1437.16,203.36,1442.75,198.13,1454.17,197.32Zm-12.65-88.5c3.69-15.41,14.24-25.21,27.21-32.8a58.63,58.63,0,0,1,72.86,11.4c5.87,6.59,9.79,14.19,10.83,23.11,1.33,11.34-2.54,16.58-13.84,17.1s-22.61.16-33.92.19h-3.77c-16.17.91-31.11,1.49-46.05,0C1442.85,126.61,1438.69,120.67,1441.52,108.82Z" transform="translate(1194 642.72)"/><path class="cls-1" d="M530,638.56C512.29,590,479.49,558.13,428.27,546.3c-14.66-3.38-29.42-6-44.36-6.66-31-1.39-60.47,4.33-86.65,21.81-37.18,24.8-60.5,59.86-71,102.77-13.39,54.49-6.72,107.9,14,159.49,10.3,25.66,27.66,46.55,51.53,60.77,39.72,23.66,83,31.19,127.93,21,50.6-11.43,84.82-44.19,106.64-90.27,14.12-29.81,17.5-61.91,17.66-82.88C544,691.05,539.65,664.85,530,638.56Zm-40.37,83.85c.05,25.41-2,50.58-12,74.34-11.61,27.73-29.2,50.1-58.46,60.68-26,9.37-52.28,9.31-78.15-.35-23.12-8.64-38.58-25.72-48.12-48-12-28.09-19.11-57.4-18.93-88.16a176.52,176.52,0,0,1,27.71-94.53c19.16-30.47,47.89-42.92,83-42.12a135.61,135.61,0,0,1,29.66,3.58c30,7.46,50.14,26.21,62,54.42,8.89,21.17,12,43.48,13.25,66.17C489.89,713.08,489.67,717.75,489.67,722.41Z" transform="translate(1194 642.72)"/><path class="cls-3" d="M1409.9,1158.11c-4.65-9.93-9.37-19.84-14-29.76-1.12-2.37-2.85-4.8.46-6.91,14-9,14.67-22.91,13.31-37.17-1.4-14.64-10.25-24.13-22.88-24.76-11.29-.56-22.63-.09-33.94-.17-3.15,0-5.07.86-5.07,4.45q.06,49.41,0,98.84c0,1.68.17,3.72,2.09,4,4.25.63,8.88,1.43,12.76-.35,3.05-1.4,1.57-5.41,1.61-8.27q.23-14.48,0-29c-.06-4,1.8-5.17,5.49-5.08s5.22,2,6.53,5c3.31,7.62,6.87,15.13,10.28,22.71,7.35,16.34,7.34,16.35,26.79,14.62C1411.93,1163,1411,1160.49,1409.9,1158.11Zm-17.65-62.41c-1.22,5.68-3.63,7.85-9.41,8.5-17.95,2-19,1-18.58-17.06.19-7.65.19-7.66,7.71-7.84,1.33,0,2.66,0,4,0h3C1390.29,1079.41,1394.61,1084.74,1392.25,1095.7Z" transform="translate(1194 642.72)"/><path class="cls-5" d="M1809.4,1092.36c-1.41-21.34-13.65-32.41-34.94-33-7-.19-14-.14-20.94,0s-7.11.21-7.16,7.33c-.1,15.62,0,31.24,0,46.87,0,14.62,0,29.25,0,43.87,0,9.5.06,9.52,10,9.56,5.65,0,11.3.06,17,0,21.88-.26,34.59-11.25,36.14-32.79A306,306,0,0,0,1809.4,1092.36Zm-17.55,39.27c-.29,9.19-6,14.55-15.14,15.32-1.65.14-3.32.08-5,.07-8.51,0-8.64,0-8.82-8.89-.18-8.64,0-17.29,0-25.94h0c0-9,.07-18,0-26.93,0-4.07,1.35-6.28,5.78-6,3,.22,6-.17,9,.21,8.62,1.1,14,6.45,14.29,15.2C1792.26,1107,1792.25,1119.34,1791.85,1131.63Z" transform="translate(1194 642.72)"/><path class="cls-5" d="M1332,1112.84c0-6,0-12,0-18a42,42,0,0,0-4.65-19.21c-5.83-11.4-15-17.36-28.07-17s-21.85,6.91-27,18.57a43.64,43.64,0,0,0-3.92,17.4c-.12,12.64-.16,25.28.07,37.91a42,42,0,0,0,5.55,20c6,10.56,15.06,15.51,27.14,15.26,11.75-.24,20.19-5.71,25.71-15.95a43.42,43.42,0,0,0,5.21-20.07C1332.05,1125.49,1332,1119.17,1332,1112.84Zm-17.66.68c0,5.64,0,11.27,0,16.91,0,4.83-1.32,9.16-4.75,12.69a12.92,12.92,0,0,1-20-1.18,19.76,19.76,0,0,1-3.84-12.1c0-10.94-.11-21.88,0-32.82a25.14,25.14,0,0,1,1.35-7.78c2.23-6.49,7.39-10.25,13.27-10.11s10.93,4.31,13,10.61c1.18,3.54.83,7.22.86,10.85C1314.34,1104.9,1314.31,1109.21,1314.3,1113.52Z" transform="translate(1194 642.72)"/><path class="cls-1" d="M2215.65,1096.78c0-7.77-1.4-15.29-5.18-22.1-5.78-10.39-14.46-16-26.73-16s-20.91,5.72-26.7,16a39.33,39.33,0,0,0-5,19.1c0,6.32,0,12.64,0,19s0,12.64,0,19a42.39,42.39,0,0,0,3.36,16.49c5.26,12.86,15.07,19.65,28.38,19.68,13.1,0,23.31-7,28.41-19.67a48.89,48.89,0,0,0,3.49-18.5C2215.63,1118.74,2215.66,1107.76,2215.65,1096.78ZM2198,1128.72a31,31,0,0,1-.38,5.94c-1.61,7.87-7.41,12.88-14.37,12.61s-12.81-5.67-13.28-13.68c-.6-10.25-.26-20.56-.26-30.84a69.54,69.54,0,0,1,.4-10.91c1.18-7.4,6.7-12.46,13.24-12.7s12.17,4.43,14,11.84a31.63,31.63,0,0,1,.65,6.89c.09,5.31,0,10.61,0,15.92C2198,1118.77,2198,1123.74,2198,1128.72Z" transform="translate(1194 642.72)"/><path class="cls-5" d="M1183.7,1163.31q-15.26-49.62-30.66-99.2c-1.36-4.36-7.62-6.52-11.28-4.18-2.49,1.6-2.52,4.61-3.28,7q-14.46,46.21-28.66,92.5c-.66,2.16-2.12,4.23-1,6.78,3.81,1.43,7.86.42,11.79.78,3.58.32,5.37-1.25,6.47-4.63,1.32-4,.73-9.38,4.73-11.63s9.15-.72,13.78-.9c3-.11,6,.27,9,0,5.64-.48,8.25,2,9.67,7.45,2.58,9.93,2.91,9.85,13.42,9.67,2,0,4,.26,6-.89A8.57,8.57,0,0,0,1183.7,1163.31Zm-42.87-49.89c1.48-5,2.12-10.35,5.89-16.55l9.38,32.56C1135.5,1131.72,1135.42,1131.7,1140.83,1113.42Z" transform="translate(1194 642.72)"/><path class="cls-4" d="M1256.33,1081.78c-3.65-14.62-12.58-22-27.69-22.39-8.31-.21-16.63-.1-25,0s-8.44.14-8.49,8.17c-.09,15.3,0,30.61,0,45.92s-.08,30.61,0,45.92c0,7.56.21,7.57,7.93,7.65,1,0,2-.09,3,0,4.2.39,6-1.3,5.9-5.69-.23-7,0-14,0-21,0-15,0-15,14.49-15h2c15.83-.21,24.45-7.3,28.08-22.83A43.31,43.31,0,0,0,1256.33,1081.78Zm-16.4,13.44c-.89,6.61-4.35,9.73-11.25,10.1-1.32.07-2.66,0-4,0-14.81-.19-12.45,1.48-12.7-12.74.28-15.08-2.29-13.18,14.23-13.22C1236.59,1079.35,1241.29,1085,1239.93,1095.22Z" transform="translate(1194 642.72)"/></svg>