<svg id="Layer_1" data-name="Layer 1" xmlns="http://www.w3.org/2000/svg" viewBox="0 0 2522 746.63"><title>Technology Club Logo</title><path d="M-578,193c1.3-3.35,3.14-6.59,3.81-10.05,13.6-70.42,99.75-106.48,159.37-65.63,19,13,33.38,29.35,41.16,51.25,2.85,8,3,8,11.29,8.08,13.33.07,26.66,0,40,0,9.48,0,9.49,0,13-8.71,11.11-27.53,29.57-48.29,57.29-59.51,71.79-29.07,150.35,24,144.64,104.19-3.21,45.14-33,81.05-76.6,93.25-41.95,11.75-87.4-4.56-113.07-40.56-1.73-2.42-3.42-4.86-6.36-9-.38,4.47-.82,7.18-.82,9.89,0,37.66.18,75.31-.2,113-.09,7.82,2.21,11.56,9.67,14.77,65,28,84.23,110.85,37.73,163.73-28.84,32.81-65.83,43.84-107.66,32.3-41.19-11.35-66.37-39.76-74.54-81.74-9.94-51.08,19.77-100.56,69.33-117.51,9.27-3.18,9.36-3.18,9.37-12.3q0-71.47,0-142.95c0-2.62-.34-5.23-.55-8.28l-7.54-.54c-1.13,3.35-2.27,6.4-3.18,9.52-10.54,36.3-48.82,76.21-106.1,73.1-46.26-2.52-86-36-96.19-82.15-.77-3.48-2.52-6.73-3.82-10.09Zm203.19,33.4c-6.73,0-13.32.36-19.85-.1-6.84-.48-10.46,1.88-13.73,8.37-11.84,23.46-31.29,37-57.66,38.86-30.12,2.15-53.53-10.2-67.89-36.72-14.13-26.09-12.16-52.48,5.67-76.16,18.13-24.09,43.25-32.48,72.67-26.27,20.31,4.28,35.51,16.14,45.81,34.21,1.93,3.38,3,7.87,8,8,8.17.19,16.35,0,24.68,0-6.92-42.43-55.59-75.76-104.09-71.37-57.68,5.23-92.09,54.91-91,101.36,1.22,51.58,41.13,94.94,92.18,98.3S-381.56,273.47-374.81,226.4Zm95.76.76h-27.23c1.8,8.08,2.22,15.65,5.14,22.07,17.79,39,63.71,62.48,106,54.68,54.34-10,89.15-56.76,83.16-111.64-5.18-47.48-46.78-86-94.43-87.39-44.91-1.33-79.85,20.88-97.88,62.24-1.26,2.87-2.32,5.82-3.86,9.72,7.61,0,13.63-.47,19.56.11,7.61.75,11.89-2,15.75-8.88,14.93-26.53,44-39.83,73.77-34.67,32.45,5.62,56.68,33.29,58.53,66.85,1.76,31.83-19.63,61.73-50.75,70.94A70.47,70.47,0,0,1-273,238.6C-275.1,234.86-277,231-279,227.16Zm-25.3,169c0,5.75.49,11.35-.12,16.83-.8,7.15,1.66,11.3,7.91,15.3,22.16,14.18,33.31,34.82,32.82,61.3-.64,34.13-24.95,62-59.13,68-32.89,5.83-65.63-12.63-78-44A70.52,70.52,0,0,1-372.66,428a88.55,88.55,0,0,1,7.82-4.42c3-1.48,4.61-3.52,4.56-7-.11-7.59,0-15.18,0-22.83-40.5,3.45-77.07,50.5-76.28,97.22.9,52.75,41.2,94.87,92.74,98.53,51.16,3.64,100.18-31.49,107.33-88.56C-230.78,455-262.83,404.49-304.35,396.17ZM-411.75,176.8c-9.95-28.82-43.44-45.84-74.07-39-35,7.82-56,37.66-52.3,74.12,3.36,32.79,32.43,58,66.83,58,27.9,0,57.46-21.12,60-43.11-11.11-1.54-20.85-1.54-30,7.91-11.76,12.17-31.36,13.45-46.51,5.59-15.45-8-24.11-24.63-22.13-42.46,1.89-17,13.3-30.17,30-35,14.64-4.21,27.52-1,39.27,8.43,2.95,2.37,6.63,4.66,10.24,5.19C-424.67,177.43-418.64,176.8-411.75,176.8ZM-304.2,429.69c-.18,12.42-1.45,23.24,5.74,34.23,11.63,17.76,5.71,41.75-11.31,54.25-16.78,12.32-41.65,10.15-55.64-4.79-11.86-12.66-17.68-38.37-1.4-55.58,9.06-9.58,6.36-19.52,6-30.32-23.87,7.21-45.44,38.34-39.94,70.43s31.74,55.71,64,56.75c32.65,1.05,60.61-21.06,67.7-53.51C-262.75,472.3-277.51,441.26-304.2,429.69Zm30.26-203.19c2.25,4.83,3.58,8.5,5.56,11.78,15,24.85,45.14,37,73.48,29.66,29.05-7.48,48.78-31.91,50.27-62.25a66.38,66.38,0,0,0-42.53-64.89c-25.54-9.76-61.55-.14-78.15,21-3.25,4.13-6.37,8.48-5.94,14.22,19.16,2.45,22,1.84,36.44-7.8a42.11,42.11,0,0,1,51.72,4c14.42,13,17.65,34.36,7.87,52.09-9,16.29-28.65,24.46-47.1,19.66-8-2.08-14.45-6.4-20.19-12.26-2.18-2.23-5.23-4.68-8.09-5C-257.77,226-265.07,226.5-273.94,226.5Zm76,4.55c8.07.21,14-5.39,14.17-13.4s-5.65-14.22-13.37-14.4a14.22,14.22,0,0,0-14.41,13.57A13.85,13.85,0,0,0-197.91,231.05ZM-323.76,508.76a13.79,13.79,0,0,0,13.55-14.25A13.52,13.52,0,0,0-324.42,481a13.47,13.47,0,0,0-13.52,14.13A13.7,13.7,0,0,0-323.76,508.76Zm-133.41-305.5c-7.87.17-13.51,6.21-13.36,14.3s5.91,13.69,14,13.49,13.62-6.11,13.42-14.14A13.59,13.59,0,0,0-457.17,203.26Z" transform="translate(578 3.88)"/><path d="M1944,267c-8,20.7-16.12,41.36-24,62.1q-37.15,97.54-74.11,195.17c-5.86,15.58-15.19,28.07-29.24,36.84-5.24,3.26-7.62,7.47-9.07,13.42-6.9,28.4-35,51.73-70.1,48.64-30.5-2.68-56.4-27.78-59.25-58.23-3.09-33.07,16.48-62.43,47.77-70.73,24-6.37,45.54-1.38,63.7,16.06,2.38,2.29,4.35,5,6.79,7.84,6.79-5.42,7-11.95,6.44-18.51-1.33-16.09-6-31.38-11.92-46.28q-20.79-52.47-41.92-104.81c-9.41-23.49-18.9-46.95-28.29-70.45-1.84-4.61-3.41-9.33-5.6-15.37,15-1.58,29.16.06,44.64-1.17-7-28.88-21.75-51.61-44-69.74-22.53-18.34-48.78-26.53-77.65-27.49-.2-2.44-.47-4-.43-5.66,0-2.27.34-4.53.57-7.25,10.79-1.77,21,0,30.85,2.5,55,14.13,90.61,48.45,106,103.27,1.08,3.84,3.21,7.88-.47,12.21-1.12,1.31.77,5.57,1.83,8.25q25.31,64.13,50.76,128.17c1.56,3.93,3.23,7.82,5.59,13.54,5.49-15.14,10.29-28.25,15-41.38q19-53.13,38-106.26c3.58-10,3.59-10,14.13-10.09,14.64-.16,29.29-.39,43.93-.59ZM1783.7,527.39c-9.9-17.67-35.6-25.42-57-17.29-22.79,8.64-36.87,33.56-32.19,56.95,5,24.7,27.71,42.69,52.62,41.58,20.28-.9,42.17-17.61,44-33.57-8.21,1.27-8.21,1.27-16.81,10.55-12.66,13.65-30.31,17.38-47.38,10-16.75-7.24-26.48-24-24.82-42.73a41.19,41.19,0,0,1,31-36.23c14.67-3.84,27.78-.73,38.85,9.57C1775.9,529.92,1779.3,531.63,1783.7,527.39Zm9.34-3c-9.13-21.64-40.71-33.17-66.85-25.47-29.26,8.61-48.4,38.64-43.33,68,5.69,32.89,33.16,54.54,66.27,52.25,27.18-1.89,52.33-24.88,53.53-49.18-6.16.69-6.11,6.23-8,10.08-10.29,21.26-27.42,32.21-50.8,32.7-22.08.46-43.21-13.51-51.07-33.83-8.42-21.77-5.14-42.14,10.8-59.46,20.67-22.46,55.82-23.24,78.25-2.48C1784.82,519.68,1786.8,524.06,1793,524.37Zm-38.44,26.17c-8-.15-14.17,5.52-14.37,13.31a13.71,13.71,0,0,0,13.57,14.21,13.49,13.49,0,0,0,14.25-13.42C1768.25,556.61,1762.6,550.68,1754.6,550.54Zm169.17-267c-.26-7.87-6.36-13.49-14.38-13.26s-13.59,6.12-13.35,14.17,6.16,13.51,14.26,13.29A13.51,13.51,0,0,0,1923.77,283.55Z" transform="translate(578 3.88)"/><path d="M576,635.33q-334,0-667.93,0-193,0-386,.24c-4.32,0-8.88.59-12.92-.54-4.95-1.39-10.33-3.37-14-6.74-8.63-7.88-6.34-19.82,4.36-24.38,4.5-1.92,9.59-2.64,14.49-3.39,3.26-.51,6.65-.13,10-.13H1630.74c4.66,0,9.35-.15,14,.29,11.25,1.09,19.35,8.15,19.49,16.57.14,8.87-8.35,16.85-19.4,18a108.56,108.56,0,0,1-11,.31q-187,0-374,0H576Zm-1063.44-6.54c6.7-.12,13-5.48,13.22-11.22.22-6.06-6.54-11.88-13.68-11.8-6.82.08-13,5.36-13.16,11.25C-501.29,623.24-494.72,628.92-487.49,628.79Zm2128.57.71c7.33.22,14-5.17,14-11.33,0-5.78-6.09-11.08-13-11.29-7.47-.22-13.93,5-13.93,11.28C1628.15,624,1634.16,629.29,1641.08,629.5Z" transform="translate(578 3.88)"/><path d="M1503.21,508.91l10.17,7.36c26.62,19.26,55.61,22.45,86.42,12.52a46.27,46.27,0,0,0,10.63-5.4c6-3.87,9.71-9.43,9-16.73-.79-7.61-5.28-13.45-12.62-15.22a92.43,92.43,0,0,0-24.55-3c-17.3.57-34.57,2.29-51.84,3.64a65.84,65.84,0,0,1-30.32-4.77c-23.24-9.48-30.71-35.28-15.29-55.1,5.58-7.18,13.29-12.69,20.27-19.18-1-.84-2.38-2.2-3.93-3.41-26-20.34-35.92-47.32-31.79-79.45,4.35-33.84,24.8-55.5,55.7-67.07,27.56-10.34,55.56-8.87,83,1.9,1.82.72,3.63,1.46,6.13,2.46l20.66-23.94,37.46,34L1647.67,296c1.54,3.29,2.83,6,4,8.67,13.39,29.8,11.63,59.18-4,87.38-13.45,24.18-35.71,35.1-62.57,37-9.6.69-19.32-.07-29-.51-8.88-.4-16.35,2.79-22.84,8.43-5,4.37-4.12,9.76,2.44,10.9,7.08,1.22,14.56.95,21.77.31,9.93-.88,19.75-3.05,29.68-4.07,17.85-1.82,35.28.3,51.91,7.28q25.26,10.61,31.34,37.5c7.88,34.88-7,65.3-40.89,79.62-43.5,18.4-87.39,19.38-130.78-.85-9.86-4.59-19.17-10.39-29.89-16.27Zm110.06-105.79c7.94.13,14.18-5.73,14.31-13.43a14.14,14.14,0,0,0-13.71-14.26,13.69,13.69,0,0,0-14,13.69C1599.67,397.31,1605.13,403,1613.27,403.12Z" transform="translate(578 3.88)"/><path d="M369.83,490.4H314.89V219.59c-10.26,0-19.18.08-28.1-.06-2.62,0-5.65,0-7.74-1.3a9.07,9.07,0,0,1-4.29-10.33c1-4.07,4.21-5.94,8.24-6,7-.1,14,.1,21,.05,2.66,0,5.46.07,7.89-.76,1.2-.42,1.71-2.83,3.54-6.19-9.86,0-18.06,0-26.26,0-10.75,0-15.41-2.89-15.21-9.68.19-6,4.21-8.56,15.52-7.9,16.58,1,32.42-1.69,48.12-6.88,10-3.3,20.47-5.28,31.3-8l1.43,14.61c9.63,0,18.9-.12,28.16.05a105.85,105.85,0,0,1,13.9,1.09c4.1.62,7.92,2.12,7.81,7.4-.09,4.51-3.87,8.65-8.83,9.37a49.38,49.38,0,0,1-7,0h-32.7c-2,3.31-2.33,5.72,1.48,6.49a40.52,40.52,0,0,0,8,.36c21.33,0,42.67-.06,64,.09,3.58,0,7.48.27,10.68,1.67,6.37,2.79,6.86,9.74.83,13.2-3.24,1.86-7.54,2.5-11.38,2.54-21,.24-42,.12-63,.12H370.73v53.51a9,9,0,0,0,2.88-.58c31-19.69,63.7-19.88,96.69-6.9,27.29,10.74,41.15,32.79,45.48,61.08a188.72,188.72,0,0,1,2,26.88q.42,45.5.15,91a34.83,34.83,0,0,0,5.82,20.51,41.74,41.74,0,0,1-12.32,58c-19.34,12.62-45.63,7.27-58.31-11.85-10.77-16.24-9.54-37.39,4-51.62,5.1-5.36,6.78-10.71,6.71-17.79-.28-29.66-.51-59.33,0-89,.64-38.58-32.56-56.17-63-46.94a74.35,74.35,0,0,0-12.89,5.34c-12.3,6.5-19.06,15.14-18.64,30.82,1.19,45.64.51,91.32.57,137Zm-39.43-157V364h23.21V333.39Zm23.45-107.24h-24.1c0,10.48-.48,20.5.24,30.22h23.86Zm-.46,246.05V440.87H329.52c.78,10.94-1,21.07,1.15,31.33ZM330.48,278.88v30.75c8.26.12,15.75,1.44,22.85-.79v-30Zm23.24,110H330.4v30h23.32Z" transform="translate(578 3.88)"/><path d="M40.93,393.32H-121.13c0,28.08,18,50.27,45.28,55.4,26.14,4.9,51.16,2.39,72.82-15.21a15,15,0,0,1,2.94-1.13c6.62,13.1,13.3,26.3,20.42,40.4-4.27,3-7.83,5.85-11.77,8.07C-4.69,488.33-19.17,492-34.15,494c-22.28,2.94-44.45,3.54-66.44-2.35C-143.93,480-168,451.13-176.11,407.8c-.84-4.55-1.44-9.14-2.21-14.05-9.74-1.54-18.81-1.79-27.6,2.55-12.82,6.34-26.12-2.1-30.79-10.86A24.54,24.54,0,0,1-230.14,354c6.47-5.06,13.88-6.83,21.64-4,10.05,3.66,20.23,3.16,31.3,2.59,1.06-3.39,2.22-6.77,3.17-10.21,15.74-56.75,66.51-90.67,125.1-84.23,30.29,3.32,55.65,15.18,74.61,39.46C45.35,322.81,52.76,358.87,40.93,393.32Zm-49.79-42c-.3-17.08-8-33.2-21.22-40.11-21-11-42.82-12.58-63.88-.18-14.84,8.73-22.91,22.39-25.24,40.29ZM.06,466.35a13.45,13.45,0,0,0-14.21-13.43,13.7,13.7,0,0,0-13.57,14.2,14,14,0,0,0,14.34,13.56A13.69,13.69,0,0,0,.06,466.35Z" transform="translate(578 3.88)"/><path d="M206.65,449.51c16-.49,21.95-2.76,45.76-17.48,3.3,6.81,6.59,13.51,9.79,20.25s6.43,13.8,9.88,21.2c-19.75,13.85-41.25,20.66-66,22-.13,4.16-.33,8.33-.36,12.49-.06,6.67-.54,13.38.12,20,.79,7.9-3,12.52-9.17,16.2-8.89,5.28-18.66,4.9-26.11-1.14-4.1-3.32-6.41-7.24-6.27-12.85.31-11.62.09-23.26.09-35.18-2.7-.86-4.83-1.67-7-2.22-47.11-12-74-42-81.17-90.22-3.77-25.24-2-49.77,7.37-73.63C96,297.16,118.6,276.14,150.67,265c4.36-1.51,8.73-2.95,13.6-4.59,0-13.27.93-26.31-.28-39.16-1.07-11.47,6.61-17.3,17.35-20.88,7.8-2.6,19.06,2.5,22.91,10.24,1.25,2.51,1.32,5.76,1.35,8.69.14,12.27.06,24.55.06,37.82,23.88,1.68,45.5,8.25,64.9,23.36l-22.95,40.38c-12.17-9.64-24.87-16.42-40-17.24C205.4,310.7,204.56,430.85,206.65,449.51ZM163.44,443V311.5c-2.83,1.62-4.89,2.51-6.6,3.84a61.25,61.25,0,0,0-21.05,30.76c-6.06,19.14-6.39,38.62-1.9,58A80.76,80.76,0,0,0,142,424.31C146.54,432.55,153.38,438.76,163.44,443Zm82.69-155.57a13.63,13.63,0,0,0-13.78-14,14.08,14.08,0,0,0-13.94,14c.05,7.87,6,13.72,14,13.72C240.58,301.24,246.16,295.63,246.13,287.47Z" transform="translate(578 3.88)"/><path d="M629,490.65H575.67V478.48c0-69-.08-138,.12-207,0-6.78-1.44-11.48-6.93-16.23-14.8-12.79-18-34-8.81-51.05a42.45,42.45,0,0,1,47.6-21c18,4.35,31.46,21,32.13,40,.38,10.56-3.52,19.61-10.49,27.27-4,4.41-8.64,8.27-13.87,13.2l7.46,17c1.44-.16,2.27,0,2.65-.32,31.31-27.76,67-29.4,103.71-14.85,30.87,12.22,44,38.44,46.62,70.09,1.46,17.9,1.06,36,1.09,53.95,0,31-.21,62-.37,93,0,2.31-.28,4.62-.48,7.64h-53c-.16-3.31-.49-6.81-.5-10.31q0-58,0-116c0-12.05-1-23.92-4.48-35.55-3.43-11.47-10.84-19.08-22.06-22.61-23.45-7.38-44.1-1.6-61.9,14.68-2.65,2.43-3.9,6.76-4.94,10.45-.79,2.78-.24,5.95-.24,8.95q0,69,0,138Zm120.39-37.74c-8.12,0-13.69,5.61-13.69,13.81s5.77,14,13.64,14a13.89,13.89,0,0,0,13.94-13.92A13.6,13.6,0,0,0,749.39,452.91ZM587.94,368.66c.25,3.7.45,6.79.66,9.89h7.26C597.43,368,597.43,368,587.94,368.66ZM596,444.89l-8.1,1.44c.24,3.62.46,6.72.7,10.26l7.4-.4Zm10.16,12.05,8-1.42c-.24-3.65-.44-6.75-.67-10.28l-7.37.34Zm7.8-89.11-7.83.42v10.81l7.83-.46Zm-.31-47.89V308.13l-8.12,1c.27,4.25.48,7.68.69,11a38.55,38.55,0,0,0,4,.37A29.59,29.59,0,0,0,613.68,319.94Zm-17.56-11c-9.07-.28-9.17-.1-6.77,11h6.77Zm-7.43,96.25V416.6h7.36V405.23Zm25.64,31c-.19-4.19-.33-7.32-.49-10.73h-7.37v10.73Zm-26-1c8.82.85,8.82.85,7-10l-7.55.65C588,429.6,588.19,432.48,588.36,435.26Zm18.09-145.37V301l7.86-.74c-.17-3.73-.31-6.87-.47-10.32Zm-9.71,10.65c-.34-4.12-.61-7.28-.87-10.4-8.16.42-8.16.42-6.89,10.4Zm8.86,104.79c.23,4.54.4,7.94.58,11.7l7.56-.43V405.33Zm8.11-46V349.23h-7.42v10.06Zm-17.7,0V348.84l-8.09.82c.26,3.59.46,6.4.69,9.63ZM588.9,464.86c-1.12,11.12-1.12,11.12,7.59,9.39-.14-3-.28-6.11-.42-9.39Zm17.41.39v10h7.38v-10ZM597,397c-.28-4-.48-6.81-.73-10.35l-8.31.74c.24,3.59.43,6.4.64,9.61Zm16.77-57.5v-10.8l-8.12.57c.21,3.85.38,6.93.56,10.23ZM587.93,329c.27,4,.46,6.81.69,10.34l8.36-.71c-.26-3.61-.46-6.43-.68-9.63ZM614.4,397c-.25-4-.42-6.86-.64-10.41l-8.14.73c.22,3.63.4,6.47.6,9.68Z" transform="translate(578 3.88)"/><path d="M1336.25,496.83c-10.52-1.47-21.25-2.08-31.52-4.57-32.66-7.94-55.49-27.69-67.9-59.1-13.74-34.81-14.91-70-2.46-105.39,14.7-41.79,50.69-68.78,95-70.17a163.68,163.68,0,0,1,38.64,3.3c35.34,7.47,59.64,28.71,71.27,63,10.86,32,11.89,64.67,2.51,97.26-12.63,43.84-46.92,71.09-92.45,74.14-4.32.29-8.64.55-12.95.82C1336.34,496.34,1336.29,496.59,1336.25,496.83ZM1282,382c1.43,8,2.54,21.77,6.43,34.69,9.4,31.18,42.79,44.24,71.6,29,12.76-6.73,20.93-17.33,25.53-30.69,9.09-26.46,8.2-53.16-.27-79.41-5.41-16.76-16.88-28.49-34.62-32.82-24.34-5.95-48.17,5.39-59,28C1284.82,345.2,1282.77,360.63,1282,382Zm71.19-101.83c-.25-7.84-6.35-13.54-14.33-13.39s-13.51,6-13.32,14.16a13.61,13.61,0,0,0,14.1,13.58A14,14,0,0,0,1353.21,280.13Z" transform="translate(578 3.88)"/><path d="M1085,443.33l-38.6,47.15c1.93.8,4.32,1.61,6.56,2.76,8.92,4.56,13.2,14.37,10.37,23.52a20.24,20.24,0,0,1-20.62,14.15c-10-.82-16.82-7.76-17.74-18.31-.23-2.58,0-5.2,0-7.89l-55.87,16.58c.92,1.8,2.29,4.24,3.45,6.78a19.83,19.83,0,0,1-32.19,22.23c-5.72-5.87-7-12.71-3.75-20.21,1.44-3.3,3.4-6.36,4.89-9.1l-53.35-16.54c0,2.19.13,5.08,0,8a19.65,19.65,0,0,1-16.77,18.35A20,20,0,0,1,849.6,517c-3.12-9.44.3-17.84,9.38-22.64,2.86-1.51,5.91-2.67,10-4.5a151,151,0,0,1-39.7-48.56c-3.06,2.86-5.56,5.45-8.33,7.72-6.83,5.6-15.11,6.05-22.2,1.41a20,20,0,0,1-8.4-21.84,18.48,18.48,0,0,1,17.35-14c3.28-.17,6.58,0,9.78,0-.82-14.94-3-30.1-2.08-45.07.88-14.72,4.85-29.26,7.59-44.58-1.71.29-3.83.73-6,1-10.3,1.41-19.44-4.48-22.22-14.28a19.58,19.58,0,0,1,11-23.2c9.49-4.37,19.32-1.25,25,8,1.2,2,2.1,4.1,3.74,7.35,6.26-7.56,11.94-14.61,17.83-21.48S864.1,269,869.73,262.64c-13.91-7.57-18.73-16-14.64-27.11,3.39-9.16,12.35-14.21,22.42-12.62,11.25,1.78,15.84,9.52,15.81,26.74l48.32-13.87c-1.21-2.12-2.62-4.48-3.93-6.9-4.89-9-3.42-18,3.9-24.37a19.57,19.57,0,0,1,25.65-.32c7.46,6,9.15,15.07,4.48,24.27-1.17,2.31-2.52,4.52-3.81,6.82l51.6,14c-.28-7.51-1.14-15.6,5.68-20.92a26.5,26.5,0,0,1,11.4-5.39,19,19,0,0,1,21.2,12.85c3.78,11.17-.81,19.17-14.42,26.38,5.52,6.38,11.36,13,17.06,19.74s11.38,13.7,17.53,21.11c2-3.41,3.36-6.39,5.32-8.88a19.8,19.8,0,0,1,26.88-4,20,20,0,0,1,5.52,26.68,16.7,16.7,0,0,1-14.85,8.6c-3.63,0-7.26-.41-10.84-.64,2.71,14.9,6.74,29.59,7.68,44.48s-1.26,29.7-2.14,45.61c5.91-1.45,13.11-2.54,18.42,3,3.37,3.49,6.69,7.57,8.35,12,2.91,7.78-1.48,16.5-9.32,21C1104,456.12,1097.14,454.25,1085,443.33ZM955.32,505.16c71.88,1.27,128.79-58.2,128.81-126.61,0-71.43-56.66-128.86-127.73-129.19a127.9,127.9,0,1,0-1.08,255.8Zm8.42-284.82c.17-5.17-3.23-8.9-8.27-9.09s-8.87,3.23-9.06,8.29c-.2,5.21,3.14,8.87,8.26,9.05S963.58,225.44,963.74,220.34Zm-146,213.71c-.17-5.2-3.79-8.7-8.85-8.56a8.57,8.57,0,0,0-8.48,9c.11,5.29,3.47,8.43,8.91,8.3S817.93,439.37,817.76,434.05Zm235.71,77.64c0-5.22-3.4-8.67-8.62-8.71s-8.69,3.2-8.73,8.48,3.25,8.7,8.51,8.74A8.41,8.41,0,0,0,1053.47,511.69ZM813.07,315.26c5.8.2,8.89-2.61,9-8.13s-2.93-8.66-8.54-8.63c-5.16,0-8.23,2.79-8.55,7.71C804.6,311.77,807.57,315.08,813.07,315.26Zm226-64.13c5.81.17,8.86-2.64,8.89-8.2s-3.16-8.74-8.62-8.66c-5,.06-8.26,3.11-8.54,7.9C1030.49,247.61,1033.59,251,1039.09,251.13Zm73,182.89c-.17-5.39-3.78-8.85-8.91-8.51s-8.32,4.15-8,9.51c.34,5.18,3.19,7.81,8.41,7.76C1109.24,442.73,1112.28,439.58,1112.11,434Zm-239-182.89c5.65.09,8.83-2.93,8.8-8.38s-3.43-8.61-8.86-8.49c-5,.12-8.11,3.14-8.33,8.06C864.46,247.8,867.55,251.05,873.1,251.13ZM859.67,512c.17,5.46,3.55,8.5,9.05,8.13,5-.34,7.74-3.33,7.75-8.52,0-5.59-3.11-8.7-8.63-8.61S859.5,506.23,859.67,512Zm95.16,33.4c5.59.1,8.93-3,8.9-8.37s-3.47-8.58-8.92-8.46c-5,.1-8.16,3.09-8.4,8C946.14,541.91,949.36,545.3,954.83,545.41Zm144.11-230.13c5.74.1,8.92-2.87,8.91-8.32,0-5.14-2.77-8.14-7.79-8.45-5.56-.33-9.29,2.73-9.54,7.84C1090.26,311.68,1093.56,315.18,1098.94,315.28Z" transform="translate(578 3.88)"/><path d="M1188.33,163.3v10.35q.14,117.87.3,235.75c0,7,.49,14,.88,20.94,1,17.78,5.38,33.72,24,41.43-5.38,12.93-15.34,19.08-27.23,22.54a50,50,0,0,1-26.68,0c-10.51-2.71-18-9.41-20.14-20-2.46-12.33-4.8-24.94-4.88-37.44-.46-69.59-.21-139.19-.23-208.78,0-14.65-.18-29.3-.12-43.95,0-8.22.64-8.9,8.57-10.81q19.89-4.78,39.82-9.37C1184.14,163.59,1185.75,163.58,1188.33,163.3Z" transform="translate(578 3.88)"/><path d="M1099.41,66.4l-30.14-35.6c43-46.31,142.9-49.08,191.74,9-11.1,10.75-22.26,21.56-33.76,32.68C1186.52,37.58,1144.21,35,1099.41,66.4Z" transform="translate(578 3.88)"/><path d="M86.15,692.76c3.76,1.73,6.73,3,9.59,4.43,16.08,8.18,17.47,24,3,35-8,6.09-17.29,8.66-27.08,8.79-24.6.34-49.22.27-73.83.25a16.49,16.49,0,0,1-6.73-1.42c-4.54-2.11-5.24-6.74-.85-9.1,6.28-3.39,7.88-8.55,8.19-14.8C-.89,703-.34,690,.35,677.09c.3-5.7-1.94-9.34-7.4-11.52-2-.83-3.38-3.46-5-5.28A70.84,70.84,0,0,1-5.79,655c1-.65,2.58-.49,3.9-.49,24.27,0,48.54-.06,72.8.35a43.12,43.12,0,0,1,15.44,3.37c14.41,6,16.39,19.65,4.74,30C89.69,689.41,88.34,690.72,86.15,692.76Zm-45.53,21.8c.11,1.07.22,3.4.64,5.67,1.13,6.21,3.32,7.92,9.39,7.58s9.8-3.16,11-8.27c1.4-6.21-1.48-12.5-6.88-15C45.8,700.31,40.57,703.57,40.62,714.56Zm0-35.55c0,1,0,2,0,3,.14,3.29-.27,7.78,3.78,8.09a16.06,16.06,0,0,0,10.69-3.34c4.45-3.78,3.72-13.6-1.15-17a15.06,15.06,0,0,0-10-2.11c-1.45.23-2.36,4.73-3.22,7.38C40.29,676.25,40.62,677.68,40.61,679Z" transform="translate(578 3.88)"/><path d="M-146,693.39c0-3.65-.19-7.32,0-11,.42-6.69-.58-12-7.43-15.84-5.94-3.29-4.89-8,1.67-10.64a26.3,26.3,0,0,1,5.81-1.28,142.25,142.25,0,0,1,43.74.13,20.82,20.82,0,0,1,7.47,2.41c3.86,2.35,4.1,7.46,0,8.63-10.12,2.94-9.65,10.37-9.55,18.21.08,6.32-.42,12.65-.33,19,.15,9.92,4.12,15.55,13.47,18.63a38.48,38.48,0,0,0,25.44-.46c7-2.51,11-7.6,11.15-15,.16-10-.29-20-.47-29.92-.1-5.17-2.17-8.63-7.38-10.56-2.38-.88-5.62-3.54-5.75-5.56-.25-4,3.82-4.81,7.14-5.43,12.23-2.3,24.51-2.54,36.63.33,2.41.57,4.27,3.41,6.39,5.2-1.71,1.78-3.11,4.33-5.2,5.21-5.61,2.35-6.86,6.52-6.78,12,.14,9.31.06,18.63-.14,27.95-.38,17.09-6.26,25.71-22.55,31.31-23,7.92-46.35,8-69.58.6a56.37,56.37,0,0,1-11.68-5.51c-7.64-4.59-12-11.41-12.29-20.46-.19-6,0-12,0-18Z" transform="translate(578 3.88)"/><path d="M-326,652.17c6.55,1,13.2,1.65,19.62,3.22s12.58,3.53,19.52,2.94c7.78-.67,11.86,5.17,14.62,11.52,2.47,5.68,3.65,11.8-.83,17a15.27,15.27,0,0,1-17.26,4.75c-4-1.46-7.68-5-10.56-8.44C-308.61,674-318.4,670.25-330,671c-11.28.67-17.44,8-16.59,19.29,1.11,14.7,13.1,27,28.65,28.69,11.08,1.24,22,.52,31.87-5.53,3.32-2,6.67-3.35,10.05-.25,3.61,3.31,2.91,7.32,1,11-2.86,5.42-6.72,9.78-13.32,11A142.92,142.92,0,0,0-302.86,739c-20.36,6.11-40.32,4.38-59.4-4.32a60.59,60.59,0,0,1-18.37-13.37c-14.24-15.08-13.4-34.38,1.53-48.91,12.48-12.15,28.13-17.31,45.05-19.24a70.78,70.78,0,0,1,8,0Z" transform="translate(578 3.88)"/><path d="M1837.16,266h-18.4c-.79-3.32-1.82-6.73-2.38-10.22-12.58-77.8-76.18-139.2-154.18-148.85-7.86-1-15.69-2.21-23.73-3.35V86.89c48.51-.79,90.22,15.55,127.08,45.41C1810.58,168.78,1835.17,222.18,1837.16,266Z" transform="translate(578 3.88)"/><path d="M-264,734.83c1.69-1.44,2.76-3.09,4.14-3.41,9.17-2.16,10.63-8.62,10.3-16.73-.48-11.65-.67-23.33-.49-35,.09-6.63-2-10.78-8.88-12.25-2.4-.51-4.56-2.19-6.62-3.22.11-6.2,4.33-7.47,8-8.3,18.13-4,36.37-3.69,54.6-.58a10.32,10.32,0,0,1,3.65,1.56c4.11,2.62,4.43,7.07,0,8.25-10.6,2.85-10.2,10.73-10.17,18.84,0,9.66-.25,19.34.13,29,.45,11.3,3.51,14,14.81,13.88,9.47-.09,18-2.2,22.22-12,1.52-3.51,4.05-5.87,7.66-4.73,2.91.93,6.39,2.9,7.75,5.42,5.21,9.65-6.61,27.09-17.64,26.83-25.3-.59-50.61-1-75.91-1.58C-255.29,740.72-260.54,741.39-264,734.83Z" transform="translate(578 3.88)"/><path d="M1214.72,84c-4.19,5.28-8.13,10.2-12,15.16-1,1.31-1.83,2.79-2.69,4.11-28.08-24-46.54-24.08-75.71-5-4.91-6.33-9.87-12.75-14.74-19C1135.94,49.22,1193.53,52.93,1214.72,84Z" transform="translate(578 3.88)"/><path d="M340.86,104.94a24.78,24.78,0,0,1-.63-49.56c13.34-.21,24.85,11,25.09,24.49S354.34,104.72,340.86,104.94Zm-.5-35.88c-6.56.21-11.22,5.2-10.78,11.54a11.39,11.39,0,0,0,12,10.6,11.22,11.22,0,0,0,10.19-12.29C351.32,72.91,346.64,68.87,340.36,69.06Z" transform="translate(578 3.88)"/><path d="M341,161.08a24.72,24.72,0,0,1-.86-49.43c13.39-.29,24.86,10.79,25.2,24.33C365.66,149.35,354.48,160.88,341,161.08ZM351.79,137c0-6.63-4.67-11-11.51-10.76-6.19.2-10.69,4.66-10.73,10.64,0,6.2,5.28,11.78,11.1,11.65A11.2,11.2,0,0,0,351.79,137Z" transform="translate(578 3.88)"/><path d="M1184.42,133.36c-.2,13.89-11.16,24.34-25.21,24-13.87-.3-24.17-11.33-23.77-25.45.39-13.51,11-23.6,24.68-23.51C1174.13,108.53,1184.62,119.28,1184.42,133.36Zm-24.61-10.62c-6.13.17-11,4.72-11.15,10.38-.15,6.23,6,12.2,12.13,11.8a11.46,11.46,0,0,0,10.36-12.28C1170.72,126.5,1166.2,122.56,1159.81,122.74Z" transform="translate(578 3.88)"/><path d="M1335.31,421.12c-23.59-.22-42-19.27-41.63-43.18.32-23.23,19.07-41.4,42.52-41.22a42.2,42.2,0,1,1-.89,84.4Z" transform="translate(578 3.88)"/><path d="M952.78,257c12.15,1.61,24.6,2,36.38,5,37.65,9.69,60.33,35,70.43,71.8a159.58,159.58,0,0,1,.48,82.94c-11.7,45.77-45.24,74.2-92.32,78.05-15,1.23-30,1.12-44.69-2.5-29.21-7.2-51.35-24-64.33-51-18.81-39.15-20.56-79.77-3.81-120,13.68-32.83,38.76-53.44,73.83-61.17a75.86,75.86,0,0,1,11.87-1.39c4-.23,8-.05,12-.05C952.66,258.13,952.72,257.55,952.78,257Zm-52.86,122.6c.27,12.27,1.6,27.8,7.74,42.54s16.9,25.14,32.68,28.15c26.46,5,50.8-3,62.07-32.3,11-28.69,9-57.54-.2-86.1-4.33-13.41-14.21-22.3-27.36-27.33a52,52,0,0,0-65.81,26C902.1,344.9,899.64,360.26,899.92,379.57Z" transform="translate(578 3.88)"/></svg>