<svg id="Layer_1" data-name="Layer 1" xmlns="http://www.w3.org/2000/svg" viewBox="0 0 733.39 733.39"><defs><style>.cls-1{fill:#000001;}.cls-2{fill:#feffff;}.cls-3{fill:#fff;}.cls-4{fill:#fcfdfd;}.cls-5{fill:#fdfefe;}.cls-6{fill:#fd2c07;}.cls-7{fill:#fbfcfc;}.cls-8{fill:#fafbfb;}.cls-9{fill:#010102;}.cls-10{fill:#030304;}.cls-11{fill:#040405;}</style></defs><title>TEDx Logo</title><circle class="cls-1" cx="366.69" cy="366.69" r="366.69"/><path class="cls-2" d="M693.91,444c2.8,0,2.8,0,2.8,2.8v.43c0,2.8,0,2.85,2.75,2.86,1.11,0,1.59.32,1.45,1.45a6.18,6.18,0,0,0,0,1.29c.08.82-.26,1.12-1.1,1.14s-2.22-.48-2.85.28-.21,2.06-.23,3.12c0,2.21,0,4.43,0,6.64,0,2,.44,2.39,2.38,2.46a4.84,4.84,0,0,0,.85,0c.81-.11,1,.33.95,1a1.47,1.47,0,0,0,0,.21c-.15,3.37.92,3.3-3.29,3.38a13.64,13.64,0,0,1-2.77-.29c-2.62-.51-3.76-1.87-3.8-4.63,0-3.43,0-6.86,0-10.29,0-1.84.23-1.91-1.83-1.9-1.53,0-1.53,0-1.56-1.48,0-.43,0-.86,0-1.29,0-.68.18-1.1,1-1,.35,0,.72,0,1.07,0,1.19.17,1.45-.43,1.39-1.48s0-2.29,0-3.43c-.06-.91.22-1.33,1.19-1.23A16.24,16.24,0,0,0,693.91,444Z" transform="translate(-274.76 -17.31)"/><path class="cls-3" d="M775.79,397.38c-10.43,3-16.9.43-22.58-9.08-15.29-25.6-31.9-50.44-49.28-77.6v87H689.46v-107c11-3.13,18.28-1.14,24.31,9.29,14.72,25.46,30.85,50.15,48.16,74.85V290.1h13.86Z" transform="translate(-274.76 -17.31)"/><path class="cls-3" d="M957.93,289.84h14.5v20c0,16.29-.06,32.58,0,48.88.1,15.73-4.56,29.63-19.42,37.11-16.58,8.35-34.1,8.14-50.52-1.08-11.86-6.67-16.22-18.42-16.55-30.94-.65-24.22-.19-48.46-.19-73.45h13.9c.16,3.08.49,6.43.49,9.77.05,19.17-.44,38.36.13,57.51.7,23.59,16,35.09,38.05,29.4,12.39-3.2,19.1-11.79,19.39-26.47.4-20.12.15-40.26.18-60.38C957.94,297,957.93,293.89,957.93,289.84Z" transform="translate(-274.76 -17.31)"/><path class="cls-3" d="M870.49,290.17v12.32H832.92v95.19H819.05V302.83H781.76V290.17Z" transform="translate(-274.76 -17.31)"/><path class="cls-4" d="M566.38,456.53c0-4,0-8,0-12,0-2.5-.12-2.11,2.22-2.12q5,0,10.08,0c7,0,11.62,3.89,12.68,10.85a18.82,18.82,0,0,1-1,10.12,11,11,0,0,1-10.14,7.36c-4.2.25-8.43.06-12.65.14-1.18,0-1.22-.58-1.22-1.46C566.39,465.11,566.38,460.82,566.38,456.53Z" transform="translate(-274.76 -17.31)"/><path class="cls-2" d="M542.15,456.58c0-4.23,0-8.45,0-12.67,0-1.49,0-1.52,1.53-1.52h18.25c1.54,0,1.55,0,1.57,1.49,0,.85,0,1.72,0,2.57s-.36,1.21-1.25,1.21c-3.72,0-7.44,0-11.16,0-.5,0-1,0-1.5,0-.82-.07-1.19.23-1.14,1.08.09,1.56-.6,3.51.26,4.58s2.81.3,4.28.34c2.58.06,5.15.05,7.73,0,1,0,1.53.15,1.54,1.37.06,3.66.12,3.66-3.54,3.66-2.94,0-5.87,0-8.8,0-1,0-1.59.15-1.49,1.37s0,2.72,0,4.08,0,1.46,1.58,1.47h12c1.8,0,1.74-.13,1.68,1.78,0,1.11.54,2.51-.3,3.26s-2.05.21-3.11.21q-8.05,0-16.1,0c-2.49,0-2.1.15-2.11-2.23C542.14,464.59,542.15,460.58,542.15,456.58Z" transform="translate(-274.76 -17.31)"/><path class="cls-2" d="M380.16,452.29c.52-.69,0-1.44.63-2,1.5-.07,3.51-.67,4.65.2s.36,2.94.38,4.47c.05,4.8,0,9.59,0,14.38,0,5.6-3,8.79-8.56,9.23a13.56,13.56,0,0,1-7.15-.93,6.3,6.3,0,0,1-4-5.46,44.19,44.19,0,0,1,4.72-.13c.7,0,1,.36,1.27.9,1.19,2,3.14,2,5.11,1.72,1.71-.27,2.79-1.63,3.09-3.65a13.66,13.66,0,0,0,.13-1.92,1.58,1.58,0,0,0-.34-1.36,8.11,8.11,0,0,1-3.27,2.16c-4,1.18-9.25-.08-10.83-5.7a13.32,13.32,0,0,1,.55-9.62c1.94-4.05,5.57-5.46,9.82-4.67C377.68,450.11,378.45,450.67,380.16,452.29Z" transform="translate(-274.76 -17.31)"/><path class="cls-2" d="M432.72,437l-.13-1.88a.58.58,0,0,0-.59.17,8.41,8.41,0,0,1-13.08-1.87,13,13,0,0,1-.28-13.12,8.37,8.37,0,0,1,12.83-2.56c.21.17.34.46.92.39v-6.49c0-.65,0-1.29,0-1.93s.16-1.21,1.06-1.17c1.21.06,2.43,0,3.64,0,.7,0,1.09.21,1,1,0,.29,0,.58,0,.86v24.89c0,1.74.15,1.75-1.77,1.73C435.21,437,434.08,437,432.72,437Z" transform="translate(-274.76 -17.31)"/><path class="cls-2" d="M498.67,451.93c0-2.73.06-5.45,0-8.17,0-1.17.4-1.48,1.48-1.39a21.45,21.45,0,0,0,3,0c.88-.05,1.35.2,1.25,1.18-.06.64,0,1.29,0,1.93v23.61c0,1.84.14,1.75-1.73,1.74H500.7c-1.72,0-1.72,0-2-2a8.38,8.38,0,0,1-5,2.52,8.5,8.5,0,0,1-9.15-5.26,13.34,13.34,0,0,1,0-11.24c2.47-5.45,8.74-6.86,13.39-3.06A.62.62,0,0,0,498.67,451.93Z" transform="translate(-274.76 -17.31)"/><path class="cls-2" d="M469.16,418.56a8.74,8.74,0,0,1,14.78,3.89,14.06,14.06,0,0,1-.54,10A8.31,8.31,0,0,1,470,435.4c-.16-.13-.34-.22-.8-.52v2.22c0,1.71,0,3.43,0,5.14,0,2.35.22,2.07-2.05,2.05-1.13,0-2.57.5-3.31-.22s-.3-2.29-.3-3.48c0-7.36,0-14.71,0-22.07,0-2.29-.21-2.12,2-2.12h1.5C468.94,416.41,468.94,416.41,469.16,418.56Z" transform="translate(-274.76 -17.31)"/><path class="cls-2" d="M546.41,418.44c0-3,0-5.67,0-8.37,0-1,.18-1.62,1.39-1.49s3-.53,3.94.25.32,2.55.33,3.88c0,7.44,0,14.88,0,22.32,0,2.3.27,2-2.09,2h-1.29c-1.88,0-1.88,0-2.09-1.86-.24-.18-.4,0-.55.12a8.45,8.45,0,0,1-13.22-2,13.14,13.14,0,0,1-.41-12.57c2.51-5.27,8.83-6.47,13.34-2.67A5.46,5.46,0,0,0,546.41,418.44Z" transform="translate(-274.76 -17.31)"/><path class="cls-2" d="M388.54,456.59a6.52,6.52,0,0,1,5-6.28,16.94,16.94,0,0,1,9.52-.06c2.9.8,4.17,2.6,4.2,5.68,0,2.07,0,4.14,0,6.21,0,2.84-.24,5.7.54,8.69-1.7,0-3.27-.08-4.82,0-1.25.09-.74-1.25-1.5-1.58a10.55,10.55,0,0,1-8.27,2c-3.11-.43-5.08-2.4-5.31-5.25-.27-3.48,1-5.44,4.27-6.48a22.69,22.69,0,0,1,4.41-.81,25.62,25.62,0,0,0,3.37-.62,1.9,1.9,0,0,0,1.6-2,2.36,2.36,0,0,0-1.57-2.33,4.21,4.21,0,0,0-5.64,2.19c-.29.62-.66.64-1.16.65Z" transform="translate(-274.76 -17.31)"/><path class="cls-2" d="M560.25,428.33c.2,2.18.83,4,3,4.63s4.44.45,6-1.56a1.73,1.73,0,0,1,1.58-.81c1.2.05,2.41,0,3.84,0-1.08,3.58-3.2,5.85-6.69,6.69a12,12,0,0,1-6,0,9.5,9.5,0,0,1-7.22-7.66c-1.23-5.43,1.1-10.75,5.74-12.8,4.85-2.16,12.39-1.11,14.2,7.15.91,4.12.88,4.13-3.24,4.13-3,0-6,0-9,0A4.58,4.58,0,0,0,560.25,428.33Z" transform="translate(-274.76 -17.31)"/><path class="cls-2" d="M460.69,430.6c-1.13,3.62-3.23,5.83-6.63,6.67a12.36,12.36,0,0,1-6.16,0c-4.55-1.18-7.33-5.09-7.41-10.33s3.07-9.73,8.05-10.74c8.7-1.77,12.75,4.88,12.54,11.17,0,.73-.46.76-1,.76h-6.87c-1.93,0-3.86,0-5.79,0-1,0-1.23.42-1.06,1.3a4.21,4.21,0,0,0,2.73,3.57c1.91.61,4.11.74,5.42-.86s2.74-1.45,4.34-1.47Z" transform="translate(-274.76 -17.31)"/><path class="cls-2" d="M620.74,416.47h5.86a22.28,22.28,0,0,1,1.85,5c.88,2.49,1.69,5,2.52,7.51.11.33.11.73.71.93q1.2-3.78,2.41-7.58c.11-.34.22-.68.35-1,.59-1.59.5-3.8,1.82-4.64s3.47-.17,5.18-.28c.5.58.1,1-.06,1.43q-4,10.76-8,21.49c-1.42,3.79-3.21,5-7.31,5s-3.31.42-3.38-3.43c0-1.35,0-1.35,1.43-1.31,3.81.1,4.74-1.22,3.39-4.83-2-5.49-4.12-11-6.17-16.45C621.18,417.73,621,417.2,620.74,416.47Z" transform="translate(-274.76 -17.31)"/><path class="cls-2" d="M481.35,464.39c-1.15,3.53-3.14,5.76-6.46,6.63a12.39,12.39,0,0,1-6.37,0c-4.51-1.2-7.24-4.92-7.33-10.13-.16-8.44,6.88-12.77,13.74-10.72,4,1.2,5.91,4.3,6.61,8.21.62,3.5.55,3.51-3,3.51s-6.86,0-10.29,0c-1.35,0-1.48.21-1.22,1.49a4.91,4.91,0,0,0,8.11,2.47,4.82,4.82,0,0,1,4.14-1.45C479.86,464.41,480.44,464.39,481.35,464.39Z" transform="translate(-274.76 -17.31)"/><path class="cls-2" d="M664.3,464.39c-1.19,3.74-3.37,6-6.88,6.74a12.48,12.48,0,0,1-5.54,0,9.14,9.14,0,0,1-6.71-5.47,12.47,12.47,0,0,1-.26-9.41c1.63-4.53,6-7,11.14-6.5,4.36.43,7.76,3.9,8.47,8.67.52,3.48.52,3.48-3,3.48s-6.86,0-10.29,0c-1.32,0-1.47.23-1.18,1.52a4.92,4.92,0,0,0,8.13,2.43,4.84,4.84,0,0,1,4.13-1.44C662.85,464.41,663.41,464.39,664.3,464.39Z" transform="translate(-274.76 -17.31)"/><path class="cls-2" d="M609.51,461.87c.11,2.41.8,4.19,2.91,4.87s4.23.57,5.74-1.21a3,3,0,0,1,2.73-1.15c.92.05,1.83,0,2.76,0a8.16,8.16,0,0,1-6.45,6.71,12.83,12.83,0,0,1-5.75,0,9.18,9.18,0,0,1-6.76-5.71,12.47,12.47,0,0,1-.13-9.21c1.66-4.52,6-7,11.17-6.44,4.28.44,7.64,3.85,8.39,8.5.59,3.64.59,3.64-3,3.64Z" transform="translate(-274.76 -17.31)"/><path class="cls-2" d="M506.25,430.6c-1.06,3.54-3.1,5.74-6.39,6.62a12.14,12.14,0,0,1-6.36,0A9.22,9.22,0,0,1,487,431.5a12.65,12.65,0,0,1-.43-8c1.73-6.66,8.42-9,13.89-7,3.54,1.32,5.26,4.22,6,7.78.05.21.05.43.08.64.4,3.12.4,3.12-2.8,3.12s-6.43,0-9.65,0a4.08,4.08,0,0,0-2.16.23c0,2,.57,3.7,2.55,4.49s4.27.84,5.79-.86A4,4,0,0,1,504,430.6C504.63,430.63,505.27,430.6,506.25,430.6Z" transform="translate(-274.76 -17.31)"/><path class="cls-2" d="M528.11,442.38c3.43,0,6.86,0,10.29,0,1,0,1.44.24,1.36,1.3s0,2,0,3c0,.75-.3,1-1,1-1.71,0-3.43,0-5.14,0-2.47,0-2.34-.4-2.34,2.24,0,5.78,0,11.57,0,17.36,0,1.12.5,2.53-.26,3.3s-2.17.25-3.3.27c-2.74,0-2.74,0-2.74-2.65q0-9.42,0-18.86c0-1.63,0-1.65-1.62-1.66-1.85,0-3.71,0-5.57,0-1,0-1.48-.18-1.37-1.29a16.25,16.25,0,0,0,0-2.79c-.06-.94.32-1.22,1.23-1.21C521.1,442.41,524.61,442.38,528.11,442.38Z" transform="translate(-274.76 -17.31)"/><path class="cls-2" d="M338.79,449.69c6.43,0,10.54,4.32,10.51,10.95S345,471.42,338.55,471.4,327.89,467,327.9,460.52,332.18,449.65,338.79,449.69Z" transform="translate(-274.76 -17.31)"/><path class="cls-5" d="M672.72,452.88a8.13,8.13,0,0,1,7.42-3.2c3.63.26,5.81,2.22,6.24,5.85a40.62,40.62,0,0,1,.15,4.28c0,3.14,0,6.29,0,9.43,0,1.77,0,1.6-1.66,1.59-.86,0-1.72-.05-2.58,0-1.07.08-1.5-.23-1.47-1.42.08-3.28,0-6.57,0-9.86a9.86,9.86,0,0,0-.24-2.76,3.13,3.13,0,0,0-3-2.65,3.86,3.86,0,0,0-4.1,2.09,5.83,5.83,0,0,0-.54,2.5q-.07,5.14-.11,10.29c0,1.8.11,1.85-1.71,1.79-1.27-.05-2.88.53-3.72-.27s-.29-2.43-.29-3.7c0-5,0-10,0-15,0-1.63,0-1.63,1.62-1.66h1.5C672.57,450.19,672.57,450.19,672.72,452.88Z" transform="translate(-274.76 -17.31)"/><path class="cls-2" d="M514.69,419.09a8.19,8.19,0,0,1,7.67-3.18,6,6,0,0,1,5.95,5.44,12.66,12.66,0,0,1,.17,2.13c0,4.08,0,8.16,0,12.23,0,1-.22,1.44-1.3,1.35a21.5,21.5,0,0,0-3.21,0c-1,.05-1.21-.35-1.2-1.26,0-3.36,0-6.72,0-10.08a9.58,9.58,0,0,0-.25-2.77,3.13,3.13,0,0,0-3-2.58,3.84,3.84,0,0,0-4,2,7.6,7.6,0,0,0-.63,3.55c0,3.15,0,6.3,0,9.44,0,1.7,0,1.7-1.79,1.72h-2.36c-1.63,0-1.65,0-1.66-1.62,0-4.22,0-8.44,0-12.66,0-1.72,0-3.43,0-5.15,0-.94.33-1.29,1.25-1.22.64.05,1.28,0,1.93,0C514.53,416.4,514.53,416.4,514.69,419.09Z" transform="translate(-274.76 -17.31)"/><path class="cls-5" d="M416.35,452.82a8.2,8.2,0,0,1,7.22-3.15c3.83.23,6.1,2.26,6.44,6.11.17,1.84.13,3.71.15,5.57,0,2.78,0,5.57,0,8.36,0,.78-.16,1.2-1.06,1.14s-2,0-3,0c-1.63,0-1.65,0-1.66-1.6,0-3.28,0-6.57,0-9.86a11.61,11.61,0,0,0-.12-2.13c-.36-2-1.43-3-3.27-3.09a3.74,3.74,0,0,0-4.13,2.68,12.18,12.18,0,0,0-.41,3.61c0,2.79,0,5.57,0,8.36a3.55,3.55,0,0,1-.28,2c-1.41,0-2.91,0-4.4,0-.88,0-1.07-.39-1.05-1.17,0-1.57,0-3.14,0-4.72,0-4.43,0-8.86,0-13.29,0-1.06.23-1.62,1.41-1.49a15.54,15.54,0,0,0,1.93,0C416.19,450.19,416.19,450.19,416.35,452.82Z" transform="translate(-274.76 -17.31)"/><path class="cls-2" d="M583,416.4v2.15c.51.28.7-.09.92-.33,2.27-2.39,5.1-2.7,8.12-2.1a5.59,5.59,0,0,1,4.58,4.56,14.2,14.2,0,0,1,.36,3c.05,4,0,8,0,12,0,1-.24,1.46-1.31,1.38-.92-.08-1.86,0-2.79,0-1.64,0-1.66,0-1.67-1.62,0-3.15,0-6.3,0-9.45a16.83,16.83,0,0,0-.14-2.56,3.14,3.14,0,0,0-2.85-3,3.89,3.89,0,0,0-4.3,2.1,7.84,7.84,0,0,0-.6,3.35q0,4.83,0,9.66c0,1.5,0,1.56-1.53,1.51-1.33,0-3,.61-3.9-.3s-.23-2.45-.23-3.73q0-7.51,0-15c0-1.54,0-1.55,1.5-1.57C580.34,416.38,581.56,416.4,583,416.4Z" transform="translate(-274.76 -17.31)"/><path class="cls-2" d="M400.91,418.75a8.29,8.29,0,0,1,7.56-2.83c3.2.34,5.08,2,5.74,5.13a12.2,12.2,0,0,1,.31,2.33c0,4.08,0,8.15,0,12.23,0,1.13-.32,1.55-1.44,1.44-1.34-.12-3,.54-3.94-.26s-.27-2.56-.3-3.89c-.06-2.28,0-4.57,0-6.86a15.61,15.61,0,0,0-.22-2.56c-.36-2.09-1.32-3-3.19-3.12A3.74,3.74,0,0,0,401.3,423a9.92,9.92,0,0,0-.44,3.17c0,3.22,0,6.44,0,9.65,0,.95-.32,1.26-1.23,1.2s-1.86,0-2.79,0c-1.63,0-1.65,0-1.66-1.59,0-4.15,0-8.3,0-12.45,0-1.78,0-3.57,0-5.36,0-.88.21-1.34,1.19-1.26.78.07,1.57,0,2.36,0,1.67,0,1.66,0,1.89,1.64A3.53,3.53,0,0,0,400.91,418.75Z" transform="translate(-274.76 -17.31)"/><path class="cls-2" d="M451.71,454.48c-3.12,0-5.74,0-8.35,0-1.47,0-1.47,0-1.52-1.54v-.43c0-2.75-.11-2.3,2.27-2.31,4.5,0,9,0,13.5,0,1.59,0,1.51,0,1.65,1.66a5.45,5.45,0,0,1-1.66,4.58c-2.49,2.55-4.78,5.31-7.15,8-.5.58-1,1.17-1.77,2.1h6.24c1.28,0,2.57,0,3.86,0,.89,0,1.28.24,1.26,1.21-.1,3.86.46,3.08-3,3.12-4.85.05-9.71,0-14.57,0-1,0-1.43-.2-1.5-1.38a6.27,6.27,0,0,1,1.9-5.15C445.83,461.29,448.54,458.06,451.71,454.48Z" transform="translate(-274.76 -17.31)"/><path class="cls-6" d="M327.9,437c2.33-3.41,4.34-6.35,6.34-9.3,1.1-1.62,1.26-1.24,0-3.13-1.49-2.17-3-4.34-4.51-6.52-.3-.45-.79-.83-.71-1.68,1.75,0,3.51,0,5.27,0,.78,0,1.13.48,1.49,1l2.91,4.31c.94-1.39,1.81-2.5,2.47-3.73a2.85,2.85,0,0,1,3.12-1.62c1.27.11,2.55,0,3.85,0,.11,1-.55,1.41-.93,2-1.49,2.19-3,4.37-4.56,6.49a1.77,1.77,0,0,0,0,2.45c2.21,3.07,4.34,6.2,6.64,9.51a26.08,26.08,0,0,1-6,.16c-.65,0-.85-.7-1.16-1.16-1.11-1.63-2.21-3.27-3.47-5.15a34.93,34.93,0,0,0-2.62,4,4,4,0,0,1-4.62,2.44A29.15,29.15,0,0,0,327.9,437Z" transform="translate(-274.76 -17.31)"/><path class="cls-2" d="M634.63,463.58c1.09-3.53,2.13-7.07,3.28-10.58s.15-2.73,3.86-2.81c.79,0,1.57,0,2.3,0,.4.6,0,1-.14,1.47-2,5.89-4,11.75-5.93,17.66-.37,1.13-.82,1.68-2.08,1.54a15,15,0,0,0-3.21,0,1.75,1.75,0,0,1-2.13-1.48c-1.48-4.55-3.1-9.05-4.61-13.58a38.89,38.89,0,0,1-1.73-5.46,1.18,1.18,0,0,1,.28-.09c1.78-.08,3.86-.65,5.25.18s1.24,3,1.76,4.65c.93,2.83,1.79,5.69,2.68,8.53Z" transform="translate(-274.76 -17.31)"/><path class="cls-5" d="M607.61,416.13a3.69,3.69,0,0,0,1.71.27c.76.1,1.81-.4,2.22.29s.17,1.95.15,2.94c0,.61-.51.56-.93.6-1,.08-2.27-.45-2.88.26s-.24,2.19-.26,3.31q-.07,3.22,0,6.44c0,2.14.41,2.45,2.55,2.5,1.53,0,1.53,0,1.55,1.65,0,2.92,0,2.91-2.88,2.94a13.5,13.5,0,0,1-3-.27c-2.75-.58-3.92-1.91-4-4.75,0-3,0-6,0-9a16.43,16.43,0,0,1,0-1.72c.08-1-.16-1.54-1.27-1.37-.35.06-.72,0-1.08,0-.83.07-1.17-.3-1.1-1.12a6.18,6.18,0,0,0,0-1.29c-.15-1.15.36-1.57,1.46-1.43.14,0,.28,0,.43,0,1.84.06,1.55-.15,1.56-1.69,0-1.15,0-2.29,0-3.44,0-.74.29-1,1-1,.15,0,.29,0,.43,0,1.36.06,3.06-.55,4,.24s.22,2.56.33,3.9C607.64,415,607.61,415.56,607.61,416.13Z" transform="translate(-274.76 -17.31)"/><path class="cls-2" d="M613.79,422.74V410.5c0-2-.18-1.93,1.79-1.9,1.2,0,2.74-.51,3.53.21s.32,2.43.32,3.68c0,7.45,0,14.89,0,22.33,0,2.53.38,2.19-2.31,2.22-.79,0-1.58,0-2.36,0s-1-.26-1-1c0-2.15,0-4.29,0-6.44Z" transform="translate(-274.76 -17.31)"/><path class="cls-2" d="M356.51,450.19c.4,1.05.06,2,.3,2.93.72,0,.82-.7,1.19-1.06a7.32,7.32,0,0,1,5.54-2.38c.78,0,1.18.27,1.16,1.13,0,1.35,0,2.7,0,4a4.73,4.73,0,0,1-2.22.12,5,5,0,0,0-5.12,4,9.87,9.87,0,0,0-.31,2.76c0,2.64,0,5.28,0,7.93,0,1-.34,1.25-1.24,1.19s-1.86,0-2.79,0c-1.75,0-1.65.09-1.65-1.59,0-4.57,0-9.15,0-13.72,0-1.36,0-2.72,0-4.08,0-.85.16-1.33,1.17-1.27C353.87,450.24,355.22,450.19,356.51,450.19Z" transform="translate(-274.76 -17.31)"/><path class="cls-5" d="M391.51,426.9c0,2.92-.06,5.85,0,8.77,0,1.17-.4,1.48-1.47,1.39-.85-.08-1.71,0-2.56,0-1.66,0-1.67,0-1.67-1.81q0-4.17,0-8.34c0-3,0-6,0-9,0-1.48,0-1.51,1.56-1.5,1.27,0,2.87-.52,3.73.21s.31,2.54.36,3.86C391.57,422.62,391.51,424.76,391.51,426.9Z" transform="translate(-274.76 -17.31)"/><path class="cls-2" d="M438.66,460.58c0,2.86,0,5.71,0,8.56,0,1.73.1,1.76-1.55,1.68-1.33-.06-3,.61-3.88-.33S433,468,433,466.77c0-5,0-10,0-15,0-1.59-.1-1.65,1.66-1.62.93,0,1.86.06,2.78,0s1.25.28,1.23,1.22c-.05,2.28,0,4.56,0,6.84Z" transform="translate(-274.76 -17.31)"/><path class="cls-5" d="M366,424.91c-2.93,0-5.86,0-8.78,0-.93,0-1.2-.31-1.24-1.23-.13-3.12-.17-3.12,2.92-3.12,5.21,0,10.42,0,15.63,0,1.53,0,1.57,0,1.56,1.49,0,3.5.31,2.77-2.81,2.82C370.89,424.94,368.46,424.91,366,424.91Z" transform="translate(-274.76 -17.31)"/><path class="cls-7" d="M366.1,433.41c-2.86,0-5.72,0-8.58,0-1.09,0-1.5-.27-1.51-1.42,0-2.9-.1-2.9,2.75-2.9h15.45c2.11,0,1.93-.07,1.93,2,0,.21,0,.42,0,.64,0,1.61,0,1.63-1.67,1.64Z" transform="translate(-274.76 -17.31)"/><path class="cls-7" d="M433.92,442.33c2.64,0,2.64,0,2.63,2.55,0,.43,0,.86,0,1.29,0,.63-.26.9-.89.89-1.28,0-2.57,0-3.86,0-.61,0-.94-.22-.91-.86,0-.29,0-.57,0-.86C430.84,442.33,430.84,442.33,433.92,442.33Z" transform="translate(-274.76 -17.31)"/><path class="cls-8" d="M388.49,413.32c-3.07-.06-2.61.45-2.66-2.78,0-.35,0-.71,0-1.07,0-.64.27-.89.89-.88,1.29,0,2.58,0,3.86,0,.79,0,1,.37.93,1,0,.22,0,.43,0,.65C391.56,413.32,391.56,413.32,388.49,413.32Z" transform="translate(-274.76 -17.31)"/><path class="cls-6" d="M407.41,345.68V296.25c0-.48,0-1,0-1.44,0-2.08,0-2.1,2.15-2.1h84.95c2.09,0,2.12,0,2.12,2.08q0,11.4,0,22.79c0,2.34,0,2.36-2.33,2.36q-25.56,0-51.11,0c-3.57,0-3.11-.46-3.14,3.23,0,2.8,0,5.6,0,8.4,0,1,.28,1.52,1.36,1.45.63,0,1.28,0,1.92,0h50.63c2.92,0,2.69-.33,2.69,2.71q0,10.2,0,20.4c0,2.18,0,2.2-2.24,2.2H443c-3.33,0-3-.37-3,2.91,0,2.88,0,5.76,0,8.64,0,1.13.36,1.64,1.51,1.54.56-.05,1.12,0,1.68,0h50.15a13.44,13.44,0,0,0,1.68,0c1.33-.16,1.6.51,1.6,1.69q0,12,0,24c0,1.31-.52,1.71-1.71,1.57-.23,0-.48,0-.72,0H409.77c-.4,0-.8,0-1.2,0-.8,0-1.18-.34-1.16-1.15,0-.64,0-1.28,0-1.92Z" transform="translate(-274.76 -17.31)"/><path class="cls-6" d="M356.4,292.7h43.67c2.44,0,2.36-.16,2.36,2.34q0,11.4,0,22.8c0,2.07,0,2.09-2.11,2.1H375.6c-.56,0-1.12,0-1.68,0-.8,0-1.18.31-1.15,1.14,0,.63,0,1.28,0,1.92q0,36.35,0,72.71c0,3.34.36,2.94-2.93,2.94q-13.44,0-26.88,0c-.64,0-1.28,0-1.92,0a.82.82,0,0,1-.89-.89c0-.72,0-1.44,0-2.16q0-36.36,0-72.72c0-3.32.39-2.92-2.94-2.92q-12.24,0-24.48,0c-2.23,0-2.25,0-2.25-2.21q0-11.4,0-22.8c0-2.2,0-2.22,2.27-2.22Z" transform="translate(-274.76 -17.31)"/><path class="cls-6" d="M673.86,357.86c-7.65,0-15,0-22.36,0a2.3,2.3,0,0,1-2.19-1.47q-3.93-6.59-7.92-13.14c-.28-.48-.6-.94-.9-1.41-.75.05-.86.68-1.11,1.11-2.57,4.33-5.16,8.64-7.64,13a3.11,3.11,0,0,1-3.17,1.9c-7.11-.1-14.22,0-21.42,0-.07-1.07.65-1.68,1.11-2.36q9.88-14.6,19.8-29.15c1.4-2.05,1.32-1.76,0-3.73q-9.42-13.74-18.82-27.5a6.65,6.65,0,0,1-1.3-2.21,2.73,2.73,0,0,1,1.93-.32c6.55,0,13.11,0,19.66,0a2.93,2.93,0,0,1,3,1.79c2.19,4.08,4.5,8.1,6.78,12.13a3.15,3.15,0,0,0,1.18,1.48q1.13-1.9,2.24-3.83c2-3.39,3.94-6.76,5.85-10.18a2.26,2.26,0,0,1,2.23-1.38c7.12.05,14.23,0,21.35,0a4.5,4.5,0,0,1,.8.14,5.24,5.24,0,0,1-1.26,2.26c-6.21,9.12-12.46,18.2-18.66,27.32-1.71,2.51-1.83,1.68-.07,4.27q9.75,14.39,19.53,28.76A7.51,7.51,0,0,1,673.86,357.86Z" transform="translate(-274.76 -17.31)"/><path class="cls-6" d="M603.25,340.86a65.48,65.48,0,0,0-4-19.88c-3.81-10-10.07-17.92-19.69-22.94a48.45,48.45,0,0,0-22.44-5.25c-17.67-.14-35.35-.07-53-.08-1.83,0-1.83,0-1.88,1.86,0,.55,0,1.12,0,1.67v49.44q0,25.31,0,50.63c0,2.33,0,2.33,2.34,2.35H505q22.32,0,44.63,0A75,75,0,0,0,567,396.77c17.34-4.09,28.94-14.36,33.88-31.69A72.65,72.65,0,0,0,603.25,340.86Zm-34.12,15.71c-2.87,9.15-9.69,14.44-19.3,14.79-4.39.16-8.79.07-13.18.05-1.77,0-1.81,0-1.81-1.9,0-8,0-16,0-24q0-11.74,0-23.49c0-2.09,0-2.15,2.07-2.11,4.63.08,9.26-.26,13.87.43,11.07,1.64,18.28,8.93,19.64,20.08A37.86,37.86,0,0,1,569.13,356.57Z" transform="translate(-274.76 -17.31)"/><path class="cls-1" d="M572.64,456.78c0-2.64,0-5.28,0-7.93,0-.93.32-1.27,1.24-1.22a50.47,50.47,0,0,1,5.35.21,6.48,6.48,0,0,1,5.6,5.17,15.2,15.2,0,0,1,.1,7.22,6.6,6.6,0,0,1-6.63,5.33c-1.28.05-2.57,0-3.85,0-1.77,0-1.78,0-1.79-1.71C572.63,461.5,572.64,459.14,572.64,456.78Z" transform="translate(-274.76 -17.31)"/><path class="cls-9" d="M371.13,459.61a6.22,6.22,0,0,1,.54-2.93,4.4,4.4,0,0,1,8.13,0,8.71,8.71,0,0,1,.24,5.87A4.55,4.55,0,0,1,375.6,466c-2,0-3.4-1.2-4.13-3.41A9,9,0,0,1,371.13,459.61Z" transform="translate(-274.76 -17.31)"/><path class="cls-9" d="M432.6,426.75a8.66,8.66,0,0,1-.72,3.85,4.45,4.45,0,0,1-7.71.85,9.18,9.18,0,0,1-.16-9.37,4.55,4.55,0,0,1,7.7.4A9.16,9.16,0,0,1,432.6,426.75Z" transform="translate(-274.76 -17.31)"/><path class="cls-1" d="M498.8,460.59a8.35,8.35,0,0,1-.56,3.57,4.14,4.14,0,0,1-3.67,2.86,4.23,4.23,0,0,1-4.46-2.3,9,9,0,0,1-.08-8.44,4.13,4.13,0,0,1,4.25-2.3,4.17,4.17,0,0,1,3.84,2.63A8.37,8.37,0,0,1,498.8,460.59Z" transform="translate(-274.76 -17.31)"/><path class="cls-9" d="M469.12,426.73a8.36,8.36,0,0,1,.77-4,4.16,4.16,0,0,1,3.68-2.54,4.06,4.06,0,0,1,4.16,2.09,8.87,8.87,0,0,1,.12,8.83,4.5,4.5,0,0,1-7.8-.07A7.77,7.77,0,0,1,469.12,426.73Z" transform="translate(-274.76 -17.31)"/><path class="cls-9" d="M546.58,426.66a10.3,10.3,0,0,1-.67,3.93,4.1,4.1,0,0,1-3.6,2.64,4.14,4.14,0,0,1-4.23-2,8.9,8.9,0,0,1-.18-9,4.09,4.09,0,0,1,4.16-2.09,4.18,4.18,0,0,1,3.73,2.46A9.36,9.36,0,0,1,546.58,426.66Z" transform="translate(-274.76 -17.31)"/><path class="cls-10" d="M401.61,461c0,.74,0,1.38,0,2-.21,3.49-2.63,5.24-6,4.4a2.4,2.4,0,0,1-2-2,2.61,2.61,0,0,1,1.26-2.74,6.4,6.4,0,0,1,2.64-.81A22.06,22.06,0,0,0,401.61,461Z" transform="translate(-274.76 -17.31)"/><path class="cls-11" d="M569.17,424.47h-8.7a4,4,0,0,1,4-4.28C567.28,420,568.74,421.3,569.17,424.47Z" transform="translate(-274.76 -17.31)"/><path class="cls-11" d="M455.2,424.42h-8.65a3.85,3.85,0,0,1,3.64-4.21C453.08,419.88,454.67,421.19,455.2,424.42Z" transform="translate(-274.76 -17.31)"/><path class="cls-11" d="M475.85,458.31c-2.7,0-5.38,0-8.06,0-.87,0-.89-.46-.73-1.1a4.46,4.46,0,0,1,4.87-3.24C474.26,454.12,475.44,455.38,475.85,458.31Z" transform="translate(-274.76 -17.31)"/><path class="cls-11" d="M658.77,458.25h-8.7a4.06,4.06,0,0,1,4.24-4.27C657.05,453.89,658.46,455.23,658.77,458.25Z" transform="translate(-274.76 -17.31)"/><path class="cls-11" d="M609.59,458.24c.47-3,2-4.34,4.73-4.26,2.48.07,3.73,1.35,4.1,4.26Z" transform="translate(-274.76 -17.31)"/><path class="cls-11" d="M500.79,424.43H492c.31-2.78,1.81-4.2,4.4-4.24S500.29,421.33,500.79,424.43Z" transform="translate(-274.76 -17.31)"/><path class="cls-9" d="M333.69,460.57a9.49,9.49,0,0,1,.62-3.77,4.37,4.37,0,0,1,4.37-2.82,4.23,4.23,0,0,1,4.19,2.74,9.69,9.69,0,0,1,0,7.51,4.21,4.21,0,0,1-4.34,2.81,4.3,4.3,0,0,1-4.3-2.9A9.66,9.66,0,0,1,333.69,460.57Z" transform="translate(-274.76 -17.31)"/></svg>