<svg id="Layer_1" data-name="Layer 1" xmlns="http://www.w3.org/2000/svg" viewBox="0 0 345.36 525.41"><title>about_2</title><path d="M855.6,382v9.36a43,43,0,0,0-.57,5.55c-.64,6-1.91,11.82-3,17.7-1.64,8.79-3.19,17.6-4.76,26.4-1.23,6.88-2.59,13.74-3.25,20.7-.54,5.65-1,11.31-1.64,16.94-.25,2.25-.26,4.48-1.58,6.63a15,15,0,0,1-11.37,7.48c-2.15.3-2.38.55-2.87,2.72a328.84,328.84,0,0,1-10.42,37.45,310.56,310.56,0,0,1-18,40.56A122.25,122.25,0,0,1,791,586.22c-4.79,6.95-10.61,13-16.67,18.81a191.57,191.57,0,0,1-27.78,22.2c-6.57,4.31-13.67,7.59-20.59,11.25a57.91,57.91,0,0,1-17,6.14,140.68,140.68,0,0,1-27.58,2,112,112,0,0,1-26.23-3.26c-9.43-2.48-18-6.83-26.41-11.71a137,137,0,0,1-31.42-24.77c-7.35-7.85-14.73-15.66-21.12-24.34-6.87-9.34-13.52-18.79-18.28-29.45a225.31,225.31,0,0,1-10.16-28.51,156.05,156.05,0,0,1-5.57-25.1,8.71,8.71,0,0,0-5.18-7.22c-5.34-2.67-8.72-6.93-9.52-12.94-.37-2.77-.55-5.57-.7-8.36a181.49,181.49,0,0,0-5.93-38.29c-2.34-8.62-4.94-17.18-7.52-25.74a26.49,26.49,0,0,1-.59-14.63c1.31-5,4.17-8.56,9.08-10.37l3.7-1.37c1.91-.72,2.28-1.37,2-3.37-.68-4.42-1.34-8.84-2-13.26-1.9-12.23-3.84-24.45-5.45-36.73-1-8-1.95-15.93-2.54-23.95-.5-6.89-.81-13.79-.71-20.71A2.7,2.7,0,0,0,515.6,280a1.43,1.43,0,0,1-.5-1.61A47.32,47.32,0,0,1,523.43,259c.86-1.14,1.8-2.2,2.69-3.33a14,14,0,0,0-7,4.5,109.93,109.93,0,0,0-7.75,10.36c-.23.35-.31,1.16-1.1.66V270c.2-.72.38-1.45.62-2.16a46.48,46.48,0,0,1,21.3-25.87c1.6-.94,1.73-1.46.53-2.89-6.29-7.46-8.46-16.32-8.75-25.8a19,19,0,0,1,1.59-7.95c1.29,8.3,1,16.74,6.67,23.55a1.66,1.66,0,0,0,0-1.21,64.16,64.16,0,0,1-1-19.79,52.43,52.43,0,0,1,13.64-29.66c4-4.39,8.13-8.57,11.42-13.54a39.17,39.17,0,0,1,14.57-12.92,22.65,22.65,0,0,1,5.8-2.53,11.4,11.4,0,0,0,4.54-2c2.67-2,5.35-3.92,8-5.89a91.73,91.73,0,0,1,26.87-14c13-4.11,26.35-5.37,39.84-5.72,7.16-.19,14.32-.08,21.48-.12.37,0,.8.18,1.12-.19h20.4c.56.32.29.6,0,.86a11.28,11.28,0,0,1-3.2,1.3c-.62.24-1.38.31-1.69,1.07,2.63.66,5.25.21,7.83.48,5.42.57,10.36,2.62,15.19,4.93a14.77,14.77,0,0,0,6.58,1.49,67,67,0,0,1,14.27,1.49,156,156,0,0,1,45.77,17.48,102.78,102.78,0,0,1,31.15,27.31c4.52,6,9.18,11.9,12.4,18.75.13.28.43.53.29,1-4.47-3.83-7.84-8.66-12.76-12.22a6,6,0,0,0,1,2.06q1.91,2.91,3.85,5.79A197.15,197.15,0,0,1,835,220.82c1.77,3.88,3.11,7.94,4.92,11.81,1.37,3,1.79,6.25,2.66,9.62a3.57,3.57,0,0,1-1.91-2.71,10.08,10.08,0,0,0-3.55-5.68c.1,1.48.34,2.89.55,4.31.81,5.5,2.38,10.86,2.5,16.52.28,12.3.59,24.6.7,36.9.06,5.79-.16,11.58-.12,17.38.06,12.11-.43,24.19-1.17,36.28-.16,2.66,1,3.13,2.8,2.94,1.26-.14,1.64.26,1.68,1.56,0,1.52,0,3,0,4.56,0,2.2,0,2.24-2.13,3a3,3,0,0,0-2.28,3.1c0,3.88,0,7.75,0,11.63,0,1.34.62,1.9,2,1.78,4.14-.39,7.68,1.13,11,3.3a6.12,6.12,0,0,1,2.39,3.35C855.31,381,855.23,381.54,855.6,382ZM539.26,394.89c-.38.32-.26.61-.25.86.17,9,.31,18,.54,27,.27,10.91,1.25,21.77,2.31,32.63,1.33,13.6,2.88,27.16,4.81,40.69a187.86,187.86,0,0,0,12.56,45.59c9.71,23.36,23,44.22,42.18,61.07,10.74,9.44,21.77,18.44,34.05,25.84a13.77,13.77,0,0,0,3.61,1.55,171.29,171.29,0,0,0,27.71,4.82,159,159,0,0,0,37.31-.72c20.22-2.92,38.16-10.73,53.54-24.32,6.63-5.85,12.77-12.19,19.1-18.36A96,96,0,0,0,792.61,571a211.24,211.24,0,0,0,14.12-29.84c4.47-11.45,8.76-23,11.76-34.91,2-8.22,3.37-16.59,5.36-24.82,4.34-18,5.92-36.31,6.51-54.74.23-7.23-.14-14.46-.25-21.69,0-1.26-.21-2.51-.33-3.82-.65.27-.8.76-1,1.16-1.63,2.88-3.2,5.8-4.88,8.66-3.15,5.35-6.51,10.61-11.09,14.84-13.08,12.08-28.75,17-46.19,14.49a57.82,57.82,0,0,1-40.26-24.41A105.41,105.41,0,0,1,715.92,398c-.35-.76-.64-1.71-1.59-1.8-2.62-.28-3.93-2.08-5.05-4.13a41.54,41.54,0,0,1-5-17.48c-.16-2.41,1.17-3.92,3.63-4.15a2.86,2.86,0,0,0,1.76-.54c-1.77-1.09-2-2.73-1.91-4.53s.28-3.58.47-5.37c.44-4.08-.78-6.22-4.59-7.78-2.51-1-5.09-1.91-7.58-3a26.13,26.13,0,0,0-13.28-1.71c-6.91.72-13.2,3.36-19.36,6.36a2,2,0,0,0-1.2,2.42c.55,2.78,1,5.57,1.51,8.37.19,1.1.39,2.24-.4,3.22a6.88,6.88,0,0,0-1.41,4.95c.09,1.54.09,1.54,1.61,1.43,2-.15,2.52.23,2.79,2.22a22.61,22.61,0,0,1,.25,3.94,53.77,53.77,0,0,1-5,20.35,4.44,4.44,0,0,1-4.11,3c-2,0-2.82,1.12-3.63,2.68a69.12,69.12,0,0,1-14.46,19.55c-5.17,4.71-11.25,8-17.52,11a50.44,50.44,0,0,1-20.41,5.16,64.48,64.48,0,0,1-19.36-2.9c-11.88-3.4-22-9.57-29.83-19.24a72.31,72.31,0,0,1-11.37-20.83C540.41,397.8,539.84,396.38,539.26,394.89ZM825.72,344.4a44,44,0,0,0-2.45-11.61A187.6,187.6,0,0,0,813,308.41a151.49,151.49,0,0,1-14.32-52.26c-.32-3.4-.83-6.68-3.6-9.1-.72-.64-1.35-1.37-2-2.06-7.57-7.77-16.23-14.19-25.27-20.13-9.31-6.12-19.27-10.66-30.38-12.36-6.42-1-12.68-.8-18.53,2.46-.71.39-1,.26-1-.57a20,20,0,0,1,1.29-7.38,9,9,0,0,0,.69-2.23.93.93,0,0,0-.22,0l-.42.22a11.22,11.22,0,0,0-5.68,9.19c-.2,2.16-.36,4.32-.55,6.65-4.63-3.79-7.58-8.52-9.86-14.08-1.61,6.38.54,11.45,4,16.21a47.3,47.3,0,0,1-8.91-4.47,74.84,74.84,0,0,1-13.43-10.41c-.26-.26-.55-.75-.94-.4s.1.65.25.95.18.27.26.41c3,5,7.26,8.78,12,12.1.36.26.83.44,1,1a2.11,2.11,0,0,1-1.46,0c-2.43-.63-4.88-1.22-7.3-1.92A110.89,110.89,0,0,0,651,215.83c-11.14.64-22.2,2.09-33.3,3.18-6.36.62-12.73,1.28-19.14.81-4.69-.35-9.3-1-13.44-3.51a1.56,1.56,0,0,0-.43-.21c-.34-.06-.78-.23-1,.15s.27.52.5.7c1.43,1.15,2.88,2.29,4.32,3.43l4.94,3.94c-9.37.44-18.09-1.21-26.76-3.48a49.66,49.66,0,0,0,6.3,5c2.44,1.68,2.47,1.84.76,4.31a99.5,99.5,0,0,0-14.29,30.42c-1.47,5.3-2.57,10.64-2,16.19a116.13,116.13,0,0,1,0,26.55c-.66,5.42-2.35,10.43-5.94,14.65-1.58,1.86-3.41,3.48-4.86,5.46-5.41,7.43-7.59,16-8.91,24.89-.17,1.13.38,1.71,1.56,1.76a5.82,5.82,0,0,0,5.29-2.47,48.1,48.1,0,0,1,21.15-16.36A125.05,125.05,0,0,1,582,325.89c2.58-.67,5.19-1.22,7.79-1.83a26.31,26.31,0,0,0-5.61.38q-2.71.44-5.42,1c-1.78.36-3.55.8-5.32,1.2a13,13,0,0,1,4.16-2.17c1.46-.53,3-1,4.44-1.45s2.87-.84,4.3-1.26c-3.88-.17-7.4,1.42-11.09,2.12a13.7,13.7,0,0,1,3.21-1.88c7.69-3.45,15.81-3.92,24.07-3.45a28.67,28.67,0,0,0,5.57.26c-.11-.35-.32-.34-.5-.4-6-1.71-12.21-1.59-18.4-1.59,5.63-2.13,11.51-2.19,17.41-2a59.07,59.07,0,0,1,17.22,3.52l-2.61-3c4.58,2.31,9.47,3.79,13.19,7.39l.21-.31L631.78,318l.29-.18a15,15,0,0,1,3.53,2.63c1,1,2,2.05,3,3.12s1.86,2.17,2.78,3.25c-.53-2.32-2-4.19-2.74-6.69,3.63,3.08,5.58,6.92,7.31,10.92.33-4.12-.95-7.89-2.34-11.88a9.15,9.15,0,0,1,2,2.24c2.7,3.74,3.59,8.11,4.26,12.8,2.17-3.08,3-6.46,4.46-9.89.91,4.2-.26,7.88-1.24,11.84a17.08,17.08,0,0,0,5.38-8.34,3.23,3.23,0,0,1,.17,3.46,41.26,41.26,0,0,0-2.39,5.58c.17,0,.27,0,.31,0q.38-.3.72-.63a20.45,20.45,0,0,0,4.36-6.26c.15-.32.34-.91.78-.73s.15.71,0,1.06a44.12,44.12,0,0,1-7.44,13,2.07,2.07,0,0,1-3.27.14c-.38-.35-.7-.77-1.07-1.14a7,7,0,0,0-3.7-2.22c4.36,4.22,7.26,9.55,11.1,14.38a11.06,11.06,0,0,0,.45-1.43,5.61,5.61,0,0,1,3.81-4.53c1-.41,2-.92,3.06-1.38a49.25,49.25,0,0,1,21.5-4.59,55.49,55.49,0,0,1,23.58,6.12c2.25,1.11,4.45,2.19,4.2,5.37,1-1.45,1.8-2.85,2.58-4.26a2.2,2.2,0,0,0-.24-2.47c-.54-.75-1.13-1.46-1.65-2.22-2.86-4.2-5.17-8.63-5.58-13.82,0-.26-.22-.63.09-.75s.46.32.58.58a26.17,26.17,0,0,0,2.39,4.42,6.43,6.43,0,0,0,2,2.22c-.07-3.56-.31-7,1.07-10.31.33,2.69.35,5.43,1.65,7.89a2.25,2.25,0,0,0,.19-1,32.24,32.24,0,0,1,1.43-9.2c.1-.29.11-.73.52-.68s.27.52.27.79c0,2.2,0,4.4,0,6.6,0,.32-.19.73.25.95a1.67,1.67,0,0,0,.4-1c.52-2.13,1-4.27,1.57-6.4.1-.4,0-1.18.6-1.11s.23.74.25,1.13c.13,1.94.19,3.88.29,6.12,1.21-2.85,2.25-5.47,3.43-8A16.06,16.06,0,0,1,731.9,317a81.79,81.79,0,0,0-3.19,8.58,31.09,31.09,0,0,1,9.58-9.19c-1.08,2.55-3.36,4-3.95,6.76,2.76-1.93,5-4.32,7.82-5.63s5.73-2.67,9-2.52c-4.36,3.08-9.34,5.16-13.29,8.82,2.83-.79,5.6-1.64,8.42-2.32a83.9,83.9,0,0,1,8.6-1.59c2.83-.39,5.68-.5,8.52-.79-4.53-.92-9.11-.61-13.86-.66.25-.22.32-.33.41-.35a13.51,13.51,0,0,1,1.39-.36,67.08,67.08,0,0,1,23.13-.75,65.72,65.72,0,0,1,25.09,8.6,84.59,84.59,0,0,0,8.86,4.74A40,40,0,0,1,821.6,340C823,341.44,824.35,342.92,825.72,344.4ZM601.25,328A148.79,148.79,0,0,0,584,329.24c-10.65,1.4-20.56,4.55-28.71,12-3.42,3.12-7.12,6-9.4,10.13-5.6,10.21-7.28,21.1-5.78,32.56.84,6.42,3,12.47,5.43,18.43,9.67,23.87,31.41,38.1,56.68,37.1A51.5,51.5,0,0,0,624.16,434a54.75,54.75,0,0,0,15.63-12.36c13.86-15.45,21.09-33.24,18.52-54.3a40,40,0,0,0-10.39-23c-5.29-5.69-11.85-9.4-19-12.07A72.59,72.59,0,0,0,601.25,328Zm229.38,47.6a75.54,75.54,0,0,0-.51-8.38c-.27-2.46-.67-4.9-1.17-7.33-2.24-10.77-8-19-17.61-24.48a64,64,0,0,0-13.22-5.57c-6.37-1.94-12.87-3.33-19.56-3.13-5.78.18-11.57.5-17.34,1.09a65.84,65.84,0,0,0-23.61,6.67c-9.44,4.83-16.78,11.72-21.12,21.54-3.86,8.73-4.27,17.74-2.28,27,3.82,17.69,12.55,32.25,26.93,43.43a52.29,52.29,0,0,0,31.38,11.5,50.76,50.76,0,0,0,26.09-6.44c8.83-4.82,16.61-10.87,22-19.52C827.51,400.82,830.37,388.53,830.63,375.56ZM638.09,207.48a47.68,47.68,0,0,1-5.29-9.91,31.61,31.61,0,0,1-1.76-6.83c-.06-.42-.19-1.08.46-1.18s.59.47.73.91a36.86,36.86,0,0,0,5.92,11.69,28.46,28.46,0,0,0,5.2,5.44c.2-.48-.1-.76-.24-1.07q-1.44-3.17-2.91-6.31a34.18,34.18,0,0,1-3.47-14.56,2.29,2.29,0,0,1,.36-1.66c2.08,6.54,3.79,13.09,8.2,18.45-.26-1.42-.61-2.8-1-4.18a47.27,47.27,0,0,1-1.75-17.3c.91-9.1,4.88-16.77,11-23.44a74.23,74.23,0,0,1,16.07-12.82c.35-.23.87-.34,1-1.05a63.3,63.3,0,0,0-12.92,5c-4.06,2-7.92,4.45-12.05,7,.62-1.55,1.81-2,2.7-2.78a97.12,97.12,0,0,1,27.3-16.63c3.71-1.46,7.53-2.64,11.29-4a3.12,3.12,0,0,0,1.65-.94c-3.26.19-6.32.49-9.35.95a80.3,80.3,0,0,0-25.9,8.52,34.56,34.56,0,0,1,6-4.44c7.32-4.42,15.34-6.79,23.87-8a1.25,1.25,0,0,0-1.2-.34,52.9,52.9,0,0,0-8.34.77c-20,4.13-35.32,14.88-45.4,32.77a40.22,40.22,0,0,0-5.55,18.27,22.35,22.35,0,0,0,1,8.91l.86-6.2.32,0c.92,4.77,1.78,9.56,3.76,14A24.78,24.78,0,0,0,638.09,207.48Zm42.49-9.64c-3.28-23,5.64-40.25,24.72-52.83-5.74.78-10.81,3.54-16.29,5,10.24-7.74,21.92-12,34.45-14.22-10.84-.37-20.86,2.89-30.76,6.77a28.44,28.44,0,0,1,7.24-4.54c2.62-1.23,5.37-2.13,8.32-3.25a5.54,5.54,0,0,0-2,.07,55.19,55.19,0,0,0-12.72,3.75c-17.18,7-30,18.53-37.63,35.65a39.75,39.75,0,0,0-3.78,18.95,17.67,17.67,0,0,0,1.1,5.43c.08-7.43,1-14.65,4.82-21.22a39.22,39.22,0,0,0-.71,17.44,27.79,27.79,0,0,0,8.14,15.36,68.77,68.77,0,0,1-3.83-12.54,45.84,45.84,0,0,1-.57-13.12c.51-5,2.18-11.17,3.33-12.61-.58,6.39-2.21,12.68-.69,19a36.63,36.63,0,0,0,8.48,16.73C666.4,196.27,665,184.77,670.6,173a.41.41,0,0,1,.2.43,44.79,44.79,0,0,0-.23,16.08,34.81,34.81,0,0,0,4.88,14,8.79,8.79,0,0,0,1.84,2.17A85.61,85.61,0,0,1,675,191.4a36.53,36.53,0,0,1,1.54-14.09C677.37,184.25,677.13,191.36,680.58,197.84Zm14.87-12.47c13.54-25.9,35-35.6,63.28-31.91a3.09,3.09,0,0,0-1.84-.79,61.46,61.46,0,0,0-24.76-.34,82.88,82.88,0,0,0-15.91,4.81c-.51.2-1.06.58-1.72,0a50.72,50.72,0,0,1,29.41-9.91c-12.31-1.65-23.46,2.15-34.36,7.26a13.66,13.66,0,0,1,3.33-2.73c8.94-6,18.92-8.39,29.57-8.4,0-.2,0-.26-.05-.27a2.94,2.94,0,0,0-.44-.2c-8.38-2.41-16.84-2.67-25,.61C706,148,696.89,155,690.48,165.12c-5.21,8.22-8.54,17-7.68,27a30,30,0,0,0,2.07,8.64c.09-2.68,0-5.35.1-8a19.14,19.14,0,0,1,1.59-7.85,42,42,0,0,0,1.59,13.15,38.47,38.47,0,0,0,6.13,11.6c-6-15.83-4.58-30.36,7.14-43.16-1,3.1-2.77,5.94-3.77,9.1S695.38,181.91,695.45,185.37Zm-81.28,24.51c0-.26,0-.36-.06-.41-.49-.63-1-1.26-1.48-1.88A34.27,34.27,0,0,1,604.3,187a45.62,45.62,0,0,1,5.42-23.06c3.72-7.29,9-13.36,14.9-18.94,1.7-1.61,3.39-3.23,5.2-5-3.58.52-16.32,13.9-21.66,22.59a65.49,65.49,0,0,0-9.51,29.89,4.94,4.94,0,0,1-1-2.32,22.66,22.66,0,0,1,0-7.75,41.7,41.7,0,0,1,4.93-16.13,80.36,80.36,0,0,1,18.08-21c5.78-4.93,12.14-9.12,18.12-13.8.39-.3.92-.47,1.14-1.18a38.51,38.51,0,0,0-4.85,2.2c-12.63,6.43-23,15.61-32.26,26.22,4.33-9.48,12.24-15.84,19.77-22.55a.69.69,0,0,0-.51.06c-1,.65-2.12,1.28-3.15,2-8.19,5.52-14.75,12.69-20.61,20.56-7.8,10.46-10.5,22.16-8.53,35a28.7,28.7,0,0,0,7.85,16,5.26,5.26,0,0,0,2.4,1.66c-2.32-3.59-4.58-7.16-5-11.81,1.26,1.58,2.33,3,3.45,4.3a32,32,0,0,0,3.74,3.72,36.73,36.73,0,0,0,4.33,3.21,22.37,22.37,0,0,0,4.52,2.37c-1.65-1.93-3.39-3.75-5.05-5.63a17.28,17.28,0,0,1-4.09-6.31C606,204.08,609.21,208.11,614.17,209.88ZM662.64,127a2.24,2.24,0,0,0-1.73.17,108,108,0,0,0-27.08,14.93c-6.85,5.27-13,11.19-17.67,18.57A44.79,44.79,0,0,0,609,184c-.13,6.7,2,12.79,5.36,18.52,0,.07.17.09.39.19-.17-2.34-.9-4.51-.84-6.79a44.24,44.24,0,0,0,7,10.85c3.07,3.35,8.18,6.84,10.49,7.14-4.91-4.53-9.26-9.41-11.65-15.73,1.69,1.86,3.26,3.81,4.9,5.7a20.35,20.35,0,0,0,5.85,4.92,9.28,9.28,0,0,0-1.66-2.5c-10.07-13.2-12.13-27.54-5.67-42.84,4.13-9.8,11.15-17.32,19.79-23.41a120.28,120.28,0,0,1,10.58-6.34c.41-.23,1.07-.42,1.07-.88,0-1.35,1.12-1.59,1.94-2.1C658.55,129.44,660.6,128.23,662.64,127Zm-85.16,55.29a1.25,1.25,0,0,1-.23-1.06,45,45,0,0,1,1-9c2.16-9.32,6.8-17.33,13.06-24.46,2.61-3,5.28-5.87,8.1-8.68-.6-.24-.9.19-1.22.43a67.15,67.15,0,0,0-21.08,25.81c-.86,1.85-1.68,3.71-2.52,5.56-.11.25-.21.59-.57.49s-.21-.46-.19-.71a21.52,21.52,0,0,1,.77-4.12,6.5,6.5,0,0,0,.36-2.7,47.37,47.37,0,0,0-3.14,32.41c.21-3.06-.41-6.2.78-9.2.32,1.61.56,3.21,1,4.79,2.26,9,7.55,15.72,15.16,20.79a2.92,2.92,0,0,0,2.17.67,46.55,46.55,0,0,1-7.76-10.76c4,3.69,7.81,7.62,12.92,9.81a25.24,25.24,0,0,0-3.2-4.05,32.65,32.65,0,0,1-8.18-21.6A46.7,46.7,0,0,1,591,162.76a4.53,4.53,0,0,0,.82-1.81,3.52,3.52,0,0,0-.49.44q-.39.53-.75,1.08a76.67,76.67,0,0,0-8.9,18.76c-.12.42-.32,1-.77.93s-.4-.78-.29-1.25c3.37-13.59,9.66-25.56,19.79-35.37a5.56,5.56,0,0,0,1.26-1.69,7.48,7.48,0,0,0-2.11,1.37,63.64,63.64,0,0,0-21.17,35.06A3.38,3.38,0,0,1,577.48,182.29Zm-2.22,31.65c-.33-.53-.63-1.09-1-1.59-5.62-7.69-7.77-16.36-7.33-25.75a75.84,75.84,0,0,1,3.68-19c.6-1.93,1.22-3.86,1.87-5.92a2.72,2.72,0,0,0-1.07,1.1,47.7,47.7,0,0,0-6.93,14.27,74.24,74.24,0,0,0-2.14,9.45c-.05.29,0,.73-.44.69s-.3-.48-.33-.77a3.85,3.85,0,0,1,0-.59,68.63,68.63,0,0,1,4.22-22.5,12.35,12.35,0,0,0,.9-3c-5.9,7.17-8.47,15.4-10,24.08-.82-5.33-.07-10.52,1.15-15.67-5.31,7.87-7.62,20.06-4.53,31.19,1.49,5.35,7.65,14.93,10.13,15.7-2.72-4-4.92-8.08-5.52-12.87a34.88,34.88,0,0,0,9.15,11.42c4.58,3.66,11,6.81,13,6.46-7.07-4.1-12.71-9.5-15.74-17.27,1.6,2,3.12,4,4.88,5.88A21.18,21.18,0,0,0,575.26,213.94Zm126.46-24.15q26.78-33.12,65.4-15.56c-2-2.12-4.59-3.62-7.07-5.32a13.3,13.3,0,0,1,5.57,2.21c2.66,1.83,4.07,2.51,5.39,2.54-2.3-2.58-5.51-3.86-8.29-5.86.75-.51,1.23,0,1.75,0,.28,0,.6,0,.7-.29s-.22-.39-.42-.49c-.57-.29-1.14-.58-1.72-.83a56.42,56.42,0,0,0-27.58-4.68c-8,.64-15.38,2.9-21.86,7.67-6.65,4.9-12,10.88-15,18.7a13.59,13.59,0,0,0-1.05,4.6c2.84-4.61,5.14-9.63,10-12.67C705.39,183.07,703,186.09,701.72,189.79Zm73.42,26.91A110.16,110.16,0,0,1,826,251.07c-2.37-6.87-6.64-12.66-10.45-18.72,3.93,2.25,6.9,5.58,10.23,8.51-3.15-5.63-7.45-10.29-12.22-14.69.89-.29,1.59.3,2.41.05a16.25,16.25,0,0,0-4.2-3.64,84.87,84.87,0,0,0-32.07-12,12.65,12.65,0,0,0-5.54.13c3.29,1.32,7,1.37,10.32,3.33-2.62.2-4.89-.91-7.28-.42,3.58,1.3,7.34,2.13,10.63,4.17C783.61,217.42,779.41,216.89,775.14,216.7Zm.94,7.67-.21.41c17.39,10.59,31.18,24.81,42.24,42.08a3.31,3.31,0,0,0-.56-2.09,168.52,168.52,0,0,0-12.37-19.66,3,3,0,0,1-.86-1.91,105.88,105.88,0,0,1,8.74,9.16c2.75,3.17,5.31,6.49,7.74,9.92s4.62,6.85,6.88,10.32c-2.44-7.51-6.84-14-10.82-20.69a6.59,6.59,0,0,1,2.87,2.37c.84,1,1.68,2,2.53,3l2.4,2.81c.15-.3.11-.45,0-.57-.43-.77-.84-1.55-1.32-2.29a96.85,96.85,0,0,0-28.86-28.51,94.58,94.58,0,0,0-18.85-9.35c-1.3-.49-1.71-.47-2.54.14,3.22,2.78,7,4.82,9.79,8.21ZM543.32,211.72c1,.86,1.86,1.5,2.64,2.17,3.59,3.11,7,6.43,11.3,8.64a19.3,19.3,0,0,0,6,2.1c-2.43-1.9-4.64-3.62-6.82-5.35a18.21,18.21,0,0,1-5.74-7,7.91,7.91,0,0,1-.88-3.76c1.74,1.34,2.91,3.2,5.22,3.82-1-1.43-1.86-2.61-2.62-3.87-3.72-6.15-4.39-12.91-3.91-19.88.12-1.69.29-3.37.44-5.06-2.66,5.15-3.48,10.71-4,16.65-.87-3.46-.65-6.71-1-9.93-1.21,4.51-1.53,9.15-2.48,13.7-1.71-5.32-.8-10.79-.79-16.31a3.15,3.15,0,0,0-1,1.33,36.44,36.44,0,0,0-4.62,23.3,25.79,25.79,0,0,0,6.8,15,7.85,7.85,0,0,0,2.47,2c-1-2.56-1.9-4.84-2.71-7.16a28.35,28.35,0,0,1-1.69-7.25,13.47,13.47,0,0,1,1.59,1.62q3.27,3.92,6.89,7.51a9.54,9.54,0,0,0,3.85,2.15,2.47,2.47,0,0,0-.83-1.3,64.24,64.24,0,0,1-7-9.56A8.87,8.87,0,0,1,543.32,211.72ZM739,174.53c-.24-.17-.29-.25-.35-.25-.91.06-1.83.1-2.74.19-11.39,1.1-21.28,5.43-29.34,13.65C702.92,191.85,700,196,699,201.3a17.61,17.61,0,0,0-.23,5.81c.18-.15.27-.19.29-.25.13-.38.24-.76.36-1.14,1.25-3.86,2.8-7.56,5.58-10.62a7.72,7.72,0,0,1,3.58-2.38,44.48,44.48,0,0,0-2.51,6.85,13,13,0,0,0,.05,7.23,19.65,19.65,0,0,1,8.09-14c-2.27,5.31-4.39,10.66-4.08,16.58a1.06,1.06,0,0,0,.3-.52A44,44,0,0,1,717,196c5.66-7.47,13.26-12.09,22-15.08a94.24,94.24,0,0,1,9.18-2.51,21.82,21.82,0,0,0-6.74-.23c-3.44.41-6.66,1.64-9.93,2.67-2.79.87-5.56,1.8-8.34,2.71C727.51,179,733,176.35,739,174.53ZM835.8,401.79c-.38.22-.35.52-.36.79,0,1.48-.1,3-.11,4.43-.11,11.27-.36,22.52-1.09,33.77-.48,7.49-.9,15-1.61,22.46-.57,6.13-1.15,12.25-2,18.35-.07.56-.33,1.24.29,1.66s1.25,0,1.79-.26c3.52-2,5.63-4.77,5.84-9s.39-8.7.58-13c0-.3.22-.7-.19-.84s-.45.26-.61.48c-.54.71-1.13,1.26-2.12.83a1.9,1.9,0,0,1-1.08-2.18,34.94,34.94,0,0,1,.87-5.92c2.13-8.64,4.29-17.27,4.6-26.25.22-6.37.22-12.7-1.6-18.88A16.69,16.69,0,0,0,835.8,401.79Zm-54.54-205.9c-13-8.38-37.71-7.91-47.62-.75,4.57-1.18,9-2.46,13.7-2.22-4.49,2-9.12,3.71-13,6.89,4.31-1.08,8.29-3.28,12.84-3.45a68.86,68.86,0,0,0-14.69,9.37,109.19,109.19,0,0,1,10.93-3.48,88.42,88.42,0,0,1,11.3-2.08,107,107,0,0,1,11.6-.7c3.78,0,7.56.25,11.47.47a1.16,1.16,0,0,0-.85-.52L764.91,196c-.28-.08-.76,0-.69-.5s.51-.26.8-.25l6,.26Zm-235,105.58a1.87,1.87,0,0,1-.34,1.59c-1,1.88-1.91,3.77-2.9,5.64-1.89,3.61-3.9,7.16-4.86,11.16a17.65,17.65,0,0,0-.63,5.08l2-3.87.31.12-.72,6.87c.34-.12.45-.28.5-.45a43.56,43.56,0,0,1,4.08-8.65c3.05-5,6.35-9.88,9.19-15a4.2,4.2,0,0,0,.75-1.75c0-.35.07-.81-.31-.95s-.53.28-.71.52c-1,1.29-1.86,2.6-2.82,3.88a7.69,7.69,0,0,1-2.73,2.43c3.28-7,7.22-13.44,7.71-21.39-1.51,2-2.05,4.28-3.83,6.09a74.46,74.46,0,0,0,3.16-12.85c-1.87,2.34-2.93,4.93-5.34,6.69l1.68-8.09c-3.93,3-12.58,19.11-12.08,22.55,2.64-3.28,4.86-6.82,8.28-9.35a185.84,185.84,0,0,1-7.67,18.42A96.82,96.82,0,0,0,546.31,301.47Zm-9.21,183a24.22,24.22,0,0,0-.05-6q-1.26-23.61-2.61-47.23a80.11,80.11,0,0,0-1.1-10.47,8.43,8.43,0,0,0-1.8-3.7c-.58,12.56,0,25.06.09,37.62l-3.23-8.74a1.73,1.73,0,0,0-.15,1.22c.73,8.43,1.43,16.87,2.22,25.3A18.43,18.43,0,0,0,534,482,6.82,6.82,0,0,0,537.1,484.47Zm21-235.35-.3-.22-9.48,8.81c-.16-.36.06-.6.17-.83,4.11-8.48,10.35-15.25,17.33-21.48-2.43.28-4.36,2-6.91,2l4.6-4.19a12.78,12.78,0,0,0-4.74,1.67A48.31,48.31,0,0,0,544.81,247a34.6,34.6,0,0,0-6.55,11.34,5.17,5.17,0,0,0-.37,2.68c.74-1.17,1.34-2.09,1.92-3a47.69,47.69,0,0,1,9-11.19,2.63,2.63,0,0,1,2-1c-.72,1.26-1.37,2.43-2,3.58a56.83,56.83,0,0,0-6.68,18,10.83,10.83,0,0,0,.13,6.17c.85-1.74,1.21-3.69,2.87-5.11-.61,3.9-1.18,7.6-.39,11.34A61.54,61.54,0,0,1,558.08,249.12Zm194-39.3,3-.18a202.12,202.12,0,0,1,23.35-.73,75.24,75.24,0,0,1,26.69,5.6c.21.09.46.34.85,0l-3-2.45c5.91,1,10.54,4.58,15.59,7.3-3-3.65-7.42-5.13-11.51-7.61,2.83-.5,4.69,1.57,7.13,1.84a1.07,1.07,0,0,0-.75-.74l-4.51-2.23a71.07,71.07,0,0,0-28.43-7.36,145.42,145.42,0,0,0-22.85,1c-2.39.28-4.77.76-7.15,1.15l0,.32c3.38,0,6.77,0,10.14,0s6.87.22,10.3.43a80.78,80.78,0,0,1,9.93,1.06C771.16,207.28,761.49,207.15,752.07,209.82Zm5.77-28.39a1.9,1.9,0,0,0-1.34-.33,48.69,48.69,0,0,0-11,.85c-9.12,1.87-17.34,5.48-23.85,12.37a27.14,27.14,0,0,0-4.93,7.24c2.27-1.58,4.08-3.7,6.32-5.33a12.69,12.69,0,0,1-1.34,2.12,4.28,4.28,0,0,0-1.25,2.33,84,84,0,0,1,22.62-12.08A96.94,96.94,0,0,1,768,183.71c-5.12-1.11-10.32-.64-15.51-1ZM770.39,166a158.64,158.64,0,0,1,31.36,26.66c-1.25-3.69-3.65-6.74-5.38-10.16,4,3.18,6.39,7.66,9.58,11.87a15.17,15.17,0,0,0-1.56-4.18c-1.14-2.19-2.35-4.35-3.52-6.53-.1-.19-.34-.42-.08-.64s.43.05.61.19c.58.46,1.16.94,1.74,1.42a4.86,4.86,0,0,0-1.22-2.26,56.26,56.26,0,0,0-9.23-8.69c-4.22-3.31-8.52-6.49-13.49-8.62a2.3,2.3,0,0,0-1.71-.31l6.2,5.45-.22.35C779.09,169.1,775.12,166.43,770.39,166ZM530.7,399.84c.07-.74.12-1.17.14-1.6.15-2.71.21-5.43.45-8.13a2.4,2.4,0,0,0-1.26-2.48,7.92,7.92,0,0,0-8.8.28c-3.86,2.85-5.21,6.81-4.89,11.45.57,8.43,3.16,16.33,6.4,24.06.12.28.12.75.65.71a16.57,16.57,0,0,0-.56-4.39,96.18,96.18,0,0,1-2.06-19.14,3.78,3.78,0,0,1,2.41-3.9,4.39,4.39,0,0,1,4.9.83C528.87,398.25,529.68,398.94,530.7,399.84ZM645.5,193c.11-4.52.36-9,2.4-13.18,0,6.61.23,13.17,2.45,19.51-1.82-20.53,4.57-37.88,19.88-51.85a9.9,9.9,0,0,0-2.64,1.19,45.68,45.68,0,0,0-17.75,19c-3.28,6.29-5.31,12.9-5.07,20.08A17,17,0,0,0,645.5,193Zm170.66,86.89-.44.08q-2.15-8.21-4.28-16.39l-.19,0c-.28,2.91-.55,5.81-.83,8.72l-.36,0-1.5-5.63a49.83,49.83,0,0,0,2.93,19.62l.34,0v-6.7c2.56,8.65,4.28,17.54,10,24.87-.77-2.72-1.64-5.4-2.5-8.09-.16-.47-.43-1,.16-1.4,1.69,2.51,2.85,5.35,5.1,7.48-3.77-10.25-5.64-21-8-31.57l-.41.07Zm19.19,113.45.28.1c.4-.44.79-.88,1.2-1.31a22.81,22.81,0,0,1,3.37-3.22c3.11-2.19,6.42-.91,7.18,2.82a32.28,32.28,0,0,1,.56,4c.33,4.7.13,9.42.18,14.13,0,.41,0,.81.06,1.22a3,3,0,0,0,.7-1.4c.71-3.43,1.47-6.86,2.07-10.32a41,41,0,0,0,.58-13.22c-.63-4.24-3.73-6.86-7.84-6.7a10.44,10.44,0,0,0-6.73,2.75,5.42,5.42,0,0,0-1.62,4.55C835.38,389,835.35,391.17,835.35,393.36ZM529.28,308.61c-3,10.27-5.11,20.43-1.4,30.87.25-3.26-.6-6.58.46-10,.56,1,.39,2.1,1,3.07.72-7.84,3.7-14.87,6.67-22.07a4.66,4.66,0,0,0-2.18,1.86c-.57.72-1.06,1.55-2.23,1.7,2.75-6.94,5.12-13.85,5.93-21.18a.71.71,0,0,0-.4.33c-1,1.69-1.94,3.39-2.92,5.08-.12.2-.22.48-.51.41s-.23-.38-.23-.6c0-.6,0-1.2,0-1.81l-.31,0-7.26,15.52.2.14Zm-5-41c1.68-1.64,3.23-3.17,4.81-4.73.2.5-.1.83-.23,1.18-.63,1.73-1.28,3.44-2,5.15a60.24,60.24,0,0,0-4.72,24,5.27,5.27,0,0,0,.49,2.51c.52-3.51.89-7,1.54-10.51a41,41,0,0,1,3-10.16c-.05,4.05-.48,8.09.28,12.13,1.67-11.33,5.6-22,9.8-32.54a16,16,0,0,0-1.88,1.42c-.24.19-.47.61-.78.42s-.08-.64,0-.94c.49-1.42,1-2.82,1.54-4.37C533.13,252.75,525.77,263,524.31,267.58Zm308.5,21.81c-.72.61-.74,1.44-1.4,1.89-1.19-4.52-2.2-9-4.95-12.87A40.37,40.37,0,0,1,827,292.2l-3.58-6.58c1.06,6.83,3.63,13.06,6.93,19.37v-7.88c1.39,2,1.22,4.67,3.09,6.45C833.2,298.9,833,294.25,832.81,289.39Zm-7.29,28.83c.26,1,.52,2,.77,3a2,2,0,0,1-.27,2,1.73,1.73,0,0,0-.28,2.09c1.19,3,2.36,6,3.56,9,.11.28.09.75.6.75.21-.72-.14-1.5.27-2.3.26.34.44.6.65.83s.26.7.85.68A35.47,35.47,0,0,0,825.52,318.22Zm5-66.66,7.18,12.35.31-.14a9.24,9.24,0,0,0,0-1.29,81,81,0,0,0-3.41-14.9c-.14-.44-.24-1.15-.78-1s-.25.8-.12,1.25c0,.2.1.39.16.58a54.92,54.92,0,0,1,.88,6C833.11,253.72,832.68,251.61,830.52,251.56ZM538,351.94v-.28c-1.88,0-3.76,0-5.65,0-1.36,0-2,.67-1.89,2s.28,2.86.48,4.27c.15,1,1,1,1.75,1s1.06-.36,1.09-1.06a1.61,1.61,0,0,1,1.77-1.68c.48,0,1,0,1.44,0s1.43.18,1.36-.84-.82-.93-1.53-.88-1.43.13-2.14.14-1.45.11-1.49-.75a1.3,1.3,0,0,1,1.33-1.39C535.65,352.36,536.81,352.12,538,351.94Zm-2.6-76.63c-.47,1.43-.89,2.7-1.3,4s-.86,2.73-1.28,4.1c-.1.31-.17.66.16.87s.59-.07.82-.29a2.84,2.84,0,0,0,.37-.47,34.61,34.61,0,0,0,5-10.76,4.36,4.36,0,0,0-.13-3.06l-2.93,6.72C535.7,276.2,535.79,275.74,535.37,275.31Zm12.24-36.8c-4.85.51-8.51,3-11.45,6.76Zm45.13-79.18.28.18,1.56-2.25-.31-.2A9,9,0,0,0,592.74,159.33Z" transform="translate(-510.24 -121.24)"/><path d="M667.3,501a13.94,13.94,0,0,1,6.74,1.92c2.18,1.24,4.38,2.47,6.55,3.74a7.11,7.11,0,0,0,7.62.09c2.65-1.54,5.27-3.17,7.94-4.69,3.17-1.8,6.5-2.86,10.21-2,2.71.64,4.76,2.33,6.71,4.2,3.65,3.48,6.74,7.49,10.53,10.82,3.16,2.78,6.35,5.49,10.53,6.67a28.74,28.74,0,0,0,7.62.68,4.41,4.41,0,0,1,4.61,4.71,4.62,4.62,0,0,1-6.38,4,5.61,5.61,0,0,0-6.06.82c-3.36,2.5-6.7,5-10.11,7.5-9,6.45-19.07,9.89-30,11.18-16.62,2-31.71-2.53-45.85-10.94-2.71-1.62-5.35-3.36-8-5a10.27,10.27,0,0,0-8.83-1.29,3.81,3.81,0,0,1-4.23-1.2,3,3,0,0,1-.25-4.23,8.45,8.45,0,0,1,6-3.81c7.58-1.06,13.24-5.27,17.87-11.08a68.35,68.35,0,0,1,7.33-8.07A14.37,14.37,0,0,1,667.3,501Zm20.61,44.16c5.5,0,14.44-2.1,23.05-5.85a49.9,49.9,0,0,0,17.1-11.66c.57-.62.48-.86-.23-1.15a38.08,38.08,0,0,0-15.68-2.84c-5.73.15-11.19,1.71-16.67,3.15-5.75,1.52-11.54,2.13-17.42.82-3.82-.86-7.66-1.65-11.48-2.49C661.46,524,656.32,523,651,523.77a21,21,0,0,0-7.75,2.7c-1,.62-1.11,1.09-.37,2a7.28,7.28,0,0,0,.67.69C654.88,540,668.44,545.06,687.91,545.11Z" transform="translate(-510.24 -121.24)"/><path d="M692.12,464.41c3.78-2,6.58-5.2,9.92-7.69,2.33-1.74,4.62-3.59,7.63-4.06a8.48,8.48,0,0,1,6,1.29,5.53,5.53,0,0,1,2.43,6,5.62,5.62,0,0,1-5.1,4,9.59,9.59,0,0,1-7.84-2.47,3.25,3.25,0,0,0-4.38-.48c-1,.58-2,1.29-3,1.92A8.5,8.5,0,0,1,692.12,464.41Z" transform="translate(-510.24 -121.24)"/><path d="M659.87,468.08a10.44,10.44,0,0,1-6.64.88c-10-1.72-15.49-10.16-12.91-20.06a23.35,23.35,0,0,1,7.95-12.65,1.56,1.56,0,0,1,.85-.36c-.31.56-.61,1.12-.93,1.68-1.87,3.25-3.75,6.51-4.38,10.29-1.21,7.25,1.18,15.14,9.58,18.22,1.46.53,3,.91,4.46,1.36Z" transform="translate(-510.24 -121.24)"/><path d="M664.33,454c5.38,0,9.52,2.34,12.7,6.54.2.25.65.55.33.9s-.61-.14-.93-.22a.39.39,0,0,1-.11-.06c-3.34-3.08-6.81-2.5-10.32-.34a13.9,13.9,0,0,1-10,2.27c-1.09-.2-2.18-.45-2.63-1.59a2.85,2.85,0,0,1,.86-2.95A12.77,12.77,0,0,1,664.33,454Z" transform="translate(-510.24 -121.24)"/><path d="M665.24,558.43c4.74.15,9.23-.82,13.73-1.7,4-.79,8.11-.52,12.18-.32,6.1.29,12.2.61,18.53.94a9.83,9.83,0,0,1-4,2.16c-3.17,1-6.38.69-9.61.25a52.83,52.83,0,0,0-18.21.88,18.8,18.8,0,0,1-11.25-.95C666,559.47,665.41,559.3,665.24,558.43Z" transform="translate(-510.24 -121.24)"/><path d="M713.33,468.78a4.73,4.73,0,0,1,1.94-.67,19.65,19.65,0,0,0,10.2-5.44c4.45-4.7,5.18-10.24,3.52-16.25-.55-1.95-1.32-3.84-2-5.77a2.76,2.76,0,0,1-.35-1.39c2.34,1.66,3.36,4.15,4.39,6.6a20.66,20.66,0,0,1,.92,14.05,10.89,10.89,0,0,1-6.34,7.36,24.16,24.16,0,0,1-10.61,2c-.39,0-.79-.1-1.18-.16C713.68,469.08,713.46,469.12,713.33,468.78Z" transform="translate(-510.24 -121.24)"/><path d="M686.64,482.67A58.46,58.46,0,0,1,690,492.1a5.4,5.4,0,0,1-5.87,6.69c-.51,0-1.06,0-.59-.78,2.57-4.35,3.07-9.16,3.13-14.07Z" transform="translate(-510.24 -121.24)"/><path d="M684.71,618.7c-2.15-4.88-1.72-11.73,2.71-14.76C685.13,608.79,685.13,613.76,684.71,618.7Z" transform="translate(-510.24 -121.24)"/><path d="M573.14,383.39A43.23,43.23,0,0,1,579.43,373c8.33-10,19.11-14.89,32.06-15.19,11.48-.26,21.84,3.37,31.6,9.05a46.78,46.78,0,0,1,8,5.3,15.16,15.16,0,0,1,3.22,4c1.73,3.19,0,6.56-3.66,6.56-11.76,0-23.16,2.56-34.61,4.71-7.29,1.37-14.57,1.95-21.91.38A24.79,24.79,0,0,1,583,382.13c-.24-.21-.48-.42-.73-.62-2.14-1.78-2.13-1.77-4.26,0A11.72,11.72,0,0,1,573.14,383.39Zm28.45-19.06a1.53,1.53,0,0,0-.48,0,27.61,27.61,0,0,0-11.3,5.53,14.68,14.68,0,0,0-3.6,4.13c-.87,1.58-.86,2.94.21,4.12a17.8,17.8,0,0,0,6.78,5c4.47,1.67,9,.95,13.86.52C600.26,378.44,599.46,371.77,601.59,364.33Zm41.67,11.45c.06-.41.1-.65.13-.88.24-2.17-.11-2.81-2.11-3.75s-3.76-1.75-5.66-2.59a40.68,40.68,0,0,0-7.9-3c-.34-.07-.74-.36-1-.1s0,.66.14,1a12.6,12.6,0,0,1-2.07,12.83c-.72.92-1.52,1.78-2.4,2.8,5.44-.7,10.69-1.45,15.92-2.32,3.31-.55,6.61-1.26,10-.34,1.09.31,2.16.42,2.88-.7a3,3,0,0,0-.48-3.64,3.93,3.93,0,0,0-4.62-.82C645.14,374.64,644.3,375.18,643.26,375.78ZM615.14,371c0-.7-.19-1.37-1-1.4a1.15,1.15,0,0,0-1.16,1.25c0,.73.22,1.36,1.15,1.36S615.12,371.67,615.14,371Z" transform="translate(-510.24 -121.24)"/><path d="M635.62,343l1.27,1.46c.32.36.74.78.48,1.24s-.75.38-1.21.34l-7.53-.53c-10.36-.66-20.68-2-31.08-2.19a51.2,51.2,0,0,0-17.37,2.4c-.34.12-.67.24-1,.38-.1,0-.17.14-.48.42,3.58-.16,6.93-.65,10.55.36A90,90,0,0,0,571.36,353a50.71,50.71,0,0,0-15,11.38c.24-3.17,1.86-5.66,2.46-8.46-1.27,1-1.9,2.5-3.11,3.54a1.12,1.12,0,0,1-.08-1.2c1.72-6.41,4.26-12.38,9.22-17,4.24-4,9.32-6.39,14.78-8.12A66.57,66.57,0,0,1,597,330.39c11.76-.51,23.06,1.72,34.13,5.36a41.66,41.66,0,0,1,13.74,7.41,3.35,3.35,0,0,1,1.39,3c-.09,1.2-.54,1.48-1.64.95-2.41-1.17-4.79-2.38-7.18-3.58A4.24,4.24,0,0,0,635.62,343Z" transform="translate(-510.24 -121.24)"/><path d="M652,365.84c-.62-.08-.9-.56-1.27-.89a46.83,46.83,0,0,0-9.52-7.41,22.24,22.24,0,0,0-10.5-2.51c-9.69-.06-19.33.39-28.75,3a42,42,0,0,0-4.72,1.31,80.59,80.59,0,0,0-8.65,3.74,89.7,89.7,0,0,0-8.16,5,65.65,65.65,0,0,0-7.25,6.07c-.24.23-.47.73-.84.46s.07-.63.21-.9c2.21-4.14,5.68-7.07,9.49-9.63,5.3-3.55,11.29-5.57,17.32-7.43a104.37,104.37,0,0,1,26.66-4.93c10.62-.42,19.12,3.63,25.39,12.26A2.39,2.39,0,0,1,652,365.84Z" transform="translate(-510.24 -121.24)"/><path d="M545.66,396.35c1.32,2.85,2.52,5.71,4,8.47,7.5,14.47,18.71,24.74,34.23,30,8.73,3,17.6,2.77,26.49.8a62.44,62.44,0,0,0,14.09-4.59,5.22,5.22,0,0,1,2.22-.52c0,.63-.54.69-.87.87a59.1,59.1,0,0,1-22.16,6.86c-8.81,1-17.4.06-25.55-3.62-11.85-5.34-20.73-13.92-27.19-25.1a44.93,44.93,0,0,1-5-11A4.45,4.45,0,0,1,545.66,396.35Z" transform="translate(-510.24 -121.24)"/><path d="M649.55,349.3a26.75,26.75,0,0,1,5,8.31,52.2,52.2,0,0,1,3.13,16.87c.48,14.6-4.7,27.17-13.75,38.35-2.36,2.91-4.88,5.7-7.35,8.54-.34.39-.82,1.09-1.27.71s.36-.84.66-1.19a105.61,105.61,0,0,0,13-18.35,57.84,57.84,0,0,0,7.17-29.43c-.24-8-2-15.66-6.15-22.62a7.49,7.49,0,0,1-.44-.84C649.48,349.59,649.52,349.5,649.55,349.3Z" transform="translate(-510.24 -121.24)"/><path d="M587.4,395.19c2.05.16,4.09.38,6.14.48,9.4.44,18.54-1.14,27.58-3.47,6.34-1.64,12.67-3.29,19-4.91.37-.09.88-.52,1.13.14s-.33.8-.78.95c-9.14,2.94-18.17,6.3-27.63,8.15-7.31,1.44-14.64,2-22,.1A9,9,0,0,1,587.4,395.19Z" transform="translate(-510.24 -121.24)"/><path d="M581.81,331.13c-.36.55-.93.55-1.4.71-6.12,2-12.14,4.2-17.61,7.69-6.39,4.09-11.59,9.25-14.62,16.35a3.72,3.72,0,0,1-.49.81c-.25.33-.7.64-1,.47-.51-.26,0-.71.08-1,3.28-8.9,9.39-15.23,17.72-19.6A49.09,49.09,0,0,1,580.94,331C581.21,331,581.48,330.84,581.81,331.13Z" transform="translate(-510.24 -121.24)"/><path d="M546.25,359.48l-2.75,27.95A53.51,53.51,0,0,1,546.25,359.48Z" transform="translate(-510.24 -121.24)"/><path d="M788.47,362.85a25.25,25.25,0,0,0-13.18-7.35c-13.67-2.77-27.3-3-40.76,1.29a53.35,53.35,0,0,0-12.35,5.74c-.36.23-.73.45-1.24.75a2.74,2.74,0,0,1,.92-1.5c5.72-6.38,13-9.6,21.42-10.5,13.07-1.4,25.83.22,38.42,3.68,5.8,1.59,10.14,5.25,13.82,9.83,1.41,1.74,2.85,3.45,4.25,5.2.37.45,1.15,1,.58,1.58s-1.23.08-1.77-.36c-1.63-1.35-3.28-2.69-4.92-4l-.56-.44c-.26-.19-.61-.46-.85-.2s0,.66.24.92.69.68,1,1.07c2.44,3.51,4.67,7.17,7.63,10.29,0,.05,0,.15.07.3a31.4,31.4,0,0,1-8.59-2.54,3.6,3.6,0,0,0-4.2.45c-10.79,8.16-23,10.87-36.29,9.37-6.76-.76-13.18-2.84-19.65-4.73a36.8,36.8,0,0,0-8.69-1.61,6.14,6.14,0,0,1-4.43-1.84,3,3,0,0,1,0-4.41c5.12-4.58,9.92-9.56,15.8-13.2,6.47-4,13.68-5.38,21.16-5.74a56.13,56.13,0,0,1,25.83,4.56,32.41,32.41,0,0,1,5.1,2.88A1.88,1.88,0,0,0,788.47,362.85Zm-21.53-3.05c2.46,7.48,3.12,14.5-3.06,20.72a43.68,43.68,0,0,0,10.6-1.14,21.3,21.3,0,0,0,11.26-7.11c1.15-1.4,1.14-2-.12-3.3a31.66,31.66,0,0,0-2.55-2.36C778.45,362.8,772.73,361.59,766.94,359.8Zm-21.61.84c-1.28.53-2.56,1-3.81,1.59-5,2.32-8.86,5.8-10.42,11.32-.2.7-.49.54-.93.27a7.09,7.09,0,0,0-5.55-.68c-.88.21-1.6.75-1.39,1.77a2.62,2.62,0,0,0,2.09,2.23,10.33,10.33,0,0,0,3.92.16,19.52,19.52,0,0,1,8.89.41c2.76.72,5.58,1.27,8.77,2C741.67,373.53,741.11,367.31,745.33,360.64Zm12.95,8.26a1.52,1.52,0,0,0,1.45-1.57,1.36,1.36,0,0,0-1.44-1.14,1.27,1.27,0,0,0-1.49,1.32C756.81,368.4,757.43,368.82,758.28,368.9Z" transform="translate(-510.24 -121.24)"/><path d="M739.39,422.43a1.91,1.91,0,0,1-1.22-.64c-6.82-6.66-12.85-13.92-17.09-22.53a55.46,55.46,0,0,1-5.84-30.89c1.11-10.54,6-19.06,14.16-25.76a58.28,58.28,0,0,1,27.38-12.18,100.85,100.85,0,0,1,25.9-1.44c10.51.87,20.42,3.51,29.27,9.54,6.91,4.7,11,11.22,13.39,19.11A58.22,58.22,0,0,1,828,378.19a21.39,21.39,0,0,1-1.07,5.8c-.2-1.45-.39-2.9-.61-4.35q-1.83-12-3.68-23.92a15.73,15.73,0,0,0-2.54-6.28,35.83,35.83,0,0,0-4.68-5.6,10.72,10.72,0,0,0-5.33-2.65c3.62,5.74,4.46,11.84,3.86,18.65-5.8-9.07-13.73-14.35-24.18-15.74l.12-.38h8.89a1.58,1.58,0,0,0-1.15-.86,63.71,63.71,0,0,0-25.72-3.46c-10.87.62-21.37,3.29-31.85,6a3.19,3.19,0,0,1-1.94.18c.89-.82,1.67-1.53,2.43-2.26.21-.2.67-.35.41-.73s-.6-.14-.89,0c-1.18.38-2.33.84-3.51,1.18a12.27,12.27,0,0,1-5.11.41,4.74,4.74,0,0,0-4.52,1.86c-7.69,8.86-10.78,19.2-10.08,30.81a59.43,59.43,0,0,0,6,22,83.23,83.23,0,0,0,13.94,20.26c.89,1,1.73,2,2.59,3C739.39,422.15,739.37,422.25,739.39,422.43Z" transform="translate(-510.24 -121.24)"/><path d="M826.61,389.87a9.38,9.38,0,0,1-.38,4.1c-4,16.2-13.29,28.38-28,36.28a49.52,49.52,0,0,1-21.15,5.51,54.89,54.89,0,0,1-22.37-3.15,4.9,4.9,0,0,1-.67-.26c-.3-.15-.83-.17-.66-.67s.61-.13.9,0a63.59,63.59,0,0,0,20.32,2.86c13.27-.48,24.76-5.43,34.65-14.14,8.94-7.87,14.21-17.92,17.1-29.34C826.41,390.64,826.52,390.26,826.61,389.87Z" transform="translate(-510.24 -121.24)"/><path d="M743.72,391.26a2.31,2.31,0,0,1,1.51,0c7.33.95,14.65,2,22.07,1.81a52.57,52.57,0,0,0,19.93-4.63,1.67,1.67,0,0,1,1.24-.33,20.57,20.57,0,0,1-5.82,4,32.9,32.9,0,0,1-13.15,2.77c-8.42.32-16.62-1.19-24.78-3a3.18,3.18,0,0,1-.67-.25C744,391.55,743.89,391.44,743.72,391.26Z" transform="translate(-510.24 -121.24)"/></svg>