<?xml version="1.0" encoding="utf-8"?>
<!-- Generator: Adobe Illustrator 24.0.2, SVG Export Plug-In . SVG Version: 6.00 Build 0)  -->
<svg version="1.1" id="Layer_1" xmlns="http://www.w3.org/2000/svg" xmlns:xlink="http://www.w3.org/1999/xlink" x="0px" y="0px"
	 viewBox="0 0 578.5 538" style="enable-background:new 0 0 578.5 538;" xml:space="preserve">
<style type="text/css">
	.st0{fill:#B2B2B2;}
	.st1{fill:#7F7F7F;}
	.st2{fill:#4D4D4D;}
	.st3{fill:#333333;}
	.st4{fill:#808080;}
</style>
<title>Favicon</title>
<path class="st0" d="M287.6,533.5c-4.4-6.5-8.1-13.3-12.1-20.1c-31-52.3-62-104.6-92.9-157c-2.5-4.1-4.9-8.3-7.3-12.5
	c-0.4-0.6-0.5-2.2-1.9-0.9c-0.9-0.3-1-1.3-1.5-1.9c-1.9-4.8-4.9-9-7.5-13.5c-20.5-34.5-41-69.1-61.4-103.7
	c-6.2-10.5-12.4-21.1-18.7-31.6c-0.4-0.8-0.9-1.6-1.5-2.2c-0.4,82.1,0.3,164-0.4,245.9c0.1,0.3,0.1,0.5,0,0.8
	c-3.5,5.7-8.1,10.7-12.3,15.9c-12.8,16-25.7,32-38.6,47.9c-9.1,11.2-18.1,22.5-27.3,33.7c-1.1,1.1-2.3,2.1-3.6,3H0.1v-1.5
	c2.1-6.6,3.3-13.4,4.9-20.1c12.2-52.5,24.3-105.1,36.4-157.6c12.5-54.1,25-108.2,37.5-162.3c0.7-3.8,1.6-7.5,2.7-11.1
	c2.1-3.1,5.6-4.3,8.6-6.1c11.3-6.5,22.6-13,34-19.4c1.1-0.6,2.1-1.3,3.5-1.1c0.3,0,0.5,0.1,0.7,0.3c4,7.2,6.9,14.9,10.1,22.4
	c9.4,21.8,18.8,43.5,28,65.4c10.3,24.3,20.8,48.5,31.1,72.7c11.2,26.3,22.5,52.6,33.8,78.9c10.6,24.8,21.2,49.6,31.8,74.3
	c8,18.8,16.1,37.6,24.1,56.5C287.8,530.1,289.2,531.7,287.6,533.5z"/>
<path class="st0" d="M293.7,290.9c0.1-0.3,0.3-0.5,0.4-0.8c9-8.8,19.4-16,29.2-23.9c17.8-14.2,35.6-28.4,53.5-42.5
	c18.5-14.6,36.9-29.2,55.3-43.9c9.4-7.4,18.7-14.9,28.2-22.2c1-0.8,2-1.9,3.5-0.9c0.8,1,0.3,1.9-0.1,2.8c-2.8,6.2-5.7,12.4-8.5,18.6
	c-7.8,16.8-15.5,33.7-23.3,50.5c-6.4,13.7-12.7,27.5-19,41.2c-7.3,15.9-14.6,31.7-21.9,47.6c-5.4,11.8-10.9,23.5-16.3,35.3
	c-7.4,16-14.8,32-22.1,48c-5.4,11.8-10.9,23.5-16.3,35.3c-6.4,13.8-12.7,27.6-19.1,41.5c-5.3,11.4-10.5,22.8-15.8,34.2
	c-3.4,7.4-7.4,14.5-11.2,21.7c-0.8,2-0.8,2-1.9,1.2c0.2-2.9-0.3-5.8-0.3-8.7c-0.2-15.7,0.5-31.4,0.7-47.1c0.1-9.4-0.1-18.8,0.4-28.2
	s0-18.8,0.5-28.2s-0.1-19,0.5-28.4s0-19,0.5-28.4s0-19,0.5-28.4s0.1-18.8,0.5-28.2c0.2-4.8,0.5-9.6,0.4-14.5
	C291.9,293.3,292.6,291.8,293.7,290.9z"/>
<path class="st1" d="M293.7,290.9c-0.2,0.9-0.4,1.8-0.5,2.7c-0.2,6.9-0.4,13.8-0.5,20.7c-0.2,15.5-0.1,30.9-0.7,46.4
	c-0.3,9.3,0.1,18.6-0.5,27.9c-0.5,9.6,0,19.3-0.5,28.9c-0.5,9.2,0,18.5-0.5,27.7c-0.5,9.6,0,19.1-0.5,28.7s0,19-0.5,28.4
	s-0.2,19-0.4,28.4c0.1,1.4-0.2,2.8-0.9,4.1l-0.7-1.3c-2-6.3-4.9-12.2-7.5-18.2c-14.1-33.1-28.3-66.3-42.5-99.3
	c-14.1-32.9-28.1-65.8-42.2-98.6c-13.9-32.5-27.8-65-41.6-97.5c-8.2-19.2-16.5-38.4-24.7-57.6c-0.5-1.1-0.8-2.2-1.3-3.2
	c1.3-1.2,2.2,0.1,3,0.7c5.6,4.4,11.2,8.9,16.7,13.4c14.8,11.7,29.4,23.6,44.1,35.4c21.7,17.5,43.6,34.9,65.3,52.5
	c10.3,8.4,20.8,16.5,31.1,25c1.5,1.3,2.5,3.1,4.2,4.1C292.8,290.4,293,291.2,293.7,290.9z"/>
<path class="st2" d="M292.3,290.1c-3.1-0.7-4.9-3.2-7.2-5c-16.7-13.3-33.4-26.7-50-40.2c-22.7-18.2-45.4-36.5-68.1-54.7
	c-13.1-10.5-26.1-20.9-39.2-31.3l-0.5-0.1c-1.4-0.9-1.2-2.3-1.2-3.6c-0.1-5.6-0.3-11.3-0.4-16.9c-0.1-10.6-0.5-21.1-0.7-31.6
	c-0.2-14-0.6-28.1-1-42.1c-0.3-12.1-0.7-24.2-0.9-36.3c-0.1-6.5-0.8-13.1-0.2-19.6c0.2-2.2,0.1-4.4,1-6.4c0.9,0.3,1.1,1.2,1.5,1.9
	C180.7,98.7,236,193.4,291.3,288.2C291.6,288.8,292,289.5,292.3,290.1z"/>
<path class="st3" d="M463.6,156.8c-8.8,6.9-17.7,13.8-26.5,20.8c-46.9,37.2-93.8,74.3-140.7,111.5c-0.6,0.5-1.2,1.5-2.3,1
	c52-83.8,104-167.7,156-251.5c7.3-11.8,14.7-23.6,22-35.4c0.2-0.3,0.1-2.2,1.4-0.8c1,8.6,0,17.2-0.5,25.8
	c-0.4,6.7-0.9,13.4-1.3,20.1c-0.6,9.9-1.2,19.9-1.9,29.8c-0.4,6.4-0.8,12.8-1.2,19.1c-0.6,9.9-1.2,19.9-1.8,29.8
	c-0.4,6.6-0.9,13.2-1.2,19.9c0,3.1-0.4,6.1-1,9.1C464.5,156.5,464.1,156.8,463.6,156.8z"/>
<path class="st2" d="M509.4,185.8v0.5c0.5,5.7,0.6,11.4,0.3,17.1c-0.5,11.5-0.6,23.1-1.3,34.6c-0.3,5-0.3,10-0.4,14.9
	c-0.2,7.2-0.5,14.5-0.7,21.7c-0.4,11.1-0.5,22.2-1.3,33.4c-0.3,4.9-0.3,9.8-0.4,14.7c-0.2,7.1-0.5,14.1-0.7,21.2
	c-0.4,11.4-0.6,22.8-1.3,34.1c-0.3,4.9-0.3,9.8-0.4,14.7c-0.2,7.1-0.4,14.3-0.8,21.4c-0.3,6.9,0.3,13.8-1.1,20.6
	c-0.8,1.8-2,1.4-3.2,0.4c-1.7-1.7-3.4-3.5-4.9-5.3c-9.8-11.3-19.9-22.3-29.8-33.5c-8.9-10.1-17.9-20.1-26.9-30.1
	c-6.8-7.5-13.4-15.2-20.2-22.7c-1.3-1.3-2.3-3-2.8-4.8c-1.4-1.1-0.8-2.3-0.1-3.5c3.1-5.1,6.4-10.1,9.5-15.2
	c12.6-20.2,25.2-40.4,37.9-60.5c11.8-18.9,23.6-37.8,35.5-56.6c3.6-5.6,7-11.3,10.7-16.9C508.1,184.1,508.4,184.2,509.4,185.8z"/>
<path class="st4" d="M509.4,185.8c-1.3-1-1.4,0.4-1.7,0.9c-6,9.5-12,19-17.9,28.5l-40.1,64c-11.7,18.7-23.4,37.3-35.1,56
	c-0.6,1-1.7,2-1,3.4c-0.2,0.2-0.3,0.3-0.5,0c-1,0.4-1.4,1.4-1.9,2.2c-39.8,63.5-79.6,126.9-119.4,190.4c-0.5,0.8-1,1.5-1.6,2.2
	c1.4-4.4,3.6-8.4,5.5-12.6c9.5-20.7,19.2-41.4,28.7-62.1c13.1-28.4,26.2-56.8,39.2-85.2c9.5-20.6,19.1-41.2,28.6-61.8
	c11.1-24.1,22.2-48.2,33.3-72.3c9.5-20.6,19-41.2,28.6-61.8c3.2-6.9,6.3-13.9,9.5-20.9l0.5-0.5c1.1-0.5,2.1,0,3,0.6
	c13,8.1,26.1,16.1,39.1,24.2c1.3,0.7,2.3,1.9,2.8,3.2C509.4,184.7,509.5,185.3,509.4,185.8z"/>
<path class="st3" d="M500,435.6c0.7-9.7,0.8-19.4,1.1-29.1c0.5-14.1,1-28.2,1.5-42.3c0.3-9.2,0.6-18.4,1-27.6
	c0.3-9.5,0.7-18.9,1-28.4c0.3-9,0.6-18.1,1-27.1c0.5-14.3,1-28.6,1.5-42.8c0.3-9,0.8-18.1,1-27.1c0.2-7.6,0.6-15.3,1-22.9
	c0.1-0.6,0.2-1.1,0.4-1.7c2.5,12.7,5,25.4,7.5,38.2c7.7,39.7,15.5,79.5,23.2,119.2c7.1,36.4,14.2,72.8,21.2,109.2
	c5.3,27,10.5,54,15.7,81c0.2,1,0.2,2,0.3,3c-1.8,0-2.8-1.4-3.8-2.6c-7-8.9-13.8-17.9-20.6-26.9c-17.2-22.5-34.5-45-51.7-67.6
	c-0.9-1-1.5-2.2-1.8-3.5C499.7,436,499.8,435.7,500,435.6z"/>
<path class="st3" d="M81.4,437c0-0.2,0-0.3,0.1-0.5c1.2-3.4,3.8-5.7,6.1-8c6.3-6.3,12.4-12.8,18.5-19.2
	c10.8-11.2,21.5-22.5,32.3-33.7c7.5-7.9,15-15.8,22.6-23.6c3.2-3.4,6.3-6.8,9.7-10c0.9-0.8,1.8-2,3.2-0.7c-0.1,0.6-0.3,1.3-0.4,1.9
	c-11.2,50-22.4,100-33.6,150.1c-0.1,0.6-0.3,1.1-0.5,1.7c-1.1,1.4-2.1,0.6-2.9-0.2c-4.1-4-8.3-7.9-12.1-12.2c-0.5-0.6-1-1.3-1.7-1.9
	c-11-10.7-21.3-22.1-32.4-32.9c-2.7-2.7-5-5.8-7.8-8.4C81.8,438.9,81.3,437.9,81.4,437z"/>
<path class="st0" d="M500,435.6c0,0.1,0,0.3,0,0.4c0.2,1-0.1,2-0.9,2.6c-6.7,6.6-13.6,13.1-20.5,19.7c-7.9,7.6-15.8,15.1-23.8,22.7
	c-3,2.9-6,5.7-9,8.6c-1.6,1.5-3.3,2.7-5.3,3.7c-1.7-3.5-1.8-7.4-2.4-11.1c-3.9-21.6-7.7-43.3-11.6-65c-3.9-22.1-7.8-44.1-11.6-66.2
	c-0.7-4.1-1.3-8.2-2-12.3h0.5c23.5,26.4,47,52.8,70.4,79.1C489.3,423.8,494.6,429.7,500,435.6z"/>
<path class="st2" d="M81.4,437c3.2,2.5,5.6,5.7,8.3,8.5c11.3,11.5,22.7,22.9,33.9,34.5c4.4,4.5,8.8,9.1,13.2,13.6
	c0.7,0.7,1.2,1.7,2.5,1.3c-0.2,1.8-1.8,1.5-2.8,1.9c-33.4,10.1-66.9,20.1-100.3,30.1c-11,3.3-22,6.6-33,9.9
	c-0.9,0.3-1.8,0.4-2.7,0.6c3.2-5,7.2-9.3,10.9-13.9c22.8-28.4,45.7-56.7,68.6-85C80.5,437.9,81,437.5,81.4,437z"/>
<path class="st1" d="M440.7,493.3c0.6-1.9,2.4-2.7,3.7-3.9c8.9-8.5,17.7-17.1,26.6-25.6c9.4-9,18.9-18,28.4-27
	c0.2-0.2,0.4-0.5,0.6-0.8c8,10.5,16.1,21,24.1,31.5c17.2,22.5,34.5,45,51.7,67.6c0.5,0.7,1.1,1.2,1.7,1.8c-1.2,1.2-2.3,0.1-3.3-0.2
	c-22.5-7.3-45.1-14.6-67.6-21.9L440.7,493.3z"/>
<path class="st3" d="M123.9,2.1c-0.3,12.6,0.4,25.1,0.6,37.6c0.2,13,0.6,25.9,1,38.8c0.4,13.5,0.6,27.1,1,40.6
	c0.3,13.2,1,26.4,0.9,39.6c-14.4,8.2-28.8,16.5-43.2,24.7c-0.9,0.5-1.8,0.9-2.7,1.3c8.4-36.7,16.8-73.3,25.2-110
	c5.3-23.2,10.7-46.4,16-69.7C122.9,4.1,122.3,2.6,123.9,2.1z"/>
<path class="st2" d="M509,184.3l-41.4-25.7c-1.2-0.7-2.4-1.5-3.5-2.3c0.6-10.4,1.3-20.9,1.9-31.3c0.4-6.3,0.7-12.6,1.1-18.9
	c0.6-10,1.3-20.1,1.9-30.1c0.4-6.1,0.7-12.1,1.1-18.2c0.6-10.1,1.3-20.2,1.9-30.3c0.4-6.4,0.8-12.8,1.1-19.2c0-2,0.2-4,0.6-5.9
	c1.8,9,3.7,17.9,5.4,26.8c7.8,39.9,15.5,79.7,23.3,119.6c2.2,11.3,4.4,22.7,6.6,34C509,183.3,509,183.8,509,184.3z"/>
<path class="st1" d="M173.8,341.2c-1.1,0-1.6,0.8-2.2,1.4c-17.3,18-34.5,36-51.8,54c-10.2,10.6-20.3,21.3-30.5,31.9
	c-2.6,2.7-4.9,5.6-7.8,8.1c0-1.4,0-2.8,0-4.2c0-80.9,0-161.9,0-242.8c-0.2-1-0.1-2.1,0.4-3.1c1.1,0.7,1.4,1.8,2,2.8
	c20.3,34.2,40.6,68.5,60.9,102.8C154.5,308.4,164.1,324.8,173.8,341.2z"/>
</svg>
