<svg id="Layer_1" data-name="Layer 1" xmlns="http://www.w3.org/2000/svg" viewBox="0 0 270.95 230.06"><defs><style>.cls-1{fill:#1372a6;}.cls-2{fill:#1372a7;}.cls-3{fill:#bee6f6;}.cls-4{fill:#bfe6f7;}.cls-5{fill:#bee6f8;}.cls-6{fill:#01a0d4;}.cls-7{fill:#bfe6f4;}.cls-8{fill:#bee6f7;}.cls-9{fill:#c0e6f8;}.cls-10{fill:#bfe5f9;}.cls-11{fill:#bfe6f6;}.cls-12{fill:#02a1d4;}.cls-13{fill:#c1e6f8;}.cls-14{fill:#c2e7f8;}.cls-15{fill:#fefefe;}</style></defs><title>cloud innovation1</title><path class="cls-1" d="M574.08,337.41c-.07,1.78-.73,3.47-.75,5.29a20.74,20.74,0,0,0,.64,6,34.85,34.85,0,0,0,7.59,13.4A74.15,74.15,0,0,0,602,378.19c1,.53,1.93,1.11,2.9,1.66a9.09,9.09,0,0,0,4.64,1.31c11.91-.07,23.82.16,35.72-.12,8.73-.2,17.47-.23,26.2-.47,4.83-.14,9.65-.07,14.48-.15,1.95,0,3.89.37,5.85.2,3.42-.3,6.87,0,10.28-.27,3.07-.24,6.14-.11,9.21-.2,11.69-.32,23.4-.1,35.09-.3,4.59-.08,9.19.11,13.76-.24,2.81-.21,5.64.12,8.45-.5a17.34,17.34,0,0,0,7.16-3.92,42.21,42.21,0,0,0,12-14.67,24.08,24.08,0,0,0,2.2-14,2.51,2.51,0,0,1,.09-1.53c2.09,10.68-1.06,20-7.56,28.38a53.39,53.39,0,0,1-10.61,10c-2.05,1.52-4.38,1.33-6.66,1.37-6.43.11-12.86.1-19.29.17q-18.39.18-36.77.41l-36.66.47L649,386l-29.46.42c-3.24,0-6.47.13-9.7.19a7.88,7.88,0,0,1-4.15-1c-9.11-5.27-17.51-11.43-24.2-19.67-4.14-5.09-7.24-10.68-8.23-17.28A21.93,21.93,0,0,1,574.08,337.41Z" transform="translate(-547.1 -267.45)"/><path class="cls-2" d="M739.54,310.18a26.88,26.88,0,0,0-2.53-7.26,52.74,52.74,0,0,0-5.85-8.42c-5.66-6.73-12.77-11.6-20.54-15.51a63.41,63.41,0,0,0-20.07-6.26,59,59,0,0,0-12.16-.35,47.72,47.72,0,0,0-16.09,4.13A54.6,54.6,0,0,0,644.09,290a73.77,73.77,0,0,0-10.62,15.1c-.31.59-.68,1.15-1,1.78s-.75,1.09-1.62.66c-5.84-2.86-12-3-18.16-1.56a58.47,58.47,0,0,0-24.81,12.28c-1.64,1.39-3.29,2.78-4.79,4.31-.17.17-.27.56-.65.35a59.49,59.49,0,0,1,12.9-10.78,51.92,51.92,0,0,1,20.3-8.06,21.86,21.86,0,0,1,14.6,2.29c1.48.83,1.48.82,2.23-.76a86,86,0,0,1,13.14-20.34c7-7.93,15.39-13.71,25.78-16.32,10.69-2.69,21.12-1.65,31.34,2.26a64.39,64.39,0,0,1,29.05,21.29c3.31,4.35,6.16,8.94,7.32,14.38A10.51,10.51,0,0,1,739.54,310.18Z" transform="translate(-547.1 -267.45)"/><path class="cls-3" d="M682.6,442.47a32.73,32.73,0,0,1-20.52-6.86c-.8-.63-1.2-1.2-.4-2.15s1.47-2,2.33-2.87a1.29,1.29,0,0,1,2-.14,25,25,0,0,0,11.58,5.08,27.58,27.58,0,0,0,12.27-.89,31.67,31.67,0,0,0,8.33-4.1,1.62,1.62,0,0,1,2.55.33c.65.81,1.38,1.54,2.06,2.33.81.94.74,1.53-.29,2.27a40,40,0,0,1-16.07,6.71A11,11,0,0,1,682.6,442.47Z" transform="translate(-547.1 -267.45)"/><path class="cls-4" d="M734.19,425.53a31,31,0,0,1-16.5-4.8c-1.05-.65-2.09-1.31-3.11-2a1.32,1.32,0,0,1-.26-2.21c.7-.82,1.38-1.65,2.06-2.48a1.72,1.72,0,0,1,2.7-.26A23.62,23.62,0,0,0,733.74,419c6.31.18,11.86-2,17-5.35,1.27-.83,1.59-.83,2.59.34.8.94,1.56,1.91,2.37,2.84a.92.92,0,0,1-.22,1.58c-5.2,3.36-10.68,6.05-16.91,6.76A21.81,21.81,0,0,1,734.19,425.53Z" transform="translate(-547.1 -267.45)"/><path class="cls-5" d="M631.17,425.89a34.42,34.42,0,0,1-20.8-6.77,1.25,1.25,0,0,1-.43-1.69,20.55,20.55,0,0,1,1.88-2.9c1-1.32,2.12-1.4,3.4-.31a22.32,22.32,0,0,0,12.64,5c6.86.66,12.91-1.54,18.6-5.1,1.52-.95,1.55-1,2.69.39.62.74,1.25,1.45,1.9,2.15,1,1.07,1,1.62-.24,2.38a49,49,0,0,1-9,4.59,31.85,31.85,0,0,1-5.5,1.54C634.27,425.54,632.26,425.75,631.17,425.89Z" transform="translate(-547.1 -267.45)"/><path class="cls-6" d="M803.9,459.43v12.12c0,2.3,0,2.3-2.35,2.3-2,0-2,0-2-2,0-6.39,0-12.77,0-19.16,0-.89.25-1,1.11-1.15,2.66-.39,4.25.58,5.55,3,2,3.63,4.4,7,6.63,10.52.17.26.35.51.55.8.33-.42.17-.83.17-1.2,0-3.95,0-7.9,0-11.85,0-.87.12-1.34,1.14-1.23s2.4-.31,3,.21.23,2,.23,3.08c0,5.91,0,11.82,0,17.72,0,.95-.21,1.19-1.21,1.32-2.45.31-3.87-.59-5.09-2.75-2.08-3.68-4.52-7.14-6.82-10.68C804.57,460.12,804.44,459.68,803.9,459.43Z" transform="translate(-547.1 -267.45)"/><path class="cls-6" d="M661.1,459.63c0,4.26,0,8.53,0,12.79,0,1.13-.23,1.49-1.42,1.46-3-.09-3,0-3-3,0-6,0-12.06,0-18.09,0-.89.21-1.11,1.16-1.24,2.56-.34,4.09.57,5.37,2.88,2.19,3.93,4.78,7.63,7.21,11.44.44-.24.24-.6.24-.86,0-4.12,0-8.23,0-12.34,0-.81.16-1.17,1-1.08,1.06.11,2.46-.43,3.12.2s.2,2,.21,3.1c0,5.95,0,11.9,0,17.85,0,.89-.24,1-1.11,1.16-2.56.39-4-.62-5.27-2.85-2.25-3.94-4.87-7.67-7.33-11.48Z" transform="translate(-547.1 -267.45)"/><path class="cls-6" d="M682.72,459.48c0,4.38,0,8.76,0,13.14,0,1-.24,1.36-1.25,1.24s-2.27.41-2.89-.19-.22-2-.22-3c0-6,0-12,0-18,0-.85.18-1.05,1.08-1.18,2.67-.37,4.25.6,5.55,3,2,3.6,4.36,7,6.57,10.42.18.29.38.57.76,1.15v-5.4c0-2.72,0-5.43,0-8.15,0-.79.22-1,1-1,1.07.08,2.45-.33,3.13.2s.23,2,.23,3.07c0,5.91,0,11.82,0,17.73,0,.93-.18,1.19-1.2,1.32-2.41.31-3.8-.58-5-2.7-2.33-4-5-7.86-7.53-11.78Z" transform="translate(-547.1 -267.45)"/><path class="cls-6" d="M600.62,459.61c0-2.36,0-4.71,0-7.07,0-.7.14-1,.91-1,1.11.1,2.55-.44,3.25.2s.21,2.12.22,3.22c0,3.23,0,6.47,0,9.7a11.75,11.75,0,0,0,.08,1.68,4.17,4.17,0,0,0,6.17,3.28,3.66,3.66,0,0,0,2-3.22c.28-2.59.08-5.18.12-7.78q0-3,0-6.11c0-.68.11-1,.91-1,1.11.09,2.55-.34,3.24.21s.24,2.1.23,3.2c-.05,3.91.23,7.82-.16,11.72-.3,3.05-1.53,5.62-4.56,6.74-3.25,1.2-6.53,1.22-9.47-.92a7.07,7.07,0,0,1-2.76-5.62c-.13-2.43,0-4.87,0-7.3Z" transform="translate(-547.1 -267.45)"/><path class="cls-6" d="M719.06,451.59c1.5,0,2.81.05,4.12,0,.76,0,.82.48,1,.95l4.65,13.31c.09.25.2.5.41,1,.53-1.43,1-2.63,1.42-3.84,1.26-3.53,2.53-7,3.76-10.58.22-.63.49-.91,1.18-.86a19.42,19.42,0,0,0,2.75,0c.95-.07,1,.21.72,1.05-2.22,5.88-4.4,11.78-6.59,17.68-.09.22-.17.45-.26.67-1.09,2.93-1.09,2.9-4.19,2.89a1.09,1.09,0,0,1-1.19-.85q-3.47-9.61-7-19.22C719.62,453.13,719.38,452.46,719.06,451.59Z" transform="translate(-547.1 -267.45)"/><path class="cls-6" d="M564.14,468c0,1.5,0,2.81,0,4.12,0,.44-.27.63-.61.79-5.66,2.74-15.33,1.69-16.34-8.36-.41-4.15.53-7.89,3.83-10.68,3.73-3.15,8-3.18,12.41-1.8a.87.87,0,0,1,.72.94c0,1.31,0,2.63,0,4.1-4.35-2.14-8.57-3.22-11.62,1.74-1.7,2.77-1.23,7.31.88,9.3C556.84,471.4,560.41,470.14,564.14,468Z" transform="translate(-547.1 -267.45)"/><path class="cls-7" d="M734.54,414.16c-4.73.42-8.71-1.22-12.41-3.76-1.48-1-1.51-1.1-.43-2.49.65-.85,1.37-1.65,2-2.49s1.37-.95,2.34-.3a13.19,13.19,0,0,0,6,2.49c4.21.45,8.19-.13,11.71-2.62.9-.63,1.49-.72,2.19.17.84,1.07,1.73,2.08,2.61,3.11.64.75.17,1.27-.41,1.69a24.57,24.57,0,0,1-5.25,2.82A17.36,17.36,0,0,1,734.54,414.16Z" transform="translate(-547.1 -267.45)"/><path class="cls-8" d="M630.23,414.89c-5-.38-9.38-1.74-13.12-4.8-.63-.51-.67-.94-.07-1.57a28.6,28.6,0,0,0,2.26-2.76c.82-1.09,1.27-1.24,2.36-.45a14.11,14.11,0,0,0,6.27,2.71,15.51,15.51,0,0,0,10.84-2.25c2-1.26,2.2-1.25,3.67.64.61.78,1.23,1.55,1.86,2.32a.92.92,0,0,1-.25,1.52,25.66,25.66,0,0,1-10.54,4.22A17.71,17.71,0,0,0,630.23,414.89Z" transform="translate(-547.1 -267.45)"/><path class="cls-9" d="M681.7,431c-4.74.68-8.65-1.27-12.38-3.8-1.23-.83-1.24-1.16-.25-2.32a14.52,14.52,0,0,0,1.19-1.78,2.43,2.43,0,0,1,3.94-.7c2.85,2.19,6.12,2.63,9.59,2.25a17.58,17.58,0,0,0,7.61-2.91,1.35,1.35,0,0,1,2.07.34c.71,1,1.45,1.89,2.18,2.83s.69,1.56-.16,2c-3,1.54-5.85,3.41-9.28,4C684.69,431.07,683.19,430.86,681.7,431Z" transform="translate(-547.1 -267.45)"/><path class="cls-6" d="M763,464.9c0,2.63,0,5.27,0,7.9,0,.85-.25,1.13-1.08,1.06a12.4,12.4,0,0,0-2.28,0c-.87.08-1.06-.28-1.06-1.09,0-5.27,0-10.54,0-15.81,0-1-.23-1.35-1.25-1.27-1.23.08-2.48,0-3.71,0-.76,0-.92-.25-.93-1,0-3.17-.06-3.17,3.13-3.17,4,0,7.91,0,11.86,0,.83,0,1.16.18,1.06,1.05s.41,2.25-.2,2.88-1.89.18-2.87.2c-2.73,0-2.73,0-2.73,2.73Z" transform="translate(-547.1 -267.45)"/><path class="cls-6" d="M566.4,462.63c0-3.35,0-6.7,0-10.05,0-.78.2-1.08,1-1,1.1.13,2.57-.47,3.2.25s.18,2.05.18,3.12c0,4.55,0,9.1,0,13.65,0,.91.24,1.16,1.13,1.13,2-.07,4.07,0,6.11,0,.65,0,.89.17.91.87.12,3.28.14,3.28-3.15,3.28-2.76,0-5.51,0-8.27,0-.82,0-1.09-.19-1.08-1.05C566.43,469.42,566.4,466,566.4,462.63Z" transform="translate(-547.1 -267.45)"/><path class="cls-10" d="M680.94,421.15c-2.9.23-5.4-1.21-7.87-2.69a.92.92,0,0,1-.21-1.45c.86-1.2,1.91-2.23,2.75-3.45a1.19,1.19,0,0,1,1.8-.2c2.81,2,5.68,1.69,8.53.11,1-.53,1.67-.57,2.3.46a14.41,14.41,0,0,0,2,2.39c1,1,.88,1.73-.37,2.46A16.37,16.37,0,0,1,680.94,421.15Z" transform="translate(-547.1 -267.45)"/><path class="cls-11" d="M629.73,404.6c-2.74.3-5.17-1-7.55-2.24-1.28-.68-1.31-1.3-.52-2.54s2-1.95,2.76-3.13c.33-.49.81-.09,1.18.11a10.09,10.09,0,0,0,4.52,1.36,7.75,7.75,0,0,0,4.28-1.27c.9-.56,1.53-.55,2.18.45a14.89,14.89,0,0,0,2.31,2.89c.73.68.49,1.25-.27,1.73A14.87,14.87,0,0,1,629.73,404.6Z" transform="translate(-547.1 -267.45)"/><path class="cls-3" d="M734.56,404.35c-2.91-.32-5.77-.58-8.2-2.36-1.17-.86-1.29-1.59-.35-2.66.77-.86,1.55-1.7,2.31-2.58a1.14,1.14,0,0,1,1.68-.25c2.77,1.91,5.6,1.66,8.47.26,1.29-.64,1.91-.44,2.77.68.55.73,1.15,1.42,1.75,2.11.84,1,.84,1.49-.29,2.22a15.12,15.12,0,0,1-6.32,2.36Z" transform="translate(-547.1 -267.45)"/><path class="cls-12" d="M653.36,462.71c0,3.31,0,6.62,0,9.94,0,.88-.19,1.33-1.19,1.21s-2.35.41-3-.21-.21-2-.22-3c0-6,0-12,0-18,0-.89.21-1.22,1.12-1.12a13.63,13.63,0,0,0,2.39,0c.76-.06.95.22.94.95C653.35,455.92,653.36,459.31,653.36,462.71Z" transform="translate(-547.1 -267.45)"/><path class="cls-6" d="M774.34,462.67c0,3.39,0,6.78,0,10.17,0,.77-.18,1.08-1,1-1.07-.08-2.45.33-3.13-.2s-.23-2-.24-3.07c0-6,0-12,0-17.95,0-.83.18-1.15,1-1.06,1.06.11,2.45-.43,3.11.21s.19,2,.2,3.1C774.36,457.48,774.34,460.08,774.34,462.67Z" transform="translate(-547.1 -267.45)"/><path class="cls-13" d="M618.8,485.65q-1.89,5.21-3.76,10.41c-.2.55-.31,1.13-1.16,1.1s-.83-.61-1-1.12c-1.14-3.39-2.27-6.78-3.41-10.2a10.71,10.71,0,0,0-.37,3.27c-.12,2.46-.32,4.91-.46,7.37,0,.65-.41.66-.88.67s-.84-.15-.8-.74c.1-1.67.17-3.34.29-5s.29-3.48.42-5.22a5.48,5.48,0,0,1,.16-1.66c.2-.51-.2-1.34.9-1.33.95,0,1.6.06,2,1.18,1.08,3.33,2.33,6.6,3.37,10.28.49-1.47.86-2.67,1.28-3.84.82-2.29,1.71-4.55,2.48-6.85.36-1.09,1.18-.68,1.86-.74.84-.08.86.64.9,1.14.11,1.43.13,2.86.24,4.29.18,2.45.22,4.92.5,7.37.06.54.15,1.15-.76,1.13-.71,0-1.11-.17-1.15-1-.13-3.5-.31-7-.47-10.49Z" transform="translate(-547.1 -267.45)"/><path class="cls-9" d="M636.13,485.65c.17,3.5,0,7,.08,10.5,0,.67-.13,1.06-.92,1-.55,0-.78-.22-.78-.78q0-6.17,0-12.34c0-.36,0-.76.48-.8.71,0,1.42-.15,1.9.64,1.07,1.73,2.17,3.43,3.28,5.13s2.06,3.36,3.22,5v-6.86c0-1,0-2.08,0-3.11,0-.6.17-.88.82-.87s.88.15.87.8c0,4.11,0,8.23,0,12.34,0,.36,0,.76-.5.78-.67,0-1.36.16-1.81-.57-1.42-2.31-2.88-4.59-4.29-6.89C637.66,488.35,636.91,487,636.13,485.65Z" transform="translate(-547.1 -267.45)"/><path class="cls-9" d="M758.48,485.76c0,3.5,0,6.85,0,10.2,0,.59.15,1.21-.83,1.21s-.85-.61-.85-1.2c0-3.83,0-7.66,0-11.49,0-.45-.32-1.18.51-1.23s1.45-.27,2,.64c2,3.46,4.46,6.68,6.24,10.29,0,.06.13.08.27.16a10.36,10.36,0,0,0-.1-2.79c-.08-2.51,0-5-.05-7.54,0-.67.31-.8.89-.8s.81.16.81.75q0,6.23,0,12.45c0,.4-.07.73-.57.73s-1.23.16-1.66-.59c-2-3.55-4.44-6.89-6.35-10.52C758.75,486,758.67,485.93,758.48,485.76Z" transform="translate(-547.1 -267.45)"/><path class="cls-13" d="M604.55,493.17a12.74,12.74,0,0,0,0,2c.22,1.31-.47,1.78-1.6,2a12.56,12.56,0,0,1-5.32,0,6.3,6.3,0,0,1-4.62-5.86,7.81,7.81,0,0,1,1.75-6,8.49,8.49,0,0,1,8.65-1.87c.45.17.65.31.45.84s-.36.79-.93.61a7,7,0,0,0-4-.18,4.91,4.91,0,0,0-4,5.06c-.05,1.81.13,3.49,1.57,4.82a5.78,5.78,0,0,0,5.57,1.2c.46-.11.56-.36.55-.76s0-.8,0-1.2c0-2.15,0-2.17-2.15-2.37-.49-.05-.73-.19-.73-.71s.16-.77.69-.75H601c1.11.07,2.51-.46,3.25.21S604.41,492.26,604.55,493.17Z" transform="translate(-547.1 -267.45)"/><path class="cls-13" d="M727.8,488.13c0-1.36,0-2.72,0-4.07,0-.74.35-.83,1-.85s1,.21,1,1c0,2.48,0,5,0,7.43a7,7,0,0,0,.47,2.45,2.86,2.86,0,0,0,2.74,1.9,2.92,2.92,0,0,0,3-1.84,7,7,0,0,0,.48-2.44c0-2.48,0-5,0-7.43,0-.66.1-1,.9-1s1.07.24,1,1c-.13,3,.2,6-.24,9a4.88,4.88,0,0,1-4.71,4.22c-4.16.27-5.27-2.29-5.58-5.45A37.61,37.61,0,0,1,727.8,488.13Z" transform="translate(-547.1 -267.45)"/><path class="cls-14" d="M572.56,492.82c-2.32,0-2.29,0-3.09,2.27-.32.9-.29,2.12-1.73,2.22-.63.05-.92,0-.67-.75,1.47-4.28,2.93-8.58,4.37-12.87a.83.83,0,0,1,1-.68c.64.09,1.42,0,1.7.81q2.17,6.38,4.32,12.76c.08.24.42.7-.15.74s-1.42.05-1.73-.71a14.4,14.4,0,0,1-.78-2.38,1.55,1.55,0,0,0-2-1.42A7.87,7.87,0,0,1,572.56,492.82Z" transform="translate(-547.1 -267.45)"/><path class="cls-13" d="M590.41,488.44c0,1.35,0,2.71,0,4.06a5.08,5.08,0,0,1-3.71,4.86c-3,.57-5.07-.38-6.12-2.88a6.79,6.79,0,0,1-.46-2.56c0-2.55,0-5.1,0-7.65,0-.74.16-1.07,1-1.08s.95.42.95,1.12q0,4,0,8c0,2.49,1.3,3.71,3.7,3.62,1.7-.07,3-1.76,3-4.09s0-4.87,0-7.3c0-.57-.3-1.33.8-1.35s.86.8.88,1.41c0,1.27,0,2.55,0,3.83Z" transform="translate(-547.1 -267.45)"/><path class="cls-9" d="M687.27,488.44v-3.95c0-.61-.19-1.31.88-1.29s.81.66.81,1.23c0,2,0,3.92,0,5.87a14.62,14.62,0,0,0,.27,3c.35,1.61,1.22,2.91,3.59,2.69a3.22,3.22,0,0,0,2.84-3.15c.33-2.82.16-5.65.21-8.48,0-.57-.07-1.1.81-1.12s.89.52.89,1.16c0,2.59.09,5.19,0,7.78-.2,4.41-3,5.86-6.94,5.08a4.65,4.65,0,0,1-3.34-4.59c0-1.4,0-2.79,0-4.19Z" transform="translate(-547.1 -267.45)"/><path class="cls-9" d="M624.22,490.15c0-2,0-4,0-6,0-.74.25-1,1-1,1.88,0,3.76,0,5.63,0,.49,0,.85.06.87.69s-.36.77-.91.77c-1.28,0-2.55,0-3.83,0-.76,0-1.11.19-1,1a9.83,9.83,0,0,1,0,2c-.16,1.23.51,1.53,1.53,1.52s2.16,0,3.23,0c.57,0,.79.21.78.78s-.28.68-.76.67c-1.24,0-2.48,0-3.71,0-.87,0-1.11.3-1.06,1.11.05,1,0,2.08,0,3.11,0,.62.22.86.84.84,1.43,0,2.87,0,4.31,0,.49,0,1.08-.16,1.09.69s-.5.76-1,.76c-2,0-3.91,0-5.87,0-.78,0-1.05-.23-1-1C624.24,494.14,624.22,492.15,624.22,490.15Z" transform="translate(-547.1 -267.45)"/><path class="cls-9" d="M770.71,490.23c0-2,0-4,0-6,0-.77.23-1.05,1-1,1.84,0,3.67,0,5.51,0,.52,0,.94,0,.94.73s-.44.73-.95.72c-1.2,0-2.4.07-3.59,0s-1.35.34-1.24,1.3a7.66,7.66,0,0,1,0,1.79c-.16,1.17.48,1.47,1.45,1.47s2.08,0,3.11,0c.5,0,1,0,1,.71s-.39.75-.92.74c-1.24,0-2.48,0-3.72,0-.68,0-.93.24-.89.91.09,1.31-.51,2.95.22,3.84s2.41.19,3.66.29c.56,0,1.12,0,1.68,0s.68.25.68.74-.21.71-.72.71c-2.15,0-4.31,0-6.46,0-.71,0-.74-.42-.74-.94C770.71,494.22,770.71,492.22,770.71,490.23Z" transform="translate(-547.1 -267.45)"/><path class="cls-13" d="M785.47,483a5.5,5.5,0,0,1,1.73.18c.49.19,1,.22.77,1s-.62.72-1.17.47a4.37,4.37,0,0,0-2.12-.21,2.06,2.06,0,0,0-2.15,1.38,2.09,2.09,0,0,0,1.06,2.64c.92.49,1.9.84,2.82,1.31a4,4,0,0,1,2,5.13,3.23,3.23,0,0,1-1.62,1.84,7.11,7.11,0,0,1-5.9.11c-.55-.2-.67-.51-.46-1.11s.57-.46,1-.32a8.22,8.22,0,0,0,2.56.52c1.27,0,2.5-.72,2.71-1.57A2.83,2.83,0,0,0,785.1,491c-.79-.36-1.61-.69-2.39-1.09a3.54,3.54,0,0,1-2.12-3.88,3.87,3.87,0,0,1,3.76-3.08Z" transform="translate(-547.1 -267.45)"/><path class="cls-13" d="M746,483a6.8,6.8,0,0,1,2,.23c.57.16.82.37.62,1s-.41.8-1,.51a5,5,0,0,0-2.46-.3A2.09,2.09,0,0,0,743,486.1a2,2,0,0,0,1,2.24c.95.63,2,.91,3,1.46,1.6.89,2.62,2.49,2.39,3.91a4.22,4.22,0,0,1-3.73,3.63,7.94,7.94,0,0,1-4-.42c-.73-.3-.66-.72-.48-1.33.24-.82.64-.28,1-.16,1.58.53,3.17,1,4.59-.3a2.23,2.23,0,0,0-.43-3.72c-.79-.45-1.66-.75-2.48-1.15-2.13-1-3-2.6-2.53-4.59.36-1.62,2-2.67,4.18-2.69Z" transform="translate(-547.1 -267.45)"/><path class="cls-13" d="M794.2,497.37a7.22,7.22,0,0,1-2.69-.41c-.48-.15-1-.3-.71-1.08s.72-.6,1.2-.4a5.87,5.87,0,0,0,2.81.45,2.51,2.51,0,0,0,2.4-2,2.25,2.25,0,0,0-1.23-2.59c-1.05-.57-2.16-1-3.21-1.59a3.33,3.33,0,0,1-1.87-3.34,3.51,3.51,0,0,1,2.83-3.3,7.5,7.5,0,0,1,4.12.12c.53.17.66.44.46,1s-.43.7-1,.46a5.18,5.18,0,0,0-2.47-.27,2.1,2.1,0,0,0-2,1.59,1.92,1.92,0,0,0,.87,2.29,15.3,15.3,0,0,0,1.81.91,12.16,12.16,0,0,1,1.9,1,3.91,3.91,0,0,1,1.48,4.44,4.24,4.24,0,0,1-3.87,2.72C794.76,497.39,794.48,497.37,794.2,497.37Z" transform="translate(-547.1 -267.45)"/><path class="cls-13" d="M666.4,489.93c1-1.94,1.88-3.72,2.77-5.5.13-.25.24-.51.39-.75a1.33,1.33,0,0,1,1.81-.36c.59.3-.07.78-.27,1.14q-1.85,3.21-3.71,6.42a2.4,2.4,0,0,0-.26,1.27c0,1.4,0,2.79,0,4.19,0,.65-.27.82-.86.82s-.86-.23-.84-.85c0-1.08,0-2.16,0-3.23a5.82,5.82,0,0,0-.77-3.07c-1.17-2-2.26-4-3.38-6.06-.13-.24-.4-.5-.25-.75s.57,0,.85,0c1-.11,1.4.44,1.77,1.24C664.5,486.22,665.43,488,666.4,489.93Z" transform="translate(-547.1 -267.45)"/><path class="cls-9" d="M651.06,490.85c0-1.72,0-3.43,0-5.15,0-.75-.19-1.1-1-1s-1.68,0-2.52,0c-.52,0-.82-.13-.81-.73s.32-.73.83-.72q4.32,0,8.62,0c.57,0,.9.13.88.8s-.42.67-.88.66H655c-2.24,0-2.24,0-2.24,2.3,0,2.95,0,5.9,0,8.85,0,.57.3,1.33-.81,1.35s-.87-.68-.87-1.29C651.05,494.2,651.06,492.53,651.06,490.85Z" transform="translate(-547.1 -267.45)"/><path class="cls-14" d="M753.68,490.17c0,2,0,4,0,6,0,.76-.27,1.13-1,1.13s-1-.44-1-1.17q0-5.92,0-11.83c0-.72.18-1.17.93-1.19s1,.46,1,1.23C753.65,486.27,753.68,488.22,753.68,490.17Z" transform="translate(-547.1 -267.45)"/><path class="cls-6" d="M790.4,349.57a42.29,42.29,0,0,1-.38-4.63,38.54,38.54,0,0,0-4.27-11.87c-6.21-11.07-15.55-17.24-28.35-17.88a43.13,43.13,0,0,0-16.17,2.73,12.1,12.1,0,0,1-2.67.81c.18-.68.38-1.24.48-1.82.4-2.22.93-4.44.5-6.73a20,20,0,0,0-1.45-5.74,45,45,0,0,0-8.56-12.22,68.48,68.48,0,0,0-24.35-16,58.83,58.83,0,0,0-28.19-4,49.85,49.85,0,0,0-29.07,13.47,74.54,74.54,0,0,0-15.4,20.5c-.71,1.35-.72,1.35-2.07.75A26.2,26.2,0,0,0,616.38,305a49.3,49.3,0,0,0-11,2.84,55.66,55.66,0,0,0-16.49,9.3c-2.23,1.83-4.29,3.81-6.4,5.76a45.18,45.18,0,0,0-5.71,7.63,21.1,21.1,0,0,0-2.7,6.86,25.19,25.19,0,0,0-1,6.32A23.53,23.53,0,0,0,576.69,356a53,53,0,0,0,11.8,13.44,95.39,95.39,0,0,0,17.1,11.2,7.47,7.47,0,0,0,3.68.89c15.57-.16,31.14.15,46.71-.4,8.61-.31,17.25-.33,25.87-.34,2.76,0,5.51.27,8.26.2,4.7-.12,9.41-.31,14.11-.36,7.19-.09,14.37-.27,21.56-.33,7.7-.06,15.41.13,23.12-.16,5.62-.21,11.25-.12,16.88-.31a13.18,13.18,0,0,0,7-2.07,43.87,43.87,0,0,0,13.88-14.48A24.2,24.2,0,0,0,790.4,349.57ZM778,363.27a43,43,0,0,1-9.49,8.71,4.4,4.4,0,0,1-2.58.8l-27.56.23a7.36,7.36,0,0,1-1.55-.11c-4.67-1-6.13-4.21-3.8-8.37.69-1.21,1.5-2.36,2.3-3.5.51-.72.55-1.2-.29-1.75-1.58-1-1.55-1.06-2.69.5a16.46,16.46,0,0,0-3.43,7.27,7,7,0,0,0,.93,4.83c.19.33.62.64.33,1.05s-.73.24-1.12.24l-9.82.08-22.52.24c-3.44,0-6.87.13-10.3.16a4.11,4.11,0,0,1-4.44-4.93,15.28,15.28,0,0,1,2.93-7.11,1.79,1.79,0,0,0-1.12-3,.71.71,0,0,0-.84.28c-2.27,3.38-4.23,6.88-4,11.16a20.58,20.58,0,0,0,1,3.77h-4c-7.63,0-15.26.07-22.88.15-7.31.08-14.61.22-21.92.32-2.26,0-3.25-.88-3.51-3.13a7.57,7.57,0,0,1,.8-4.05,18.59,18.59,0,0,1,3.68-5.27,1.72,1.72,0,0,0-.69-3,1,1,0,0,0-1.09.29c-2.38,2.66-4.63,5.4-5.53,9a8.59,8.59,0,0,0,.14,5.07c.27.76.26,1.19-.75,1.2-4.47,0-8.94.14-13.41.19a4.54,4.54,0,0,1-2.28-.64c-6.41-3.61-12.68-7.43-18-12.52-3.41-3.23-6.55-6.67-8.52-11a17.19,17.19,0,0,1,1.73-18.11c4.68-6.61,10.95-11.31,18.07-15a47.23,47.23,0,0,1,14.85-5.14c4.65-.67,9.07-.23,13.06,2.52a6.68,6.68,0,0,1,2.81,3.88,62.23,62.23,0,0,0,2.19,7.2,3.42,3.42,0,0,0,4.94,1.76,1.71,1.71,0,0,0,1-2.26c-1.31-3.94-1.66-8.12-3.09-12a1.66,1.66,0,0,1,.14-1.39c5-9.73,11.19-18.51,20.32-24.86A43.38,43.38,0,0,1,689,279.45c14.28,1.75,26.17,8.26,36.19,18.38a33.86,33.86,0,0,1,5.36,7.32c3.61,6.49,2.85,12.35-2.28,17.72a35.31,35.31,0,0,1-6.54,5c-2.47,1.59-2.49,1.68-.8,4.12l1.35,2c.81,1.18,1.07,1.25,2.31.44s2.57-1.75,3.87-2.62c5.9-3.95,12.1-7.27,19.11-8.8,9.17-2,17.87-1,25.44,4.88,6.74,5.25,10.14,12.46,10.49,20.92C783.72,354.29,781.31,359,778,363.27Z" transform="translate(-547.1 -267.45)"/><path class="cls-6" d="M598.55,459.47a9.92,9.92,0,0,0-8.1-8.1c-5-.75-9.35,1.26-11.43,5.35a13.69,13.69,0,0,0-1.3,7.34c.32,4.19,2.06,7.63,6.11,9.26s8,1.28,11.45-1.68c2.72-2.37,3.54-5.59,3.56-9.58A14.31,14.31,0,0,0,598.55,459.47Zm-4.25,4c0,.27,0,.59-.06.91-.34,3.29-2.44,5.49-5.42,5.69-3.24.23-5.57-1.55-6.36-4.9a10.11,10.11,0,0,1,.1-5.21,5.86,5.86,0,0,1,6.33-4.52c2.84.17,4.81,2.09,5.29,5.25A9.53,9.53,0,0,1,594.3,463.43Z" transform="translate(-547.1 -267.45)"/><path class="cls-6" d="M719.66,459.91a10,10,0,0,0-8-8.5c-5-.88-9.43,1.1-11.59,5.24a12.67,12.67,0,0,0-1.36,6.26A13.39,13.39,0,0,0,699,466a10,10,0,0,0,8.39,8.1c4.79.72,9.05-1.28,11.1-5.32A14.16,14.16,0,0,0,719.66,459.91Zm-4.45,4.95c-.67,3.38-2.72,5.17-5.88,5.19-3,0-5.23-1.84-5.87-5.08a9.06,9.06,0,0,1,1-6.93,5.72,5.72,0,0,1,6.11-2.57,5.44,5.44,0,0,1,4.5,4.4,13.7,13.7,0,0,1,.34,2.85C715.34,463.44,715.34,464.16,715.21,464.86Z" transform="translate(-547.1 -267.45)"/><path class="cls-6" d="M797.5,461.12c-.47-6.08-4.63-9.94-10.49-9.87a9.85,9.85,0,0,0-8.17,3.77c-2.56,3.32-2.89,7.14-2.09,11.05a9.27,9.27,0,0,0,6.8,7.62c4,1.09,7.71.64,10.79-2.39C797.18,468.49,797.8,464.9,797.5,461.12Zm-4.63,3.79c-.68,3.33-2.68,5.09-5.8,5.14s-5.19-1.78-5.94-5a10.4,10.4,0,0,1,0-4.51c.75-3.46,3.2-5.34,6.59-5.12,3,.2,5,2.49,5.29,5.93,0,.47,0,1,0,1.43h.09C793,463.49,793,464.21,792.87,464.91Z" transform="translate(-547.1 -267.45)"/><path class="cls-6" d="M639.05,461c-.42-5.29-3.53-8.53-8.82-9.24-2.83-.38-5.67-.09-8.5-.22-.81,0-1,.25-1,1,0,3.36,0,6.72,0,10.07s0,6.79,0,10.19c0,.79.24,1,1,1,1.84-.05,3.68,0,5.52,0C634.9,473.8,639.64,468.64,639.05,461Zm-4.84,4.24a6.2,6.2,0,0,1-5.61,4.31c-3.46.34-3.46.34-3.46-3.1v-3.95c0-2,0-3.91,0-5.86,0-.82.27-1,1-1a18,18,0,0,1,3.8.31,5.31,5.31,0,0,1,4.48,4.66A10.45,10.45,0,0,1,634.21,465.28Z" transform="translate(-547.1 -267.45)"/><path class="cls-6" d="M756,472.75q-3.62-9.24-7.17-18.5c-1-2.68-1-2.65-3.88-2.68a1.23,1.23,0,0,0-1.37,1c-1.89,5-3.82,10-5.74,15-.8,2.07-1.59,4.14-2.45,6.36,1.42,0,2.68-.05,4,0,.7,0,1-.26,1.16-.87.44-1.36,1-2.7,1.43-4.06a1,1,0,0,1,1.13-.77c1.27,0,2.55,0,3.83,0,2.54,0,2.54,0,3.47,2.39.42,1.07.6,2.49,1.39,3.09s2.32.09,3.5.21S756.37,473.61,756,472.75Zm-11.69-8.69c-.47,0-.53-.19-.38-.59.62-1.62,1.21-3.25,1.9-5.11.74,2,1.4,3.77,2.11,5.7Z" transform="translate(-547.1 -267.45)"/><path class="cls-13" d="M723.25,490a4.5,4.5,0,0,1-.37-.28c.08-.1.12-.18.18-.21,1.57-1,2.22-2.26,1.81-3.79a3.42,3.42,0,0,0-3-2.47,14,14,0,0,0-4.38,0c-.74.08-.94.31-.93,1q0,6,0,12c0,.84.36,1.17,1.13,1.17a20.39,20.39,0,0,0,4.41-.22,4.27,4.27,0,0,0,3.33-3.07A3.63,3.63,0,0,0,723.25,490Zm-4.81-3.3c0-2.42-.32-2.2,1.59-2.22s3,.68,3,2.22c0,1.7-.88,2.36-3.23,2.34C718.12,489,718.48,489.12,718.44,486.65Zm3.21,9.06a3.54,3.54,0,0,1-2.9.07c-.81-.52-.12-1.78-.31-2.52v-1c0-2,.17-2.13,2.22-1.69,2.26.49,2.81,1,2.82,2.57A2.34,2.34,0,0,1,721.65,495.71Z" transform="translate(-547.1 -267.45)"/><path class="cls-13" d="M683.74,485.82c-1.89-3.46-6.56-3.51-8.86-1.83-2.85,2.08-3.19,5-2.73,8.19.4,2.8,3.06,5.57,6.07,5.21a5.54,5.54,0,0,0,5.53-3.05A8.53,8.53,0,0,0,683.74,485.82Zm-2,8.36a4.08,4.08,0,0,1-7-.29,7.71,7.71,0,0,1-.92-3.92c.17-1.49.35-3.22,1.76-4.54a4.17,4.17,0,0,1,6.35,1.05A7.17,7.17,0,0,1,681.72,494.18Z" transform="translate(-547.1 -267.45)"/><path class="cls-13" d="M709.75,496.64c-.76-2.11-.45-4.68-2.78-6.16.31-.18.5-.31.71-.42a3.47,3.47,0,0,0,1.82-3.48,3.26,3.26,0,0,0-2.67-3.26,12,12,0,0,0-5.21-.12c-.58.12-.7.37-.7.88,0,4.07,0,8.14,0,12.21,0,.6.19.86.82.87s.9-.26.89-.92c0-1.4,0-2.79,0-4.19,0-.45,0-.83.63-.92,2.28-.3,3.39.42,3.93,2.64.22.92.48,1.84.71,2.77.21.78.84.59,1.37.6C709.58,497.14,709.87,497,709.75,496.64Zm-4.66-6.94c-2.47.18-2.47.18-2.47-2.64a1,1,0,0,1,0-.35c.36-.76-.89-2.25,1.06-2.28,2.76-.06,3.91.64,4,2.45A2.59,2.59,0,0,1,705.09,489.7Z" transform="translate(-547.1 -267.45)"/><path class="cls-15" d="M572.6,485.1c.66,1.87,1.31,3.66,1.93,5.46.19.55.2.89-.57.83-1.07-.07-2.56.34-3.1-.21s.51-1.82.79-2.81S572.28,486.19,572.6,485.1Z" transform="translate(-547.1 -267.45)"/></svg>