<svg id="Layer_1" data-name="Layer 1" xmlns="http://www.w3.org/2000/svg" viewBox="0 0 1298.47 317.48"><defs><style>.cls-1{fill:#d22843;}.cls-2{fill:#037daa;}</style></defs><title>Creative studio1</title><path class="cls-1" d="M494.59,544.41c9.39-25,18.68-49.64,28.05-74.51H383.91L415,544.41h-3q-112.35,0-224.7,0c-25.29,0-49.92-3.85-73.09-14.57C79.19,513.63,55.69,487,42.78,450.93c-5.36-15-7.85-30.57-9.08-46.41a220.71,220.71,0,0,1,.61-44.66c4.22-33.55,15.38-64.19,38.68-89.48,16.45-17.86,36.92-29.26,60.11-35.83a197.86,197.86,0,0,1,75.39-6.46A160.1,160.1,0,0,1,265.87,245c28.41,14.75,46.54,38,55.85,68.31a160.15,160.15,0,0,1,6.11,29.89c.52,4.79-.55,5.91-5.44,5.92-19.1,0-38.2.05-57.3,0-7.21,0-14.42,0-21.64.21-5,.14-7-1.5-8-6.33a65.14,65.14,0,0,0-5.78-17.37,38.89,38.89,0,0,0-23.93-20,66.24,66.24,0,0,0-35.14-1.08c-15.18,3.63-25.48,13-31.21,27.34-8.47,21.29-12.09,43.34-9.9,66.21A131.35,131.35,0,0,0,140.28,440c7.17,15.89,20,24.81,36.92,27.82,14.45,2.57,29.11,2.11,43.71,2,4.57,0,9.13-.18,13.69-.18q72.87,0,145.74,0c3.17,0,3.18,0,2.15-3.08q-30.12-90.18-60.25-180.38C317.51,272,312.7,257.93,308,243.8c-2.43-7.23-1.32-8.8,6.28-8.75,9.79.07,19.58.32,29.37.3,16.85,0,33.71-.19,50.56-.32,7.65-.06,9.83,1.58,11.72,8.92q9.75,38,19.52,76,13.13,50.71,26.37,101.41a14.52,14.52,0,0,1,.41,1.43,1.37,1.37,0,0,0,1.45,1.33c1.1.1,1.22-.62,1.42-1.32q1.62-5.73,3.22-11.47c15.59-55.79,31.45-111.5,46.45-167.45,1.81-6.75,4.61-8.88,11.56-8.83,10.79.07,21.58.31,32.36.3,14.69,0,29.38-.22,44.08-.3,7.63-.05,8.75,1.53,6.35,8.69q-13.2,39.3-26.38,78.6-24.18,72.39-48.37,144.78c-.71,2.13-.46,2.55,1.81,2.55q100.27-.09,200.54,0c2.33,0,4.65.14,7,.12a19.34,19.34,0,0,0,17.82-26.3c-2.05-5.24-6.17-8.29-11.13-10.38-10.12-4.27-20.74-6.89-31.37-9.48a595.92,595.92,0,0,1-70.6-21.35c-30.88-11.71-48.22-34.41-52.54-66.83-3.28-24.68,2.35-47.43,17.38-67.52,9.82-13.13,23.32-21.47,38.06-28,16.66-7.37,34.28-10.65,52.35-11.93a234.89,234.89,0,0,1,37,0c20.42,1.76,40.07,6.46,58.29,16.15,25.46,13.55,40.72,34.8,47,62.72a52.87,52.87,0,0,1,1.73,10.52c.05,2.94-.78,3.88-3.69,4.2a47.81,47.81,0,0,1-5.21.35Q791.9,322,755,322c-6.28,0-8.31-1.44-10.1-7.38-2.38-7.87-7.84-12.74-15.32-15.46a58.44,58.44,0,0,0-38.09-1c-9.88,3-15,12.67-12.31,22.62,1.5,5.45,5.32,8.86,10.3,11.09,10.17,4.55,20.92,7.34,31.7,10,20.89,5.21,42,9.78,62.31,16.95,15,5.28,28.81,12.72,40.31,23.94a72,72,0,0,1,21.63,44.19c2,16.3,1.21,32.43-3.74,48.19-6.66,21.22-20.23,37-39,48.49-14.84,9.12-31.13,14-48.11,17.39-15.85,3.16-31.78,3.34-47.8,3.32q-104.38-.12-208.77,0Z" transform="translate(-32.87 -226.97)"/><path class="cls-2" d="M923.37,312.4c0-2.09.06-3.7,0-5.31-.06-1.24.32-1.83,1.67-1.77a52.72,52.72,0,0,0,5.48,0c1.37-.07,1.65.51,1.64,1.75q-.07,9.19,0,18.4c0,1.15-.29,1.74-1.52,1.55h-.25c-4.27.51-7.32-.33-10.23-4.44-5.79-8.19-14.48-11-24.21-8.42s-14.84,10.08-16.6,19.73a25.94,25.94,0,0,0,5.45,21.71c10.89,13.54,30.89,10.69,38.66-5.43.21-.44.41-.9.61-1.35,1.49-3.42,1.49-3.42,4.89-1.6l.65.35c4.77,2.57,4.81,2.59,2.47,7.43-5.05,10.44-13.55,16.32-24.86,18.05-19,2.9-33.53-7.45-37.89-23.38-3.72-13.57-1.64-26.31,8.67-36.57,11-10.93,29.7-12,42.4-2.91C921.25,310.8,922.08,311.44,923.37,312.4Z" transform="translate(-32.87 -226.97)"/><path class="cls-2" d="M900.73,418.28c.46-4.26.46-4.26,4.46-4.26s4.1,0,4.1,4.21c0,4.73-.08,9.45,0,14.18,0,1.68-.53,2.24-2.12,2a14.69,14.69,0,0,0-2,0c-3.84,0-3.86,0-4.26-3.86a4.28,4.28,0,0,0-1-2.2,16.86,16.86,0,0,0-18.77-5.55c-3.16,1.11-5.21,3.17-5.54,6.63-.35,3.66.93,6.45,4.34,8.17,4.42,2.22,9.26,3.06,13.95,4.38s9.42,2.8,13.12,6.22c6.61,6.09,6.79,13.79,4.56,21.59-2.16,7.53-8,11.29-15.55,12.45a24.21,24.21,0,0,1-20.3-5.81c-.2.14-.39.21-.42.32-.43,1.47.78,3.88-.63,4.32-2.19.7-4.75.25-7.15.24-.85,0-.76-.71-.76-1.27,0-7.3,0-14.59,0-21.88,0-1.14.49-1.46,1.49-1.36.33,0,.67,0,1,0,1.82,0,4-.56,5.37.25,1.59.95.36,3.33.63,5.07.34,2.16,1.77,3.72,3,5.3,4.36,5.4,9.94,7.56,16.78,5.86,4.38-1.09,6.76-4.13,7.42-9.17.51-3.84-1.2-7-5-9.17s-8-2.77-12-4-7.77-2.36-11.23-4.58c-6.74-4.33-9.28-11.31-7.3-20,1.57-6.89,7.1-11.66,14.52-12.8A25.2,25.2,0,0,1,900.73,418.28Z" transform="translate(-32.87 -226.97)"/><path class="cls-2" d="M1045.3,475.17c-1.81,1.38-3.22,2.63-4.79,3.63-14.45,9.2-33.56-.68-34.64-17.88-.62-9.79,2.43-18,10.72-23.7a21.4,21.4,0,0,1,25.52.77c1,.73,1.89,1.51,3.18,2.56,0-5.92,0-11.43,0-16.94,0-1.18-.78-1-1.52-1-1.9,0-3.81-.06-5.72,0-1.22.05-1.71-.26-1.76-1.63-.28-6.64-.33-6.63,6.24-6.63,3.07,0,6.15.13,9.21-.05,2.2-.12,2.94.45,2.92,2.82-.11,17.65,0,35.3-.11,53,0,2.28.37,3.15,2.91,3.06,5.63-.21,5.54-.06,5.66,5.66,0,2-.44,2.72-2.56,2.64-4.39-.16-8.8-.12-13.19,0-1.62,0-2.27-.4-2.1-2.07C1045.41,478.07,1045.3,476.77,1045.3,475.17Zm0-15.7c0-9.13-4.3-15.12-10.88-16.91a14.09,14.09,0,0,0-16.25,6.51c-4.12,6.76-3.11,16,2.46,20.95,4.55,4.08,9.89,5.12,15.44,2.6A15,15,0,0,0,1045.3,459.47Z" transform="translate(-32.87 -226.97)"/><path class="cls-2" d="M1297.07,358.4c5.23-14.32,10.37-28.46,15.57-42.59.61-1.66.07-1.95-1.5-2-5.43-.09-5.32-.15-5.47-5.63-.05-2.19.42-3,2.81-2.92,6.88.18,13.78.12,20.67,0,1.78,0,2.2.55,2.19,2.25,0,6.22,0,6.32-6.06,6.25-1.9,0-2.33,1-2.85,2.36-6.8,18.3-13.66,36.57-20.42,54.88-.62,1.67-1.37,2.25-3.16,2.23-7-.08-7,0-9.53-6.66-6.4-16.87-12.83-33.71-19.16-50.59a2.83,2.83,0,0,0-3.21-2.2c-6,.09-5.94,0-6-6,0-1.88.39-2.54,2.42-2.51,7.3.13,14.61.1,21.91,0,1.71,0,2.5.43,2.21,2.2a4.56,4.56,0,0,0,0,.74c0,5.4,0,5.43-5.47,5.59-1.37,0-2,.22-1.44,1.81q8,21.12,15.92,42.26C1296.51,358,1296.69,358.11,1297.07,358.4Z" transform="translate(-32.87 -226.97)"/><path class="cls-2" d="M1236,351.41c-5.81,0-11.62,0-17.43,0-1.58,0-2.19.14-1.69,2,1.6,6.07,5.19,10.22,11.35,11.59,6.55,1.46,12.67.17,17.29-4.95,1.79-2,3.1-2.13,5.07-.87a10.47,10.47,0,0,0,1.36.62c4.17,1.87,4.17,1.87,1.12,5.22-10,11-29.89,11.64-40.16,1.22-6.72-6.82-8.67-17.94-4.79-27.31,3.67-8.87,12.24-14.23,22.13-14.52,15.39-.46,24.82,11.19,25.36,25.72.06,1.64-.85,1.28-1.68,1.28Zm-4.77-6.75c4.23,0,8.46,0,12.68,0,1.47,0,1.9-.36,1.47-1.86a15.56,15.56,0,0,0-14.34-10.74,14.47,14.47,0,0,0-13.78,10.56c-.44,1.53-.17,2.09,1.53,2.05C1223,344.59,1227.11,344.66,1231.26,344.66Z" transform="translate(-32.87 -226.97)"/><path class="cls-2" d="M1012.62,351.41c-5.72,0-11.45.11-17.17-.06-2.25-.07-2.2.74-1.73,2.43,1.66,5.94,5.32,10,11.38,11.24,6.67,1.41,12.77,0,17.44-5.24,1.45-1.61,2.5-2,4.25-.88a25,25,0,0,0,2.92,1.36c2.93,1.32,3,1.37.83,3.88-6.13,7.15-14.14,9.85-23.3,9.41-9.93-.47-17.68-4.66-22.1-13.92-5-10.47-1.68-23.88,7.49-30.6,9.33-6.83,23.23-6.24,31.5,1.47,5.59,5.21,7.71,12,8.22,19.41.1,1.57-.74,1.51-1.81,1.51C1024.57,351.4,1018.6,351.41,1012.62,351.41Zm-4.77-6.75c4.31,0,8.62,0,12.93,0,1.31,0,1.77-.3,1.37-1.72a15.55,15.55,0,0,0-14.24-10.87,14.41,14.41,0,0,0-13.86,10.43c-.47,1.55-.24,2.23,1.61,2.18C999.72,344.58,1003.78,344.66,1007.85,344.66Z" transform="translate(-32.87 -226.97)"/><path class="cls-2" d="M983,476.42a54.32,54.32,0,0,1-7.35,4.13,19.78,19.78,0,0,1-10.21,1.52c-6.66-1-10.11-5.07-10.37-13s-.17-15.59-.09-23.38c0-2.05-.27-2.93-2.64-2.79-4.06.23-4.07,0-4.07-4.18s0-4.14,4.22-4.14c3.16,0,6.32.12,9.47,0,1.91-.1,2.36.55,2.35,2.38-.08,9.86,0,19.73,0,29.6,0,6.8,2.94,9,9.49,6.94.87-.27,1.71-.63,2.56-1,4.72-1.84,7.49-4.56,6.82-10.35s-.2-11.43-.1-17.15c0-1.63-.43-2.12-2.07-2.08-2,.05-4.58.92-5.73-.36s-.17-4-.4-6c-.19-1.77.65-2,2.16-2,4.32.08,8.64.12,13,0,1.92-.06,2.51.43,2.49,2.44-.1,11.19,0,22.38-.1,33.57,0,2.15.62,2.59,2.64,2.55,5.47-.13,5.38,0,5.51,5.56.06,2.09-.34,2.9-2.66,2.77a112.84,112.84,0,0,0-12.2,0c-2.31.13-3-.67-2.64-2.78A17.89,17.89,0,0,0,983,476.42Z" transform="translate(-32.87 -226.97)"/><path class="cls-2" d="M1095.34,457.8c.37-14.79,10.8-24.8,25.35-24.36a24.22,24.22,0,0,1,23.81,25.07c-.42,14.39-11.14,24.49-25.7,24.19A24.11,24.11,0,0,1,1095.34,457.8Zm39.29.22c0-8.69-6.47-15.57-14.65-15.62s-14.94,7.13-14.88,15.73,6.68,15.41,14.9,15.41S1134.64,466.81,1134.63,458Z" transform="translate(-32.87 -226.97)"/><path class="cls-2" d="M1040.89,335.34a18.2,18.2,0,0,1,10.11-9.25,28.24,28.24,0,0,1,17.84-.7c6.64,1.82,10,6.65,10.2,14.71.2,7.21.12,14.43,0,21.64,0,1.8.37,2.41,2.3,2.38,5.65-.09,5.56,0,5.69,5.66,0,2-.41,2.76-2.55,2.66-3.73-.18-7.48-.16-11.21,0-2,.09-2.73-.49-2.46-2.47a22,22,0,0,0,0-2.87c-1.35,1-2.37,1.76-3.43,2.49-6.71,4.59-15,4.77-21,.47-8.9-6.4-8.16-19.12,1.49-24.32,6.48-3.49,13-3.17,19.57,0,.73.35,1.44.75,2.41,1.27.27-3.5.31-6.76-.76-9.9-1.33-3.94-5.51-5.74-11-5a10.66,10.66,0,0,0-7.59,4.24c-.53.72-1,1.22-2,.92C1046.07,336.62,1043.57,336,1040.89,335.34Zm29.13,22.4c-.16-1.12.5-2.42-.86-3.36-3.7-2.56-7.65-4.31-12.27-3.95a8.17,8.17,0,0,0-7.71,8.18c.13,4.24,3.51,7.26,8.15,7.28a17.39,17.39,0,0,0,10.55-3.82C1069.39,361,1070.53,359.81,1070,357.74Z" transform="translate(-32.87 -226.97)"/><path class="cls-2" d="M1160.35,479.3c.17,1.75-.66,2.1-2.16,2.11-6.34,0-6.34.08-6.34-6.21,0-2.73.06-5.47,0-8.2,0-1.33.38-1.8,1.68-1.65a11.18,11.18,0,0,0,2.24,0c2.52-.23,4.8-.42,5,3.22.11,1.64,1.62,2.84,3,3.76,4.26,2.71,8.77,2.71,13.34,1a5,5,0,0,0,3.47-5.2c-.1-2.4-1.9-3.29-3.89-3.94-3.87-1.26-7.91-1.76-11.84-2.78a40.3,40.3,0,0,1-4.49-1.4c-5.43-2.13-8.36-6.12-8.46-12s3-9.86,8.18-12.21c5.82-2.63,11.75-2.3,17.67-.15.7.26,1.82,1.49,2-.58,0-.67.75-.47,1.21-.52,6.84-.66,6.84-.66,6.84,6.23,0,2.65,0,5.3,0,7.95,0,1.15-.31,1.69-1.54,1.6a29,29,0,0,0-3.73,0c-1.81.11-2.77,0-3.08-2.44-.36-2.72-3.1-4.17-5.6-5.17a12.14,12.14,0,0,0-10.35.25,4.75,4.75,0,0,0-2.87,4.8c.15,2.22,1.58,3.39,3.53,4,4,1.25,8.11,1.64,12.15,2.58a44.78,44.78,0,0,1,5,1.37c5.19,1.89,8.54,5.36,8.85,11.1.33,6.2-2.42,10.85-8,13.31a24.4,24.4,0,0,1-19.57.11C1161.89,480,1161.23,479.69,1160.35,479.3Z" transform="translate(-32.87 -226.97)"/><path class="cls-2" d="M1175.47,359.88c3.34-8.76,6.54-17.17,9.85-25.89-1.71,0-3.17-.11-4.62,0-1.61.15-1.89-.53-1.9-2-.06-6.42-.1-6.42,6.19-6.42,4.73,0,9.46.06,14.19,0,1.66,0,2.47.32,2.3,2.16s.54,4.43-.4,5.79-3.55.46-5.41.42c-1.54,0-1.69,1-2.07,1.95-4.44,11.67-8.92,23.33-13.28,35-.66,1.75-1.47,2.38-3.37,2.34-5.93-.11-5.94,0-8.09-5.59-4.06-10.49-8.15-21-12.14-31.48-.61-1.62-1.32-2.3-3.16-2.26-6.2.11-6.14,0-6.16-6.13,0-1.7.41-2.27,2.2-2.25q10,.17,19.92,0c1.74,0,2.22.61,2,2.15,0,.41,0,.83,0,1.25-.06,1.56.41,3.46-.32,4.59s-2.76.37-4.21.41c-1.15,0-1.5.32-1.06,1.44q4.33,11.22,8.63,22.47C1174.81,358.4,1175.06,358.91,1175.47,359.88Z" transform="translate(-32.87 -226.97)"/><path class="cls-2" d="M957,334.9c4.09-8.3,11.21-10.15,19.46-9.9,1.27,0,1.52.5,1.48,1.61-.07,2-.11,4,0,6,.1,1.52-.33,2.06-1.91,1.95a26.48,26.48,0,0,0-8.62.87,10.07,10.07,0,0,0-7.83,8.38c-1.22,6.32-.5,12.72-.68,19.09,0,1.29.81,1.2,1.66,1.2,2.24,0,4.48.07,6.72,0,1.29-.05,1.65.4,1.7,1.69.24,6.66.28,6.66-6.39,6.66s-13.61-.05-20.41,0c-1.65,0-2.09-.47-2.1-2.09,0-6.27-.08-6.27,6.12-6.28,3.31,0,3.31,0,3.31-3.25,0-8-.11-16.08.07-24.11,0-2.4-.75-3.06-2.9-2.71a2.67,2.67,0,0,1-.49,0c-2-.18-4.72.92-5.68-.44-1.22-1.73-.28-4.48-.38-6.78-.06-1.08.62-1.17,1.45-1.17,4.65,0,9.29,0,13.94,0,1.29,0,1.51.54,1.48,1.64C957,329.78,957,332.34,957,334.9Z" transform="translate(-32.87 -226.97)"/><path class="cls-2" d="M1107,310.06c0,4.95,0,9.35,0,13.73,0,1.37.32,2,1.78,1.82a2,2,0,0,1,.49,0c6.87.06,6.85.05,6.25,7.06-.08.9-.23,1.44-1.25,1.32a4.69,4.69,0,0,0-.75,0c-2.06.05-4.8-.69-6,.35-1.42,1.22-.44,4-.46,6.16-.07,6,0,11.94,0,17.91,0,5.64,1.22,6.61,6.74,5.45l1.73-.36c0,2.44,0,4.81,0,7.17a1.36,1.36,0,0,1-1.21,1.56,19.68,19.68,0,0,1-9.58.52,7.8,7.8,0,0,1-6.22-5.76,22.31,22.31,0,0,1-.87-6.13c0-8.21,0-16.42,0-24.63,0-1.61-.22-2.34-2.1-2.29-4,.11-4,0-4-4,0-4.23,0-4.28,4.21-4.32,1.32,0,2.14-.28,1.84-1.76-.89-4.23,1.15-7,4.37-9.37C1103.63,313.3,1105.06,311.8,1107,310.06Z" transform="translate(-32.87 -226.97)"/><path class="cls-2" d="M934.12,419.09c0,4.94.08,9.22,0,13.5-.05,1.68.51,2.07,2.09,2,2.05,0,4.76-.94,6,.36s.23,4.1.45,6.22c.14,1.44-.4,1.84-1.8,1.8-2.14-.07-5-.74-6.23.36-1.41,1.27-.42,4.2-.44,6.41-.06,6.13,0,12.27,0,18.4,0,4.68,1.6,6,6.21,4.84,2-.5,2.53,0,2.26,1.86a12.62,12.62,0,0,0,0,1.74c0,4.62,0,4.78-4.72,5.37-9,1.13-12.59-2.7-12.9-9.47-.32-7.11-.19-14.25-.24-21.38,0-2.07-.08-4.15,0-6.21.08-1.45-.25-2-1.88-2-4.2,0-4.2-.07-4.2-4.27,0-4,0-4.08,4-4,1.58,0,2.4-.36,2.07-2-.74-3.8.9-6.4,3.93-8.55A63.71,63.71,0,0,0,934.12,419.09Z" transform="translate(-32.87 -226.97)"/><path class="cls-2" d="M1083,453.91c0,5.63.06,11.27,0,16.9,0,1.66.31,2.3,2.15,2.28,4.94,0,4.94,0,4.94,5.07,0,3.21,0,3.21-3.33,3.21-6.14,0-12.28-.05-18.41,0-1.58,0-2.28-.33-2.13-2,.17-2-.57-4.43.37-5.81s3.56-.44,5.44-.46c1.35,0,1.64-.52,1.63-1.76q-.06-13.43,0-26.84c0-1.2-.36-1.54-1.54-1.55-1.88,0-4.41.87-5.48-.37-1.22-1.43-.21-4-.41-6-.14-1.48.33-2,1.92-2,4.31.11,8.62.1,12.94,0,1.51,0,2,.41,2,1.95C1083,442.31,1083,448.11,1083,453.91Z" transform="translate(-32.87 -226.97)"/><path class="cls-2" d="M1137,344.9c0,5.63.06,11.26,0,16.89,0,1.63.31,2.33,2.15,2.32,5.2,0,5.06.08,5.26,5.36.09,2.42-.58,3-3,3-6.3-.18-12.6-.12-18.9,0-1.66,0-2.17-.48-2-2.09.16-2-.59-4.44.36-5.8s3.55-.4,5.42-.44c1.35,0,1.66-.57,1.66-1.8q-.06-13.29,0-26.58c0-1.49-.54-1.77-1.88-1.77-1.79,0-4.23.84-5.2-.38s-.16-3.49-.37-5.28c-.26-2.14.39-2.87,2.66-2.74,3.89.21,7.8.14,11.69,0,1.71-.05,2.28.41,2.25,2.18C1136.92,333.47,1137,339.18,1137,344.9Z" transform="translate(-32.87 -226.97)"/><path class="cls-2" d="M1132,304.35a5.5,5.5,0,0,1,5.66,5.64,5.81,5.81,0,0,1-5.58,5.58,5.65,5.65,0,0,1-5.64-5.72A5.53,5.53,0,0,1,1132,304.35Z" transform="translate(-32.87 -226.97)"/><path class="cls-2" d="M1077.72,424.56a5.64,5.64,0,0,1-5.5-5.58,5.71,5.71,0,0,1,5.79-5.61,5.6,5.6,0,1,1-.29,11.19Z" transform="translate(-32.87 -226.97)"/></svg>