<svg id="Layer_1" data-name="Layer 1" xmlns="http://www.w3.org/2000/svg" viewBox="0 0 1315.15 599.92"><defs><style>.cls-1{fill:#003397;}.cls-2{fill:#023397;}.cls-3{fill:#033395;}.cls-4{fill:#033397;}.cls-5{fill:#033396;}.cls-6{fill:#033398;}.cls-7{fill:#033498;}.cls-8{fill:#023399;}.cls-9{fill:#033497;}.cls-10{fill:#023498;}.cls-11{fill:#064683;}.cls-12{fill:#043398;}.cls-13{fill:#053393;}.cls-14{fill:#053497;}.cls-15{fill:#043496;}.cls-16{fill:#0b3b9b;}.cls-17{fill:#063593;}.cls-18{fill:#144099;}.cls-19{fill:#1d469f;}.cls-20{fill:#083594;}.cls-21{fill:#063499;}.cls-22{fill:#f96505;}.cls-23{fill:#fd6600;}.cls-24{fill:#83534a;}.cls-25{fill:#023396;}.cls-26{fill:#033496;}.cls-27{fill:#013397;}.cls-28{fill:#fafaf8;}.cls-29{fill:#fafbf8;}.cls-30{fill:#fafaf7;}.cls-31{fill:#f9f8f2;}.cls-32{fill:#faf6ef;}.cls-33{fill:#f9f6f0;}.cls-34{fill:#2a3982;}.cls-35{fill:#253a85;}.cls-36{fill:#244673;}.cls-37{fill:#734b58;}.cls-38{fill:#fcfcfb;}.cls-39{fill:#fcfcfc;}.cls-40{fill:#fb6502;}.cls-41{fill:#fc6601;}.cls-42{fill:#5f4763;}.cls-43{fill:#734e56;}.cls-44{fill:#754a4f;}.cls-45{fill:#874f48;}.cls-46{fill:#044282;}.cls-47{fill:#054182;}.cls-48{fill:#044281;}.cls-49{fill:#054181;}.cls-50{fill:#054282;}.cls-51{fill:#044181;}.cls-52{fill:#044182;}.cls-53{fill:#0c3494;}.cls-54{fill:#18368f;}.cls-55{fill:#57456a;}.cls-56{fill:#754b4a;}.cls-57{fill:#945247;}</style></defs><title>NUSlogo1</title><path class="cls-1" d="M758.37,280.81v-185c0-3-.07-6-.08-9,0-3.62,1.8-5,5.41-4.92q14.63.23,29.23,0c3.41-.05,4.9,1.42,4.9,4.59,0,9.1,0,18.21-.07,27.32,0,1.5-.16,3-.16,4.48v228c0,.88,0,1.75,0,2.62.13,7.63.13,7.66-7.36,7.62-12.86-.05-25.73-.22-38.59-.2-10.71,0-19-4.42-25.13-13.08Q683.08,281.64,639.68,220q-21-29.82-41.87-59.72a3.31,3.31,0,0,0-2.31-1.89v192c0,5.73-.38,6.23-6.17,6.08-9-.23-18-.26-27,0-5.41.15-5.73-.29-5.73-5.65V95.5c0-3.12-.08-6.24,0-9.35.06-2.88,1.56-4.25,4.51-4.24,14.5.09,29-.27,43.48.28,10.36.4,18.26,6,24.17,14.41q14.82,21.14,29.69,42.23,48.45,69,96.88,138.1C756.12,278,757,279,758.37,280.81Z" transform="translate(-27.93 -73.56)"/><path class="cls-1" d="M1092.32,181.05c0,18.58.28,37.18-.09,55.76-.27,14.08.52,28.19-.88,42.25-3.89,39.25-28.31,68.42-66.22,79.45-22.87,6.66-46.19,7.62-69.73,6.3a146.63,146.63,0,0,1-45.59-9.46c-31.92-12.49-50.29-35.94-56.33-69.38-2-11.1-2.36-22.31-2.36-33.54q0-78.24,0-156.49c0-2.87-.26-5.73-.2-8.6.09-4.75.77-5.41,5.47-5.4,13.12,0,26.24.08,39.36.1,3.12,0,6.25,0,9.37-.13s4.48,1.27,4.48,4.18q0,28.83-.09,57.66c0,10.23-.18,20.46-.15,30.68.1,32.07-.2,64.15.54,96.2.46,19.64,7.73,36.74,24,48.92,9.94,7.43,21.59,10,33.73,10.69,17.41.95,33.55-2.55,47-14.48,10.54-9.38,15.41-21.79,18.05-35.26a92,92,0,0,0,1.58-17.85q-.06-87,0-174.09c0-6.26.35-6.63,6.5-6.63q22.49,0,45,0c5.92,0,6.62.74,6.62,6.66Q1092.32,134.82,1092.32,181.05Z" transform="translate(-27.93 -73.56)"/><path class="cls-1" d="M1222,364.75a240.56,240.56,0,0,1-83.47-13.06c-1.76-.62-3.48-1.34-5.23-2-4.55-1.69-6.68-5.16-6.74-9.8-.15-12.6-.13-25.21-.16-37.82,0-.7-.24-1.61.55-2,1-.55,1.59.49,2.18,1,19.57,16.6,43.1,23.48,67.78,27.35,19.2,3,38.33,2.59,57.11-3,15.71-4.69,26.41-14.25,29.33-31,2.49-14.27-4-24.59-15-32.64-11.41-8.33-24.56-13.12-37.66-18-17.49-6.51-35.33-12.17-52-20.81-13.76-7.15-26.38-15.74-35.8-28.3-11.65-15.54-14.46-33.57-12.92-52.18,2.63-31.87,22.12-50.22,50.93-60.32,15.91-5.58,32.43-7.82,49.23-8.41,29.87-1,59,2.44,87.22,12.79,6.81,2.5,7.89,4.12,7.56,11.31-.15,3.37-.26,6.73-.25,10.1,0,5.49.16,11,.21,16.46,0,4.85,0,4.93-4.06,2.52a146.72,146.72,0,0,0-45.23-18.21c-23.85-5-47.64-5.39-70.93,2.6-16.92,5.8-24.53,23.24-17.32,38.06a35,35,0,0,0,11,12.57c12.32,9.23,26.53,14.73,40.66,20.32,19.92,7.89,40,15.35,58.52,26.35,16.28,9.67,30.47,21.48,38.34,39.23,15.32,34.54,9.48,87.33-45,107-17.33,6.24-35.21,9.09-53.48,9.92C1232.2,365,1227.07,364.75,1222,364.75Z" transform="translate(-27.93 -73.56)"/><path class="cls-2" d="M565.63,436.64v42.51c0,5.79-.17,5.78-5.87,5.77-3.33,0-4-1.67-4-4.43.07-17.84.16-35.68.08-53.52,0-3.35,1.22-4.71,4.53-4.89,6.73-.36,10.37,1.7,13.35,8,6.36,13.4,14.1,26.05,21.17,39.06.1.19.38.29.61.45,1.21-.43.61-1.47.61-2.19q0-20-.1-40c0-2.94.49-5.2,4.14-5.28,4-.09,5.43,1.06,5.43,5.28,0,14.09-.14,28.18-.18,42.28,0,3.61.13,7.22.21,10.84.07,3.09-1.45,4.32-4.53,4.6-5.5.5-9-2-11.49-6.58q-10.79-19.85-21.7-39.62c-.46-.84-1-1.65-1.5-2.47Z" transform="translate(-27.93 -73.56)"/><path class="cls-3" d="M980.22,444.57c0,5.74.16,11.48,0,17.2-.56,16.4-12.43,26.12-28.59,23.55-12.18-1.93-19.5-10-19.92-22.84-.38-12.09-.11-24.2-.22-36.3,0-3.52,2-4.06,4.86-4s5.12.52,5.07,4.26c-.15,10-.12,20-.16,29.95a34.18,34.18,0,0,0,1.23,10.35c2.2,7.09,7.3,10.85,14.09,10.37,7.17-.51,12.17-4.81,13.25-12,1.28-8.4,1.2-16.89,1-25.38-.12-4.24-.28-8.47-.25-12.71,0-3.75,1.39-4.7,5.48-4.88,3.62-.15,4.47,1.66,4.4,4.84-.14,5.86,0,11.72,0,17.58Z" transform="translate(-27.93 -73.56)"/><path class="cls-4" d="M678.57,589.44c-4.36,0-8,0-11.49-1.12s-4-2.82-2.94-7.13c.88-3.49,3.25-2,5.06-1.6,3.53.73,6.95,2,10.66,1.35,4.71-.86,8.68-4.28,9.31-8.07.66-4-1.16-7.11-5.93-9.81-3.58-2-7.22-3.95-10.84-5.89-7.66-4.13-10.72-10-9.35-18.1,1.2-7.06,7.22-12.53,15.06-13.58,5.27-.69,10.48.08,15.64,1,3,.52,3.46,2.45,2.31,6.6-.81,2.91-2.38,3.55-5,2.23-3.92-2-8.07-1.53-12.1-.72a6.7,6.7,0,0,0-5.53,5.87c-.55,3.27.89,5.58,3.55,7.19,5.43,3.28,11.45,5.56,16.37,9.71,5.6,4.72,7.56,10.67,6,17.75-1.72,7.92-7.45,13-15.58,14C681.82,589.29,679.82,589.35,678.57,589.44Z" transform="translate(-27.93 -73.56)"/><path class="cls-5" d="M1309.29,473.26c3.3-9.87,6.53-19.66,9.83-29.42,1.81-5.35,3.43-6.18,9-5.24,1.81.31,2,1.09,1.44,2.53-6.63,17.81-12.17,36-19.89,53.42-3.44,7.74-9.6,11-16.71,9.36-1.26-.29-3.84.41-3.06-2.42.58-2.09-1.12-5.32,3.53-5.42,6.46-.15,10.24-4.42,9.91-10.2a17,17,0,0,0-1.09-4.68c-4.41-12.15-8.93-24.26-13.29-36.43-.68-1.89-2.87-4.15-.17-6,2.52-1.7,7.8,0,9.19,2.76a19.54,19.54,0,0,1,1,2.81c2.84,8.87,5.66,17.76,8.56,26.61C1307.73,471.7,1307.68,472.77,1309.29,473.26Z" transform="translate(-27.93 -73.56)"/><path class="cls-2" d="M1003.89,443.22a21.16,21.16,0,0,1,19.2-4.82c6.26,1.4,10,5.26,11.2,11.55,2.11,10.89.82,21.86.79,32.8,0,1.51-.74,2.32-2.33,2.23-.87-.05-1.74-.1-2.62-.12-4.44-.07-4.94-.74-4.72-5.28a209.58,209.58,0,0,0-.09-23.91c-.42-6.22-2.56-9.18-7-10.1-4.85-1-9.45,1.31-12.16,6.08a23.05,23.05,0,0,0-2.63,11.51c0,5.86-.17,11.72,0,17.58.12,3.46-1.55,4.29-4.54,4.27s-4.62-.78-4.57-4.27c.16-12.34,0-24.69.09-37,0-2.14-1-5,2.89-5.23C1002.82,438.19,1003.09,438.31,1003.89,443.22Z" transform="translate(-27.93 -73.56)"/><path class="cls-6" d="M743.63,548.07c6-5.62,12.36-7.43,19.8-5.61,6.28,1.54,10.08,5.3,11.09,11.64,1.71,10.66.77,21.42.93,32.13,0,1.73-.92,2.6-2.81,2.77-6.49.57-7,0-6.93-6.46.09-7.36.1-14.73-.12-22.09-.19-6.43-2.68-9.92-7.2-10.84-5-1-10.23,1.91-12.65,7.25a22.38,22.38,0,0,0-1.71,5.71c-1,7-.68,14.16-.38,21.24.16,3.67-.63,5-4,5.27-3.8.29-5-.73-5-4.52-.1-13-.17-25.94-.28-38.91,0-1.75.46-3.15,2.43-2.94,2.35.26,5.52-1.51,6.65,2.27A15.53,15.53,0,0,1,743.63,548.07Z" transform="translate(-27.93 -73.56)"/><path class="cls-7" d="M790.76,443.31c5.64-4.95,11.77-6.48,18.71-5s10.72,5.4,11.73,12.27c1.55,10.55.67,21.17.78,31.76,0,1.92-1,2.57-2.79,2.65-6.62.3-6.77,0-6.64-6.75.13-7.35,0-14.71-.22-22.06-.2-6-3.36-10-8-10.81-4.87-.81-10.35,2.52-12.32,7.8-2.32,6.22-2,12.74-1.86,19.23.08,2.87.12,5.73.17,8.6s-1.41,4-4.19,4-5-.63-5-4c0-3,.25-6,.19-9-.21-10.09.58-20.2-.45-30.28-.18-1.76.64-3.14,2.42-3.07,2.51.1,5.72-1.55,7.09,2.2A13.92,13.92,0,0,1,790.76,443.31Z" transform="translate(-27.93 -73.56)"/><path class="cls-8" d="M614.88,569.48c0-5-.11-10,0-15,.1-3.26-1.2-4.65-4.44-4.27-.74.09-1.53-.12-2.24,0-3.62.85-4.24-1.29-4.35-4.14-.12-3.12,1.55-3.66,4.27-3.54,6.27.27,6.69-.24,6.84-6.6.26-11.57,6.88-16.88,18.45-15,3.26.53,2.43,2.65,2.6,4.71.22,2.64-1.21,2.68-3.19,2.76-6.31.25-10.35,4.88-9.6,10.77.29,2.28,1.22,3.71,3.85,3.45,1.61-.16,3.25.06,4.86-.08,2.83-.24,4.12.84,4.2,3.79s-1.16,4-4,4.06c-8.34.21-8.34.26-8.34,8.5,0,8.47,0,16.94,0,25.4,0,3.92-.89,4.55-5,4.65-3.69.09-4.29-1.72-4.11-4.94.27-4.85.07-9.72.07-14.58Z" transform="translate(-27.93 -73.56)"/><path class="cls-4" d="M1088.46,474.37c3.77-10.86,7.23-20.93,10.78-31,1.31-3.72,4.11-5.51,7.65-5.18,2,.19,3,.89,2.23,3.13q-7.3,20.39-14.54,40.79a3.9,3.9,0,0,1-4.2,2.89c-7.28,0-7.24.05-9.69-6.79-4-11.24-8.18-22.45-12.15-33.72-.62-1.76-2.79-3.82-.25-5.62,2.17-1.55,7.4-.36,8.8,1.92a23,23,0,0,1,2,4.79C1082.16,454.93,1085.18,464.28,1088.46,474.37Z" transform="translate(-27.93 -73.56)"/><path class="cls-9" d="M671.88,461.24c0-3.1-.06-6.21,0-9.31.14-5.52-.53-6.36-5.87-5.71-3.49.43-4.71-.62-4.62-4.18.07-2.91,1.18-3.6,3.83-3.53,6.21.15,6.21.05,6.64-5.87.24-3.29,4-6.78,7.31-6.81,1.38,0,2.1.52,2.16,1.93,0,1.24.17,2.49.25,3.73.42,6.27.74,6.78,7,6.86,3.48,0,4.64,1.3,4.46,4.68-.13,2.49-1.28,3.26-3.47,3.36-8.58.4-7.89,1-8.19,8.91a159.53,159.53,0,0,0,.26,16.07c.32,4.94,3.24,7,8.08,6.38,1.41-.19,3.3-1.65,3.61,1.29.26,2.42,1.34,5.2-2.23,6.15-10.39,2.77-18.21-2.49-19.11-12-.37-3.95-.06-8-.06-11.95Z" transform="translate(-27.93 -73.56)"/><path class="cls-4" d="M1213.53,437.78c2,.16,4,.3,6,.49,2.85.27,3.76,2,3.57,4.67-.31,4.35-.45,4.42-4.78,3.3-2.65-.68-5.33-1.32-8.1-.41a5.53,5.53,0,0,0-4.12,4.39c-.4,2.17,1.07,3.56,2.71,4.52,2.78,1.65,5.71,3.05,8.55,4.6,6.88,3.73,9.13,7.88,8.06,14.82-.93,6-5.2,9.77-12.41,11.06a32.77,32.77,0,0,1-12.64-.48c-3.23-.68-5.11-5.23-3.52-8.07.78-1.39,2-.77,3-.56,2.07.45,4.06,1.23,6.13,1.63a9.52,9.52,0,0,0,6.87-1.14c3.81-2.28,4-6.39.2-8.68-3-1.81-6.15-3.28-9.19-5-6.46-3.63-8.72-8.22-7.16-14.39,1.74-6.88,6.18-10.37,13.5-10.61,1.13,0,2.25,0,3.38,0Z" transform="translate(-27.93 -73.56)"/><path class="cls-10" d="M1263.08,461.76c0-3.5-.19-7,.05-10.48.26-3.81-1.3-5.09-5-4.95-4.51.17-5.71-1-5.53-4.52.11-2.2,1.06-3.37,3.49-3.39,6.48-.05,6.44-.12,7.07-6.3a6.39,6.39,0,0,1,3.29-5.17c1.44-.82,3.09-1.5,4.63-.8,1.74.8.8,2.64,1,4a9.48,9.48,0,0,1-.07,1.5c-.3,7,.08,7.38,7.27,6.88,4.41-.31,5.09.32,5.11,4.18,0,2.79-1.27,3.72-3.93,3.59-8.8-.44-8.74-.41-8.46,8.21.16,5,0,10,.16,15,.3,7,2.8,9,9.45,8,1-.15,3-1.73,3,.91,0,2.28,1.64,5.81-1.83,6.41-11.71,2-19.63-.06-19.67-13C1263.07,468.5,1263.08,465.13,1263.08,461.76Z" transform="translate(-27.93 -73.56)"/><path class="cls-11" d="M894.6,451.27q0,14.58,0,29.15c0,3.79-.82,4.42-5.43,4.58-3.22.11-4.38-1.22-4.37-4.44.1-17.57.05-35.14.05-52.71,0-1.24,0-2.49-.09-3.73-.39-6,1.12-7.39,7.1-6.54,2.85.41,2.68,2.65,2.69,4.55C894.64,431.85,894.6,441.56,894.6,451.27Z" transform="translate(-27.93 -73.56)"/><path class="cls-12" d="M1175.47,442.83c3.82-4.05,8.33-5.34,13.45-5,3.69.27,3.33,2.65,3.24,5.35s-1.12,3.25-3.7,2.91c-5.1-.67-8.58,1.94-10.85,6.29-1.9,3.62-2.36,7.6-2.38,11.61,0,5.48-.09,11,.16,16.44.15,3.25-1,4.55-4.25,4.55s-5-1.11-4.93-4.53c.08-11.22.09-22.44.13-33.66,0-1.12,0-2.25,0-3.37,0-2-1-4.41,2.29-5C1172.49,437.82,1174.21,438.78,1175.47,442.83Z" transform="translate(-27.93 -73.56)"/><path class="cls-13" d="M1008.4,547c4.19-3.45,8.09-5.66,13.09-5.24,3.22.28,3.76,1.89,3.63,4.76s-.6,4-3.78,3.71c-5.43-.44-8.94,2.07-11,7.19a38.85,38.85,0,0,0-2.26,13.93c-.06,4.74-.07,9.48,0,14.22,0,2.53-1,3.71-3.57,3.49-2.42-.21-5.4.45-5.41-3.4,0-4.11.24-8.22.22-12.33,0-8.73-.19-17.45-.23-26.18,0-2-.51-4.65,2.86-4.5C1004.69,542.81,1008.48,541.28,1008.4,547Z" transform="translate(-27.93 -73.56)"/><path class="cls-14" d="M703.5,461.79c0-6.48.17-13,0-19.42-.19-5.26,3.49-3.53,6.16-3.84,3.14-.35,3.75,1.24,3.72,4-.12,12.7-.1,25.41-.05,38.11,0,2.49-.06,4.39-3.45,4.33-6.08-.12-6.3-.09-6.32-4.14C703.47,474.49,703.5,468.14,703.5,461.79Z" transform="translate(-27.93 -73.56)"/><path class="cls-15" d="M1245.07,461.77c0,6.48-.1,13,0,19.44.06,3.13-1.47,3.73-4.18,3.71s-5,.09-5-3.69c.08-13,.12-25.93,0-38.89-.05-4.1,2.45-3.73,5.19-3.85,2.9-.13,4.07.87,4,3.83C1245,448.8,1245.07,455.28,1245.07,461.77Z" transform="translate(-27.93 -73.56)"/><path class="cls-16" d="M720.08,566c0,6.35-.09,12.71,0,19.06.06,2.9-1,4.08-3.93,4-2.73-.09-5.28.23-5.25-3.85.13-13,.15-25.91,0-38.87-.05-4.31,2.74-3.46,5.3-3.66,3-.24,4,1,3.89,3.9C720,553,720.08,559.47,720.08,566Z" transform="translate(-27.93 -73.56)"/><path class="cls-17" d="M1058.34,461.85c0,6.34-.19,12.69.07,19,.16,4-2.22,4-5,4.12-3.06.13-4.23-1.25-4.21-4.24.06-12.69.1-25.38,0-38.06,0-3.69,1.78-4.2,4.9-4.23,3.29,0,4.4,1.13,4.31,4.36C1058.22,449.16,1058.34,455.51,1058.34,461.85Z" transform="translate(-27.93 -73.56)"/><path class="cls-18" d="M715.24,533.38c-4.34,0-5.11-.77-5.11-5.12,0-3.74,1.4-5,5.72-5,3.56,0,4.82,1.6,4.92,5.83S718.52,533.91,715.24,533.38Z" transform="translate(-27.93 -73.56)"/><path class="cls-19" d="M708,429.39c-4.76,0-5.43-.67-5.39-5.28,0-3.89.74-4.42,5.89-4.41,4.13,0,4.88.81,4.85,5.14C713.34,428.85,712.7,429.39,708,429.39Z" transform="translate(-27.93 -73.56)"/><path class="cls-20" d="M1240.38,429.24c-4.36,0-5.23-.79-5.29-4.95,0-3.78,1-4.58,5.85-4.59,3.93,0,4.92,1.06,4.89,5.24C1245.8,428.77,1245.23,429.22,1240.38,429.24Z" transform="translate(-27.93 -73.56)"/><path class="cls-21" d="M1053.76,419.7c4.23.06,5.23,1,5.21,4.89,0,4.25-.91,4.82-6.65,4.86-3.65,0-3.89-2.3-3.85-5C1048.53,420.52,1049.5,419.64,1053.76,419.7Z" transform="translate(-27.93 -73.56)"/><path class="cls-1" d="M492.13,90.12c0-6.55-.41-6.93-7.07-6.93H35.16c-6.74,0-7.25.49-7.23,7.24.08,33.94.26,67.88.25,101.83q0,87.6-.23,175.2a219.39,219.39,0,0,0,4.75,43.79c7.15,35.42,20,68.76,36.72,100.69,15.9,30.32,34.87,58.5,59.32,82.63A330.68,330.68,0,0,0,251.2,671.71c5.42,1.93,10.38,2.53,15.93.53,52.6-19,98.35-48.46,135.64-90.16,31.38-35.09,53.34-75.92,69.67-119.83,11.53-31,19.37-62.94,19.48-96.19C492.23,274.08,492.1,182.1,492.13,90.12ZM454.6,470c-15.52,37.9-35.72,72.93-63.48,103.28-35.38,38.68-78.38,66-127.28,84.34a12.26,12.26,0,0,1-9.07.19c-47.93-18-90.05-44.92-125.16-82.32C99.93,543.88,78.85,506.93,63,466.85c-9.16-23.09-16.74-46.61-20.53-71.26-2.93-19.07-3.06-38.23-2.82-57.45.28-22.46.07-44.93,0-67.39,0-5.53.34-6,5.93-6H472.65c5.84,0,6.49.64,6.49,6.35,0,28.34-.31,56.68.08,85C479.76,396,469.54,433.49,454.6,470Z" transform="translate(-27.93 -73.56)"/><path class="cls-22" d="M422.2,155.5c9.15,6.48,17.22,13.68,22,24.32,12,26.56-.36,68.22-45.27,71.3a37.06,37.06,0,0,1-18.87-4c-5.9-2.88-11.41-2.8-17.5,0-21.68,10-50.77-.87-62.47-23-9.4-17.78-9.43-47.14,15-64.28,4.66-3.27,6.47-6.86,6.77-12.6.72-13.69,8.12-24.29,18.6-32.41,32.57-25.23,70.94-3.54,78.95,23.78.67,2.26,1,4.62,1.49,6.93C421.88,148.85,420.35,152.39,422.2,155.5Z" transform="translate(-27.93 -73.56)"/><path class="cls-23" d="M76.14,177.16q0-26,0-52c0-7.21-.13-9.51,8.94-10.4,16.3-1.59,32.59-2.6,49-1.31,8.77.7,17.11,3.33,25.39,6.1a7.38,7.38,0,0,0,5.41.07c17.73-7,36.23-7.65,54.92-6.37,7.34.5,14.67,1.18,22,1.86,5.07.46,6.24,1.81,6.24,6.7,0,8,.07,16,0,24-.1,27.19-.2,54.38-.44,81.58,0,2.67,1.73,6.15-.35,7.83-1.88,1.53-5.1-.44-7.73-.76-21.15-2.64-42.41-4.54-63.19,1.37a49.52,49.52,0,0,1-29,0c-18.21-5.34-37-4.41-55.73-2.17-3.84.46-7.7.84-11.48,1.61-2.85.58-3.73-.12-3.71-3.07.11-18.34,0-36.69,0-55Z" transform="translate(-27.93 -73.56)"/><path class="cls-24" d="M422.2,155.5c-2.11-1.58-2.64-5.72-1.28-9.88C423.83,148.59,421.82,152.2,422.2,155.5Z" transform="translate(-27.93 -73.56)"/><path class="cls-25" d="M827.16,542.68c-2-.47-4-.79-5.52,1.05a18.25,18.25,0,0,0-1.66,3.21c-1.21-.8-2.32-1.6-3.49-2.3-9.18-5.57-21.78-2.69-27,6.18a29.14,29.14,0,0,0-3.49,21.58c3.2,14.67,16.87,20.76,29.89,13.35,1.1-.63,2.06-1.79,3.58-1.48.43,11.88-5.09,17.09-16.87,16.08-4.41-.37-8.23-2.82-12.69-3.47-.34,2.08-.57,3.8-.93,5.5s.13,2.76,1.93,3.36c8.88,3,17.78,3.91,26.72.46,7-2.69,10.91-7.67,11-15.32q.09-22.43.1-44.87C828.73,544.66,829,543.12,827.16,542.68Zm-13.24,36.05c-5.2,3.84-11.61,2.8-15.39-2.47a19.4,19.4,0,0,1-.08-21.74,10.83,10.83,0,0,1,18.22-.07A17.85,17.85,0,0,1,819.73,566,13.82,13.82,0,0,1,813.92,578.73Z" transform="translate(-27.93 -73.56)"/><path class="cls-7" d="M931.33,550.26a15.32,15.32,0,0,0-10.18-7.64c-7.54-1.94-14.33-.47-20.66,4.94-.83-4.53-2.23-5.48-6.2-5-3.76.47-2.71,3.13-2.61,5.4,0,.62,0,1.24,0,1.87,0,17.71,0,35.43-.16,53.14,0,3.48,1.62,4.15,4.63,4.14s4.73-.51,4.6-4.09c-.22-6-.06-12.06-.06-18.52,1.27.92,2,1.53,2.83,2,9.94,6.33,22,3.94,27.67-6S936.64,560.32,931.33,550.26Zm-9,26.54a10.76,10.76,0,0,1-17.75,1.06c-5.48-6.72-5.25-18,.5-24.54a10.73,10.73,0,0,1,17.28,1.21,19.51,19.51,0,0,1,3.15,10.94A20.89,20.89,0,0,1,922.32,576.8Z" transform="translate(-27.93 -73.56)"/><path class="cls-9" d="M878.23,584.57q0-12.54,0-25.07c0-6.91-1.75-13.13-8.68-16-8.23-3.39-16.49-2.13-24.08,2.14-2.7,1.52-1.41,4.65-.19,6.75s2.41-.21,3.6-.65c3.39-1.27,6.73-2.69,10.49-2.35,4,.37,7.27,1.82,8.9,5.76s.6,5.1-3.65,4.91c-6.55-.29-13,.11-18.83,3.57-5.27,3.14-7.41,9.37-5.85,16.46,1.16,5.31,5.13,8.37,11.29,9.16,6.53.83,12.66.24,18.06-4.06.84,3.62,2.11,4.24,6.31,3.79C878.62,588.66,878.23,586.55,878.23,584.57Zm-9.74-10.43c-2.06,6.47-8.87,9.82-14.81,7.25-2.71-1.17-4.47-3.17-4.54-6.22-.06-2.81,1.63-4.56,4-5.8a22.7,22.7,0,0,1,10.78-2.26C869.77,567.48,870.34,568.35,868.49,574.14Z" transform="translate(-27.93 -73.56)"/><path class="cls-4" d="M577.81,541.92c-14.64-.62-24.53,7.93-25,21.62-.6,16,7.65,25.27,23.09,25.9,12.87.52,22.82-8.61,23.39-21.46C599.92,552.79,591.44,542.48,577.81,541.92Zm9.52,33.26a13.24,13.24,0,0,1-14,6.53c-5.45-1-9.8-6-10.77-12.45-.16-1.11-.17-2.24-.21-2.76.06-4.81,1-8.77,3.71-12.11a12.24,12.24,0,0,1,19.43,0A19.55,19.55,0,0,1,587.33,575.18Z" transform="translate(-27.93 -73.56)"/><path class="cls-5" d="M1044,567.91c6.11.28,12.24.08,18.36.08,11.4,0,11.88-.72,8.88-11.73-2-7.48-6.12-12.63-14.2-14s-15.39,0-21,6.65c-6.31,7.53-6.64,16.06-4.29,25.06,2.43,9.34,8.84,14.82,18.27,15.4,3.1.19,6.23-.11,9.34-.15,8.48-.11,10.31-2.25,9.13-10.88-4.46,1.1-8.85,2.49-13.47,2.84-7.42.56-12.39-2.82-13.91-9.57C1040.55,569.12,1040.7,567.76,1044,567.91Zm-3.17-9.81a11.25,11.25,0,0,1,11.52-8.71,10.78,10.78,0,0,1,10.3,9.09c.32,2-.37,2.8-2.34,2.78-2.85,0-5.71,0-8.56,0h-8.58C1041,561.25,1040.36,560.15,1040.8,558.1Z" transform="translate(-27.93 -73.56)"/><path class="cls-4" d="M965.4,541.78c-13.26.05-23.31,10.05-23.19,23.63.12,13.87,10.21,25.11,23.43,24,13.92,1,23.49-10.47,23.47-23.81C989.09,551.64,979.28,541.74,965.4,541.78Zm-1.73,39.94c-6.84-1-12.34-8.64-11.74-16.38a20.78,20.78,0,0,1,2.56-8.87c5.31-9.2,16.54-9.39,22.11-.35a19.59,19.59,0,0,1,2.75,9C979.37,576,972.44,583.05,963.67,581.72Z" transform="translate(-27.93 -73.56)"/><path class="cls-26" d="M1145,439.45c-12-5.65-26.9,1.17-30.17,14-1.35,5.28-.68,10.61.27,15.94,1.48,8.29,6.31,13.33,14.37,15.34,6,1.51,12.14,1.08,18.21,0,3-.54,4.56-2.34,4.43-5.49-.06-1.6,0-3.21,0-5.26-3.16,1.18-5.89,2.32-8.69,3.22a14.82,14.82,0,0,1-18.42-7.95c-1.91-4.33-.93-5.6,3.74-5.5,8,.19,16,.12,24,.17,1.54,0,2.61-.43,3-2.09C1157.54,455,1151.6,442.56,1145,439.45Zm-1.66,17.7c-2.87,0-5.73,0-8.6,0v-.06c-2.48,0-5-.15-7.44,0-2.82.21-3.65-.94-3-3.52a11.6,11.6,0,0,1,11.14-8.32,11,11,0,0,1,10.43,8.58C1146.4,456.13,1145.65,457.18,1143.32,457.15Z" transform="translate(-27.93 -73.56)"/><path class="cls-5" d="M871.06,480.75c0-9.48-.07-19-.36-28.44-.2-6.69-3.83-11.68-9.56-13.34a31.65,31.65,0,0,0-19.87.73c-3.51,1.27-4.69,3.89-3.89,7.45.45,2,1.16,2.51,3,1.28a20.27,20.27,0,0,1,12.09-3.21,8.72,8.72,0,0,1,8,5.3c.67,1.42,1.78,3,.81,4.56s-2.91,1-4.49.95c-6.19-.31-12.23.24-17.78,3.27s-7.87,8.68-6.59,15.7c1,5.46,5.08,9,11.06,10.11,6.75,1.22,12.9.18,18.94-4.8-.48,5.83,3.18,4.46,6.07,4.58C871.94,485,871.07,482.53,871.06,480.75Zm-8.67-14.51c-1,6.57-5,12.29-12.25,12-4.73-.05-7.81-2.29-8.5-6.17-.62-3.46,1.33-6,5.86-7.88a22.16,22.16,0,0,1,12.06-1.1C861.42,463.38,862.69,464.24,862.39,466.24Z" transform="translate(-27.93 -73.56)"/><path class="cls-4" d="M770.65,462.27c-.47-14.9-7-22.6-20.59-24.22-13.09-1.56-23.66,6.19-25.3,18.67a34.64,34.64,0,0,0,.42,10c2,12.41,11.8,19.94,24.62,18.83C761.56,484.58,771,474,770.65,462.27Zm-10.58,5.62c-2,6.51-7.16,10.18-13.69,9.95-5.63-.2-9.79-3.94-11.5-10.5-.47-1.79-.63-3.67-.93-5.5a18.57,18.57,0,0,1,2.4-9.34c2.57-4.37,6.22-7.26,11.49-7s9.08,3,11.33,7.88A19.64,19.64,0,0,1,760.07,467.89Z" transform="translate(-27.93 -73.56)"/><path class="cls-6" d="M655.33,480.82c-.4-3.85-.42-7.7-.47-11.56-.09-6,.51-11.95,0-17.93-.58-6.47-4.27-11.13-10.34-12.66a32.85,32.85,0,0,0-11.89-.79,27.76,27.76,0,0,0-8.86,2.8c-3.48,1.69-2.61,4.76-1.68,7.14,1.06,2.69,2.82,0,4.21-.29,2.17-.52,4.2-1.6,6.38-2.07,5.12-1.1,9.75.63,11.82,4.3.92,1.62,2,3.5.95,5.26s-3.12,1.13-4.84,1c-6.46-.36-12.74.22-18.31,3.88s-6.77,8.95-5.74,15.06c.84,4.93,4.91,8.79,10.43,10,6.95,1.49,13.36.39,19.37-4.35.09.7.13,1.07.19,1.43.75,5,4.66,2.6,7.15,2.75C656.51,485,655.48,482.32,655.33,480.82ZM645.92,470a11.68,11.68,0,0,1-15.9,7.31,7.29,7.29,0,0,1-4.39-5.66c-.47-2.67,1.09-4.58,3.16-5.88a18.37,18.37,0,0,1,11.82-2.91C645.83,462.68,647.47,464.84,645.92,470Z" transform="translate(-27.93 -73.56)"/><path class="cls-27" d="M121.3,368.24c.67-3.3,1-6.44,2.7-9.11,1.08-1.72-.17-1.85-1.23-2.17a21.45,21.45,0,0,1-9.29-5.38c-2.51-2.59-2.41-3.3.74-4.82.56-.28,1.13-.52,1.68-.82,6-3.31,6.1-4.18.76-8.37a13.29,13.29,0,0,1-3.68-4.65c-1.11-2.22-1.09-3.92,1.33-5.33a11.18,11.18,0,0,0,4.3-5.52,15.87,15.87,0,0,1,9.42-8.91,14.74,14.74,0,0,0-5.12-5.14c-2.93-2-3-3.13-.34-5.39,5.93-5,12.94-6.81,20.53-6.72,3.08,0,5.78.27,3-4.05-1-1.57-.28-3.27,1.83-2.76,5.56,1.32,10.91-.25,16.34-.79,6.16-.61,12.22-.67,17.81,2.63,2.88,1.7,4.81,4.28,6.65,7,1.67-.73,2.06-2.48,3.12-3.65,6.14-6.72,14-6.8,22.18-6,5.32.54,10.57,2,16,.76,1.8-.43,2.33.61,1.94,2.1a40.92,40.92,0,0,1-1.68,4.43c3.25.21,6.33.38,9.39.59a29.65,29.65,0,0,1,14,4.83c4.16,2.68,4,5.39,0,8.15a52.07,52.07,0,0,0-4.16,3.61,19.72,19.72,0,0,1,10.91,11.56,7.32,7.32,0,0,0,2.43,2.78c3.23,2.56,3.49,3.82,1.31,7.27a14.84,14.84,0,0,1-5.66,4.77c-2.09,1.19-2.13,2.48-.3,4a19.8,19.8,0,0,0,5.31,3.4c3.27,1.3,3.44,2.61.85,5.13a18.18,18.18,0,0,1-8.65,5c-2.43.55-2.27,1.57-1.57,3.4,1.57,4.13,5,5.71,8.87,6.58a241.8,241.8,0,0,0,44.56,5.22c16.89.58,33.66-1.8,50.51-1.91a168.41,168.41,0,0,1,25.38,1.89c11.36,1.65,22.35-1,33.43-2.74,7.2-1.12,14.17-2.9,20.39-6.9,5-3.18,6.43-6.35,5.25-11.22-1-4.1-4.12-6.56-9.42-7.17-9.42-1.08-18.42,1.17-27.15,4.23A225.71,225.71,0,0,1,328.1,361c-10.65-.12-21.18-1-31.08-5.49-10.67-4.84-16.3-13.88-15.6-25.29.8-12.92,7-21,18.82-24.5,9.74-2.9,19.75-2.34,29.74-2.34,6.47,0,12.89,1.69,19.41.48a20.45,20.45,0,0,0,8.65-3.3c10.61-7.84,22.35-8.6,34.58-5.36,8.85,2.35,17.6,3.59,26.5.49.92-.32,2.19-.64,2.81.24s-.1,1.94-.5,2.83c-.51,1.12-1.19,2.15-2.07,3.7,10-.35,19.05,1.29,25.28,9.78-1.25,1.1-2.46.69-3.71.53a26.32,26.32,0,0,0-15,2.18c-7.29,3.54-14.82,5.12-23.18,3.32.91,3.74,4.41,4,6.8,5.92a6,6,0,0,1-3.45,1.88c-15.35,3.15-30.66,4.41-45.77-1.23a9.33,9.33,0,0,1-3-1.38c-5-4.6-11.15-5.16-17.52-4.84-8.73.44-17.45-1.21-26.18,0a34.22,34.22,0,0,0-8.39,1.8c-4.81,2-7.07,5.76-7.29,10.78-.2,4.69,2.43,7.78,6.4,9.7,6.88,3.33,14.32,4.25,21.86,4.3,26.76.19,52.56-4.93,77.64-14,11.58-4.21,23.46-5.88,35.67-3.53,10.56,2,18,7.84,20.77,18.55,2.81,11,.64,20.86-8.31,28.45-8.51,7.21-18.82,10.6-29.52,12.87a124.55,124.55,0,0,1-22.2,3.11c-3.85.11-5.22,1.77-4.23,5.24,3.57,12.44,3,25.17,2.93,37.87a138.57,138.57,0,0,0,.92,19.42c1.55,11.11,9.09,17.63,18,22.95,4.79,2.87,10.28,4.53,14.52,8.48-.73,1.42-2.26,1.35-3.43,1.81-3.13,1.24-6.31,2.35-9.06,4.38-3.77,2.8-3.69,2.74-.86,6.48,2.23,3-.37,4-2.41,4.86-9.68,4-16,11.26-20.08,20.63-3.19,7.29-5.82,14.82-9.12,22.08-2.63,5.77-6.62,9.47-12.89,10.8-8.53,1.82-16.74,5-25.45,6.11-3.62.47-7,.22-9.84-2.33a2.47,2.47,0,0,0-3.64-.18c-.76.61-1.72,1.38-2.66.6s-.53-2-.09-3.08c.2-.46.44-.9.64-1.35a3.36,3.36,0,0,0-1.06-4c-1.22-1.16-2.3-.14-3.41.31s-1.8,1.84-2.95.88-.55-2.5-.11-3.79c.16-.47.38-.92.57-1.38.53-1.32,2.89-2.26,1.05-4.08-1.64-1.63-2.93.19-4.33.72-.58.21-1.14.46-1.8.73-.95-2.35-.53-4.58,1.11-5.92,6.7-5.5,13.75-10.77,23-10.19,4.78.3,9.45-.08,14.18-.21a4.58,4.58,0,0,0,4.41-2.79,179.56,179.56,0,0,0,13.38-36,3.57,3.57,0,0,0-.86-3.73c-9.69-10.39-19.46-20.71-28.76-32-3.26,4.93-5.51,10-5.59,15.42-.07,5.71,3,10.14,8.3,12.78,3,1.49,6.12,2.86,8.31,6.13-1.18.43-2.25.84-3.34,1.21-3.42,1.18-6.86,2.34-9.73,4.66-2.26,1.83-4.46,3.57-.54,6.14,1.68,1.1,1.41,2.87-.27,4a33.21,33.21,0,0,1-4.25,2.37,36.54,36.54,0,0,0-19,21.15c-3.09,8.77-8.78,13.82-18,15.3-7.26,1.16-14.13,4.1-21.47,5-4,.5-7.72.36-10.72-2.81-1.43-1.52-2.87-1-4.32.07-.87.66-1.9,1.64-3,.79-.83-.67-.35-1.88-.09-2.84,1.58-5.79,1.58-5.85-4.34-4.39-1.88.46-1.93-.58-1.81-1.77a12.41,12.41,0,0,1,2.24-5.08c.53-.85,1.22-1.69.25-2.65a2.1,2.1,0,0,0-2.44-.28,4.89,4.89,0,0,1-1,.39c-1.27.13-2.64,1.94-3.66.53-.83-1.16-.18-2.91.6-4.24a4.7,4.7,0,0,1,1.35-1.75c8-4.78,15.76-10.22,25.92-9a67.92,67.92,0,0,0,9.68.16,8,8,0,0,0,7.37-5c4-9.12,7.72-18.35,11.47-27.57.89-2.19,0-4.1-1.52-5.81a180.75,180.75,0,0,1-20.73-27.42c-1.59-2.65-5.81-2.64-8-.25-.64.69-.17,1.09.11,1.59a16,16,0,0,1,1.45,2.61c.58,1.73,1.64,3.56.23,5.33s-3,.19-4.47,0c-8-1.13-14.58,2.25-20.91,6.48-1,.65-1,1.24-.37,2.12s1.25,1.87,1.86,2.8c1.65,2.52.95,4.18-1.84,5.12-2,.67-4,1.39-6,2.05a27.84,27.84,0,0,0-8.47,4.67c-3.65,2.87-3.63,2.9-.23,5.92,2.95,2.62,2.87,3.83-.53,5.89-1.81,1.1-3.66,2.15-5.56,3.07-19.29,9.32-30.82,25.1-37.59,44.89-.8,2.35-1.75,4.65-2.78,6.91a8.7,8.7,0,0,1-4.93,4.9c-12.42,4.2-24.9,8.15-38.17,8.58-2.32.08-4.37-.21-6.19-1.92a5.25,5.25,0,0,0-5.94-.93c-.65.26-1.27,1.05-2,.4s-.52-1.58-.18-2.42c.27-.69.6-1.37.82-2.08.51-1.62.61-3.17-.84-4.47s-2.5-.51-3.79.06c-1,.42-2.13,1.37-3.07.28s.2-2.08.47-3.13c.53-2,3.75-3.71,1.59-5.87-1.69-1.69-3.8.7-5.76,1a3.32,3.32,0,0,1-.87-.11c-.1-3.65,2-5.93,4.75-7.85,8.35-5.88,17.84-7.33,27.77-7,1.25,0,2.49.19,3.73.24,5.67.24,7.84-1.17,9.86-6.58a291.6,291.6,0,0,0,9.85-34c1-4,1.81-8,2.87-12a7.2,7.2,0,0,0-1.46-6.95c-2.46-3-4.82-6.06-7-9.26a33.34,33.34,0,0,1-5.67-21.72,30.16,30.16,0,0,0-7.28,7.55c-1.69,2.43-2.79,1.75-4.15-.16-4.66-6.5-4.67-6.47-12.08-3.79A30.45,30.45,0,0,1,136.44,443a14.86,14.86,0,0,0-11.86,5.37,36.43,36.43,0,0,1-8.93,7.9c-.82.49-1.64,1.27-2.72.53s-.9-1.77-.65-3a48.28,48.28,0,0,0,.51-19.27c-.45-2.32-1-3.19-3.27-1.55a7.89,7.89,0,0,1-3.43,1.36c-2.47.36-4-.77-3.57-3.39,3.31-21.66-4.18-40.16-16.7-57.19a40.41,40.41,0,0,1-4.08-7.11,34.44,34.44,0,0,0-11.2-13.33c-4.78-3.51-7-8.11-5.86-14,.54-2.85-.29-4.5-3.06-5.42-2.15-.72-2.56-1.86-.36-3.26,5-3.17,6-6.35,3.57-11.5-.82-1.72-.23-2.31,1.25-2.6a8.84,8.84,0,0,1,2.62-.08c2.48.24,4.57-.49,5.57-2.83.9-2.11-1.23-3-2.29-4.26-.63-.74-1.78-1.25-1.28-2.43s1.7-.84,2.66-.93c1.78-.18,3.69-.13,5,1.11,3,2.87,6.69,4.24,10.3,5.92a10.68,10.68,0,0,1,6.38,8.2c1.61,8.71,5.06,16.91,7.27,25.47C104.25,354.35,111,361.31,121.3,368.24Z" transform="translate(-27.93 -73.56)"/><path class="cls-28" d="M442.77,203.06c-.61,24.34-19.48,42.52-46.52,42.26-20.34-.2-38.73-16.54-42.29-37.2-1.92-11.16,1-21.19,6-30.94.6-1.17,1.4-1.93,2.63-1.26,2.06,1.13,4.32,2.2,4.34,5.11a7.16,7.16,0,0,1-1.12,3.12c-6.76,14-5.56,27.46,4.15,39.57S393,239.81,407.86,235.9s23.88-14.31,26.5-29.68c2.11-12.41-2-22.83-10.82-31.5-2.46-2.41-4.28-4.88-3.36-8.51.62-2.43,1.73-3.5,4.18-1.59C436,173.72,443,185.21,442.77,203.06Z" transform="translate(-27.93 -73.56)"/><path class="cls-29" d="M300,200.36c0-19.31,12.61-36.12,31.59-42.22,17.93-5.75,38.2,1.17,49.34,16.86.65.92,1.29,1.84,1.86,2.81,1,1.66,3.41,3.18.55,5.28s-5.33,2-7.36-1a42,42,0,0,0-14.29-13.46c-23.61-13.16-53.34,4.19-53.44,31.2-.1,26.42,23.45,43.64,48.37,35.19,3.87-1.32,6,.52,7.93,2.95,1.77,2.21-.36,3-2,3.69a44.85,44.85,0,0,1-27.85,2.61C314,239.46,300,221.71,300,200.36Z" transform="translate(-27.93 -73.56)"/><path class="cls-30" d="M416.27,154.83c0,23.42-19.54,43.69-42.86,44.35-2,.06-5.19,1.54-5.69-2.25s1-5.35,5.26-5.77c18.73-1.83,31.09-12.71,34.5-30.36,3.62-18.73-9.58-38.11-28.57-42-19.56-4-38.67,8-42.81,27-.78,3.58-1.79,6.11-6.08,6.81-3.41.55-3.28-.9-3-3.13,1.22-8.54,4-16.45,9.55-23.21,11.44-14,32.77-19.93,49.58-13.93C403.82,118.69,416.3,136.27,416.27,154.83Z" transform="translate(-27.93 -73.56)"/><path class="cls-1" d="M401.36,147.28c.41,2.36-.88,3-3,2.94a46,46,0,0,0-24.57,6.62,4.17,4.17,0,0,1-4.54,0c-7.9-4.26-16.23-6.95-25.36-6.63-2.87.1-3.34-1.56-2.61-4,7.26-23.76,33.65-28.75,48.91-16.5a36.94,36.94,0,0,1,10,12.46A10.3,10.3,0,0,1,401.36,147.28Z" transform="translate(-27.93 -73.56)"/><path class="cls-27" d="M396.9,231.42a28.67,28.67,0,0,1-7.23-.89c-2.43-.79-3.3-2.4-1.9-4.57,4.81-7.45,6.64-15.77,7.37-24.42a6.17,6.17,0,0,1,3.3-5.06,45.67,45.67,0,0,0,16-16.46c2.14-3.67,3.37-3.68,6.54-.55,9.05,8.92,9.94,21.59,5.37,33.74C422.11,224.42,410.45,231.42,396.9,231.42Z" transform="translate(-27.93 -73.56)"/><path class="cls-27" d="M348.7,209.41a51.29,51.29,0,0,0,6.77,17.26c1.42,2.23-.23,2.51-1.58,3-10.89,3.82-20.7,1.42-29.38-5.66-13.41-10.94-14.36-33.5-2.1-44.92,3-2.8,3.82-2.73,5.79.8,4.38,7.84,10.85,13.55,18.37,18.22,1.7,2.26.65,5,1.27,7.43A19.18,19.18,0,0,0,348.7,209.41Z" transform="translate(-27.93 -73.56)"/><path class="cls-31" d="M349.75,186.24c-.36,2.21-.1,4.69-1.56,5.54-1.82,1.07-3.28-1.18-4.69-2.24-4.63-3.5-8-8.09-11-13-1-1.59-1.81-3.22.5-4.32,2-1,4.22-2.92,6.19,0a70.16,70.16,0,0,0,9.36,11.06C349.44,184.24,350.15,185.22,349.75,186.24Z" transform="translate(-27.93 -73.56)"/><path class="cls-32" d="M387.71,202.46c1.1-.27,1.61.61,1.43,2.18A48.13,48.13,0,0,1,383,223.69c-.85,1.46-2.07,2.72-3.94,1.36s-4.45-2.72-3-5.61a63.54,63.54,0,0,0,4.73-13.33C381.58,202.7,384.52,203,387.71,202.46Z" transform="translate(-27.93 -73.56)"/><path class="cls-33" d="M395.42,164.13a19.26,19.26,0,0,0-8.56,2,6.71,6.71,0,0,1-9.05-3.31c-.75-1.61.54-2,1.49-2.38,6.06-2.73,12.34-4.54,19.07-4.27,1.69.07,3.88-.2,3.59,2.5-.26,2.49,0,5.53-3.88,5.67C397.34,164.32,396.6,164.21,395.42,164.13Z" transform="translate(-27.93 -73.56)"/><path class="cls-34" d="M356.78,171.67c-1.65,2.36-1.22,6-4.32,6.39-3.38.42-4.47-3-6-5.27-.56-.84-1.82-1.84-1-2.84s2.25-.87,3.49-.52Z" transform="translate(-27.93 -73.56)"/><path class="cls-35" d="M390.42,179.4c-.87-1.55-1.48-2.48-1.95-3.49-1.77-3.79-.83-5.79,3.26-6.19,1.78-.17,4.22-2,5.42.42s-1.55,3.34-2.72,4.81S392,177.7,390.42,179.4Z" transform="translate(-27.93 -73.56)"/><path class="cls-36" d="M371.06,215.38c-1.3-2.76-3-4.93-2.94-7.86,0-2.26.61-3.51,3.15-3.43s3.18,1.28,3.15,3.55C374.39,210.54,373.25,212.88,371.06,215.38Z" transform="translate(-27.93 -73.56)"/><path class="cls-37" d="M348.7,209.41c-2.94-3.35-1.75-7.48-2.13-11.32a2.47,2.47,0,0,1,2.28,2.82C348.79,203.75,348.75,206.58,348.7,209.41Z" transform="translate(-27.93 -73.56)"/><path class="cls-38" d="M159.45,170.47c0,13.1,0,26.2,0,39.3,0,5.26-.57,5.69-5.64,4.35-21.09-5.61-42.43-5.72-63.9-2.93-6.28.82-7.21.11-7.22-6.38q0-38.92,0-77.85c0-4.74.92-5.61,5.58-6,11.93-1,23.83-2.52,35.85-2.09,10.93.4,21.44,3,31.88,6.09,3,.89,3.48,3.14,3.48,5.83Q159.43,150.64,159.45,170.47Z" transform="translate(-27.93 -73.56)"/><path class="cls-39" d="M241.65,167.08q0,19.83,0,39.66c0,5.1-.39,5.56-5.26,4.8a195.13,195.13,0,0,0-41.06-1.6,113.27,113.27,0,0,0-26,4.81c-3.2.94-4.3.23-4.29-3.14q.1-40.43,0-80.83c0-3.48,1.62-5.16,4.7-6.23,15-5.21,30.45-6.36,46.14-5.35,7.09.45,14.16,1.26,21.26,1.75,3.27.23,4.61,1.68,4.59,5C241.6,139.63,241.65,153.35,241.65,167.08Z" transform="translate(-27.93 -73.56)"/><path class="cls-23" d="M209.38,437.64a50.15,50.15,0,0,1,5.34,5.69c1.83,2.62,2.79,2.33,4.43-.18,4.25-6.52,7.39-13.28,6.25-21.35a16.5,16.5,0,0,1,0-3.37c.18-2.59-1.19-6,.68-7.56,2.44-2,4.15,2.11,6.61,2.58,1.21.23,2.36.82,3.58,1,2.47.43,4.1.08,3.62-3.23-.8-5.46,1.41-10.26,4-14.88,4.37-7.82,9.17-15.42,10.54-24.56.39-2.59,2.48-2.16,4.45-1.59,15,4.37,30.4,5.62,45.88,6.13a313.87,313.87,0,0,0,43-1.33,97,97,0,0,1,29.83,1.26c5.55,1.14,11.18.5,16.79.13,12.55-.83,25-2.06,37.07-6a31.81,31.81,0,0,0,11-6.17c5.2-4.44,6.47-8.85,4.41-15.36-1.86-5.93-6.28-9.42-12.74-9.83-10.51-.66-20.57,1.66-30.47,4.88-26.32,8.55-53.18,13.49-81,12.06-9-.47-17.82-1.73-26-6.1-8.7-4.66-10.63-12.26-10.07-21.18.51-8.24,4.55-14,12-17.46a32.78,32.78,0,0,1,13.44-2.92c11.12-.1,22.24,0,33.36,0a18.41,18.41,0,0,1,6.87,1.68c.71.29,1.9.26,1.67,1.57a2.63,2.63,0,0,1-1.58,1.95,7.82,7.82,0,0,1-3.67.54c-11.75,0-23.49-.13-35.24-.11-7,0-13.47,1.54-17.66,7.84-6.26,9.44-2.28,20.88,8.54,24.51a70.27,70.27,0,0,0,22.11,3.4c25.43.16,50.2-3.64,74.05-12.7,6.56-2.49,13.41-3.44,20.33-4.51,5.9-.92,11.54-1.47,17.3-.23,14.38,3.1,21.76,15.93,17,29.41-1.83,5.22-5.65,8.76-10,11.74-10.07,6.86-21.65,9.33-33.41,11.14-6.16.94-12.37,1.62-18.57,2.29-3,.32-4.34,1.2-3.11,4.5,3,8.06,3.71,16.49,3.73,25,0,13.34-.38,26.68,1.76,39.94,1.41,8.71,5.69,15.25,13.42,19.59,3.92,2.2,4.68,4.26,2.54,7.55-11.13,17.13-19,35.89-26.61,54.67-3.36,8.27-8.29,13.13-17.1,14.59A152.39,152.39,0,0,0,350.49,557c-2.8.81-3.76-.19-3.92-2.66-.23-3.45-1.42-5.54-5.4-4.34-1.65.5-1.75-.62-1.83-1.89-.16-2.62,1.07-5.76-3.39-6.57-1.45-.27-.55-2.89-.29-4.44.34-2.07,1.82-2.94,3.73-3,4.74-.2,9.49-.35,14.23-.41,11.65-.17,11.54,2,17.55-11.26,4.9-10.79,8.39-22.09,11.79-33.43.65-2.19-.25-3.44-1.58-4.93-10.72-12-22.45-23.12-31.75-36.34-5-7.13-10-14.32-14.69-21.66-3.27-5.09-8.12-8.38-12.58-12.16-1.2-1-1.94-.48-2.87.28s-1.58,1.43-.91,2.8c1.16,2.38,4.91,4.09,2.61,7.42-1.75,2.51-5.05,1.68-7.62,2.46q-26.29,8-52.63,15.82c-8,2.37-16.05,4.57-24.11,6.71-1.92.51-2.61,1.51-1.94,3.2,3.27,8.31,0,15.18-4.29,22.1-11.26,18.09-22.29,36.32-33.36,54.53-2.6,4.28-4,9.12-5.69,13.79a11.54,11.54,0,0,1-8.66,7.89c-9.18,2.32-18.27,5-27.67,6.42-4.43.65-5.06,0-3.94-4,.82-3-.6-4.09-3.29-3.7-3.12.44-4.64-.39-3.85-3.76.56-2.41-.09-4-2.85-4-1.8,0-1.91-1.06-1.78-2.49.33-3.84,2.57-5.91,7.28-5.78a144.89,144.89,0,0,0,22-1.22A5.49,5.49,0,0,0,173.6,529c5.72-11.49,8.44-23.92,11.62-36.2,1.24-4.82,2.38-9.69,3.26-14.58a17.34,17.34,0,0,1,4.61-8.72c5.58-6.33,11-12.82,13-21.39,1.06-2.19.35-4.55.68-6.81C207,439.63,206.92,437.7,209.38,437.64Z" transform="translate(-27.93 -73.56)"/><path class="cls-40" d="M178.49,395.19C176,395,174,394,173.21,391.4a7.23,7.23,0,0,1-.48-2.52c-.59-3.24.19-4.34,3.49-4.51,2.48-.13,4.91-.13,7-1.7a11.09,11.09,0,0,1,7.66-.28c2.41,1.24,4.81,2.54,7.69,2,.34-.07,1.19,0,.56-.75-.22-.27-.67-.28-1-.38-2.94-1.06-6.54-.81-8.24-4.26a18.4,18.4,0,0,1,0-8.22c1.38-2.53,4.09-3.18,6.38-4.32,2.88-1.41,4.08-3.41,3.48-6.61-.79-4.16-.39-8.46-1.37-12.62-.6-2.5.67-4.28,2.64-5.73,2.31-1.7,4.91-2.95,7.54-4.93-3.92-1.87-7.73-.63-11.37-.42-1.92.11-1.83,2.39-1.85,4,0,5.36,0,10.72,0,16.08-.05,5.6-1.31,6.82-6.82,7-3.56.08-7.14-.29-11,.3,2.34,3,6.27,3.8,7.8,7.18a22.22,22.22,0,0,1-.08,8.21c-1.61,2.9-4.6,3.43-7.41,4.25-1.15.34-2.47.08-3.49.95-1.57,1.51-2.62.93-3.37-.85-5.21-2.4-7.31-6.64-6.76-12.14.45-4.45-1-7.89-4-11.13-3.72-4-7-8.43-10.58-12.6-2-2.29-2.25-4.42-.53-7.08,3.85-5.92,3.71-6.46-1-11.46-2.38-2.54-2.31-5.45-.93-8.34s3.46-5.37,6.91-4.67c7.27,1.48,13.49-1.06,19.65-4.26,5.81-3,7.37-2.68,11.31,2.45,2.11,2.74,3.26,2.69,5.39-.24,3.27-4.51,5.11-5.06,10.06-2.59,6.54,3.26,13.1,5.87,20.74,4.66,3.91-.63,6.07,2.44,7.54,5.61,1.39,3,.33,5.54-1.95,7.74-4.31,4.17-4.54,5.54-1.05,10.54,2.06,2.95,2,5.25-.49,7.95-3.61,4-6.64,8.41-10.38,12.29a13.05,13.05,0,0,0-3.36,11.44c.73,4.85-.95,8.3-5.54,10.19-3,1.23-3.11,3.9-3.49,6.51-.86,5.94-1.57,6.67-6.67,7.1C190.05,396.63,184.27,396.13,178.49,395.19Z" transform="translate(-27.93 -73.56)"/><path class="cls-41" d="M314.16,476.11c-7.7-8.67-15.28-17.43-21.4-27.35-1.68-2.72-1.19-3.68,1.95-3.61,3.74.09,7.48.08,11.22.09,1.3,0,2.86.84,3.78-.63,1-1.63-.34-2.77-1.23-3.94l-1.74-2.27c5-2.38,10.12-2.68,15.31-3,6.22-.37,11.46.26,16.22,5.6,6,6.68,6.56,6.13,3,14.29a56.08,56.08,0,0,0-3.78,11.7,12.9,12.9,0,0,0,2.22,10.64c2.43,3.22,2.32,5.94-.61,8.89-3.36,3.37-5.64,7.58-7.77,11.82-5.3,10.57-10.63,21.12-15.87,31.72a12.38,12.38,0,0,1-8.56,7.1c-8,2-15.9,4.18-23.85,6.27-1.45.38-3.09.91-4.37,0-1.47-1,.11-2.36.17-3.57.13-2.55-1.54-3.16-3.58-3.31-2.86-.2-4.46-1.1-3.2-4.41.56-1.47.26-3.07-1.79-3.4s-2.81-1.28-2.58-3.32c.26-2.3,1-4.15,3.49-4.69,3.45-.74,7-.43,10.45-.55,3.87-.13,7.74,0,11.61-.16,4.38-.17,7.48-2.11,9.14-6.41,3.8-9.86,8.48-19.36,11.95-29.36C315.4,481.53,316.25,478.79,314.16,476.11Z" transform="translate(-27.93 -73.56)"/><path class="cls-41" d="M68.33,341.51c2-.42,3.76-.65,5.26-1.64,3.06-2,3.07-4,0-5.9a11,11,0,0,1-2.46-1.64,3.7,3.7,0,0,1-.54-4.2c.64-1.44,1.79-.76,2.9-.61,1.71.24,3.58.45,4.76-1.27s.33-3.27-1.07-4.56a2.18,2.18,0,0,1-.49-2.75c.68-1.28,1.68-.53,2.57-.13,1.34.61,2.37-.18,3.51-.68,4-1.75,5.63-1.09,7,3.12A193.79,193.79,0,0,1,96,342.38c2.34,11.09,7.89,20,17.76,26.08,5.82,3.55,9.78,8.84,13,14.69s6.18,11.66,9.23,17.5a17.64,17.64,0,0,1,2.22,10.42c-.36,3,1.2,3.79,3.81,3.44a14.82,14.82,0,0,0,7.08-3.18c2-1.53,2.82-.93,2.79,1.51-.07,4.24,0,8.49,0,12.73a9.49,9.49,0,0,0,.88,4.69c1.22,2.32.55,4.05-2.13,4.85-4.41,1.32-8.77,2.83-13.22,4-4.3,1.16-6.71.05-9.29-4.26q-15.06-25.17-30-50.4-6.5-10.92-13-21.86c-3.2-5.41-6.85-10.42-12.25-13.89C70.29,347,69.82,344.08,68.33,341.51Z" transform="translate(-27.93 -73.56)"/><path class="cls-42" d="M171,383.23c.78-.08,1.69,2.68,2.33-.11,3.53.08,7.08-2,10.59.09a7,7,0,0,1-6.41,2.23c-3.4-.59-4.89.59-4.28,4.1a10.49,10.49,0,0,1,0,1.86A11.77,11.77,0,0,1,171,383.23Z" transform="translate(-27.93 -73.56)"/><path class="cls-43" d="M209.38,437.64c-2.34,1.23-1.28,3.45-1.56,5.3s.86,4.1-1.72,5.13c-.88-3.29-.36-6.64-.35-10a2.21,2.21,0,0,1,1.78-2.49C209,435.4,209.49,436.3,209.38,437.64Z" transform="translate(-27.93 -73.56)"/><path class="cls-44" d="M178.49,395.19h17.34C190.05,398.43,184.27,397.13,178.49,395.19Z" transform="translate(-27.93 -73.56)"/><path class="cls-45" d="M314.16,476.11c3.24,2.92,3.26,4.1.18,8.16Z" transform="translate(-27.93 -73.56)"/><path class="cls-46" d="M119.6,131.33c9.29-.8,17.6,1.27,25.77,4.14,2.57.91,4,2.64,3,5.46s-3.51,3.25-5.88,2.29c-12.55-5.07-25.37-4.41-38.31-2.14a27,27,0,0,1-3,.25c-2.43.14-4.14-.64-4.52-3.33s.87-3.92,3.36-4.43A105.91,105.91,0,0,1,119.6,131.33Z" transform="translate(-27.93 -73.56)"/><path class="cls-47" d="M143.92,197.45c-3.35-1-6.87-2.26-10.5-3-9.42-2-18.85-1.19-28.25.38a28.17,28.17,0,0,1-4.84.42,3.35,3.35,0,0,1-3.65-3.43c-.19-2.17.66-3.6,2.81-4.18a73.93,73.93,0,0,1,12.19-1.89c11.53-1.16,22.91-.77,33.83,3.71,2.16.89,3.7,2.18,3,4.8C148,196.43,146.47,197.52,143.92,197.45Z" transform="translate(-27.93 -73.56)"/><path class="cls-48" d="M121.32,167.1a64.57,64.57,0,0,1,23.42,4c2.53,1,4.75,2.3,3.75,5.4s-3.75,3.36-6.19,2.42c-12.7-4.91-25.61-4.29-38.64-1.94a19.7,19.7,0,0,1-3,.14c-2.33,0-3.82-.9-4-3.42-.17-2.34.72-3.69,3.17-4.2A120.3,120.3,0,0,1,121.32,167.1Z" transform="translate(-27.93 -73.56)"/><path class="cls-49" d="M121.11,149.18c8.48-.39,16.57,1.53,24.5,4.31,2.5.88,3.68,2.57,2.8,5.21s-3,3.26-5.43,2.63c-3.12-.82-6.12-2.15-9.26-2.85-9.55-2.11-19.1-1.16-28.63.32a33.24,33.24,0,0,1-4.09.46c-2.19.06-3.93-.61-4.28-3.16s.7-4,3.22-4.57a101.65,101.65,0,0,1,17.81-2.11C118.87,149.39,120,149.26,121.11,149.18Z" transform="translate(-27.93 -73.56)"/><path class="cls-50" d="M203.69,131.37c6.54-.16,13.21.82,19.86,1.87,2.6.41,5,1.2,4.57,4.65s-2.9,3.64-5.57,3.38c-6.32-.6-12.55-2-19-2a54.56,54.56,0,0,0-18.7,3.08,20.93,20.93,0,0,1-4,1.05c-2.26.34-4-.54-4.6-2.82-.68-2.44.27-4.11,2.67-5C186.93,132.85,194.93,130.58,203.69,131.37Z" transform="translate(-27.93 -73.56)"/><path class="cls-51" d="M203.43,149.17A146.57,146.57,0,0,1,222,151c1.1.19,2.2.45,3.28.73,2.35.62,3.17,2.21,2.78,4.52a3.38,3.38,0,0,1-4,3c-5.09-.47-10.18-1-15.23-1.71-8.11-1.17-15.87.25-23.54,2.73a28.65,28.65,0,0,1-4.32,1.14c-2.49.41-4.08-.73-4.67-3.18s.41-3.82,2.65-4.62C186.88,150.81,194.93,148.76,203.43,149.17Z" transform="translate(-27.93 -73.56)"/><path class="cls-52" d="M222.48,177.16c-4.24-.5-8.95-.91-13.63-1.63-7.83-1.2-15.36,0-22.79,2.4a31.77,31.77,0,0,1-4.3,1.23c-2.37.39-4.64.11-5.45-2.62s.71-4.27,3.08-5.11c7.43-2.65,15-4.56,23-4.35a154.28,154.28,0,0,1,20.8,2c2,.32,4.07.62,4.86,2.88C229.11,175.09,227,177.22,222.48,177.16Z" transform="translate(-27.93 -73.56)"/><path class="cls-50" d="M203.49,185.28a109,109,0,0,1,18.51,1.6c1,.17,1.95.41,2.92.63,2.49.56,3.6,2.07,3.16,4.62s-2.11,3.33-4.35,3.1c-4.84-.49-9.65-1.21-14.48-1.68a56.43,56.43,0,0,0-26.46,3.34c-3.32,1.29-5.65.4-6.43-2.27-.94-3.21,1-4.54,3.63-5.44C187.69,186.5,195.49,184.45,203.49,185.28Z" transform="translate(-27.93 -73.56)"/><path class="cls-53" d="M183.89,383.21l-10.59-.09c3.74-1.24,7.94-1.12,11.17-3.82,1.86-3,1.63-5.93.08-8.92l-9.82-7.27c3.56-1.6,6.94-.74,10.22-.94,1.74-.1,3.5,0,5.25,0,2.73,0,4.16-1.16,4.13-4-.07-6.24,0-12.47,0-18.71,0-3.79.88-4.77,4.56-4.57,4,.21,8.16-.41,12.58.76-2.95,2.68-6.24,4.37-9.36,6.24-2.38,1.41-3.36,3-2.69,5.8,1.07,4.51.83,9.17,1.35,13.75.32,2.74-.44,4.44-3.17,5.48a65.51,65.51,0,0,0-7,3.6,8.07,8.07,0,0,0,0,8.86c2.31,2.06,5.29,2.4,8.11,3.15-2.21,3.3-5,1.19-7.53.74A13.45,13.45,0,0,0,183.89,383.21Z" transform="translate(-27.93 -73.56)"/><path class="cls-54" d="M164.46,335.66c4.45-1.14,8-1.7,11.52-.87a4.79,4.79,0,0,1,2.63,7.34c-.69.92-1.28.32-1.88,0C172.91,340.14,169.11,338.12,164.46,335.66Z" transform="translate(-27.93 -73.56)"/><path class="cls-55" d="M191.2,383.2c2.49-.4,5.14.76,7.53-.74,1.4,0,3.13.19,3,1.89s-2,.85-3.05,1A8.1,8.1,0,0,1,191.2,383.2Z" transform="translate(-27.93 -73.56)"/><path class="cls-56" d="M190.62,379.31c-3.3-3.12-3.3-5.73,0-8.86Q190.61,374.89,190.62,379.31Z" transform="translate(-27.93 -73.56)"/><path class="cls-57" d="M184.55,370.38c3.17,3.22,3.15,5.82-.08,8.92Z" transform="translate(-27.93 -73.56)"/></svg>